<?xml version="1.0" encoding="UTF-8" standalone="no"?>
<!DOCTYPE svg PUBLIC "-//W3C//DTD SVG 1.1//EN"
 "http://www.w3.org/Graphics/SVG/1.1/DTD/svg11.dtd">
<!-- Generated by graphviz version 2.40.1 (20161225.0304)
 -->
<!-- Title: dependencies Pages: 1 -->
<svg width="646pt" height="211pt"
 viewBox="0.00 0.00 646.00 211.00" xmlns="http://www.w3.org/2000/svg" xmlns:xlink="http://www.w3.org/1999/xlink">
<g id="graph0" class="graph" transform="scale(1 1) rotate(0) translate(4 207)">
<title>dependencies</title>
<polygon fill="#ffffff" stroke="transparent" points="-4,4 -4,-207 642,-207 642,4 -4,4"/>
<text text-anchor="start" x="298.0091" y="-42.4" font-family="sans-serif" font-weight="bold" font-size="14.00" fill="#000000">Legend</text>
<polygon fill="#ffffb3" stroke="transparent" points="85,-10 85,-30 105,-30 105,-10 85,-10"/>
<text text-anchor="start" x="108.629" y="-15.4" font-family="sans-serif" font-size="14.00" fill="#000000"> &#160;Declarations</text>
<polygon fill="#8dd3c7" stroke="transparent" points="198,-10 198,-30 218,-30 218,-10 198,-10"/>
<text text-anchor="start" x="221.7251" y="-15.4" font-family="sans-serif" font-size="14.00" fill="#000000"> &#160;Module</text>
<polygon fill="#80b1d3" stroke="transparent" points="284,-10 284,-30 304,-30 304,-10 284,-10"/>
<text text-anchor="start" x="307.7812" y="-15.4" font-family="sans-serif" font-size="14.00" fill="#000000"> &#160;Bootstrap</text>
<polygon fill="#fdb462" stroke="transparent" points="381,-10 381,-30 401,-30 401,-10 381,-10"/>
<text text-anchor="start" x="404.6732" y="-15.4" font-family="sans-serif" font-size="14.00" fill="#000000"> &#160;Providers</text>
<polygon fill="#fb8072" stroke="transparent" points="477,-10 477,-30 497,-30 497,-10 477,-10"/>
<text text-anchor="start" x="500.7258" y="-15.4" font-family="sans-serif" font-size="14.00" fill="#000000"> &#160;Exports</text>
<g id="clust1" class="cluster">
<title>cluster_ForgotModule</title>
<polygon fill="none" stroke="#000000" stroke-dasharray="1,5" points="8,-70 8,-195 630,-195 630,-70 8,-70"/>
</g>
<g id="clust2" class="cluster">
<title>cluster_ForgotModule_declarations</title>
<polygon fill="none" stroke="#000000" points="488,-78 488,-130 622,-130 622,-78 488,-78"/>
</g>
<g id="clust4" class="cluster">
<title>cluster_ForgotModule_imports</title>
<polygon fill="none" stroke="#000000" points="156,-78 156,-130 480,-130 480,-78 156,-78"/>
</g>
<g id="clust7" class="cluster">
<title>cluster_ForgotModule_providers</title>
<polygon fill="none" stroke="#000000" points="16,-78 16,-130 148,-130 148,-78 16,-78"/>
</g>
<!-- ForgotComponent -->
<g id="node1" class="node">
<title>ForgotComponent</title>
<polygon fill="#ffffb3" stroke="#000000" points="614.1667,-122 495.8333,-122 495.8333,-86 614.1667,-86 614.1667,-122"/>
<text text-anchor="middle" x="555" y="-99.8" font-family="Times,serif" font-size="14.00" fill="#000000">ForgotComponent</text>
</g>
<!-- ForgotModule -->
<g id="node2" class="node">
<title>ForgotModule</title>
<polygon fill="#8dd3c7" stroke="#000000" points="364.3837,-187 361.3837,-191 340.3837,-191 337.3837,-187 267.6163,-187 267.6163,-151 364.3837,-151 364.3837,-187"/>
<text text-anchor="middle" x="316" y="-164.8" font-family="Times,serif" font-size="14.00" fill="#000000">ForgotModule</text>
</g>
<!-- ForgotComponent&#45;&gt;ForgotModule -->
<g id="edge1" class="edge">
<title>ForgotComponent&#45;&gt;ForgotModule</title>
<path fill="none" stroke="#000000" d="M555,-122.1061C555,-141.3391 555,-169 555,-169 555,-169 374.6533,-169 374.6533,-169"/>
<polygon fill="#000000" stroke="#000000" points="374.6533,-165.5001 364.6533,-169 374.6533,-172.5001 374.6533,-165.5001"/>
</g>
<!-- AppTranslationModule -->
<g id="node3" class="node">
<title>AppTranslationModule</title>
<polygon fill="#8dd3c7" stroke="#000000" points="471.9158,-122 468.9158,-126 447.9158,-126 444.9158,-122 324.0842,-122 324.0842,-86 471.9158,-86 471.9158,-122"/>
<text text-anchor="middle" x="398" y="-99.8" font-family="Times,serif" font-size="14.00" fill="#000000">AppTranslationModule</text>
</g>
<!-- AppTranslationModule&#45;&gt;ForgotModule -->
<g id="edge2" class="edge">
<title>AppTranslationModule&#45;&gt;ForgotModule</title>
<path fill="none" stroke="#000000" d="M344.3671,-122.1061C344.3671,-122.1061 344.3671,-140.991 344.3671,-140.991"/>
<polygon fill="#000000" stroke="#000000" points="340.8672,-140.9909 344.3671,-150.991 347.8672,-140.991 340.8672,-140.9909"/>
</g>
<!-- ForgotRoutingModule -->
<g id="node4" class="node">
<title>ForgotRoutingModule</title>
<polygon fill="#8dd3c7" stroke="#000000" points="306.0014,-122 303.0014,-126 282.0014,-126 279.0014,-122 163.9986,-122 163.9986,-86 306.0014,-86 306.0014,-122"/>
<text text-anchor="middle" x="235" y="-99.8" font-family="Times,serif" font-size="14.00" fill="#000000">ForgotRoutingModule</text>
</g>
<!-- ForgotRoutingModule&#45;&gt;ForgotModule -->
<g id="edge3" class="edge">
<title>ForgotRoutingModule&#45;&gt;ForgotModule</title>
<path fill="none" stroke="#000000" d="M286.7795,-122.1061C286.7795,-122.1061 286.7795,-140.991 286.7795,-140.991"/>
<polygon fill="#000000" stroke="#000000" points="283.2795,-140.9909 286.7795,-150.991 290.2795,-140.991 283.2795,-140.9909"/>
</g>
<!-- UserService -->
<g id="node5" class="node">
<title>UserService</title>
<ellipse fill="#fdb462" stroke="#000000" cx="82" cy="-104" rx="58.4415" ry="18"/>
<text text-anchor="middle" x="82" y="-99.8" font-family="Times,serif" font-size="14.00" fill="#000000">UserService</text>
</g>
<!-- UserService&#45;&gt;ForgotModule -->
<g id="edge4" class="edge">
<title>UserService&#45;&gt;ForgotModule</title>
<path fill="none" stroke="#000000" d="M82,-122.1061C82,-141.3391 82,-169 82,-169 82,-169 257.515,-169 257.515,-169"/>
<polygon fill="#000000" stroke="#000000" points="257.5151,-172.5001 267.515,-169 257.515,-165.5001 257.5151,-172.5001"/>
</g>
</g>
</svg>
