<?xml version="1.0" encoding="UTF-8" standalone="no"?>
<!DOCTYPE svg PUBLIC "-//W3C//DTD SVG 1.1//EN"
 "http://www.w3.org/Graphics/SVG/1.1/DTD/svg11.dtd">
<!-- Generated by graphviz version 2.40.1 (20161225.0304)
 -->
<!-- Title: dependencies Pages: 1 -->
<svg width="680pt" height="284pt"
 viewBox="0.00 0.00 680.00 284.00" xmlns="http://www.w3.org/2000/svg" xmlns:xlink="http://www.w3.org/1999/xlink">
<g id="graph0" class="graph" transform="scale(1 1) rotate(0) translate(4 280)">
<title>dependencies</title>
<polygon fill="#ffffff" stroke="transparent" points="-4,4 -4,-280 676,-280 676,4 -4,4"/>
<text text-anchor="start" x="315.0091" y="-42.4" font-family="sans-serif" font-weight="bold" font-size="14.00" fill="#000000">Legend</text>
<polygon fill="#ffffb3" stroke="transparent" points="102,-10 102,-30 122,-30 122,-10 102,-10"/>
<text text-anchor="start" x="125.629" y="-15.4" font-family="sans-serif" font-size="14.00" fill="#000000"> &#160;Declarations</text>
<polygon fill="#8dd3c7" stroke="transparent" points="215,-10 215,-30 235,-30 235,-10 215,-10"/>
<text text-anchor="start" x="238.7251" y="-15.4" font-family="sans-serif" font-size="14.00" fill="#000000"> &#160;Module</text>
<polygon fill="#80b1d3" stroke="transparent" points="301,-10 301,-30 321,-30 321,-10 301,-10"/>
<text text-anchor="start" x="324.7812" y="-15.4" font-family="sans-serif" font-size="14.00" fill="#000000"> &#160;Bootstrap</text>
<polygon fill="#fdb462" stroke="transparent" points="398,-10 398,-30 418,-30 418,-10 398,-10"/>
<text text-anchor="start" x="421.6732" y="-15.4" font-family="sans-serif" font-size="14.00" fill="#000000"> &#160;Providers</text>
<polygon fill="#fb8072" stroke="transparent" points="494,-10 494,-30 514,-30 514,-10 494,-10"/>
<text text-anchor="start" x="517.7258" y="-15.4" font-family="sans-serif" font-size="14.00" fill="#000000"> &#160;Exports</text>
<g id="clust1" class="cluster">
<title>cluster_GkClnFormModule</title>
<polygon fill="none" stroke="#000000" stroke-dasharray="1,5" points="8,-70 8,-268 664,-268 664,-70 8,-70"/>
</g>
<g id="clust2" class="cluster">
<title>cluster_GkClnFormModule_declarations</title>
<polygon fill="none" stroke="#000000" points="556,-78 556,-130 656,-130 656,-78 556,-78"/>
</g>
<g id="clust4" class="cluster">
<title>cluster_GkClnFormModule_imports</title>
<polygon fill="none" stroke="#000000" points="16,-78 16,-130 548,-130 548,-78 16,-78"/>
</g>
<g id="clust5" class="cluster">
<title>cluster_GkClnFormModule_exports</title>
<polygon fill="none" stroke="#000000" points="312,-208 312,-260 416,-260 416,-208 312,-208"/>
</g>
<!-- GkClnForm -->
<g id="node1" class="node">
<title>GkClnForm</title>
<polygon fill="#ffffb3" stroke="#000000" points="647.6683,-122 564.3317,-122 564.3317,-86 647.6683,-86 647.6683,-122"/>
<text text-anchor="middle" x="606" y="-99.8" font-family="Times,serif" font-size="14.00" fill="#000000">GkClnForm</text>
</g>
<!-- GkClnFormModule -->
<g id="node2" class="node">
<title>GkClnFormModule</title>
<polygon fill="#8dd3c7" stroke="#000000" points="427.7176,-187 424.7176,-191 403.7176,-191 400.7176,-187 300.2824,-187 300.2824,-151 427.7176,-151 427.7176,-187"/>
<text text-anchor="middle" x="364" y="-164.8" font-family="Times,serif" font-size="14.00" fill="#000000">GkClnFormModule</text>
</g>
<!-- GkClnForm&#45;&gt;GkClnFormModule -->
<g id="edge1" class="edge">
<title>GkClnForm&#45;&gt;GkClnFormModule</title>
<path fill="none" stroke="#000000" d="M606,-122.2843C606,-143.3211 606,-175 606,-175 606,-175 437.8992,-175 437.8992,-175"/>
<polygon fill="#000000" stroke="#000000" points="437.8992,-171.5001 427.8992,-175 437.8992,-178.5001 437.8992,-171.5001"/>
</g>
<!-- GkClnForm  -->
<g id="node7" class="node">
<title>GkClnForm </title>
<polygon fill="#fb8072" stroke="#000000" points="407.6678,-252 320.3322,-252 320.3322,-216 407.6678,-216 407.6678,-252"/>
<text text-anchor="middle" x="364" y="-229.8" font-family="Times,serif" font-size="14.00" fill="#000000">GkClnForm </text>
</g>
<!-- GkClnFormModule&#45;&gt;GkClnForm  -->
<g id="edge6" class="edge">
<title>GkClnFormModule&#45;&gt;GkClnForm </title>
<path fill="none" stroke="#000000" stroke-dasharray="5,2" d="M364,-187.1061C364,-187.1061 364,-205.991 364,-205.991"/>
<polygon fill="#000000" stroke="#000000" points="360.5001,-205.9909 364,-215.991 367.5001,-205.991 360.5001,-205.9909"/>
</g>
<!-- NgaModule -->
<g id="node3" class="node">
<title>NgaModule</title>
<polygon fill="#8dd3c7" stroke="#000000" points="540.3711,-122 537.3711,-126 516.3711,-126 513.3711,-122 457.6289,-122 457.6289,-86 540.3711,-86 540.3711,-122"/>
<text text-anchor="middle" x="499" y="-99.8" font-family="Times,serif" font-size="14.00" fill="#000000">NgaModule</text>
</g>
<!-- NgaModule&#45;&gt;GkClnFormModule -->
<g id="edge2" class="edge">
<title>NgaModule&#45;&gt;GkClnFormModule</title>
<path fill="none" stroke="#000000" d="M499,-122.0225C499,-139.3734 499,-163 499,-163 499,-163 437.9419,-163 437.9419,-163"/>
<polygon fill="#000000" stroke="#000000" points="437.9419,-159.5001 427.9419,-163 437.9419,-166.5001 437.9419,-159.5001"/>
</g>
<!-- HIndividualNavModule -->
<g id="node4" class="node">
<title>HIndividualNavModule</title>
<polygon fill="#8dd3c7" stroke="#000000" points="439.0253,-122 436.0253,-126 415.0253,-126 412.0253,-122 288.9747,-122 288.9747,-86 439.0253,-86 439.0253,-122"/>
<text text-anchor="middle" x="364" y="-99.8" font-family="Times,serif" font-size="14.00" fill="#000000">HIndividualNavModule</text>
</g>
<!-- HIndividualNavModule&#45;&gt;GkClnFormModule -->
<g id="edge3" class="edge">
<title>HIndividualNavModule&#45;&gt;GkClnFormModule</title>
<path fill="none" stroke="#000000" d="M364,-122.1061C364,-122.1061 364,-140.991 364,-140.991"/>
<polygon fill="#000000" stroke="#000000" points="360.5001,-140.9909 364,-150.991 367.5001,-140.991 360.5001,-140.9909"/>
</g>
<!-- HAddressModule -->
<g id="node5" class="node">
<title>HAddressModule</title>
<polygon fill="#8dd3c7" stroke="#000000" points="270.5284,-122 267.5284,-126 246.5284,-126 243.5284,-122 155.4716,-122 155.4716,-86 270.5284,-86 270.5284,-122"/>
<text text-anchor="middle" x="213" y="-99.8" font-family="Times,serif" font-size="14.00" fill="#000000">HAddressModule</text>
</g>
<!-- HAddressModule&#45;&gt;GkClnFormModule -->
<g id="edge4" class="edge">
<title>HAddressModule&#45;&gt;GkClnFormModule</title>
<path fill="none" stroke="#000000" d="M213,-122.0225C213,-139.3734 213,-163 213,-163 213,-163 289.9624,-163 289.9624,-163"/>
<polygon fill="#000000" stroke="#000000" points="289.9624,-166.5001 299.9624,-163 289.9624,-159.5001 289.9624,-166.5001"/>
</g>
<!-- HContactModule -->
<g id="node6" class="node">
<title>HContactModule</title>
<polygon fill="#8dd3c7" stroke="#000000" points="137.7036,-122 134.7036,-126 113.7036,-126 110.7036,-122 24.2964,-122 24.2964,-86 137.7036,-86 137.7036,-122"/>
<text text-anchor="middle" x="81" y="-99.8" font-family="Times,serif" font-size="14.00" fill="#000000">HContactModule</text>
</g>
<!-- HContactModule&#45;&gt;GkClnFormModule -->
<g id="edge5" class="edge">
<title>HContactModule&#45;&gt;GkClnFormModule</title>
<path fill="none" stroke="#000000" d="M81,-122.2843C81,-143.3211 81,-175 81,-175 81,-175 290.1364,-175 290.1364,-175"/>
<polygon fill="#000000" stroke="#000000" points="290.1364,-178.5001 300.1364,-175 290.1364,-171.5001 290.1364,-178.5001"/>
</g>
</g>
</svg>
