<?xml version="1.0" encoding="UTF-8" standalone="no"?>
<!DOCTYPE svg PUBLIC "-//W3C//DTD SVG 1.1//EN"
 "http://www.w3.org/Graphics/SVG/1.1/DTD/svg11.dtd">
<!-- Generated by graphviz version 2.40.1 (20161225.0304)
 -->
<!-- Title: dependencies Pages: 1 -->
<svg width="894pt" height="211pt"
 viewBox="0.00 0.00 894.00 211.00" xmlns="http://www.w3.org/2000/svg" xmlns:xlink="http://www.w3.org/1999/xlink">
<g id="graph0" class="graph" transform="scale(1 1) rotate(0) translate(4 207)">
<title>dependencies</title>
<polygon fill="#ffffff" stroke="transparent" points="-4,4 -4,-207 890,-207 890,4 -4,4"/>
<text text-anchor="start" x="422.0091" y="-42.4" font-family="sans-serif" font-weight="bold" font-size="14.00" fill="#000000">Legend</text>
<polygon fill="#ffffb3" stroke="transparent" points="209,-10 209,-30 229,-30 229,-10 209,-10"/>
<text text-anchor="start" x="232.629" y="-15.4" font-family="sans-serif" font-size="14.00" fill="#000000"> &#160;Declarations</text>
<polygon fill="#8dd3c7" stroke="transparent" points="322,-10 322,-30 342,-30 342,-10 322,-10"/>
<text text-anchor="start" x="345.7251" y="-15.4" font-family="sans-serif" font-size="14.00" fill="#000000"> &#160;Module</text>
<polygon fill="#80b1d3" stroke="transparent" points="408,-10 408,-30 428,-30 428,-10 408,-10"/>
<text text-anchor="start" x="431.7812" y="-15.4" font-family="sans-serif" font-size="14.00" fill="#000000"> &#160;Bootstrap</text>
<polygon fill="#fdb462" stroke="transparent" points="505,-10 505,-30 525,-30 525,-10 505,-10"/>
<text text-anchor="start" x="528.6732" y="-15.4" font-family="sans-serif" font-size="14.00" fill="#000000"> &#160;Providers</text>
<polygon fill="#fb8072" stroke="transparent" points="601,-10 601,-30 621,-30 621,-10 601,-10"/>
<text text-anchor="start" x="624.7258" y="-15.4" font-family="sans-serif" font-size="14.00" fill="#000000"> &#160;Exports</text>
<g id="clust1" class="cluster">
<title>cluster_DraftModule</title>
<polygon fill="none" stroke="#000000" stroke-dasharray="1,5" points="8,-70 8,-195 878,-195 878,-70 8,-70"/>
</g>
<g id="clust2" class="cluster">
<title>cluster_DraftModule_declarations</title>
<polygon fill="none" stroke="#000000" points="744,-78 744,-130 870,-130 870,-78 744,-78"/>
</g>
<g id="clust4" class="cluster">
<title>cluster_DraftModule_imports</title>
<polygon fill="none" stroke="#000000" points="198,-78 198,-130 736,-130 736,-78 198,-78"/>
</g>
<g id="clust7" class="cluster">
<title>cluster_DraftModule_providers</title>
<polygon fill="none" stroke="#000000" points="16,-78 16,-130 190,-130 190,-78 16,-78"/>
</g>
<!-- DraftComponent -->
<g id="node1" class="node">
<title>DraftComponent</title>
<polygon fill="#ffffb3" stroke="#000000" points="862.3655,-122 751.6345,-122 751.6345,-86 862.3655,-86 862.3655,-122"/>
<text text-anchor="middle" x="807" y="-99.8" font-family="Times,serif" font-size="14.00" fill="#000000">DraftComponent</text>
</g>
<!-- DraftModule -->
<g id="node2" class="node">
<title>DraftModule</title>
<polygon fill="#8dd3c7" stroke="#000000" points="493.5828,-187 490.5828,-191 469.5828,-191 466.5828,-187 404.4172,-187 404.4172,-151 493.5828,-151 493.5828,-187"/>
<text text-anchor="middle" x="449" y="-164.8" font-family="Times,serif" font-size="14.00" fill="#000000">DraftModule</text>
</g>
<!-- DraftComponent&#45;&gt;DraftModule -->
<g id="edge1" class="edge">
<title>DraftComponent&#45;&gt;DraftModule</title>
<path fill="none" stroke="#000000" d="M807,-122.2843C807,-143.3211 807,-175 807,-175 807,-175 503.6171,-175 503.6171,-175"/>
<polygon fill="#000000" stroke="#000000" points="503.6171,-171.5001 493.6171,-175 503.6171,-178.5001 503.6171,-171.5001"/>
</g>
<!-- HDataTableByTrayModule -->
<g id="node3" class="node">
<title>HDataTableByTrayModule</title>
<polygon fill="#8dd3c7" stroke="#000000" points="728.2198,-122 725.2198,-126 704.2198,-126 701.2198,-122 557.7802,-122 557.7802,-86 728.2198,-86 728.2198,-122"/>
<text text-anchor="middle" x="643" y="-99.8" font-family="Times,serif" font-size="14.00" fill="#000000">HDataTableByTrayModule</text>
</g>
<!-- HDataTableByTrayModule&#45;&gt;DraftModule -->
<g id="edge2" class="edge">
<title>HDataTableByTrayModule&#45;&gt;DraftModule</title>
<path fill="none" stroke="#000000" d="M643,-122.0225C643,-139.3734 643,-163 643,-163 643,-163 503.9951,-163 503.9951,-163"/>
<polygon fill="#000000" stroke="#000000" points="503.9952,-159.5001 493.9951,-163 503.9951,-166.5001 503.9952,-159.5001"/>
</g>
<!-- HTurboTableForTrayModule -->
<g id="node4" class="node">
<title>HTurboTableForTrayModule</title>
<polygon fill="#8dd3c7" stroke="#000000" points="539.6134,-122 536.6134,-126 515.6134,-126 512.6134,-122 358.3866,-122 358.3866,-86 539.6134,-86 539.6134,-122"/>
<text text-anchor="middle" x="449" y="-99.8" font-family="Times,serif" font-size="14.00" fill="#000000">HTurboTableForTrayModule</text>
</g>
<!-- HTurboTableForTrayModule&#45;&gt;DraftModule -->
<g id="edge3" class="edge">
<title>HTurboTableForTrayModule&#45;&gt;DraftModule</title>
<path fill="none" stroke="#000000" d="M449,-122.1061C449,-122.1061 449,-140.991 449,-140.991"/>
<polygon fill="#000000" stroke="#000000" points="445.5001,-140.9909 449,-150.991 452.5001,-140.991 445.5001,-140.9909"/>
</g>
<!-- DraftRoutingModule -->
<g id="node5" class="node">
<title>DraftRoutingModule</title>
<polygon fill="#8dd3c7" stroke="#000000" points="340.2008,-122 337.2008,-126 316.2008,-126 313.2008,-122 205.7992,-122 205.7992,-86 340.2008,-86 340.2008,-122"/>
<text text-anchor="middle" x="273" y="-99.8" font-family="Times,serif" font-size="14.00" fill="#000000">DraftRoutingModule</text>
</g>
<!-- DraftRoutingModule&#45;&gt;DraftModule -->
<g id="edge4" class="edge">
<title>DraftRoutingModule&#45;&gt;DraftModule</title>
<path fill="none" stroke="#000000" d="M273,-122.0225C273,-139.3734 273,-163 273,-163 273,-163 394.1324,-163 394.1324,-163"/>
<polygon fill="#000000" stroke="#000000" points="394.1324,-166.5001 404.1324,-163 394.1323,-159.5001 394.1324,-166.5001"/>
</g>
<!-- RequestsServices -->
<g id="node6" class="node">
<title>RequestsServices</title>
<ellipse fill="#fdb462" stroke="#000000" cx="103" cy="-104" rx="78.726" ry="18"/>
<text text-anchor="middle" x="103" y="-99.8" font-family="Times,serif" font-size="14.00" fill="#000000">RequestsServices</text>
</g>
<!-- RequestsServices&#45;&gt;DraftModule -->
<g id="edge5" class="edge">
<title>RequestsServices&#45;&gt;DraftModule</title>
<path fill="none" stroke="#000000" d="M103,-122.2843C103,-143.3211 103,-175 103,-175 103,-175 394.1213,-175 394.1213,-175"/>
<polygon fill="#000000" stroke="#000000" points="394.1213,-178.5001 404.1213,-175 394.1212,-171.5001 394.1213,-178.5001"/>
</g>
</g>
</svg>
