<?xml version="1.0" encoding="UTF-8" standalone="no"?>
<!DOCTYPE svg PUBLIC "-//W3C//DTD SVG 1.1//EN"
 "http://www.w3.org/Graphics/SVG/1.1/DTD/svg11.dtd">
<!-- Generated by graphviz version 2.40.1 (20161225.0304)
 -->
<!-- Title: dependencies Pages: 1 -->
<svg width="694pt" height="211pt"
 viewBox="0.00 0.00 694.00 211.00" xmlns="http://www.w3.org/2000/svg" xmlns:xlink="http://www.w3.org/1999/xlink">
<g id="graph0" class="graph" transform="scale(1 1) rotate(0) translate(4 207)">
<title>dependencies</title>
<polygon fill="#ffffff" stroke="transparent" points="-4,4 -4,-207 690,-207 690,4 -4,4"/>
<text text-anchor="start" x="322.0091" y="-42.4" font-family="sans-serif" font-weight="bold" font-size="14.00" fill="#000000">Legend</text>
<polygon fill="#ffffb3" stroke="transparent" points="109,-10 109,-30 129,-30 129,-10 109,-10"/>
<text text-anchor="start" x="132.629" y="-15.4" font-family="sans-serif" font-size="14.00" fill="#000000"> &#160;Declarations</text>
<polygon fill="#8dd3c7" stroke="transparent" points="222,-10 222,-30 242,-30 242,-10 222,-10"/>
<text text-anchor="start" x="245.7251" y="-15.4" font-family="sans-serif" font-size="14.00" fill="#000000"> &#160;Module</text>
<polygon fill="#80b1d3" stroke="transparent" points="308,-10 308,-30 328,-30 328,-10 308,-10"/>
<text text-anchor="start" x="331.7812" y="-15.4" font-family="sans-serif" font-size="14.00" fill="#000000"> &#160;Bootstrap</text>
<polygon fill="#fdb462" stroke="transparent" points="405,-10 405,-30 425,-30 425,-10 405,-10"/>
<text text-anchor="start" x="428.6732" y="-15.4" font-family="sans-serif" font-size="14.00" fill="#000000"> &#160;Providers</text>
<polygon fill="#fb8072" stroke="transparent" points="501,-10 501,-30 521,-30 521,-10 501,-10"/>
<text text-anchor="start" x="524.7258" y="-15.4" font-family="sans-serif" font-size="14.00" fill="#000000"> &#160;Exports</text>
<g id="clust1" class="cluster">
<title>cluster_DraftModule</title>
<polygon fill="none" stroke="#000000" stroke-dasharray="1,5" points="8,-70 8,-195 678,-195 678,-70 8,-70"/>
</g>
<g id="clust2" class="cluster">
<title>cluster_DraftModule_declarations</title>
<polygon fill="none" stroke="#000000" points="544,-78 544,-130 670,-130 670,-78 544,-78"/>
</g>
<g id="clust4" class="cluster">
<title>cluster_DraftModule_imports</title>
<polygon fill="none" stroke="#000000" points="198,-78 198,-130 536,-130 536,-78 198,-78"/>
</g>
<g id="clust7" class="cluster">
<title>cluster_DraftModule_providers</title>
<polygon fill="none" stroke="#000000" points="16,-78 16,-130 190,-130 190,-78 16,-78"/>
</g>
<!-- DraftComponent -->
<g id="node1" class="node">
<title>DraftComponent</title>
<polygon fill="#ffffb3" stroke="#000000" points="662.3655,-122 551.6345,-122 551.6345,-86 662.3655,-86 662.3655,-122"/>
<text text-anchor="middle" x="607" y="-99.8" font-family="Times,serif" font-size="14.00" fill="#000000">DraftComponent</text>
</g>
<!-- DraftModule -->
<g id="node2" class="node">
<title>DraftModule</title>
<polygon fill="#8dd3c7" stroke="#000000" points="402.5828,-187 399.5828,-191 378.5828,-191 375.5828,-187 313.4172,-187 313.4172,-151 402.5828,-151 402.5828,-187"/>
<text text-anchor="middle" x="358" y="-164.8" font-family="Times,serif" font-size="14.00" fill="#000000">DraftModule</text>
</g>
<!-- DraftComponent&#45;&gt;DraftModule -->
<g id="edge1" class="edge">
<title>DraftComponent&#45;&gt;DraftModule</title>
<path fill="none" stroke="#000000" d="M607,-122.1061C607,-141.3391 607,-169 607,-169 607,-169 412.8038,-169 412.8038,-169"/>
<polygon fill="#000000" stroke="#000000" points="412.8038,-165.5001 402.8038,-169 412.8038,-172.5001 412.8038,-165.5001"/>
</g>
<!-- HDataTableByTrayModule -->
<g id="node3" class="node">
<title>HDataTableByTrayModule</title>
<polygon fill="#8dd3c7" stroke="#000000" points="528.2198,-122 525.2198,-126 504.2198,-126 501.2198,-122 357.7802,-122 357.7802,-86 528.2198,-86 528.2198,-122"/>
<text text-anchor="middle" x="443" y="-99.8" font-family="Times,serif" font-size="14.00" fill="#000000">HDataTableByTrayModule</text>
</g>
<!-- HDataTableByTrayModule&#45;&gt;DraftModule -->
<g id="edge2" class="edge">
<title>HDataTableByTrayModule&#45;&gt;DraftModule</title>
<path fill="none" stroke="#000000" d="M380.0908,-122.1061C380.0908,-122.1061 380.0908,-140.991 380.0908,-140.991"/>
<polygon fill="#000000" stroke="#000000" points="376.5909,-140.9909 380.0908,-150.991 383.5909,-140.991 376.5909,-140.9909"/>
</g>
<!-- DraftRoutingModule -->
<g id="node4" class="node">
<title>DraftRoutingModule</title>
<polygon fill="#8dd3c7" stroke="#000000" points="340.2008,-122 337.2008,-126 316.2008,-126 313.2008,-122 205.7992,-122 205.7992,-86 340.2008,-86 340.2008,-122"/>
<text text-anchor="middle" x="273" y="-99.8" font-family="Times,serif" font-size="14.00" fill="#000000">DraftRoutingModule</text>
</g>
<!-- DraftRoutingModule&#45;&gt;DraftModule -->
<g id="edge3" class="edge">
<title>DraftRoutingModule&#45;&gt;DraftModule</title>
<path fill="none" stroke="#000000" d="M326.7795,-122.1061C326.7795,-122.1061 326.7795,-140.991 326.7795,-140.991"/>
<polygon fill="#000000" stroke="#000000" points="323.2795,-140.9909 326.7795,-150.991 330.2795,-140.991 323.2795,-140.9909"/>
</g>
<!-- RequestsServices -->
<g id="node5" class="node">
<title>RequestsServices</title>
<ellipse fill="#fdb462" stroke="#000000" cx="103" cy="-104" rx="78.726" ry="18"/>
<text text-anchor="middle" x="103" y="-99.8" font-family="Times,serif" font-size="14.00" fill="#000000">RequestsServices</text>
</g>
<!-- RequestsServices&#45;&gt;DraftModule -->
<g id="edge4" class="edge">
<title>RequestsServices&#45;&gt;DraftModule</title>
<path fill="none" stroke="#000000" d="M103,-122.1061C103,-141.3391 103,-169 103,-169 103,-169 303.2906,-169 303.2906,-169"/>
<polygon fill="#000000" stroke="#000000" points="303.2906,-172.5001 313.2906,-169 303.2906,-165.5001 303.2906,-172.5001"/>
</g>
</g>
</svg>
