<?xml version="1.0" encoding="UTF-8" standalone="no"?>
<!DOCTYPE svg PUBLIC "-//W3C//DTD SVG 1.1//EN"
 "http://www.w3.org/Graphics/SVG/1.1/DTD/svg11.dtd">
<!-- Generated by graphviz version 2.40.1 (20161225.0304)
 -->
<!-- Title: dependencies Pages: 1 -->
<svg width="688pt" height="211pt"
 viewBox="0.00 0.00 688.00 211.00" xmlns="http://www.w3.org/2000/svg" xmlns:xlink="http://www.w3.org/1999/xlink">
<g id="graph0" class="graph" transform="scale(1 1) rotate(0) translate(4 207)">
<title>dependencies</title>
<polygon fill="#ffffff" stroke="transparent" points="-4,4 -4,-207 684,-207 684,4 -4,4"/>
<text text-anchor="start" x="319.0091" y="-42.4" font-family="sans-serif" font-weight="bold" font-size="14.00" fill="#000000">Legend</text>
<polygon fill="#ffffb3" stroke="transparent" points="106,-10 106,-30 126,-30 126,-10 106,-10"/>
<text text-anchor="start" x="129.629" y="-15.4" font-family="sans-serif" font-size="14.00" fill="#000000"> &#160;Declarations</text>
<polygon fill="#8dd3c7" stroke="transparent" points="219,-10 219,-30 239,-30 239,-10 219,-10"/>
<text text-anchor="start" x="242.7251" y="-15.4" font-family="sans-serif" font-size="14.00" fill="#000000"> &#160;Module</text>
<polygon fill="#80b1d3" stroke="transparent" points="305,-10 305,-30 325,-30 325,-10 305,-10"/>
<text text-anchor="start" x="328.7812" y="-15.4" font-family="sans-serif" font-size="14.00" fill="#000000"> &#160;Bootstrap</text>
<polygon fill="#fdb462" stroke="transparent" points="402,-10 402,-30 422,-30 422,-10 402,-10"/>
<text text-anchor="start" x="425.6732" y="-15.4" font-family="sans-serif" font-size="14.00" fill="#000000"> &#160;Providers</text>
<polygon fill="#fb8072" stroke="transparent" points="498,-10 498,-30 518,-30 518,-10 498,-10"/>
<text text-anchor="start" x="521.7258" y="-15.4" font-family="sans-serif" font-size="14.00" fill="#000000"> &#160;Exports</text>
<g id="clust1" class="cluster">
<title>cluster_GkCln52Module</title>
<polygon fill="none" stroke="#000000" stroke-dasharray="1,5" points="8,-70 8,-195 672,-195 672,-70 8,-70"/>
</g>
<g id="clust2" class="cluster">
<title>cluster_GkCln52Module_declarations</title>
<polygon fill="none" stroke="#000000" points="516,-78 516,-130 664,-130 664,-78 516,-78"/>
</g>
<g id="clust4" class="cluster">
<title>cluster_GkCln52Module_imports</title>
<polygon fill="none" stroke="#000000" points="16,-78 16,-130 508,-130 508,-78 16,-78"/>
</g>
<!-- GkCln52Component -->
<g id="node1" class="node">
<title>GkCln52Component</title>
<polygon fill="#ffffb3" stroke="#000000" points="656.1666,-122 523.8334,-122 523.8334,-86 656.1666,-86 656.1666,-122"/>
<text text-anchor="middle" x="590" y="-99.8" font-family="Times,serif" font-size="14.00" fill="#000000">GkCln52Component</text>
</g>
<!-- GkCln52Module -->
<g id="node2" class="node">
<title>GkCln52Module</title>
<polygon fill="#8dd3c7" stroke="#000000" points="397.3837,-187 394.3837,-191 373.3837,-191 370.3837,-187 286.6163,-187 286.6163,-151 397.3837,-151 397.3837,-187"/>
<text text-anchor="middle" x="342" y="-164.8" font-family="Times,serif" font-size="14.00" fill="#000000">GkCln52Module</text>
</g>
<!-- GkCln52Component&#45;&gt;GkCln52Module -->
<g id="edge1" class="edge">
<title>GkCln52Component&#45;&gt;GkCln52Module</title>
<path fill="none" stroke="#000000" d="M590,-122.1061C590,-141.3391 590,-169 590,-169 590,-169 407.656,-169 407.656,-169"/>
<polygon fill="#000000" stroke="#000000" points="407.6561,-165.5001 397.656,-169 407.656,-172.5001 407.6561,-165.5001"/>
</g>
<!-- HChartDoughnutModule -->
<g id="node3" class="node">
<title>HChartDoughnutModule</title>
<polygon fill="#8dd3c7" stroke="#000000" points="500.2562,-122 497.2562,-126 476.2562,-126 473.2562,-122 343.7438,-122 343.7438,-86 500.2562,-86 500.2562,-122"/>
<text text-anchor="middle" x="422" y="-99.8" font-family="Times,serif" font-size="14.00" fill="#000000">HChartDoughnutModule</text>
</g>
<!-- HChartDoughnutModule&#45;&gt;GkCln52Module -->
<g id="edge2" class="edge">
<title>HChartDoughnutModule&#45;&gt;GkCln52Module</title>
<path fill="none" stroke="#000000" d="M370.5319,-122.1061C370.5319,-122.1061 370.5319,-140.991 370.5319,-140.991"/>
<polygon fill="#000000" stroke="#000000" points="367.032,-140.9909 370.5319,-150.991 374.032,-140.991 367.032,-140.9909"/>
</g>
<!-- HNavBoardModule -->
<g id="node4" class="node">
<title>HNavBoardModule</title>
<polygon fill="#8dd3c7" stroke="#000000" points="325.6895,-122 322.6895,-126 301.6895,-126 298.6895,-122 198.3105,-122 198.3105,-86 325.6895,-86 325.6895,-122"/>
<text text-anchor="middle" x="262" y="-99.8" font-family="Times,serif" font-size="14.00" fill="#000000">HNavBoardModule</text>
</g>
<!-- HNavBoardModule&#45;&gt;GkCln52Module -->
<g id="edge3" class="edge">
<title>HNavBoardModule&#45;&gt;GkCln52Module</title>
<path fill="none" stroke="#000000" d="M306.0765,-122.1061C306.0765,-122.1061 306.0765,-140.991 306.0765,-140.991"/>
<polygon fill="#000000" stroke="#000000" points="302.5765,-140.9909 306.0765,-150.991 309.5765,-140.991 302.5765,-140.9909"/>
</g>
<!-- GkCln52RoutingModule -->
<g id="node5" class="node">
<title>GkCln52RoutingModule</title>
<polygon fill="#8dd3c7" stroke="#000000" points="180.0014,-122 177.0014,-126 156.0014,-126 153.0014,-122 23.9986,-122 23.9986,-86 180.0014,-86 180.0014,-122"/>
<text text-anchor="middle" x="102" y="-99.8" font-family="Times,serif" font-size="14.00" fill="#000000">GkCln52RoutingModule</text>
</g>
<!-- GkCln52RoutingModule&#45;&gt;GkCln52Module -->
<g id="edge4" class="edge">
<title>GkCln52RoutingModule&#45;&gt;GkCln52Module</title>
<path fill="none" stroke="#000000" d="M102,-122.1061C102,-141.3391 102,-169 102,-169 102,-169 276.3359,-169 276.3359,-169"/>
<polygon fill="#000000" stroke="#000000" points="276.336,-172.5001 286.3359,-169 276.3359,-165.5001 276.336,-172.5001"/>
</g>
</g>
</svg>
