<?xml version="1.0" encoding="UTF-8" standalone="no"?>
<!DOCTYPE svg PUBLIC "-//W3C//DTD SVG 1.1//EN"
 "http://www.w3.org/Graphics/SVG/1.1/DTD/svg11.dtd">
<!-- Generated by graphviz version 2.40.1 (20161225.0304)
 -->
<!-- Title: dependencies Pages: 1 -->
<svg width="738pt" height="211pt"
 viewBox="0.00 0.00 738.00 211.00" xmlns="http://www.w3.org/2000/svg" xmlns:xlink="http://www.w3.org/1999/xlink">
<g id="graph0" class="graph" transform="scale(1 1) rotate(0) translate(4 207)">
<title>dependencies</title>
<polygon fill="#ffffff" stroke="transparent" points="-4,4 -4,-207 734,-207 734,4 -4,4"/>
<text text-anchor="start" x="344.0091" y="-42.4" font-family="sans-serif" font-weight="bold" font-size="14.00" fill="#000000">Legend</text>
<polygon fill="#ffffb3" stroke="transparent" points="131,-10 131,-30 151,-30 151,-10 131,-10"/>
<text text-anchor="start" x="154.629" y="-15.4" font-family="sans-serif" font-size="14.00" fill="#000000"> &#160;Declarations</text>
<polygon fill="#8dd3c7" stroke="transparent" points="244,-10 244,-30 264,-30 264,-10 244,-10"/>
<text text-anchor="start" x="267.7251" y="-15.4" font-family="sans-serif" font-size="14.00" fill="#000000"> &#160;Module</text>
<polygon fill="#80b1d3" stroke="transparent" points="330,-10 330,-30 350,-30 350,-10 330,-10"/>
<text text-anchor="start" x="353.7812" y="-15.4" font-family="sans-serif" font-size="14.00" fill="#000000"> &#160;Bootstrap</text>
<polygon fill="#fdb462" stroke="transparent" points="427,-10 427,-30 447,-30 447,-10 427,-10"/>
<text text-anchor="start" x="450.6732" y="-15.4" font-family="sans-serif" font-size="14.00" fill="#000000"> &#160;Providers</text>
<polygon fill="#fb8072" stroke="transparent" points="523,-10 523,-30 543,-30 543,-10 523,-10"/>
<text text-anchor="start" x="546.7258" y="-15.4" font-family="sans-serif" font-size="14.00" fill="#000000"> &#160;Exports</text>
<g id="clust1" class="cluster">
<title>cluster_GkCln3xModule</title>
<polygon fill="none" stroke="#000000" stroke-dasharray="1,5" points="8,-70 8,-195 722,-195 722,-70 8,-70"/>
</g>
<g id="clust2" class="cluster">
<title>cluster_GkCln3xModule_declarations</title>
<polygon fill="none" stroke="#000000" points="566,-78 566,-130 714,-130 714,-78 566,-78"/>
</g>
<g id="clust4" class="cluster">
<title>cluster_GkCln3xModule_imports</title>
<polygon fill="none" stroke="#000000" points="198,-78 198,-130 558,-130 558,-78 198,-78"/>
</g>
<g id="clust7" class="cluster">
<title>cluster_GkCln3xModule_providers</title>
<polygon fill="none" stroke="#000000" points="16,-78 16,-130 190,-130 190,-78 16,-78"/>
</g>
<!-- GkCln3xComponent -->
<g id="node1" class="node">
<title>GkCln3xComponent</title>
<polygon fill="#ffffb3" stroke="#000000" points="706.1666,-122 573.8334,-122 573.8334,-86 706.1666,-86 706.1666,-122"/>
<text text-anchor="middle" x="640" y="-99.8" font-family="Times,serif" font-size="14.00" fill="#000000">GkCln3xComponent</text>
</g>
<!-- GkCln3xModule -->
<g id="node2" class="node">
<title>GkCln3xModule</title>
<polygon fill="#8dd3c7" stroke="#000000" points="429.3837,-187 426.3837,-191 405.3837,-191 402.3837,-187 318.6163,-187 318.6163,-151 429.3837,-151 429.3837,-187"/>
<text text-anchor="middle" x="374" y="-164.8" font-family="Times,serif" font-size="14.00" fill="#000000">GkCln3xModule</text>
</g>
<!-- GkCln3xComponent&#45;&gt;GkCln3xModule -->
<g id="edge1" class="edge">
<title>GkCln3xComponent&#45;&gt;GkCln3xModule</title>
<path fill="none" stroke="#000000" d="M640,-122.1061C640,-141.3391 640,-169 640,-169 640,-169 439.4385,-169 439.4385,-169"/>
<polygon fill="#000000" stroke="#000000" points="439.4386,-165.5001 429.4385,-169 439.4385,-172.5001 439.4386,-165.5001"/>
</g>
<!-- HDataTableByTrayModule -->
<g id="node3" class="node">
<title>HDataTableByTrayModule</title>
<polygon fill="#8dd3c7" stroke="#000000" points="550.2198,-122 547.2198,-126 526.2198,-126 523.2198,-122 379.7802,-122 379.7802,-86 550.2198,-86 550.2198,-122"/>
<text text-anchor="middle" x="465" y="-99.8" font-family="Times,serif" font-size="14.00" fill="#000000">HDataTableByTrayModule</text>
</g>
<!-- HDataTableByTrayModule&#45;&gt;GkCln3xModule -->
<g id="edge2" class="edge">
<title>HDataTableByTrayModule&#45;&gt;GkCln3xModule</title>
<path fill="none" stroke="#000000" d="M404.541,-122.1061C404.541,-122.1061 404.541,-140.991 404.541,-140.991"/>
<polygon fill="#000000" stroke="#000000" points="401.0411,-140.9909 404.541,-150.991 408.0411,-140.991 401.0411,-140.9909"/>
</g>
<!-- GkCln3xRoutingModule -->
<g id="node4" class="node">
<title>GkCln3xRoutingModule</title>
<polygon fill="#8dd3c7" stroke="#000000" points="362.0014,-122 359.0014,-126 338.0014,-126 335.0014,-122 205.9986,-122 205.9986,-86 362.0014,-86 362.0014,-122"/>
<text text-anchor="middle" x="284" y="-99.8" font-family="Times,serif" font-size="14.00" fill="#000000">GkCln3xRoutingModule</text>
</g>
<!-- GkCln3xRoutingModule&#45;&gt;GkCln3xModule -->
<g id="edge3" class="edge">
<title>GkCln3xRoutingModule&#45;&gt;GkCln3xModule</title>
<path fill="none" stroke="#000000" d="M340.2795,-122.1061C340.2795,-122.1061 340.2795,-140.991 340.2795,-140.991"/>
<polygon fill="#000000" stroke="#000000" points="336.7795,-140.9909 340.2795,-150.991 343.7795,-140.991 336.7795,-140.9909"/>
</g>
<!-- RequestsServices -->
<g id="node5" class="node">
<title>RequestsServices</title>
<ellipse fill="#fdb462" stroke="#000000" cx="103" cy="-104" rx="78.726" ry="18"/>
<text text-anchor="middle" x="103" y="-99.8" font-family="Times,serif" font-size="14.00" fill="#000000">RequestsServices</text>
</g>
<!-- RequestsServices&#45;&gt;GkCln3xModule -->
<g id="edge4" class="edge">
<title>RequestsServices&#45;&gt;GkCln3xModule</title>
<path fill="none" stroke="#000000" d="M103,-122.1061C103,-141.3391 103,-169 103,-169 103,-169 308.5052,-169 308.5052,-169"/>
<polygon fill="#000000" stroke="#000000" points="308.5052,-172.5001 318.5052,-169 308.5051,-165.5001 308.5052,-172.5001"/>
</g>
</g>
</svg>
