<?xml version="1.0" encoding="UTF-8" standalone="no"?>
<!DOCTYPE svg PUBLIC "-//W3C//DTD SVG 1.1//EN"
 "http://www.w3.org/Graphics/SVG/1.1/DTD/svg11.dtd">
<!-- Generated by graphviz version 2.40.1 (20161225.0304)
 -->
<!-- Title: dependencies Pages: 1 -->
<svg width="708pt" height="211pt"
 viewBox="0.00 0.00 708.00 211.00" xmlns="http://www.w3.org/2000/svg" xmlns:xlink="http://www.w3.org/1999/xlink">
<g id="graph0" class="graph" transform="scale(1 1) rotate(0) translate(4 207)">
<title>dependencies</title>
<polygon fill="#ffffff" stroke="transparent" points="-4,4 -4,-207 704,-207 704,4 -4,4"/>
<text text-anchor="start" x="329.0091" y="-42.4" font-family="sans-serif" font-weight="bold" font-size="14.00" fill="#000000">Legend</text>
<polygon fill="#ffffb3" stroke="transparent" points="116,-10 116,-30 136,-30 136,-10 116,-10"/>
<text text-anchor="start" x="139.629" y="-15.4" font-family="sans-serif" font-size="14.00" fill="#000000"> &#160;Declarations</text>
<polygon fill="#8dd3c7" stroke="transparent" points="229,-10 229,-30 249,-30 249,-10 229,-10"/>
<text text-anchor="start" x="252.7251" y="-15.4" font-family="sans-serif" font-size="14.00" fill="#000000"> &#160;Module</text>
<polygon fill="#80b1d3" stroke="transparent" points="315,-10 315,-30 335,-30 335,-10 315,-10"/>
<text text-anchor="start" x="338.7812" y="-15.4" font-family="sans-serif" font-size="14.00" fill="#000000"> &#160;Bootstrap</text>
<polygon fill="#fdb462" stroke="transparent" points="412,-10 412,-30 432,-30 432,-10 412,-10"/>
<text text-anchor="start" x="435.6732" y="-15.4" font-family="sans-serif" font-size="14.00" fill="#000000"> &#160;Providers</text>
<polygon fill="#fb8072" stroke="transparent" points="508,-10 508,-30 528,-30 528,-10 508,-10"/>
<text text-anchor="start" x="531.7258" y="-15.4" font-family="sans-serif" font-size="14.00" fill="#000000"> &#160;Exports</text>
<g id="clust1" class="cluster">
<title>cluster_NewsModule</title>
<polygon fill="none" stroke="#000000" stroke-dasharray="1,5" points="8,-70 8,-195 692,-195 692,-70 8,-70"/>
</g>
<g id="clust2" class="cluster">
<title>cluster_NewsModule_declarations</title>
<polygon fill="none" stroke="#000000" points="396,-78 396,-130 684,-130 684,-78 396,-78"/>
</g>
<g id="clust5" class="cluster">
<title>cluster_NewsModule_imports</title>
<polygon fill="none" stroke="#000000" points="16,-78 16,-130 388,-130 388,-78 16,-78"/>
</g>
<!-- NewsComponent -->
<g id="node1" class="node">
<title>NewsComponent</title>
<polygon fill="#ffffb3" stroke="#000000" points="675.705,-122 562.295,-122 562.295,-86 675.705,-86 675.705,-122"/>
<text text-anchor="middle" x="619" y="-99.8" font-family="Times,serif" font-size="14.00" fill="#000000">NewsComponent</text>
</g>
<!-- NewsModule -->
<g id="node3" class="node">
<title>NewsModule</title>
<polygon fill="#8dd3c7" stroke="#000000" points="384.9232,-187 381.9232,-191 360.9232,-191 357.9232,-187 293.0768,-187 293.0768,-151 384.9232,-151 384.9232,-187"/>
<text text-anchor="middle" x="339" y="-164.8" font-family="Times,serif" font-size="14.00" fill="#000000">NewsModule</text>
</g>
<!-- NewsComponent&#45;&gt;NewsModule -->
<g id="edge1" class="edge">
<title>NewsComponent&#45;&gt;NewsModule</title>
<path fill="none" stroke="#000000" d="M619,-122.2843C619,-143.3211 619,-175 619,-175 619,-175 394.9228,-175 394.9228,-175"/>
<polygon fill="#000000" stroke="#000000" points="394.9228,-171.5001 384.9228,-175 394.9227,-178.5001 394.9228,-171.5001"/>
</g>
<!-- NewsDeptComponent -->
<g id="node2" class="node">
<title>NewsDeptComponent</title>
<polygon fill="#ffffb3" stroke="#000000" points="544.4172,-122 403.5828,-122 403.5828,-86 544.4172,-86 544.4172,-122"/>
<text text-anchor="middle" x="474" y="-99.8" font-family="Times,serif" font-size="14.00" fill="#000000">NewsDeptComponent</text>
</g>
<!-- NewsDeptComponent&#45;&gt;NewsModule -->
<g id="edge2" class="edge">
<title>NewsDeptComponent&#45;&gt;NewsModule</title>
<path fill="none" stroke="#000000" d="M474,-122.0225C474,-139.3734 474,-163 474,-163 474,-163 395.0818,-163 395.0818,-163"/>
<polygon fill="#000000" stroke="#000000" points="395.0818,-159.5001 385.0818,-163 395.0817,-166.5001 395.0818,-159.5001"/>
</g>
<!-- NgaModule -->
<g id="node4" class="node">
<title>NgaModule</title>
<polygon fill="#8dd3c7" stroke="#000000" points="380.3711,-122 377.3711,-126 356.3711,-126 353.3711,-122 297.6289,-122 297.6289,-86 380.3711,-86 380.3711,-122"/>
<text text-anchor="middle" x="339" y="-99.8" font-family="Times,serif" font-size="14.00" fill="#000000">NgaModule</text>
</g>
<!-- NgaModule&#45;&gt;NewsModule -->
<g id="edge3" class="edge">
<title>NgaModule&#45;&gt;NewsModule</title>
<path fill="none" stroke="#000000" d="M339,-122.1061C339,-122.1061 339,-140.991 339,-140.991"/>
<polygon fill="#000000" stroke="#000000" points="335.5001,-140.9909 339,-150.991 342.5001,-140.991 335.5001,-140.9909"/>
</g>
<!-- HNewsModule -->
<g id="node5" class="node">
<title>HNewsModule</title>
<polygon fill="#8dd3c7" stroke="#000000" points="279.5299,-122 276.5299,-126 255.5299,-126 252.5299,-122 178.4701,-122 178.4701,-86 279.5299,-86 279.5299,-122"/>
<text text-anchor="middle" x="229" y="-99.8" font-family="Times,serif" font-size="14.00" fill="#000000">HNewsModule</text>
</g>
<!-- HNewsModule&#45;&gt;NewsModule -->
<g id="edge4" class="edge">
<title>HNewsModule&#45;&gt;NewsModule</title>
<path fill="none" stroke="#000000" d="M229,-122.0225C229,-139.3734 229,-163 229,-163 229,-163 282.9875,-163 282.9875,-163"/>
<polygon fill="#000000" stroke="#000000" points="282.9875,-166.5001 292.9875,-163 282.9874,-159.5001 282.9875,-166.5001"/>
</g>
<!-- NewsRoutingModule -->
<g id="node6" class="node">
<title>NewsRoutingModule</title>
<polygon fill="#8dd3c7" stroke="#000000" points="160.0408,-122 157.0408,-126 136.0408,-126 133.0408,-122 23.9592,-122 23.9592,-86 160.0408,-86 160.0408,-122"/>
<text text-anchor="middle" x="92" y="-99.8" font-family="Times,serif" font-size="14.00" fill="#000000">NewsRoutingModule</text>
</g>
<!-- NewsRoutingModule&#45;&gt;NewsModule -->
<g id="edge5" class="edge">
<title>NewsRoutingModule&#45;&gt;NewsModule</title>
<path fill="none" stroke="#000000" d="M92,-122.2843C92,-143.3211 92,-175 92,-175 92,-175 283.1201,-175 283.1201,-175"/>
<polygon fill="#000000" stroke="#000000" points="283.1201,-178.5001 293.1201,-175 283.12,-171.5001 283.1201,-178.5001"/>
</g>
</g>
</svg>
