<?xml version="1.0" encoding="UTF-8" standalone="no"?>
<!DOCTYPE svg PUBLIC "-//W3C//DTD SVG 1.1//EN"
 "http://www.w3.org/Graphics/SVG/1.1/DTD/svg11.dtd">
<!-- Generated by graphviz version 2.40.1 (20161225.0304)
 -->
<!-- Title: dependencies Pages: 1 -->
<svg width="561pt" height="211pt"
 viewBox="0.00 0.00 561.00 211.00" xmlns="http://www.w3.org/2000/svg" xmlns:xlink="http://www.w3.org/1999/xlink">
<g id="graph0" class="graph" transform="scale(1 1) rotate(0) translate(4 207)">
<title>dependencies</title>
<polygon fill="#ffffff" stroke="transparent" points="-4,4 -4,-207 557,-207 557,4 -4,4"/>
<text text-anchor="start" x="255.5091" y="-42.4" font-family="sans-serif" font-weight="bold" font-size="14.00" fill="#000000">Legend</text>
<polygon fill="#ffffb3" stroke="transparent" points="42.5,-10 42.5,-30 62.5,-30 62.5,-10 42.5,-10"/>
<text text-anchor="start" x="66.129" y="-15.4" font-family="sans-serif" font-size="14.00" fill="#000000"> &#160;Declarations</text>
<polygon fill="#8dd3c7" stroke="transparent" points="155.5,-10 155.5,-30 175.5,-30 175.5,-10 155.5,-10"/>
<text text-anchor="start" x="179.2251" y="-15.4" font-family="sans-serif" font-size="14.00" fill="#000000"> &#160;Module</text>
<polygon fill="#80b1d3" stroke="transparent" points="241.5,-10 241.5,-30 261.5,-30 261.5,-10 241.5,-10"/>
<text text-anchor="start" x="265.2812" y="-15.4" font-family="sans-serif" font-size="14.00" fill="#000000"> &#160;Bootstrap</text>
<polygon fill="#fdb462" stroke="transparent" points="338.5,-10 338.5,-30 358.5,-30 358.5,-10 338.5,-10"/>
<text text-anchor="start" x="362.1732" y="-15.4" font-family="sans-serif" font-size="14.00" fill="#000000"> &#160;Providers</text>
<polygon fill="#fb8072" stroke="transparent" points="434.5,-10 434.5,-30 454.5,-30 454.5,-10 434.5,-10"/>
<text text-anchor="start" x="458.2258" y="-15.4" font-family="sans-serif" font-size="14.00" fill="#000000"> &#160;Exports</text>
<g id="clust1" class="cluster">
<title>cluster_LockscreenModule</title>
<polygon fill="none" stroke="#000000" stroke-dasharray="1,5" points="8,-70 8,-195 545,-195 545,-70 8,-70"/>
</g>
<g id="clust2" class="cluster">
<title>cluster_LockscreenModule_declarations</title>
<polygon fill="none" stroke="#000000" points="375,-78 375,-130 537,-130 537,-78 375,-78"/>
</g>
<g id="clust4" class="cluster">
<title>cluster_LockscreenModule_imports</title>
<polygon fill="none" stroke="#000000" points="16,-78 16,-130 367,-130 367,-78 16,-78"/>
</g>
<!-- LockscreenComponent -->
<g id="node1" class="node">
<title>LockscreenComponent</title>
<polygon fill="#ffffb3" stroke="#000000" points="528.8487,-122 383.1513,-122 383.1513,-86 528.8487,-86 528.8487,-122"/>
<text text-anchor="middle" x="456" y="-99.8" font-family="Times,serif" font-size="14.00" fill="#000000">LockscreenComponent</text>
</g>
<!-- LockscreenModule -->
<g id="node2" class="node">
<title>LockscreenModule</title>
<polygon fill="#8dd3c7" stroke="#000000" points="347.066,-187 344.066,-191 323.066,-191 320.066,-187 222.934,-187 222.934,-151 347.066,-151 347.066,-187"/>
<text text-anchor="middle" x="285" y="-164.8" font-family="Times,serif" font-size="14.00" fill="#000000">LockscreenModule</text>
</g>
<!-- LockscreenComponent&#45;&gt;LockscreenModule -->
<g id="edge1" class="edge">
<title>LockscreenComponent&#45;&gt;LockscreenModule</title>
<path fill="none" stroke="#000000" d="M456,-122.1061C456,-141.3391 456,-169 456,-169 456,-169 357.2187,-169 357.2187,-169"/>
<polygon fill="#000000" stroke="#000000" points="357.2187,-165.5001 347.2187,-169 357.2186,-172.5001 357.2187,-165.5001"/>
</g>
<!-- AppTranslationModule -->
<g id="node3" class="node">
<title>AppTranslationModule</title>
<polygon fill="#8dd3c7" stroke="#000000" points="358.9158,-122 355.9158,-126 334.9158,-126 331.9158,-122 211.0842,-122 211.0842,-86 358.9158,-86 358.9158,-122"/>
<text text-anchor="middle" x="285" y="-99.8" font-family="Times,serif" font-size="14.00" fill="#000000">AppTranslationModule</text>
</g>
<!-- AppTranslationModule&#45;&gt;LockscreenModule -->
<g id="edge2" class="edge">
<title>AppTranslationModule&#45;&gt;LockscreenModule</title>
<path fill="none" stroke="#000000" d="M285,-122.1061C285,-122.1061 285,-140.991 285,-140.991"/>
<polygon fill="#000000" stroke="#000000" points="281.5001,-140.9909 285,-150.991 288.5001,-140.991 281.5001,-140.9909"/>
</g>
<!-- LockscreenRoutingModule -->
<g id="node4" class="node">
<title>LockscreenRoutingModule</title>
<polygon fill="#8dd3c7" stroke="#000000" points="193.6839,-122 190.6839,-126 169.6839,-126 166.6839,-122 24.3161,-122 24.3161,-86 193.6839,-86 193.6839,-122"/>
<text text-anchor="middle" x="109" y="-99.8" font-family="Times,serif" font-size="14.00" fill="#000000">LockscreenRoutingModule</text>
</g>
<!-- LockscreenRoutingModule&#45;&gt;LockscreenModule -->
<g id="edge3" class="edge">
<title>LockscreenRoutingModule&#45;&gt;LockscreenModule</title>
<path fill="none" stroke="#000000" d="M109,-122.1061C109,-141.3391 109,-169 109,-169 109,-169 212.949,-169 212.949,-169"/>
<polygon fill="#000000" stroke="#000000" points="212.949,-172.5001 222.949,-169 212.9489,-165.5001 212.949,-172.5001"/>
</g>
</g>
</svg>
