<?xml version="1.0" encoding="UTF-8" standalone="no"?>
<!DOCTYPE svg PUBLIC "-//W3C//DTD SVG 1.1//EN"
 "http://www.w3.org/Graphics/SVG/1.1/DTD/svg11.dtd">
<!-- Generated by graphviz version 2.40.1 (20161225.0304)
 -->
<!-- Title: dependencies Pages: 1 -->
<svg width="504pt" height="284pt"
 viewBox="0.00 0.00 504.00 284.00" xmlns="http://www.w3.org/2000/svg" xmlns:xlink="http://www.w3.org/1999/xlink">
<g id="graph0" class="graph" transform="scale(1 1) rotate(0) translate(4 280)">
<title>dependencies</title>
<polygon fill="#ffffff" stroke="transparent" points="-4,4 -4,-280 500,-280 500,4 -4,4"/>
<text text-anchor="start" x="227.0091" y="-42.4" font-family="sans-serif" font-weight="bold" font-size="14.00" fill="#000000">Legend</text>
<polygon fill="#ffffb3" stroke="transparent" points="14,-10 14,-30 34,-30 34,-10 14,-10"/>
<text text-anchor="start" x="37.629" y="-15.4" font-family="sans-serif" font-size="14.00" fill="#000000"> &#160;Declarations</text>
<polygon fill="#8dd3c7" stroke="transparent" points="127,-10 127,-30 147,-30 147,-10 127,-10"/>
<text text-anchor="start" x="150.7251" y="-15.4" font-family="sans-serif" font-size="14.00" fill="#000000"> &#160;Module</text>
<polygon fill="#80b1d3" stroke="transparent" points="213,-10 213,-30 233,-30 233,-10 213,-10"/>
<text text-anchor="start" x="236.7812" y="-15.4" font-family="sans-serif" font-size="14.00" fill="#000000"> &#160;Bootstrap</text>
<polygon fill="#fdb462" stroke="transparent" points="310,-10 310,-30 330,-30 330,-10 310,-10"/>
<text text-anchor="start" x="333.6732" y="-15.4" font-family="sans-serif" font-size="14.00" fill="#000000"> &#160;Providers</text>
<polygon fill="#fb8072" stroke="transparent" points="406,-10 406,-30 426,-30 426,-10 406,-10"/>
<text text-anchor="start" x="429.7258" y="-15.4" font-family="sans-serif" font-size="14.00" fill="#000000"> &#160;Exports</text>
<g id="clust1" class="cluster">
<title>cluster_HRequestHeaderModule</title>
<polygon fill="none" stroke="#000000" stroke-dasharray="1,5" points="40,-70 40,-268 456,-268 456,-70 40,-70"/>
</g>
<g id="clust2" class="cluster">
<title>cluster_HRequestHeaderModule_declarations</title>
<polygon fill="none" stroke="#000000" points="320,-78 320,-130 448,-130 448,-78 320,-78"/>
</g>
<g id="clust4" class="cluster">
<title>cluster_HRequestHeaderModule_imports</title>
<polygon fill="none" stroke="#000000" points="48,-78 48,-130 312,-130 312,-78 48,-78"/>
</g>
<g id="clust5" class="cluster">
<title>cluster_HRequestHeaderModule_exports</title>
<polygon fill="none" stroke="#000000" points="164,-208 164,-260 296,-260 296,-208 164,-208"/>
</g>
<!-- HRequestHeader -->
<g id="node1" class="node">
<title>HRequestHeader</title>
<polygon fill="#ffffb3" stroke="#000000" points="439.6192,-122 328.3808,-122 328.3808,-86 439.6192,-86 439.6192,-122"/>
<text text-anchor="middle" x="384" y="-99.8" font-family="Times,serif" font-size="14.00" fill="#000000">HRequestHeader</text>
</g>
<!-- HRequestHeaderModule -->
<g id="node2" class="node">
<title>HRequestHeaderModule</title>
<polygon fill="#8dd3c7" stroke="#000000" points="307.6685,-187 304.6685,-191 283.6685,-191 280.6685,-187 152.3315,-187 152.3315,-151 307.6685,-151 307.6685,-187"/>
<text text-anchor="middle" x="230" y="-164.8" font-family="Times,serif" font-size="14.00" fill="#000000">HRequestHeaderModule</text>
</g>
<!-- HRequestHeader&#45;&gt;HRequestHeaderModule -->
<g id="edge1" class="edge">
<title>HRequestHeader&#45;&gt;HRequestHeaderModule</title>
<path fill="none" stroke="#000000" d="M384,-122.1061C384,-141.3391 384,-169 384,-169 384,-169 317.9023,-169 317.9023,-169"/>
<polygon fill="#000000" stroke="#000000" points="317.9024,-165.5001 307.9023,-169 317.9023,-172.5001 317.9024,-165.5001"/>
</g>
<!-- HRequestHeader  -->
<g id="node5" class="node">
<title>HRequestHeader </title>
<polygon fill="#fb8072" stroke="#000000" points="287.6187,-252 172.3813,-252 172.3813,-216 287.6187,-216 287.6187,-252"/>
<text text-anchor="middle" x="230" y="-229.8" font-family="Times,serif" font-size="14.00" fill="#000000">HRequestHeader </text>
</g>
<!-- HRequestHeaderModule&#45;&gt;HRequestHeader  -->
<g id="edge4" class="edge">
<title>HRequestHeaderModule&#45;&gt;HRequestHeader </title>
<path fill="none" stroke="#000000" stroke-dasharray="5,2" d="M230,-187.1061C230,-187.1061 230,-205.991 230,-205.991"/>
<polygon fill="#000000" stroke="#000000" points="226.5001,-205.9909 230,-215.991 233.5001,-205.991 226.5001,-205.9909"/>
</g>
<!-- AppTranslationModule -->
<g id="node3" class="node">
<title>AppTranslationModule</title>
<polygon fill="#8dd3c7" stroke="#000000" points="303.9158,-122 300.9158,-126 279.9158,-126 276.9158,-122 156.0842,-122 156.0842,-86 303.9158,-86 303.9158,-122"/>
<text text-anchor="middle" x="230" y="-99.8" font-family="Times,serif" font-size="14.00" fill="#000000">AppTranslationModule</text>
</g>
<!-- AppTranslationModule&#45;&gt;HRequestHeaderModule -->
<g id="edge2" class="edge">
<title>AppTranslationModule&#45;&gt;HRequestHeaderModule</title>
<path fill="none" stroke="#000000" d="M230,-122.1061C230,-122.1061 230,-140.991 230,-140.991"/>
<polygon fill="#000000" stroke="#000000" points="226.5001,-140.9909 230,-150.991 233.5001,-140.991 226.5001,-140.9909"/>
</g>
<!-- NgaModule -->
<g id="node4" class="node">
<title>NgaModule</title>
<polygon fill="#8dd3c7" stroke="#000000" points="138.3711,-122 135.3711,-126 114.3711,-126 111.3711,-122 55.6289,-122 55.6289,-86 138.3711,-86 138.3711,-122"/>
<text text-anchor="middle" x="97" y="-99.8" font-family="Times,serif" font-size="14.00" fill="#000000">NgaModule</text>
</g>
<!-- NgaModule&#45;&gt;HRequestHeaderModule -->
<g id="edge3" class="edge">
<title>NgaModule&#45;&gt;HRequestHeaderModule</title>
<path fill="none" stroke="#000000" d="M97,-122.1061C97,-141.3391 97,-169 97,-169 97,-169 142.2485,-169 142.2485,-169"/>
<polygon fill="#000000" stroke="#000000" points="142.2486,-172.5001 152.2485,-169 142.2485,-165.5001 142.2486,-172.5001"/>
</g>
</g>
</svg>
