<?xml version="1.0" encoding="UTF-8" standalone="no"?>
<!DOCTYPE svg PUBLIC "-//W3C//DTD SVG 1.1//EN"
 "http://www.w3.org/Graphics/SVG/1.1/DTD/svg11.dtd">
<!-- Generated by graphviz version 2.40.1 (20161225.0304)
 -->
<!-- Title: dependencies Pages: 1 -->
<svg width="608pt" height="211pt"
 viewBox="0.00 0.00 608.00 211.00" xmlns="http://www.w3.org/2000/svg" xmlns:xlink="http://www.w3.org/1999/xlink">
<g id="graph0" class="graph" transform="scale(1 1) rotate(0) translate(4 207)">
<title>dependencies</title>
<polygon fill="#ffffff" stroke="transparent" points="-4,4 -4,-207 604,-207 604,4 -4,4"/>
<text text-anchor="start" x="279.0091" y="-42.4" font-family="sans-serif" font-weight="bold" font-size="14.00" fill="#000000">Legend</text>
<polygon fill="#ffffb3" stroke="transparent" points="66,-10 66,-30 86,-30 86,-10 66,-10"/>
<text text-anchor="start" x="89.629" y="-15.4" font-family="sans-serif" font-size="14.00" fill="#000000"> &#160;Declarations</text>
<polygon fill="#8dd3c7" stroke="transparent" points="179,-10 179,-30 199,-30 199,-10 179,-10"/>
<text text-anchor="start" x="202.7251" y="-15.4" font-family="sans-serif" font-size="14.00" fill="#000000"> &#160;Module</text>
<polygon fill="#80b1d3" stroke="transparent" points="265,-10 265,-30 285,-30 285,-10 265,-10"/>
<text text-anchor="start" x="288.7812" y="-15.4" font-family="sans-serif" font-size="14.00" fill="#000000"> &#160;Bootstrap</text>
<polygon fill="#fdb462" stroke="transparent" points="362,-10 362,-30 382,-30 382,-10 362,-10"/>
<text text-anchor="start" x="385.6732" y="-15.4" font-family="sans-serif" font-size="14.00" fill="#000000"> &#160;Providers</text>
<polygon fill="#fb8072" stroke="transparent" points="458,-10 458,-30 478,-30 478,-10 458,-10"/>
<text text-anchor="start" x="481.7258" y="-15.4" font-family="sans-serif" font-size="14.00" fill="#000000"> &#160;Exports</text>
<g id="clust1" class="cluster">
<title>cluster_ProfileModule</title>
<polygon fill="none" stroke="#000000" stroke-dasharray="1,5" points="8,-70 8,-195 592,-195 592,-70 8,-70"/>
</g>
<g id="clust2" class="cluster">
<title>cluster_ProfileModule_declarations</title>
<polygon fill="none" stroke="#000000" points="448,-78 448,-130 584,-130 584,-78 448,-78"/>
</g>
<g id="clust4" class="cluster">
<title>cluster_ProfileModule_imports</title>
<polygon fill="none" stroke="#000000" points="16,-78 16,-130 440,-130 440,-78 16,-78"/>
</g>
<!-- ProfileComponent -->
<g id="node1" class="node">
<title>ProfileComponent</title>
<polygon fill="#ffffb3" stroke="#000000" points="575.9328,-122 456.0672,-122 456.0672,-86 575.9328,-86 575.9328,-122"/>
<text text-anchor="middle" x="516" y="-99.8" font-family="Times,serif" font-size="14.00" fill="#000000">ProfileComponent</text>
</g>
<!-- ProfileModule -->
<g id="node2" class="node">
<title>ProfileModule</title>
<polygon fill="#8dd3c7" stroke="#000000" points="372.65,-187 369.65,-191 348.65,-191 345.65,-187 275.35,-187 275.35,-151 372.65,-151 372.65,-187"/>
<text text-anchor="middle" x="324" y="-164.8" font-family="Times,serif" font-size="14.00" fill="#000000">ProfileModule</text>
</g>
<!-- ProfileComponent&#45;&gt;ProfileModule -->
<g id="edge1" class="edge">
<title>ProfileComponent&#45;&gt;ProfileModule</title>
<path fill="none" stroke="#000000" d="M516,-122.1061C516,-141.3391 516,-169 516,-169 516,-169 382.9465,-169 382.9465,-169"/>
<polygon fill="#000000" stroke="#000000" points="382.9465,-165.5001 372.9465,-169 382.9465,-172.5001 382.9465,-165.5001"/>
</g>
<!-- NgaModule -->
<g id="node3" class="node">
<title>NgaModule</title>
<polygon fill="#8dd3c7" stroke="#000000" points="432.3711,-122 429.3711,-126 408.3711,-126 405.3711,-122 349.6289,-122 349.6289,-86 432.3711,-86 432.3711,-122"/>
<text text-anchor="middle" x="391" y="-99.8" font-family="Times,serif" font-size="14.00" fill="#000000">NgaModule</text>
</g>
<!-- NgaModule&#45;&gt;ProfileModule -->
<g id="edge2" class="edge">
<title>NgaModule&#45;&gt;ProfileModule</title>
<path fill="none" stroke="#000000" d="M361.1946,-122.1061C361.1946,-122.1061 361.1946,-140.991 361.1946,-140.991"/>
<polygon fill="#000000" stroke="#000000" points="357.6947,-140.9909 361.1946,-150.991 364.6947,-140.991 357.6947,-140.9909"/>
</g>
<!-- AppTranslationModule -->
<g id="node4" class="node">
<title>AppTranslationModule</title>
<polygon fill="#8dd3c7" stroke="#000000" points="331.9158,-122 328.9158,-126 307.9158,-126 304.9158,-122 184.0842,-122 184.0842,-86 331.9158,-86 331.9158,-122"/>
<text text-anchor="middle" x="258" y="-99.8" font-family="Times,serif" font-size="14.00" fill="#000000">AppTranslationModule</text>
</g>
<!-- AppTranslationModule&#45;&gt;ProfileModule -->
<g id="edge3" class="edge">
<title>AppTranslationModule&#45;&gt;ProfileModule</title>
<path fill="none" stroke="#000000" d="M303.4415,-122.1061C303.4415,-122.1061 303.4415,-140.991 303.4415,-140.991"/>
<polygon fill="#000000" stroke="#000000" points="299.9415,-140.9909 303.4415,-150.991 306.9415,-140.991 299.9415,-140.9909"/>
</g>
<!-- ProfileRoutingModule -->
<g id="node5" class="node">
<title>ProfileRoutingModule</title>
<polygon fill="#8dd3c7" stroke="#000000" points="166.2674,-122 163.2674,-126 142.2674,-126 139.2674,-122 23.7326,-122 23.7326,-86 166.2674,-86 166.2674,-122"/>
<text text-anchor="middle" x="95" y="-99.8" font-family="Times,serif" font-size="14.00" fill="#000000">ProfileRoutingModule</text>
</g>
<!-- ProfileRoutingModule&#45;&gt;ProfileModule -->
<g id="edge4" class="edge">
<title>ProfileRoutingModule&#45;&gt;ProfileModule</title>
<path fill="none" stroke="#000000" d="M95,-122.1061C95,-141.3391 95,-169 95,-169 95,-169 265.1546,-169 265.1546,-169"/>
<polygon fill="#000000" stroke="#000000" points="265.1547,-172.5001 275.1546,-169 265.1546,-165.5001 265.1547,-172.5001"/>
</g>
</g>
</svg>
