<?xml version="1.0" encoding="UTF-8" standalone="no"?>
<!DOCTYPE svg PUBLIC "-//W3C//DTD SVG 1.1//EN"
 "http://www.w3.org/Graphics/SVG/1.1/DTD/svg11.dtd">
<!-- Generated by graphviz version 2.40.1 (20161225.0304)
 -->
<!-- Title: dependencies Pages: 1 -->
<svg width="704pt" height="211pt"
 viewBox="0.00 0.00 704.00 211.00" xmlns="http://www.w3.org/2000/svg" xmlns:xlink="http://www.w3.org/1999/xlink">
<g id="graph0" class="graph" transform="scale(1 1) rotate(0) translate(4 207)">
<title>dependencies</title>
<polygon fill="#ffffff" stroke="transparent" points="-4,4 -4,-207 700,-207 700,4 -4,4"/>
<text text-anchor="start" x="327.0091" y="-42.4" font-family="sans-serif" font-weight="bold" font-size="14.00" fill="#000000">Legend</text>
<polygon fill="#ffffb3" stroke="transparent" points="114,-10 114,-30 134,-30 134,-10 114,-10"/>
<text text-anchor="start" x="137.629" y="-15.4" font-family="sans-serif" font-size="14.00" fill="#000000"> &#160;Declarations</text>
<polygon fill="#8dd3c7" stroke="transparent" points="227,-10 227,-30 247,-30 247,-10 227,-10"/>
<text text-anchor="start" x="250.7251" y="-15.4" font-family="sans-serif" font-size="14.00" fill="#000000"> &#160;Module</text>
<polygon fill="#80b1d3" stroke="transparent" points="313,-10 313,-30 333,-30 333,-10 313,-10"/>
<text text-anchor="start" x="336.7812" y="-15.4" font-family="sans-serif" font-size="14.00" fill="#000000"> &#160;Bootstrap</text>
<polygon fill="#fdb462" stroke="transparent" points="410,-10 410,-30 430,-30 430,-10 410,-10"/>
<text text-anchor="start" x="433.6732" y="-15.4" font-family="sans-serif" font-size="14.00" fill="#000000"> &#160;Providers</text>
<polygon fill="#fb8072" stroke="transparent" points="506,-10 506,-30 526,-30 526,-10 506,-10"/>
<text text-anchor="start" x="529.7258" y="-15.4" font-family="sans-serif" font-size="14.00" fill="#000000"> &#160;Exports</text>
<g id="clust1" class="cluster">
<title>cluster_GkCln1xModule</title>
<polygon fill="none" stroke="#000000" stroke-dasharray="1,5" points="8,-70 8,-195 688,-195 688,-70 8,-70"/>
</g>
<g id="clust2" class="cluster">
<title>cluster_GkCln1xModule_declarations</title>
<polygon fill="none" stroke="#000000" points="532,-78 532,-130 680,-130 680,-78 532,-78"/>
</g>
<g id="clust4" class="cluster">
<title>cluster_GkCln1xModule_imports</title>
<polygon fill="none" stroke="#000000" points="206,-78 206,-130 524,-130 524,-78 206,-78"/>
</g>
<g id="clust7" class="cluster">
<title>cluster_GkCln1xModule_providers</title>
<polygon fill="none" stroke="#000000" points="16,-78 16,-130 198,-130 198,-78 16,-78"/>
</g>
<!-- GkCln1xComponent -->
<g id="node1" class="node">
<title>GkCln1xComponent</title>
<polygon fill="#ffffb3" stroke="#000000" points="672.1666,-122 539.8334,-122 539.8334,-86 672.1666,-86 672.1666,-122"/>
<text text-anchor="middle" x="606" y="-99.8" font-family="Times,serif" font-size="14.00" fill="#000000">GkCln1xComponent</text>
</g>
<!-- GkCln1xModule -->
<g id="node2" class="node">
<title>GkCln1xModule</title>
<polygon fill="#8dd3c7" stroke="#000000" points="427.3837,-187 424.3837,-191 403.3837,-191 400.3837,-187 316.6163,-187 316.6163,-151 427.3837,-151 427.3837,-187"/>
<text text-anchor="middle" x="372" y="-164.8" font-family="Times,serif" font-size="14.00" fill="#000000">GkCln1xModule</text>
</g>
<!-- GkCln1xComponent&#45;&gt;GkCln1xModule -->
<g id="edge1" class="edge">
<title>GkCln1xComponent&#45;&gt;GkCln1xModule</title>
<path fill="none" stroke="#000000" d="M606,-122.1061C606,-141.3391 606,-169 606,-169 606,-169 437.4547,-169 437.4547,-169"/>
<polygon fill="#000000" stroke="#000000" points="437.4548,-165.5001 427.4547,-169 437.4547,-172.5001 437.4548,-165.5001"/>
</g>
<!-- HDataTableModule -->
<g id="node3" class="node">
<title>HDataTableModule</title>
<polygon fill="#8dd3c7" stroke="#000000" points="515.9552,-122 512.9552,-126 491.9552,-126 488.9552,-122 388.0448,-122 388.0448,-86 515.9552,-86 515.9552,-122"/>
<text text-anchor="middle" x="452" y="-99.8" font-family="Times,serif" font-size="14.00" fill="#000000">HDataTableModule</text>
</g>
<!-- HDataTableModule&#45;&gt;GkCln1xModule -->
<g id="edge2" class="edge">
<title>HDataTableModule&#45;&gt;GkCln1xModule</title>
<path fill="none" stroke="#000000" d="M407.7321,-122.1061C407.7321,-122.1061 407.7321,-140.991 407.7321,-140.991"/>
<polygon fill="#000000" stroke="#000000" points="404.2322,-140.9909 407.7321,-150.991 411.2322,-140.991 404.2322,-140.9909"/>
</g>
<!-- GkCln1xRoutingModule -->
<g id="node4" class="node">
<title>GkCln1xRoutingModule</title>
<polygon fill="#8dd3c7" stroke="#000000" points="370.0014,-122 367.0014,-126 346.0014,-126 343.0014,-122 213.9986,-122 213.9986,-86 370.0014,-86 370.0014,-122"/>
<text text-anchor="middle" x="292" y="-99.8" font-family="Times,serif" font-size="14.00" fill="#000000">GkCln1xRoutingModule</text>
</g>
<!-- GkCln1xRoutingModule&#45;&gt;GkCln1xModule -->
<g id="edge3" class="edge">
<title>GkCln1xRoutingModule&#45;&gt;GkCln1xModule</title>
<path fill="none" stroke="#000000" d="M343.2795,-122.1061C343.2795,-122.1061 343.2795,-140.991 343.2795,-140.991"/>
<polygon fill="#000000" stroke="#000000" points="339.7795,-140.9909 343.2795,-150.991 346.7795,-140.991 339.7795,-140.9909"/>
</g>
<!-- GkClientsServices -->
<g id="node5" class="node">
<title>GkClientsServices</title>
<ellipse fill="#fdb462" stroke="#000000" cx="107" cy="-104" rx="82.8187" ry="18"/>
<text text-anchor="middle" x="107" y="-99.8" font-family="Times,serif" font-size="14.00" fill="#000000">GkClientsServices</text>
</g>
<!-- GkClientsServices&#45;&gt;GkCln1xModule -->
<g id="edge4" class="edge">
<title>GkClientsServices&#45;&gt;GkCln1xModule</title>
<path fill="none" stroke="#000000" d="M107,-122.1061C107,-141.3391 107,-169 107,-169 107,-169 306.4473,-169 306.4473,-169"/>
<polygon fill="#000000" stroke="#000000" points="306.4474,-172.5001 316.4473,-169 306.4473,-165.5001 306.4474,-172.5001"/>
</g>
</g>
</svg>
