<?xml version="1.0" encoding="UTF-8" standalone="no"?>
<!DOCTYPE svg PUBLIC "-//W3C//DTD SVG 1.1//EN"
 "http://www.w3.org/Graphics/SVG/1.1/DTD/svg11.dtd">
<!-- Generated by graphviz version 2.40.1 (20161225.0304)
 -->
<!-- Title: dependencies Pages: 1 -->
<svg width="678pt" height="211pt"
 viewBox="0.00 0.00 678.00 211.00" xmlns="http://www.w3.org/2000/svg" xmlns:xlink="http://www.w3.org/1999/xlink">
<g id="graph0" class="graph" transform="scale(1 1) rotate(0) translate(4 207)">
<title>dependencies</title>
<polygon fill="#ffffff" stroke="transparent" points="-4,4 -4,-207 674,-207 674,4 -4,4"/>
<text text-anchor="start" x="314.0091" y="-42.4" font-family="sans-serif" font-weight="bold" font-size="14.00" fill="#000000">Legend</text>
<polygon fill="#ffffb3" stroke="transparent" points="101,-10 101,-30 121,-30 121,-10 101,-10"/>
<text text-anchor="start" x="124.629" y="-15.4" font-family="sans-serif" font-size="14.00" fill="#000000"> &#160;Declarations</text>
<polygon fill="#8dd3c7" stroke="transparent" points="214,-10 214,-30 234,-30 234,-10 214,-10"/>
<text text-anchor="start" x="237.7251" y="-15.4" font-family="sans-serif" font-size="14.00" fill="#000000"> &#160;Module</text>
<polygon fill="#80b1d3" stroke="transparent" points="300,-10 300,-30 320,-30 320,-10 300,-10"/>
<text text-anchor="start" x="323.7812" y="-15.4" font-family="sans-serif" font-size="14.00" fill="#000000"> &#160;Bootstrap</text>
<polygon fill="#fdb462" stroke="transparent" points="397,-10 397,-30 417,-30 417,-10 397,-10"/>
<text text-anchor="start" x="420.6732" y="-15.4" font-family="sans-serif" font-size="14.00" fill="#000000"> &#160;Providers</text>
<polygon fill="#fb8072" stroke="transparent" points="493,-10 493,-30 513,-30 513,-10 493,-10"/>
<text text-anchor="start" x="516.7258" y="-15.4" font-family="sans-serif" font-size="14.00" fill="#000000"> &#160;Exports</text>
<g id="clust1" class="cluster">
<title>cluster_FavModule</title>
<polygon fill="none" stroke="#000000" stroke-dasharray="1,5" points="8,-70 8,-195 662,-195 662,-70 8,-70"/>
</g>
<g id="clust2" class="cluster">
<title>cluster_FavModule_declarations</title>
<polygon fill="none" stroke="#000000" points="584,-78 584,-130 654,-130 654,-78 584,-78"/>
</g>
<g id="clust4" class="cluster">
<title>cluster_FavModule_imports</title>
<polygon fill="none" stroke="#000000" points="338,-78 338,-130 576,-130 576,-78 338,-78"/>
</g>
<g id="clust7" class="cluster">
<title>cluster_FavModule_providers</title>
<polygon fill="none" stroke="#000000" points="16,-78 16,-130 330,-130 330,-78 16,-78"/>
</g>
<!-- Fav -->
<g id="node1" class="node">
<title>Fav</title>
<polygon fill="#ffffb3" stroke="#000000" points="646,-122 592,-122 592,-86 646,-86 646,-122"/>
<text text-anchor="middle" x="619" y="-99.8" font-family="Times,serif" font-size="14.00" fill="#000000">Fav</text>
</g>
<!-- FavModule -->
<g id="node2" class="node">
<title>FavModule</title>
<polygon fill="#8dd3c7" stroke="#000000" points="414.0483,-187 411.0483,-191 390.0483,-191 387.0483,-187 333.9517,-187 333.9517,-151 414.0483,-151 414.0483,-187"/>
<text text-anchor="middle" x="374" y="-164.8" font-family="Times,serif" font-size="14.00" fill="#000000">FavModule</text>
</g>
<!-- Fav&#45;&gt;FavModule -->
<g id="edge1" class="edge">
<title>Fav&#45;&gt;FavModule</title>
<path fill="none" stroke="#000000" d="M619,-122.1061C619,-141.3391 619,-169 619,-169 619,-169 424.1824,-169 424.1824,-169"/>
<polygon fill="#000000" stroke="#000000" points="424.1825,-165.5001 414.1824,-169 424.1824,-172.5001 424.1825,-165.5001"/>
</g>
<!-- AppTranslationModule -->
<g id="node3" class="node">
<title>AppTranslationModule</title>
<polygon fill="#8dd3c7" stroke="#000000" points="567.9158,-122 564.9158,-126 543.9158,-126 540.9158,-122 420.0842,-122 420.0842,-86 567.9158,-86 567.9158,-122"/>
<text text-anchor="middle" x="494" y="-99.8" font-family="Times,serif" font-size="14.00" fill="#000000">AppTranslationModule</text>
</g>
<!-- AppTranslationModule&#45;&gt;FavModule -->
<g id="edge2" class="edge">
<title>AppTranslationModule&#45;&gt;FavModule</title>
<path fill="none" stroke="#000000" d="M420.1708,-104C412.9577,-104 408.2472,-104 408.2472,-104 408.2472,-104 408.2472,-140.8939 408.2472,-140.8939"/>
<polygon fill="#000000" stroke="#000000" points="404.7473,-140.8938 408.2472,-150.8939 411.7473,-140.8939 404.7473,-140.8938"/>
</g>
<!-- routing -->
<g id="node4" class="node">
<title>routing</title>
<polygon fill="#8dd3c7" stroke="#000000" points="402.4435,-122 399.4435,-126 378.4435,-126 375.4435,-122 345.5565,-122 345.5565,-86 402.4435,-86 402.4435,-122"/>
<text text-anchor="middle" x="374" y="-99.8" font-family="Times,serif" font-size="14.00" fill="#000000">routing</text>
</g>
<!-- routing&#45;&gt;FavModule -->
<g id="edge3" class="edge">
<title>routing&#45;&gt;FavModule</title>
<path fill="none" stroke="#000000" d="M374,-122.1061C374,-122.1061 374,-140.991 374,-140.991"/>
<polygon fill="#000000" stroke="#000000" points="370.5001,-140.9909 374,-150.991 377.5001,-140.991 370.5001,-140.9909"/>
</g>
<!-- FavTcodeService -->
<g id="node5" class="node">
<title>FavTcodeService</title>
<ellipse fill="#fdb462" stroke="#000000" cx="243" cy="-104" rx="78.7105" ry="18"/>
<text text-anchor="middle" x="243" y="-99.8" font-family="Times,serif" font-size="14.00" fill="#000000">FavTcodeService</text>
</g>
<!-- FavTcodeService&#45;&gt;FavModule -->
<g id="edge4" class="edge">
<title>FavTcodeService&#45;&gt;FavModule</title>
<path fill="none" stroke="#000000" d="M322.0068,-104C332.5188,-104 339.7528,-104 339.7528,-104 339.7528,-104 339.7528,-140.8939 339.7528,-140.8939"/>
<polygon fill="#000000" stroke="#000000" points="336.2529,-140.8938 339.7528,-150.8939 343.2529,-140.8939 336.2529,-140.8938"/>
</g>
<!-- IconsService -->
<g id="node6" class="node">
<title>IconsService</title>
<ellipse fill="#fdb462" stroke="#000000" cx="85" cy="-104" rx="60.812" ry="18"/>
<text text-anchor="middle" x="85" y="-99.8" font-family="Times,serif" font-size="14.00" fill="#000000">IconsService</text>
</g>
<!-- IconsService&#45;&gt;FavModule -->
<g id="edge5" class="edge">
<title>IconsService&#45;&gt;FavModule</title>
<path fill="none" stroke="#000000" d="M85,-122.1061C85,-141.3391 85,-169 85,-169 85,-169 323.8158,-169 323.8158,-169"/>
<polygon fill="#000000" stroke="#000000" points="323.8158,-172.5001 333.8158,-169 323.8158,-165.5001 323.8158,-172.5001"/>
</g>
</g>
</svg>
