<?xml version="1.0" encoding="UTF-8" standalone="no"?>
<!DOCTYPE svg PUBLIC "-//W3C//DTD SVG 1.1//EN"
 "http://www.w3.org/Graphics/SVG/1.1/DTD/svg11.dtd">
<!-- Generated by graphviz version 2.40.1 (20161225.0304)
 -->
<!-- Title: dependencies Pages: 1 -->
<svg width="514pt" height="211pt"
 viewBox="0.00 0.00 514.00 211.00" xmlns="http://www.w3.org/2000/svg" xmlns:xlink="http://www.w3.org/1999/xlink">
<g id="graph0" class="graph" transform="scale(1 1) rotate(0) translate(4 207)">
<title>dependencies</title>
<polygon fill="#ffffff" stroke="transparent" points="-4,4 -4,-207 510,-207 510,4 -4,4"/>
<text text-anchor="start" x="232.0091" y="-42.4" font-family="sans-serif" font-weight="bold" font-size="14.00" fill="#000000">Legend</text>
<polygon fill="#ffffb3" stroke="transparent" points="19,-10 19,-30 39,-30 39,-10 19,-10"/>
<text text-anchor="start" x="42.629" y="-15.4" font-family="sans-serif" font-size="14.00" fill="#000000"> &#160;Declarations</text>
<polygon fill="#8dd3c7" stroke="transparent" points="132,-10 132,-30 152,-30 152,-10 132,-10"/>
<text text-anchor="start" x="155.7251" y="-15.4" font-family="sans-serif" font-size="14.00" fill="#000000"> &#160;Module</text>
<polygon fill="#80b1d3" stroke="transparent" points="218,-10 218,-30 238,-30 238,-10 218,-10"/>
<text text-anchor="start" x="241.7812" y="-15.4" font-family="sans-serif" font-size="14.00" fill="#000000"> &#160;Bootstrap</text>
<polygon fill="#fdb462" stroke="transparent" points="315,-10 315,-30 335,-30 335,-10 315,-10"/>
<text text-anchor="start" x="338.6732" y="-15.4" font-family="sans-serif" font-size="14.00" fill="#000000"> &#160;Providers</text>
<polygon fill="#fb8072" stroke="transparent" points="411,-10 411,-30 431,-30 431,-10 411,-10"/>
<text text-anchor="start" x="434.7258" y="-15.4" font-family="sans-serif" font-size="14.00" fill="#000000"> &#160;Exports</text>
<g id="clust1" class="cluster">
<title>cluster_GkCln80Module</title>
<polygon fill="none" stroke="#000000" stroke-dasharray="1,5" points="8,-70 8,-195 498,-195 498,-70 8,-70"/>
</g>
<g id="clust2" class="cluster">
<title>cluster_GkCln80Module_declarations</title>
<polygon fill="none" stroke="#000000" points="342,-78 342,-130 490,-130 490,-78 342,-78"/>
</g>
<g id="clust4" class="cluster">
<title>cluster_GkCln80Module_imports</title>
<polygon fill="none" stroke="#000000" points="16,-78 16,-130 334,-130 334,-78 16,-78"/>
</g>
<!-- GkCln80Component -->
<g id="node1" class="node">
<title>GkCln80Component</title>
<polygon fill="#ffffb3" stroke="#000000" points="482.1666,-122 349.8334,-122 349.8334,-86 482.1666,-86 482.1666,-122"/>
<text text-anchor="middle" x="416" y="-99.8" font-family="Times,serif" font-size="14.00" fill="#000000">GkCln80Component</text>
</g>
<!-- GkCln80Module -->
<g id="node2" class="node">
<title>GkCln80Module</title>
<polygon fill="#8dd3c7" stroke="#000000" points="317.3837,-187 314.3837,-191 293.3837,-191 290.3837,-187 206.6163,-187 206.6163,-151 317.3837,-151 317.3837,-187"/>
<text text-anchor="middle" x="262" y="-164.8" font-family="Times,serif" font-size="14.00" fill="#000000">GkCln80Module</text>
</g>
<!-- GkCln80Component&#45;&gt;GkCln80Module -->
<g id="edge1" class="edge">
<title>GkCln80Component&#45;&gt;GkCln80Module</title>
<path fill="none" stroke="#000000" d="M416,-122.1061C416,-141.3391 416,-169 416,-169 416,-169 327.5975,-169 327.5975,-169"/>
<polygon fill="#000000" stroke="#000000" points="327.5976,-165.5001 317.5975,-169 327.5975,-172.5001 327.5976,-165.5001"/>
</g>
<!-- HNavBoardModule -->
<g id="node3" class="node">
<title>HNavBoardModule</title>
<polygon fill="#8dd3c7" stroke="#000000" points="325.6895,-122 322.6895,-126 301.6895,-126 298.6895,-122 198.3105,-122 198.3105,-86 325.6895,-86 325.6895,-122"/>
<text text-anchor="middle" x="262" y="-99.8" font-family="Times,serif" font-size="14.00" fill="#000000">HNavBoardModule</text>
</g>
<!-- HNavBoardModule&#45;&gt;GkCln80Module -->
<g id="edge2" class="edge">
<title>HNavBoardModule&#45;&gt;GkCln80Module</title>
<path fill="none" stroke="#000000" d="M262,-122.1061C262,-122.1061 262,-140.991 262,-140.991"/>
<polygon fill="#000000" stroke="#000000" points="258.5001,-140.9909 262,-150.991 265.5001,-140.991 258.5001,-140.9909"/>
</g>
<!-- GkCln80RoutingModule -->
<g id="node4" class="node">
<title>GkCln80RoutingModule</title>
<polygon fill="#8dd3c7" stroke="#000000" points="180.0014,-122 177.0014,-126 156.0014,-126 153.0014,-122 23.9986,-122 23.9986,-86 180.0014,-86 180.0014,-122"/>
<text text-anchor="middle" x="102" y="-99.8" font-family="Times,serif" font-size="14.00" fill="#000000">GkCln80RoutingModule</text>
</g>
<!-- GkCln80RoutingModule&#45;&gt;GkCln80Module -->
<g id="edge3" class="edge">
<title>GkCln80RoutingModule&#45;&gt;GkCln80Module</title>
<path fill="none" stroke="#000000" d="M102,-122.1061C102,-141.3391 102,-169 102,-169 102,-169 196.4888,-169 196.4888,-169"/>
<polygon fill="#000000" stroke="#000000" points="196.4888,-172.5001 206.4888,-169 196.4888,-165.5001 196.4888,-172.5001"/>
</g>
</g>
</svg>
