<?xml version="1.0" encoding="UTF-8" standalone="no"?>
<!DOCTYPE svg PUBLIC "-//W3C//DTD SVG 1.1//EN"
 "http://www.w3.org/Graphics/SVG/1.1/DTD/svg11.dtd">
<!-- Generated by graphviz version 2.40.1 (20161225.0304)
 -->
<!-- Title: dependencies Pages: 1 -->
<svg width="721pt" height="211pt"
 viewBox="0.00 0.00 721.00 211.00" xmlns="http://www.w3.org/2000/svg" xmlns:xlink="http://www.w3.org/1999/xlink">
<g id="graph0" class="graph" transform="scale(1 1) rotate(0) translate(4 207)">
<title>dependencies</title>
<polygon fill="#ffffff" stroke="transparent" points="-4,4 -4,-207 717,-207 717,4 -4,4"/>
<text text-anchor="start" x="335.5091" y="-42.4" font-family="sans-serif" font-weight="bold" font-size="14.00" fill="#000000">Legend</text>
<polygon fill="#ffffb3" stroke="transparent" points="122.5,-10 122.5,-30 142.5,-30 142.5,-10 122.5,-10"/>
<text text-anchor="start" x="146.129" y="-15.4" font-family="sans-serif" font-size="14.00" fill="#000000"> &#160;Declarations</text>
<polygon fill="#8dd3c7" stroke="transparent" points="235.5,-10 235.5,-30 255.5,-30 255.5,-10 235.5,-10"/>
<text text-anchor="start" x="259.2251" y="-15.4" font-family="sans-serif" font-size="14.00" fill="#000000"> &#160;Module</text>
<polygon fill="#80b1d3" stroke="transparent" points="321.5,-10 321.5,-30 341.5,-30 341.5,-10 321.5,-10"/>
<text text-anchor="start" x="345.2812" y="-15.4" font-family="sans-serif" font-size="14.00" fill="#000000"> &#160;Bootstrap</text>
<polygon fill="#fdb462" stroke="transparent" points="418.5,-10 418.5,-30 438.5,-30 438.5,-10 418.5,-10"/>
<text text-anchor="start" x="442.1732" y="-15.4" font-family="sans-serif" font-size="14.00" fill="#000000"> &#160;Providers</text>
<polygon fill="#fb8072" stroke="transparent" points="514.5,-10 514.5,-30 534.5,-30 534.5,-10 514.5,-10"/>
<text text-anchor="start" x="538.2258" y="-15.4" font-family="sans-serif" font-size="14.00" fill="#000000"> &#160;Exports</text>
<g id="clust1" class="cluster">
<title>cluster_OutboxModule</title>
<polygon fill="none" stroke="#000000" stroke-dasharray="1,5" points="8,-70 8,-195 705,-195 705,-70 8,-70"/>
</g>
<g id="clust2" class="cluster">
<title>cluster_OutboxModule_declarations</title>
<polygon fill="none" stroke="#000000" points="557,-78 557,-130 697,-130 697,-78 557,-78"/>
</g>
<g id="clust4" class="cluster">
<title>cluster_OutboxModule_imports</title>
<polygon fill="none" stroke="#000000" points="198,-78 198,-130 549,-130 549,-78 198,-78"/>
</g>
<g id="clust7" class="cluster">
<title>cluster_OutboxModule_providers</title>
<polygon fill="none" stroke="#000000" points="16,-78 16,-130 190,-130 190,-78 16,-78"/>
</g>
<!-- OutboxComponent -->
<g id="node1" class="node">
<title>OutboxComponent</title>
<polygon fill="#ffffb3" stroke="#000000" points="688.83,-122 565.17,-122 565.17,-86 688.83,-86 688.83,-122"/>
<text text-anchor="middle" x="627" y="-99.8" font-family="Times,serif" font-size="14.00" fill="#000000">OutboxComponent</text>
</g>
<!-- OutboxModule -->
<g id="node2" class="node">
<title>OutboxModule</title>
<polygon fill="#8dd3c7" stroke="#000000" points="417.548,-187 414.548,-191 393.548,-191 390.548,-187 316.452,-187 316.452,-151 417.548,-151 417.548,-187"/>
<text text-anchor="middle" x="367" y="-164.8" font-family="Times,serif" font-size="14.00" fill="#000000">OutboxModule</text>
</g>
<!-- OutboxComponent&#45;&gt;OutboxModule -->
<g id="edge1" class="edge">
<title>OutboxComponent&#45;&gt;OutboxModule</title>
<path fill="none" stroke="#000000" d="M627,-122.1061C627,-141.3391 627,-169 627,-169 627,-169 427.7478,-169 427.7478,-169"/>
<polygon fill="#000000" stroke="#000000" points="427.7479,-165.5001 417.7478,-169 427.7478,-172.5001 427.7479,-165.5001"/>
</g>
<!-- HDataTableByTrayModule -->
<g id="node3" class="node">
<title>HDataTableByTrayModule</title>
<polygon fill="#8dd3c7" stroke="#000000" points="541.2198,-122 538.2198,-126 517.2198,-126 514.2198,-122 370.7802,-122 370.7802,-86 541.2198,-86 541.2198,-122"/>
<text text-anchor="middle" x="456" y="-99.8" font-family="Times,serif" font-size="14.00" fill="#000000">HDataTableByTrayModule</text>
</g>
<!-- HDataTableByTrayModule&#45;&gt;OutboxModule -->
<g id="edge2" class="edge">
<title>HDataTableByTrayModule&#45;&gt;OutboxModule</title>
<path fill="none" stroke="#000000" d="M394.2069,-122.1061C394.2069,-122.1061 394.2069,-140.991 394.2069,-140.991"/>
<polygon fill="#000000" stroke="#000000" points="390.7069,-140.9909 394.2069,-150.991 397.7069,-140.991 390.7069,-140.9909"/>
</g>
<!-- OutboxRoutingModule -->
<g id="node4" class="node">
<title>OutboxRoutingModule</title>
<polygon fill="#8dd3c7" stroke="#000000" points="352.1652,-122 349.1652,-126 328.1652,-126 325.1652,-122 205.8348,-122 205.8348,-86 352.1652,-86 352.1652,-122"/>
<text text-anchor="middle" x="279" y="-99.8" font-family="Times,serif" font-size="14.00" fill="#000000">OutboxRoutingModule</text>
</g>
<!-- OutboxRoutingModule&#45;&gt;OutboxModule -->
<g id="edge3" class="edge">
<title>OutboxRoutingModule&#45;&gt;OutboxModule</title>
<path fill="none" stroke="#000000" d="M334.2795,-122.1061C334.2795,-122.1061 334.2795,-140.991 334.2795,-140.991"/>
<polygon fill="#000000" stroke="#000000" points="330.7795,-140.9909 334.2795,-150.991 337.7795,-140.991 330.7795,-140.9909"/>
</g>
<!-- RequestsServices -->
<g id="node5" class="node">
<title>RequestsServices</title>
<ellipse fill="#fdb462" stroke="#000000" cx="103" cy="-104" rx="78.726" ry="18"/>
<text text-anchor="middle" x="103" y="-99.8" font-family="Times,serif" font-size="14.00" fill="#000000">RequestsServices</text>
</g>
<!-- RequestsServices&#45;&gt;OutboxModule -->
<g id="edge4" class="edge">
<title>RequestsServices&#45;&gt;OutboxModule</title>
<path fill="none" stroke="#000000" d="M103,-122.1061C103,-141.3391 103,-169 103,-169 103,-169 306.4105,-169 306.4105,-169"/>
<polygon fill="#000000" stroke="#000000" points="306.4105,-172.5001 316.4105,-169 306.4105,-165.5001 306.4105,-172.5001"/>
</g>
</g>
</svg>
