<?xml version="1.0" encoding="UTF-8" standalone="no"?>
<!DOCTYPE svg PUBLIC "-//W3C//DTD SVG 1.1//EN"
 "http://www.w3.org/Graphics/SVG/1.1/DTD/svg11.dtd">
<!-- Generated by graphviz version 2.40.1 (20161225.0304)
 -->
<!-- Title: dependencies Pages: 1 -->
<svg width="920pt" height="211pt"
 viewBox="0.00 0.00 920.00 211.00" xmlns="http://www.w3.org/2000/svg" xmlns:xlink="http://www.w3.org/1999/xlink">
<g id="graph0" class="graph" transform="scale(1 1) rotate(0) translate(4 207)">
<title>dependencies</title>
<polygon fill="#ffffff" stroke="transparent" points="-4,4 -4,-207 916,-207 916,4 -4,4"/>
<text text-anchor="start" x="435.0091" y="-42.4" font-family="sans-serif" font-weight="bold" font-size="14.00" fill="#000000">Legend</text>
<polygon fill="#ffffb3" stroke="transparent" points="222,-10 222,-30 242,-30 242,-10 222,-10"/>
<text text-anchor="start" x="245.629" y="-15.4" font-family="sans-serif" font-size="14.00" fill="#000000"> &#160;Declarations</text>
<polygon fill="#8dd3c7" stroke="transparent" points="335,-10 335,-30 355,-30 355,-10 335,-10"/>
<text text-anchor="start" x="358.7251" y="-15.4" font-family="sans-serif" font-size="14.00" fill="#000000"> &#160;Module</text>
<polygon fill="#80b1d3" stroke="transparent" points="421,-10 421,-30 441,-30 441,-10 421,-10"/>
<text text-anchor="start" x="444.7812" y="-15.4" font-family="sans-serif" font-size="14.00" fill="#000000"> &#160;Bootstrap</text>
<polygon fill="#fdb462" stroke="transparent" points="518,-10 518,-30 538,-30 538,-10 518,-10"/>
<text text-anchor="start" x="541.6732" y="-15.4" font-family="sans-serif" font-size="14.00" fill="#000000"> &#160;Providers</text>
<polygon fill="#fb8072" stroke="transparent" points="614,-10 614,-30 634,-30 634,-10 614,-10"/>
<text text-anchor="start" x="637.7258" y="-15.4" font-family="sans-serif" font-size="14.00" fill="#000000"> &#160;Exports</text>
<g id="clust1" class="cluster">
<title>cluster_OutboxModule</title>
<polygon fill="none" stroke="#000000" stroke-dasharray="1,5" points="8,-70 8,-195 904,-195 904,-70 8,-70"/>
</g>
<g id="clust2" class="cluster">
<title>cluster_OutboxModule_declarations</title>
<polygon fill="none" stroke="#000000" points="756,-78 756,-130 896,-130 896,-78 756,-78"/>
</g>
<g id="clust4" class="cluster">
<title>cluster_OutboxModule_imports</title>
<polygon fill="none" stroke="#000000" points="198,-78 198,-130 748,-130 748,-78 198,-78"/>
</g>
<g id="clust7" class="cluster">
<title>cluster_OutboxModule_providers</title>
<polygon fill="none" stroke="#000000" points="16,-78 16,-130 190,-130 190,-78 16,-78"/>
</g>
<!-- OutboxComponent -->
<g id="node1" class="node">
<title>OutboxComponent</title>
<polygon fill="#ffffb3" stroke="#000000" points="887.83,-122 764.17,-122 764.17,-86 887.83,-86 887.83,-122"/>
<text text-anchor="middle" x="826" y="-99.8" font-family="Times,serif" font-size="14.00" fill="#000000">OutboxComponent</text>
</g>
<!-- OutboxModule -->
<g id="node2" class="node">
<title>OutboxModule</title>
<polygon fill="#8dd3c7" stroke="#000000" points="511.548,-187 508.548,-191 487.548,-191 484.548,-187 410.452,-187 410.452,-151 511.548,-151 511.548,-187"/>
<text text-anchor="middle" x="461" y="-164.8" font-family="Times,serif" font-size="14.00" fill="#000000">OutboxModule</text>
</g>
<!-- OutboxComponent&#45;&gt;OutboxModule -->
<g id="edge1" class="edge">
<title>OutboxComponent&#45;&gt;OutboxModule</title>
<path fill="none" stroke="#000000" d="M826,-122.2843C826,-143.3211 826,-175 826,-175 826,-175 521.7517,-175 521.7517,-175"/>
<polygon fill="#000000" stroke="#000000" points="521.7517,-171.5001 511.7517,-175 521.7517,-178.5001 521.7517,-171.5001"/>
</g>
<!-- HDataTableByTrayModule -->
<g id="node3" class="node">
<title>HDataTableByTrayModule</title>
<polygon fill="#8dd3c7" stroke="#000000" points="740.2198,-122 737.2198,-126 716.2198,-126 713.2198,-122 569.7802,-122 569.7802,-86 740.2198,-86 740.2198,-122"/>
<text text-anchor="middle" x="655" y="-99.8" font-family="Times,serif" font-size="14.00" fill="#000000">HDataTableByTrayModule</text>
</g>
<!-- HDataTableByTrayModule&#45;&gt;OutboxModule -->
<g id="edge2" class="edge">
<title>HDataTableByTrayModule&#45;&gt;OutboxModule</title>
<path fill="none" stroke="#000000" d="M655,-122.0225C655,-139.3734 655,-163 655,-163 655,-163 521.7178,-163 521.7178,-163"/>
<polygon fill="#000000" stroke="#000000" points="521.7179,-159.5001 511.7178,-163 521.7178,-166.5001 521.7179,-159.5001"/>
</g>
<!-- HTurboTableForTrayModule -->
<g id="node4" class="node">
<title>HTurboTableForTrayModule</title>
<polygon fill="#8dd3c7" stroke="#000000" points="551.6134,-122 548.6134,-126 527.6134,-126 524.6134,-122 370.3866,-122 370.3866,-86 551.6134,-86 551.6134,-122"/>
<text text-anchor="middle" x="461" y="-99.8" font-family="Times,serif" font-size="14.00" fill="#000000">HTurboTableForTrayModule</text>
</g>
<!-- HTurboTableForTrayModule&#45;&gt;OutboxModule -->
<g id="edge3" class="edge">
<title>HTurboTableForTrayModule&#45;&gt;OutboxModule</title>
<path fill="none" stroke="#000000" d="M461,-122.1061C461,-122.1061 461,-140.991 461,-140.991"/>
<polygon fill="#000000" stroke="#000000" points="457.5001,-140.9909 461,-150.991 464.5001,-140.991 457.5001,-140.9909"/>
</g>
<!-- OutboxRoutingModule -->
<g id="node5" class="node">
<title>OutboxRoutingModule</title>
<polygon fill="#8dd3c7" stroke="#000000" points="352.1652,-122 349.1652,-126 328.1652,-126 325.1652,-122 205.8348,-122 205.8348,-86 352.1652,-86 352.1652,-122"/>
<text text-anchor="middle" x="279" y="-99.8" font-family="Times,serif" font-size="14.00" fill="#000000">OutboxRoutingModule</text>
</g>
<!-- OutboxRoutingModule&#45;&gt;OutboxModule -->
<g id="edge4" class="edge">
<title>OutboxRoutingModule&#45;&gt;OutboxModule</title>
<path fill="none" stroke="#000000" d="M279,-122.0225C279,-139.3734 279,-163 279,-163 279,-163 400.3029,-163 400.3029,-163"/>
<polygon fill="#000000" stroke="#000000" points="400.3029,-166.5001 410.3029,-163 400.3028,-159.5001 400.3029,-166.5001"/>
</g>
<!-- RequestsServices -->
<g id="node6" class="node">
<title>RequestsServices</title>
<ellipse fill="#fdb462" stroke="#000000" cx="103" cy="-104" rx="78.726" ry="18"/>
<text text-anchor="middle" x="103" y="-99.8" font-family="Times,serif" font-size="14.00" fill="#000000">RequestsServices</text>
</g>
<!-- RequestsServices&#45;&gt;OutboxModule -->
<g id="edge5" class="edge">
<title>RequestsServices&#45;&gt;OutboxModule</title>
<path fill="none" stroke="#000000" d="M103,-122.2843C103,-143.3211 103,-175 103,-175 103,-175 400.0875,-175 400.0875,-175"/>
<polygon fill="#000000" stroke="#000000" points="400.0876,-178.5001 410.0875,-175 400.0875,-171.5001 400.0876,-178.5001"/>
</g>
</g>
</svg>
