<?xml version="1.0" encoding="UTF-8" standalone="no"?>
<!DOCTYPE svg PUBLIC "-//W3C//DTD SVG 1.1//EN"
 "http://www.w3.org/Graphics/SVG/1.1/DTD/svg11.dtd">
<!-- Generated by graphviz version 2.40.1 (20161225.0304)
 -->
<!-- Title: dependencies Pages: 1 -->
<svg width="604pt" height="211pt"
 viewBox="0.00 0.00 604.00 211.00" xmlns="http://www.w3.org/2000/svg" xmlns:xlink="http://www.w3.org/1999/xlink">
<g id="graph0" class="graph" transform="scale(1 1) rotate(0) translate(4 207)">
<title>dependencies</title>
<polygon fill="#ffffff" stroke="transparent" points="-4,4 -4,-207 600,-207 600,4 -4,4"/>
<text text-anchor="start" x="277.0091" y="-42.4" font-family="sans-serif" font-weight="bold" font-size="14.00" fill="#000000">Legend</text>
<polygon fill="#ffffb3" stroke="transparent" points="64,-10 64,-30 84,-30 84,-10 64,-10"/>
<text text-anchor="start" x="87.629" y="-15.4" font-family="sans-serif" font-size="14.00" fill="#000000"> &#160;Declarations</text>
<polygon fill="#8dd3c7" stroke="transparent" points="177,-10 177,-30 197,-30 197,-10 177,-10"/>
<text text-anchor="start" x="200.7251" y="-15.4" font-family="sans-serif" font-size="14.00" fill="#000000"> &#160;Module</text>
<polygon fill="#80b1d3" stroke="transparent" points="263,-10 263,-30 283,-30 283,-10 263,-10"/>
<text text-anchor="start" x="286.7812" y="-15.4" font-family="sans-serif" font-size="14.00" fill="#000000"> &#160;Bootstrap</text>
<polygon fill="#fdb462" stroke="transparent" points="360,-10 360,-30 380,-30 380,-10 360,-10"/>
<text text-anchor="start" x="383.6732" y="-15.4" font-family="sans-serif" font-size="14.00" fill="#000000"> &#160;Providers</text>
<polygon fill="#fb8072" stroke="transparent" points="456,-10 456,-30 476,-30 476,-10 456,-10"/>
<text text-anchor="start" x="479.7258" y="-15.4" font-family="sans-serif" font-size="14.00" fill="#000000"> &#160;Exports</text>
<g id="clust1" class="cluster">
<title>cluster_PolicyModule</title>
<polygon fill="none" stroke="#000000" stroke-dasharray="1,5" points="8,-70 8,-195 588,-195 588,-70 8,-70"/>
</g>
<g id="clust2" class="cluster">
<title>cluster_PolicyModule_declarations</title>
<polygon fill="none" stroke="#000000" points="446,-78 446,-130 580,-130 580,-78 446,-78"/>
</g>
<g id="clust4" class="cluster">
<title>cluster_PolicyModule_imports</title>
<polygon fill="none" stroke="#000000" points="16,-78 16,-130 438,-130 438,-78 16,-78"/>
</g>
<!-- PolicyComponent -->
<g id="node1" class="node">
<title>PolicyComponent</title>
<polygon fill="#ffffb3" stroke="#000000" points="571.6109,-122 454.3891,-122 454.3891,-86 571.6109,-86 571.6109,-122"/>
<text text-anchor="middle" x="513" y="-99.8" font-family="Times,serif" font-size="14.00" fill="#000000">PolicyComponent</text>
</g>
<!-- PolicyModule -->
<g id="node2" class="node">
<title>PolicyModule</title>
<polygon fill="#8dd3c7" stroke="#000000" points="369.8288,-187 366.8288,-191 345.8288,-191 342.8288,-187 274.1712,-187 274.1712,-151 369.8288,-151 369.8288,-187"/>
<text text-anchor="middle" x="322" y="-164.8" font-family="Times,serif" font-size="14.00" fill="#000000">PolicyModule</text>
</g>
<!-- PolicyComponent&#45;&gt;PolicyModule -->
<g id="edge1" class="edge">
<title>PolicyComponent&#45;&gt;PolicyModule</title>
<path fill="none" stroke="#000000" d="M513,-122.1061C513,-141.3391 513,-169 513,-169 513,-169 379.7047,-169 379.7047,-169"/>
<polygon fill="#000000" stroke="#000000" points="379.7047,-165.5001 369.7047,-169 379.7046,-172.5001 379.7047,-165.5001"/>
</g>
<!-- NgaModule -->
<g id="node3" class="node">
<title>NgaModule</title>
<polygon fill="#8dd3c7" stroke="#000000" points="430.3711,-122 427.3711,-126 406.3711,-126 403.3711,-122 347.6289,-122 347.6289,-86 430.3711,-86 430.3711,-122"/>
<text text-anchor="middle" x="389" y="-99.8" font-family="Times,serif" font-size="14.00" fill="#000000">NgaModule</text>
</g>
<!-- NgaModule&#45;&gt;PolicyModule -->
<g id="edge2" class="edge">
<title>NgaModule&#45;&gt;PolicyModule</title>
<path fill="none" stroke="#000000" d="M358.6143,-122.1061C358.6143,-122.1061 358.6143,-140.991 358.6143,-140.991"/>
<polygon fill="#000000" stroke="#000000" points="355.1144,-140.9909 358.6143,-150.991 362.1144,-140.991 355.1144,-140.9909"/>
</g>
<!-- AppTranslationModule -->
<g id="node4" class="node">
<title>AppTranslationModule</title>
<polygon fill="#8dd3c7" stroke="#000000" points="329.9158,-122 326.9158,-126 305.9158,-126 302.9158,-122 182.0842,-122 182.0842,-86 329.9158,-86 329.9158,-122"/>
<text text-anchor="middle" x="256" y="-99.8" font-family="Times,serif" font-size="14.00" fill="#000000">AppTranslationModule</text>
</g>
<!-- AppTranslationModule&#45;&gt;PolicyModule -->
<g id="edge3" class="edge">
<title>AppTranslationModule&#45;&gt;PolicyModule</title>
<path fill="none" stroke="#000000" d="M302.0218,-122.1061C302.0218,-122.1061 302.0218,-140.991 302.0218,-140.991"/>
<polygon fill="#000000" stroke="#000000" points="298.5218,-140.9909 302.0218,-150.991 305.5218,-140.991 298.5218,-140.9909"/>
</g>
<!-- PolicyRoutingModule -->
<g id="node5" class="node">
<title>PolicyRoutingModule</title>
<polygon fill="#8dd3c7" stroke="#000000" points="164.4467,-122 161.4467,-126 140.4467,-126 137.4467,-122 23.5533,-122 23.5533,-86 164.4467,-86 164.4467,-122"/>
<text text-anchor="middle" x="94" y="-99.8" font-family="Times,serif" font-size="14.00" fill="#000000">PolicyRoutingModule</text>
</g>
<!-- PolicyRoutingModule&#45;&gt;PolicyModule -->
<g id="edge4" class="edge">
<title>PolicyRoutingModule&#45;&gt;PolicyModule</title>
<path fill="none" stroke="#000000" d="M94,-122.1061C94,-141.3391 94,-169 94,-169 94,-169 264.2037,-169 264.2037,-169"/>
<polygon fill="#000000" stroke="#000000" points="264.2038,-172.5001 274.2037,-169 264.2037,-165.5001 264.2038,-172.5001"/>
</g>
</g>
</svg>
