<?xml version="1.0" encoding="UTF-8" standalone="no"?>
<!DOCTYPE svg PUBLIC "-//W3C//DTD SVG 1.1//EN"
 "http://www.w3.org/Graphics/SVG/1.1/DTD/svg11.dtd">
<!-- Generated by graphviz version 2.40.1 (20161225.0304)
 -->
<!-- Title: dependencies Pages: 1 -->
<svg width="743pt" height="211pt"
 viewBox="0.00 0.00 743.00 211.00" xmlns="http://www.w3.org/2000/svg" xmlns:xlink="http://www.w3.org/1999/xlink">
<g id="graph0" class="graph" transform="scale(1 1) rotate(0) translate(4 207)">
<title>dependencies</title>
<polygon fill="#ffffff" stroke="transparent" points="-4,4 -4,-207 739,-207 739,4 -4,4"/>
<text text-anchor="start" x="346.5091" y="-42.4" font-family="sans-serif" font-weight="bold" font-size="14.00" fill="#000000">Legend</text>
<polygon fill="#ffffb3" stroke="transparent" points="133.5,-10 133.5,-30 153.5,-30 153.5,-10 133.5,-10"/>
<text text-anchor="start" x="157.129" y="-15.4" font-family="sans-serif" font-size="14.00" fill="#000000"> &#160;Declarations</text>
<polygon fill="#8dd3c7" stroke="transparent" points="246.5,-10 246.5,-30 266.5,-30 266.5,-10 246.5,-10"/>
<text text-anchor="start" x="270.2251" y="-15.4" font-family="sans-serif" font-size="14.00" fill="#000000"> &#160;Module</text>
<polygon fill="#80b1d3" stroke="transparent" points="332.5,-10 332.5,-30 352.5,-30 352.5,-10 332.5,-10"/>
<text text-anchor="start" x="356.2812" y="-15.4" font-family="sans-serif" font-size="14.00" fill="#000000"> &#160;Bootstrap</text>
<polygon fill="#fdb462" stroke="transparent" points="429.5,-10 429.5,-30 449.5,-30 449.5,-10 429.5,-10"/>
<text text-anchor="start" x="453.1732" y="-15.4" font-family="sans-serif" font-size="14.00" fill="#000000"> &#160;Providers</text>
<polygon fill="#fb8072" stroke="transparent" points="525.5,-10 525.5,-30 545.5,-30 545.5,-10 525.5,-10"/>
<text text-anchor="start" x="549.2258" y="-15.4" font-family="sans-serif" font-size="14.00" fill="#000000"> &#160;Exports</text>
<g id="clust1" class="cluster">
<title>cluster_GkTerminalModule</title>
<polygon fill="none" stroke="#000000" stroke-dasharray="1,5" points="8,-70 8,-195 727,-195 727,-70 8,-70"/>
</g>
<g id="clust2" class="cluster">
<title>cluster_GkTerminalModule_declarations</title>
<polygon fill="none" stroke="#000000" points="553,-78 553,-130 719,-130 719,-78 553,-78"/>
</g>
<g id="clust4" class="cluster">
<title>cluster_GkTerminalModule_imports</title>
<polygon fill="none" stroke="#000000" points="190,-78 190,-130 545,-130 545,-78 190,-78"/>
</g>
<g id="clust7" class="cluster">
<title>cluster_GkTerminalModule_providers</title>
<polygon fill="none" stroke="#000000" points="16,-78 16,-130 182,-130 182,-78 16,-78"/>
</g>
<!-- GkTerminalComponent -->
<g id="node1" class="node">
<title>GkTerminalComponent</title>
<polygon fill="#ffffb3" stroke="#000000" points="710.7534,-122 561.2466,-122 561.2466,-86 710.7534,-86 710.7534,-122"/>
<text text-anchor="middle" x="636" y="-99.8" font-family="Times,serif" font-size="14.00" fill="#000000">GkTerminalComponent</text>
</g>
<!-- GkTerminalModule -->
<g id="node2" class="node">
<title>GkTerminalModule</title>
<polygon fill="#8dd3c7" stroke="#000000" points="437.9706,-187 434.9706,-191 413.9706,-191 410.9706,-187 310.0294,-187 310.0294,-151 437.9706,-151 437.9706,-187"/>
<text text-anchor="middle" x="374" y="-164.8" font-family="Times,serif" font-size="14.00" fill="#000000">GkTerminalModule</text>
</g>
<!-- GkTerminalComponent&#45;&gt;GkTerminalModule -->
<g id="edge1" class="edge">
<title>GkTerminalComponent&#45;&gt;GkTerminalModule</title>
<path fill="none" stroke="#000000" d="M636,-122.1061C636,-141.3391 636,-169 636,-169 636,-169 448.0924,-169 448.0924,-169"/>
<polygon fill="#000000" stroke="#000000" points="448.0924,-165.5001 438.0924,-169 448.0924,-172.5001 448.0924,-165.5001"/>
</g>
<!-- AppTranslationModule -->
<g id="node3" class="node">
<title>AppTranslationModule</title>
<polygon fill="#8dd3c7" stroke="#000000" points="536.9158,-122 533.9158,-126 512.9158,-126 509.9158,-122 389.0842,-122 389.0842,-86 536.9158,-86 536.9158,-122"/>
<text text-anchor="middle" x="463" y="-99.8" font-family="Times,serif" font-size="14.00" fill="#000000">AppTranslationModule</text>
</g>
<!-- AppTranslationModule&#45;&gt;GkTerminalModule -->
<g id="edge2" class="edge">
<title>AppTranslationModule&#45;&gt;GkTerminalModule</title>
<path fill="none" stroke="#000000" d="M413.6389,-122.1061C413.6389,-122.1061 413.6389,-140.991 413.6389,-140.991"/>
<polygon fill="#000000" stroke="#000000" points="410.1389,-140.9909 413.6389,-150.991 417.1389,-140.991 410.1389,-140.9909"/>
</g>
<!-- GkTerminalRoutingModule -->
<g id="node4" class="node">
<title>GkTerminalRoutingModule</title>
<polygon fill="#8dd3c7" stroke="#000000" points="371.5884,-122 368.5884,-126 347.5884,-126 344.5884,-122 198.4116,-122 198.4116,-86 371.5884,-86 371.5884,-122"/>
<text text-anchor="middle" x="285" y="-99.8" font-family="Times,serif" font-size="14.00" fill="#000000">GkTerminalRoutingModule</text>
</g>
<!-- GkTerminalRoutingModule&#45;&gt;GkTerminalModule -->
<g id="edge3" class="edge">
<title>GkTerminalRoutingModule&#45;&gt;GkTerminalModule</title>
<path fill="none" stroke="#000000" d="M340.7795,-122.1061C340.7795,-122.1061 340.7795,-140.991 340.7795,-140.991"/>
<polygon fill="#000000" stroke="#000000" points="337.2795,-140.9909 340.7795,-150.991 344.2795,-140.991 337.2795,-140.9909"/>
</g>
<!-- TerminalService -->
<g id="node5" class="node">
<title>TerminalService</title>
<ellipse fill="#fdb462" stroke="#000000" cx="99" cy="-104" rx="75.2751" ry="18"/>
<text text-anchor="middle" x="99" y="-99.8" font-family="Times,serif" font-size="14.00" fill="#000000">TerminalService</text>
</g>
<!-- TerminalService&#45;&gt;GkTerminalModule -->
<g id="edge4" class="edge">
<title>TerminalService&#45;&gt;GkTerminalModule</title>
<path fill="none" stroke="#000000" d="M99,-122.1061C99,-141.3391 99,-169 99,-169 99,-169 299.8718,-169 299.8718,-169"/>
<polygon fill="#000000" stroke="#000000" points="299.8718,-172.5001 309.8718,-169 299.8717,-165.5001 299.8718,-172.5001"/>
</g>
</g>
</svg>
