<?xml version="1.0" encoding="UTF-8" standalone="no"?>
<!DOCTYPE svg PUBLIC "-//W3C//DTD SVG 1.1//EN"
 "http://www.w3.org/Graphics/SVG/1.1/DTD/svg11.dtd">
<!-- Generated by graphviz version 2.40.1 (20161225.0304)
 -->
<!-- Title: dependencies Pages: 1 -->
<svg width="528pt" height="211pt"
 viewBox="0.00 0.00 528.00 211.00" xmlns="http://www.w3.org/2000/svg" xmlns:xlink="http://www.w3.org/1999/xlink">
<g id="graph0" class="graph" transform="scale(1 1) rotate(0) translate(4 207)">
<title>dependencies</title>
<polygon fill="#ffffff" stroke="transparent" points="-4,4 -4,-207 524,-207 524,4 -4,4"/>
<text text-anchor="start" x="239.0091" y="-42.4" font-family="sans-serif" font-weight="bold" font-size="14.00" fill="#000000">Legend</text>
<polygon fill="#ffffb3" stroke="transparent" points="26,-10 26,-30 46,-30 46,-10 26,-10"/>
<text text-anchor="start" x="49.629" y="-15.4" font-family="sans-serif" font-size="14.00" fill="#000000"> &#160;Declarations</text>
<polygon fill="#8dd3c7" stroke="transparent" points="139,-10 139,-30 159,-30 159,-10 139,-10"/>
<text text-anchor="start" x="162.7251" y="-15.4" font-family="sans-serif" font-size="14.00" fill="#000000"> &#160;Module</text>
<polygon fill="#80b1d3" stroke="transparent" points="225,-10 225,-30 245,-30 245,-10 225,-10"/>
<text text-anchor="start" x="248.7812" y="-15.4" font-family="sans-serif" font-size="14.00" fill="#000000"> &#160;Bootstrap</text>
<polygon fill="#fdb462" stroke="transparent" points="322,-10 322,-30 342,-30 342,-10 322,-10"/>
<text text-anchor="start" x="345.6732" y="-15.4" font-family="sans-serif" font-size="14.00" fill="#000000"> &#160;Providers</text>
<polygon fill="#fb8072" stroke="transparent" points="418,-10 418,-30 438,-30 438,-10 418,-10"/>
<text text-anchor="start" x="441.7258" y="-15.4" font-family="sans-serif" font-size="14.00" fill="#000000"> &#160;Exports</text>
<g id="clust1" class="cluster">
<title>cluster_GkCln24Module</title>
<polygon fill="none" stroke="#000000" stroke-dasharray="1,5" points="8,-70 8,-195 512,-195 512,-70 8,-70"/>
</g>
<g id="clust2" class="cluster">
<title>cluster_GkCln24Module_declarations</title>
<polygon fill="none" stroke="#000000" points="356,-78 356,-130 504,-130 504,-78 356,-78"/>
</g>
<g id="clust4" class="cluster">
<title>cluster_GkCln24Module_imports</title>
<polygon fill="none" stroke="#000000" points="16,-78 16,-130 348,-130 348,-78 16,-78"/>
</g>
<!-- GkCln24Component -->
<g id="node1" class="node">
<title>GkCln24Component</title>
<polygon fill="#ffffb3" stroke="#000000" points="496.1666,-122 363.8334,-122 363.8334,-86 496.1666,-86 496.1666,-122"/>
<text text-anchor="middle" x="430" y="-99.8" font-family="Times,serif" font-size="14.00" fill="#000000">GkCln24Component</text>
</g>
<!-- GkCln24Module -->
<g id="node2" class="node">
<title>GkCln24Module</title>
<polygon fill="#8dd3c7" stroke="#000000" points="324.3837,-187 321.3837,-191 300.3837,-191 297.3837,-187 213.6163,-187 213.6163,-151 324.3837,-151 324.3837,-187"/>
<text text-anchor="middle" x="269" y="-164.8" font-family="Times,serif" font-size="14.00" fill="#000000">GkCln24Module</text>
</g>
<!-- GkCln24Component&#45;&gt;GkCln24Module -->
<g id="edge1" class="edge">
<title>GkCln24Component&#45;&gt;GkCln24Module</title>
<path fill="none" stroke="#000000" d="M430,-122.1061C430,-141.3391 430,-169 430,-169 430,-169 334.4071,-169 334.4071,-169"/>
<polygon fill="#000000" stroke="#000000" points="334.4071,-165.5001 324.4071,-169 334.407,-172.5001 334.4071,-165.5001"/>
</g>
<!-- HUploadFormModule -->
<g id="node3" class="node">
<title>HUploadFormModule</title>
<polygon fill="#8dd3c7" stroke="#000000" points="339.7021,-122 336.7021,-126 315.7021,-126 312.7021,-122 198.2979,-122 198.2979,-86 339.7021,-86 339.7021,-122"/>
<text text-anchor="middle" x="269" y="-99.8" font-family="Times,serif" font-size="14.00" fill="#000000">HUploadFormModule</text>
</g>
<!-- HUploadFormModule&#45;&gt;GkCln24Module -->
<g id="edge2" class="edge">
<title>HUploadFormModule&#45;&gt;GkCln24Module</title>
<path fill="none" stroke="#000000" d="M269,-122.1061C269,-122.1061 269,-140.991 269,-140.991"/>
<polygon fill="#000000" stroke="#000000" points="265.5001,-140.9909 269,-150.991 272.5001,-140.991 265.5001,-140.9909"/>
</g>
<!-- GkCln24RoutingModule -->
<g id="node4" class="node">
<title>GkCln24RoutingModule</title>
<polygon fill="#8dd3c7" stroke="#000000" points="180.0014,-122 177.0014,-126 156.0014,-126 153.0014,-122 23.9986,-122 23.9986,-86 180.0014,-86 180.0014,-122"/>
<text text-anchor="middle" x="102" y="-99.8" font-family="Times,serif" font-size="14.00" fill="#000000">GkCln24RoutingModule</text>
</g>
<!-- GkCln24RoutingModule&#45;&gt;GkCln24Module -->
<g id="edge3" class="edge">
<title>GkCln24RoutingModule&#45;&gt;GkCln24Module</title>
<path fill="none" stroke="#000000" d="M102,-122.1061C102,-141.3391 102,-169 102,-169 102,-169 203.3914,-169 203.3914,-169"/>
<polygon fill="#000000" stroke="#000000" points="203.3915,-172.5001 213.3914,-169 203.3914,-165.5001 203.3915,-172.5001"/>
</g>
</g>
</svg>
