<?xml version="1.0" encoding="UTF-8" standalone="no"?>
<!DOCTYPE svg PUBLIC "-//W3C//DTD SVG 1.1//EN"
 "http://www.w3.org/Graphics/SVG/1.1/DTD/svg11.dtd">
<!-- Generated by graphviz version 2.40.1 (20161225.0304)
 -->
<!-- Title: dependencies Pages: 1 -->
<svg width="559pt" height="284pt"
 viewBox="0.00 0.00 559.00 284.00" xmlns="http://www.w3.org/2000/svg" xmlns:xlink="http://www.w3.org/1999/xlink">
<g id="graph0" class="graph" transform="scale(1 1) rotate(0) translate(4 280)">
<title>dependencies</title>
<polygon fill="#ffffff" stroke="transparent" points="-4,4 -4,-280 555,-280 555,4 -4,4"/>
<text text-anchor="start" x="254.5091" y="-42.4" font-family="sans-serif" font-weight="bold" font-size="14.00" fill="#000000">Legend</text>
<polygon fill="#ffffb3" stroke="transparent" points="41.5,-10 41.5,-30 61.5,-30 61.5,-10 41.5,-10"/>
<text text-anchor="start" x="65.129" y="-15.4" font-family="sans-serif" font-size="14.00" fill="#000000"> &#160;Declarations</text>
<polygon fill="#8dd3c7" stroke="transparent" points="154.5,-10 154.5,-30 174.5,-30 174.5,-10 154.5,-10"/>
<text text-anchor="start" x="178.2251" y="-15.4" font-family="sans-serif" font-size="14.00" fill="#000000"> &#160;Module</text>
<polygon fill="#80b1d3" stroke="transparent" points="240.5,-10 240.5,-30 260.5,-30 260.5,-10 240.5,-10"/>
<text text-anchor="start" x="264.2812" y="-15.4" font-family="sans-serif" font-size="14.00" fill="#000000"> &#160;Bootstrap</text>
<polygon fill="#fdb462" stroke="transparent" points="337.5,-10 337.5,-30 357.5,-30 357.5,-10 337.5,-10"/>
<text text-anchor="start" x="361.1732" y="-15.4" font-family="sans-serif" font-size="14.00" fill="#000000"> &#160;Providers</text>
<polygon fill="#fb8072" stroke="transparent" points="433.5,-10 433.5,-30 453.5,-30 453.5,-10 433.5,-10"/>
<text text-anchor="start" x="457.2258" y="-15.4" font-family="sans-serif" font-size="14.00" fill="#000000"> &#160;Exports</text>
<g id="clust1" class="cluster">
<title>cluster_NgaModule</title>
<polygon fill="none" stroke="#000000" stroke-dasharray="1,5" points="8,-70 8,-268 543,-268 543,-70 8,-70"/>
</g>
<g id="clust2" class="cluster">
<title>cluster_NgaModule_declarations</title>
<polygon fill="none" stroke="#000000" points="192,-78 192,-130 535,-130 535,-78 192,-78"/>
</g>
<g id="clust5" class="cluster">
<title>cluster_NgaModule_imports</title>
<polygon fill="none" stroke="#000000" points="20,-78 20,-130 184,-130 184,-78 20,-78"/>
</g>
<g id="clust6" class="cluster">
<title>cluster_NgaModule_exports</title>
<polygon fill="none" stroke="#000000" points="16,-208 16,-260 535,-260 535,-208 16,-208"/>
</g>
<!-- DebounceClickDirective -->
<g id="node1" class="node">
<title>DebounceClickDirective</title>
<polygon fill="#ffffb3" stroke="#000000" points="526.6657,-122 371.3343,-122 371.3343,-86 526.6657,-86 526.6657,-122"/>
<text text-anchor="middle" x="449" y="-99.8" font-family="Times,serif" font-size="14.00" fill="#000000">DebounceClickDirective</text>
</g>
<!-- NgaModule -->
<g id="node3" class="node">
<title>NgaModule</title>
<polygon fill="#8dd3c7" stroke="#000000" points="319.3711,-187 316.3711,-191 295.3711,-191 292.3711,-187 236.6289,-187 236.6289,-151 319.3711,-151 319.3711,-187"/>
<text text-anchor="middle" x="278" y="-164.8" font-family="Times,serif" font-size="14.00" fill="#000000">NgaModule</text>
</g>
<!-- DebounceClickDirective&#45;&gt;NgaModule -->
<g id="edge1" class="edge">
<title>DebounceClickDirective&#45;&gt;NgaModule</title>
<path fill="none" stroke="#000000" d="M476.5693,-122.0225C476.5693,-139.3734 476.5693,-163 476.5693,-163 476.5693,-163 329.6266,-163 329.6266,-163"/>
<polygon fill="#000000" stroke="#000000" points="329.6267,-159.5001 319.6266,-163 329.6266,-166.5001 329.6267,-159.5001"/>
</g>
<!-- DisableControlDirective -->
<g id="node2" class="node">
<title>DisableControlDirective</title>
<polygon fill="#ffffb3" stroke="#000000" points="353.6233,-122 200.3767,-122 200.3767,-86 353.6233,-86 353.6233,-122"/>
<text text-anchor="middle" x="277" y="-99.8" font-family="Times,serif" font-size="14.00" fill="#000000">DisableControlDirective</text>
</g>
<!-- DisableControlDirective&#45;&gt;NgaModule -->
<g id="edge2" class="edge">
<title>DisableControlDirective&#45;&gt;NgaModule</title>
<path fill="none" stroke="#000000" d="M278,-122.1061C278,-122.1061 278,-140.991 278,-140.991"/>
<polygon fill="#000000" stroke="#000000" points="274.5001,-140.9909 278,-150.991 281.5001,-140.991 274.5001,-140.9909"/>
</g>
<!-- AppTranslationModule  -->
<g id="node5" class="node">
<title>AppTranslationModule </title>
<polygon fill="#fb8072" stroke="#000000" points="527.4152,-252 376.5848,-252 376.5848,-216 527.4152,-216 527.4152,-252"/>
<text text-anchor="middle" x="452" y="-229.8" font-family="Times,serif" font-size="14.00" fill="#000000">AppTranslationModule </text>
</g>
<!-- NgaModule&#45;&gt;AppTranslationModule  -->
<g id="edge4" class="edge">
<title>NgaModule&#45;&gt;AppTranslationModule </title>
<path fill="none" stroke="#000000" stroke-dasharray="5,2" d="M319.3811,-175C363.3376,-175 426.5559,-175 426.5559,-175 426.5559,-175 426.5559,-205.9775 426.5559,-205.9775"/>
<polygon fill="#000000" stroke="#000000" points="423.056,-205.9774 426.5559,-215.9775 430.056,-205.9775 423.056,-205.9774"/>
</g>
<!-- DebounceClickDirective  -->
<g id="node6" class="node">
<title>DebounceClickDirective </title>
<polygon fill="#fb8072" stroke="#000000" points="358.166,-252 199.834,-252 199.834,-216 358.166,-216 358.166,-252"/>
<text text-anchor="middle" x="279" y="-229.8" font-family="Times,serif" font-size="14.00" fill="#000000">DebounceClickDirective </text>
</g>
<!-- NgaModule&#45;&gt;DebounceClickDirective  -->
<g id="edge5" class="edge">
<title>NgaModule&#45;&gt;DebounceClickDirective </title>
<path fill="none" stroke="#000000" stroke-dasharray="5,2" d="M278,-187.1061C278,-187.1061 278,-205.991 278,-205.991"/>
<polygon fill="#000000" stroke="#000000" points="274.5001,-205.9909 278,-215.991 281.5001,-205.991 274.5001,-205.9909"/>
</g>
<!-- DisableControlDirective  -->
<g id="node7" class="node">
<title>DisableControlDirective </title>
<polygon fill="#fb8072" stroke="#000000" points="181.6228,-252 24.3772,-252 24.3772,-216 181.6228,-216 181.6228,-252"/>
<text text-anchor="middle" x="103" y="-229.8" font-family="Times,serif" font-size="14.00" fill="#000000">DisableControlDirective </text>
</g>
<!-- NgaModule&#45;&gt;DisableControlDirective  -->
<g id="edge6" class="edge">
<title>NgaModule&#45;&gt;DisableControlDirective </title>
<path fill="none" stroke="#000000" stroke-dasharray="5,2" d="M236.6209,-175C191.785,-175 126.5692,-175 126.5692,-175 126.5692,-175 126.5692,-205.9775 126.5692,-205.9775"/>
<polygon fill="#000000" stroke="#000000" points="123.0693,-205.9774 126.5692,-215.9775 130.0693,-205.9775 123.0693,-205.9774"/>
</g>
<!-- AppTranslationModule -->
<g id="node4" class="node">
<title>AppTranslationModule</title>
<polygon fill="#8dd3c7" stroke="#000000" points="175.9158,-122 172.9158,-126 151.9158,-126 148.9158,-122 28.0842,-122 28.0842,-86 175.9158,-86 175.9158,-122"/>
<text text-anchor="middle" x="102" y="-99.8" font-family="Times,serif" font-size="14.00" fill="#000000">AppTranslationModule</text>
</g>
<!-- AppTranslationModule&#45;&gt;NgaModule -->
<g id="edge3" class="edge">
<title>AppTranslationModule&#45;&gt;NgaModule</title>
<path fill="none" stroke="#000000" d="M77.4308,-122.0225C77.4308,-139.3734 77.4308,-163 77.4308,-163 77.4308,-163 226.4419,-163 226.4419,-163"/>
<polygon fill="#000000" stroke="#000000" points="226.442,-166.5001 236.4419,-163 226.4419,-159.5001 226.442,-166.5001"/>
</g>
</g>
</svg>
