<?xml version="1.0" encoding="UTF-8" standalone="no"?>
<!DOCTYPE svg PUBLIC "-//W3C//DTD SVG 1.1//EN"
 "http://www.w3.org/Graphics/SVG/1.1/DTD/svg11.dtd">
<!-- Generated by graphviz version 2.40.1 (20161225.0304)
 -->
<!-- Title: dependencies Pages: 1 -->
<svg width="1205pt" height="284pt"
 viewBox="0.00 0.00 1205.00 284.00" xmlns="http://www.w3.org/2000/svg" xmlns:xlink="http://www.w3.org/1999/xlink">
<g id="graph0" class="graph" transform="scale(1 1) rotate(0) translate(4 280)">
<title>dependencies</title>
<polygon fill="#ffffff" stroke="transparent" points="-4,4 -4,-280 1201,-280 1201,4 -4,4"/>
<text text-anchor="start" x="577.5091" y="-42.4" font-family="sans-serif" font-weight="bold" font-size="14.00" fill="#000000">Legend</text>
<polygon fill="#ffffb3" stroke="transparent" points="364.5,-10 364.5,-30 384.5,-30 384.5,-10 364.5,-10"/>
<text text-anchor="start" x="388.129" y="-15.4" font-family="sans-serif" font-size="14.00" fill="#000000"> &#160;Declarations</text>
<polygon fill="#8dd3c7" stroke="transparent" points="477.5,-10 477.5,-30 497.5,-30 497.5,-10 477.5,-10"/>
<text text-anchor="start" x="501.2251" y="-15.4" font-family="sans-serif" font-size="14.00" fill="#000000"> &#160;Module</text>
<polygon fill="#80b1d3" stroke="transparent" points="563.5,-10 563.5,-30 583.5,-30 583.5,-10 563.5,-10"/>
<text text-anchor="start" x="587.2812" y="-15.4" font-family="sans-serif" font-size="14.00" fill="#000000"> &#160;Bootstrap</text>
<polygon fill="#fdb462" stroke="transparent" points="660.5,-10 660.5,-30 680.5,-30 680.5,-10 660.5,-10"/>
<text text-anchor="start" x="684.1732" y="-15.4" font-family="sans-serif" font-size="14.00" fill="#000000"> &#160;Providers</text>
<polygon fill="#fb8072" stroke="transparent" points="756.5,-10 756.5,-30 776.5,-30 776.5,-10 756.5,-10"/>
<text text-anchor="start" x="780.2258" y="-15.4" font-family="sans-serif" font-size="14.00" fill="#000000"> &#160;Exports</text>
<g id="clust1" class="cluster">
<title>cluster_NgaModule</title>
<polygon fill="none" stroke="#000000" stroke-dasharray="1,5" points="8,-70 8,-268 1189,-268 1189,-70 8,-70"/>
</g>
<g id="clust2" class="cluster">
<title>cluster_NgaModule_declarations</title>
<polygon fill="none" stroke="#000000" points="198,-78 198,-130 1171,-130 1171,-78 198,-78"/>
</g>
<g id="clust10" class="cluster">
<title>cluster_NgaModule_imports</title>
<polygon fill="none" stroke="#000000" points="26,-78 26,-130 190,-130 190,-78 26,-78"/>
</g>
<g id="clust11" class="cluster">
<title>cluster_NgaModule_exports</title>
<polygon fill="none" stroke="#000000" points="16,-208 16,-260 1181,-260 1181,-208 16,-208"/>
</g>
<!-- DebounceClickDirective -->
<g id="node1" class="node">
<title>DebounceClickDirective</title>
<polygon fill="#ffffb3" stroke="#000000" points="1162.6657,-122 1007.3343,-122 1007.3343,-86 1162.6657,-86 1162.6657,-122"/>
<text text-anchor="middle" x="1085" y="-99.8" font-family="Times,serif" font-size="14.00" fill="#000000">DebounceClickDirective</text>
</g>
<!-- NgaModule -->
<g id="node8" class="node">
<title>NgaModule</title>
<polygon fill="#8dd3c7" stroke="#000000" points="580.3711,-187 577.3711,-191 556.3711,-191 553.3711,-187 497.6289,-187 497.6289,-151 580.3711,-151 580.3711,-187"/>
<text text-anchor="middle" x="539" y="-164.8" font-family="Times,serif" font-size="14.00" fill="#000000">NgaModule</text>
</g>
<!-- DebounceClickDirective&#45;&gt;NgaModule -->
<g id="edge1" class="edge">
<title>DebounceClickDirective&#45;&gt;NgaModule</title>
<path fill="none" stroke="#000000" d="M1014.9798,-122.2222C1014.9798,-140.8285 1014.9798,-167 1014.9798,-167 1014.9798,-167 590.4074,-167 590.4074,-167"/>
<polygon fill="#000000" stroke="#000000" points="590.4075,-163.5001 580.4074,-167 590.4074,-170.5001 590.4075,-163.5001"/>
</g>
<!-- DisableControlDirective -->
<g id="node2" class="node">
<title>DisableControlDirective</title>
<polygon fill="#ffffb3" stroke="#000000" points="989.6233,-122 836.3767,-122 836.3767,-86 989.6233,-86 989.6233,-122"/>
<text text-anchor="middle" x="913" y="-99.8" font-family="Times,serif" font-size="14.00" fill="#000000">DisableControlDirective</text>
</g>
<!-- DisableControlDirective&#45;&gt;NgaModule -->
<g id="edge2" class="edge">
<title>DisableControlDirective&#45;&gt;NgaModule</title>
<path fill="none" stroke="#000000" d="M840.9279,-122.0336C840.9279,-139.0597 840.9279,-162 840.9279,-162 840.9279,-162 590.6648,-162 590.6648,-162"/>
<polygon fill="#000000" stroke="#000000" points="590.6648,-158.5001 580.6648,-162 590.6648,-165.5001 590.6648,-158.5001"/>
</g>
<!-- SafeHTMLPipe -->
<g id="node3" class="node">
<title>SafeHTMLPipe</title>
<polygon fill="#ffffb3" stroke="#000000" points="817.9174,-122 712.0826,-122 712.0826,-86 817.9174,-86 817.9174,-122"/>
<text text-anchor="middle" x="765" y="-99.8" font-family="Times,serif" font-size="14.00" fill="#000000">SafeHTMLPipe</text>
</g>
<!-- SafeHTMLPipe&#45;&gt;NgaModule -->
<g id="edge3" class="edge">
<title>SafeHTMLPipe&#45;&gt;NgaModule</title>
<path fill="none" stroke="#000000" d="M765,-122.2396C765,-137.5706 765,-157 765,-157 765,-157 590.4519,-157 590.4519,-157"/>
<polygon fill="#000000" stroke="#000000" points="590.4519,-153.5001 580.4519,-157 590.4518,-160.5001 590.4519,-153.5001"/>
</g>
<!-- SafeResourceURLPipe -->
<g id="node4" class="node">
<title>SafeResourceURLPipe</title>
<polygon fill="#ffffb3" stroke="#000000" points="693.8417,-122 548.1583,-122 548.1583,-86 693.8417,-86 693.8417,-122"/>
<text text-anchor="middle" x="621" y="-99.8" font-family="Times,serif" font-size="14.00" fill="#000000">SafeResourceURLPipe</text>
</g>
<!-- SafeResourceURLPipe&#45;&gt;NgaModule -->
<g id="edge4" class="edge">
<title>SafeResourceURLPipe&#45;&gt;NgaModule</title>
<path fill="none" stroke="#000000" d="M564.2574,-122.1061C564.2574,-122.1061 564.2574,-140.991 564.2574,-140.991"/>
<polygon fill="#000000" stroke="#000000" points="560.7574,-140.9909 564.2574,-150.991 567.7574,-140.991 560.7574,-140.9909"/>
</g>
<!-- SafeScriptPipe -->
<g id="node5" class="node">
<title>SafeScriptPipe</title>
<polygon fill="#ffffb3" stroke="#000000" points="529.6994,-122 430.3006,-122 430.3006,-86 529.6994,-86 529.6994,-122"/>
<text text-anchor="middle" x="480" y="-99.8" font-family="Times,serif" font-size="14.00" fill="#000000">SafeScriptPipe</text>
</g>
<!-- SafeScriptPipe&#45;&gt;NgaModule -->
<g id="edge5" class="edge">
<title>SafeScriptPipe&#45;&gt;NgaModule</title>
<path fill="none" stroke="#000000" d="M513.5821,-122.1061C513.5821,-122.1061 513.5821,-140.991 513.5821,-140.991"/>
<polygon fill="#000000" stroke="#000000" points="510.0821,-140.9909 513.5821,-150.991 517.0821,-140.991 510.0821,-140.9909"/>
</g>
<!-- SafeStylePipe -->
<g id="node6" class="node">
<title>SafeStylePipe</title>
<polygon fill="#ffffb3" stroke="#000000" points="412.0397,-122 317.9603,-122 317.9603,-86 412.0397,-86 412.0397,-122"/>
<text text-anchor="middle" x="365" y="-99.8" font-family="Times,serif" font-size="14.00" fill="#000000">SafeStylePipe</text>
</g>
<!-- SafeStylePipe&#45;&gt;NgaModule -->
<g id="edge6" class="edge">
<title>SafeStylePipe&#45;&gt;NgaModule</title>
<path fill="none" stroke="#000000" d="M394.2993,-122.2396C394.2993,-137.5706 394.2993,-157 394.2993,-157 394.2993,-157 487.5346,-157 487.5346,-157"/>
<polygon fill="#000000" stroke="#000000" points="487.5346,-160.5001 497.5346,-157 487.5345,-153.5001 487.5346,-160.5001"/>
</g>
<!-- SafeURLPipe -->
<g id="node7" class="node">
<title>SafeURLPipe</title>
<polygon fill="#ffffb3" stroke="#000000" points="299.7563,-122 206.2437,-122 206.2437,-86 299.7563,-86 299.7563,-122"/>
<text text-anchor="middle" x="253" y="-99.8" font-family="Times,serif" font-size="14.00" fill="#000000">SafeURLPipe</text>
</g>
<!-- SafeURLPipe&#45;&gt;NgaModule -->
<g id="edge7" class="edge">
<title>SafeURLPipe&#45;&gt;NgaModule</title>
<path fill="none" stroke="#000000" d="M277.7642,-122.0336C277.7642,-139.0597 277.7642,-162 277.7642,-162 277.7642,-162 487.6064,-162 487.6064,-162"/>
<polygon fill="#000000" stroke="#000000" points="487.6064,-165.5001 497.6064,-162 487.6064,-158.5001 487.6064,-165.5001"/>
</g>
<!-- AppTranslationModule  -->
<g id="node10" class="node">
<title>AppTranslationModule </title>
<polygon fill="#fb8072" stroke="#000000" points="1173.4152,-252 1022.5848,-252 1022.5848,-216 1173.4152,-216 1173.4152,-252"/>
<text text-anchor="middle" x="1098" y="-229.8" font-family="Times,serif" font-size="14.00" fill="#000000">AppTranslationModule </text>
</g>
<!-- NgaModule&#45;&gt;AppTranslationModule  -->
<g id="edge9" class="edge">
<title>NgaModule&#45;&gt;AppTranslationModule </title>
<path fill="none" stroke="#000000" stroke-dasharray="5,2" d="M580.6072,-172C709.3445,-172 1092.5626,-172 1092.5626,-172 1092.5626,-172 1092.5626,-205.7333 1092.5626,-205.7333"/>
<polygon fill="#000000" stroke="#000000" points="1089.0627,-205.7333 1092.5626,-215.7333 1096.0627,-205.7333 1089.0627,-205.7333"/>
</g>
<!-- DebounceClickDirective  -->
<g id="node11" class="node">
<title>DebounceClickDirective </title>
<polygon fill="#fb8072" stroke="#000000" points="1004.166,-252 845.834,-252 845.834,-216 1004.166,-216 1004.166,-252"/>
<text text-anchor="middle" x="925" y="-229.8" font-family="Times,serif" font-size="14.00" fill="#000000">DebounceClickDirective </text>
</g>
<!-- NgaModule&#45;&gt;DebounceClickDirective  -->
<g id="edge10" class="edge">
<title>NgaModule&#45;&gt;DebounceClickDirective </title>
<path fill="none" stroke="#000000" stroke-dasharray="5,2" d="M580.6151,-177C679.0013,-177 917.7393,-177 917.7393,-177 917.7393,-177 917.7393,-205.9648 917.7393,-205.9648"/>
<polygon fill="#000000" stroke="#000000" points="914.2394,-205.9648 917.7393,-215.9648 921.2394,-205.9649 914.2394,-205.9648"/>
</g>
<!-- DisableControlDirective  -->
<g id="node12" class="node">
<title>DisableControlDirective </title>
<polygon fill="#fb8072" stroke="#000000" points="827.6228,-252 670.3772,-252 670.3772,-216 827.6228,-216 827.6228,-252"/>
<text text-anchor="middle" x="749" y="-229.8" font-family="Times,serif" font-size="14.00" fill="#000000">DisableControlDirective </text>
</g>
<!-- NgaModule&#45;&gt;DisableControlDirective  -->
<g id="edge11" class="edge">
<title>NgaModule&#45;&gt;DisableControlDirective </title>
<path fill="none" stroke="#000000" stroke-dasharray="5,2" d="M580.4135,-182C622.6999,-182 682.1797,-182 682.1797,-182 682.1797,-182 682.1797,-205.8129 682.1797,-205.8129"/>
<polygon fill="#000000" stroke="#000000" points="678.6798,-205.8129 682.1797,-215.8129 685.6798,-205.813 678.6798,-205.8129"/>
</g>
<!-- SafeHTMLPipe  -->
<g id="node13" class="node">
<title>SafeHTMLPipe </title>
<polygon fill="#fb8072" stroke="#000000" points="652.4166,-252 543.5834,-252 543.5834,-216 652.4166,-216 652.4166,-252"/>
<text text-anchor="middle" x="598" y="-229.8" font-family="Times,serif" font-size="14.00" fill="#000000">SafeHTMLPipe </text>
</g>
<!-- NgaModule&#45;&gt;SafeHTMLPipe  -->
<g id="edge12" class="edge">
<title>NgaModule&#45;&gt;SafeHTMLPipe </title>
<path fill="none" stroke="#000000" stroke-dasharray="5,2" d="M561.9886,-187.1061C561.9886,-187.1061 561.9886,-205.991 561.9886,-205.991"/>
<polygon fill="#000000" stroke="#000000" points="558.4887,-205.9909 561.9886,-215.991 565.4887,-205.991 558.4887,-205.9909"/>
</g>
<!-- SafeResourceURLPipe  -->
<g id="node14" class="node">
<title>SafeResourceURLPipe </title>
<polygon fill="#fb8072" stroke="#000000" points="525.842,-252 376.158,-252 376.158,-216 525.842,-216 525.842,-252"/>
<text text-anchor="middle" x="451" y="-229.8" font-family="Times,serif" font-size="14.00" fill="#000000">SafeResourceURLPipe </text>
</g>
<!-- NgaModule&#45;&gt;SafeResourceURLPipe  -->
<g id="edge13" class="edge">
<title>NgaModule&#45;&gt;SafeResourceURLPipe </title>
<path fill="none" stroke="#000000" stroke-dasharray="5,2" d="M511.6177,-187.1061C511.6177,-187.1061 511.6177,-205.991 511.6177,-205.991"/>
<polygon fill="#000000" stroke="#000000" points="508.1177,-205.9909 511.6177,-215.991 515.1177,-205.991 508.1177,-205.9909"/>
</g>
<!-- SafeScriptPipe  -->
<g id="node15" class="node">
<title>SafeScriptPipe </title>
<polygon fill="#fb8072" stroke="#000000" points="358.1996,-252 255.8004,-252 255.8004,-216 358.1996,-216 358.1996,-252"/>
<text text-anchor="middle" x="307" y="-229.8" font-family="Times,serif" font-size="14.00" fill="#000000">SafeScriptPipe </text>
</g>
<!-- NgaModule&#45;&gt;SafeScriptPipe  -->
<g id="edge14" class="edge">
<title>NgaModule&#45;&gt;SafeScriptPipe </title>
<path fill="none" stroke="#000000" stroke-dasharray="5,2" d="M497.361,-182C438.4986,-182 338.0402,-182 338.0402,-182 338.0402,-182 338.0402,-205.8129 338.0402,-205.8129"/>
<polygon fill="#000000" stroke="#000000" points="334.5402,-205.8129 338.0402,-215.8129 341.5402,-205.813 334.5402,-205.8129"/>
</g>
<!-- SafeStylePipe  -->
<g id="node16" class="node">
<title>SafeStylePipe </title>
<polygon fill="#fb8072" stroke="#000000" points="238.0386,-252 139.9614,-252 139.9614,-216 238.0386,-216 238.0386,-252"/>
<text text-anchor="middle" x="189" y="-229.8" font-family="Times,serif" font-size="14.00" fill="#000000">SafeStylePipe </text>
</g>
<!-- NgaModule&#45;&gt;SafeStylePipe  -->
<g id="edge15" class="edge">
<title>NgaModule&#45;&gt;SafeStylePipe </title>
<path fill="none" stroke="#000000" stroke-dasharray="5,2" d="M497.567,-177C411.6596,-177 222.0707,-177 222.0707,-177 222.0707,-177 222.0707,-205.9648 222.0707,-205.9648"/>
<polygon fill="#000000" stroke="#000000" points="218.5707,-205.9648 222.0707,-215.9648 225.5707,-205.9649 218.5707,-205.9648"/>
</g>
<!-- SafeURLPipe  -->
<g id="node17" class="node">
<title>SafeURLPipe </title>
<polygon fill="#fb8072" stroke="#000000" points="121.7563,-252 24.2437,-252 24.2437,-216 121.7563,-216 121.7563,-252"/>
<text text-anchor="middle" x="73" y="-229.8" font-family="Times,serif" font-size="14.00" fill="#000000">SafeURLPipe </text>
</g>
<!-- NgaModule&#45;&gt;SafeURLPipe  -->
<g id="edge16" class="edge">
<title>NgaModule&#45;&gt;SafeURLPipe </title>
<path fill="none" stroke="#000000" stroke-dasharray="5,2" d="M497.2726,-172C383.7835,-172 77.9602,-172 77.9602,-172 77.9602,-172 77.9602,-205.7333 77.9602,-205.7333"/>
<polygon fill="#000000" stroke="#000000" points="74.4601,-205.7333 77.9602,-215.7333 81.4601,-205.7333 74.4601,-205.7333"/>
</g>
<!-- AppTranslationModule -->
<g id="node9" class="node">
<title>AppTranslationModule</title>
<polygon fill="#8dd3c7" stroke="#000000" points="181.9158,-122 178.9158,-126 157.9158,-126 154.9158,-122 34.0842,-122 34.0842,-86 181.9158,-86 181.9158,-122"/>
<text text-anchor="middle" x="108" y="-99.8" font-family="Times,serif" font-size="14.00" fill="#000000">AppTranslationModule</text>
</g>
<!-- AppTranslationModule&#45;&gt;NgaModule -->
<g id="edge8" class="edge">
<title>AppTranslationModule&#45;&gt;NgaModule</title>
<path fill="none" stroke="#000000" d="M160.8442,-122.2222C160.8442,-140.8285 160.8442,-167 160.8442,-167 160.8442,-167 487.449,-167 487.449,-167"/>
<polygon fill="#000000" stroke="#000000" points="487.449,-170.5001 497.449,-167 487.4489,-163.5001 487.449,-170.5001"/>
</g>
</g>
</svg>
