<?xml version="1.0" encoding="UTF-8" standalone="no"?>
<!DOCTYPE svg PUBLIC "-//W3C//DTD SVG 1.1//EN"
 "http://www.w3.org/Graphics/SVG/1.1/DTD/svg11.dtd">
<!-- Generated by graphviz version 2.40.1 (20161225.0304)
 -->
<!-- Title: dependencies Pages: 1 -->
<svg width="511pt" height="284pt"
 viewBox="0.00 0.00 511.00 284.00" xmlns="http://www.w3.org/2000/svg" xmlns:xlink="http://www.w3.org/1999/xlink">
<g id="graph0" class="graph" transform="scale(1 1) rotate(0) translate(4 280)">
<title>dependencies</title>
<polygon fill="#ffffff" stroke="transparent" points="-4,4 -4,-280 507,-280 507,4 -4,4"/>
<text text-anchor="start" x="230.5091" y="-42.4" font-family="sans-serif" font-weight="bold" font-size="14.00" fill="#000000">Legend</text>
<polygon fill="#ffffb3" stroke="transparent" points="17.5,-10 17.5,-30 37.5,-30 37.5,-10 17.5,-10"/>
<text text-anchor="start" x="41.129" y="-15.4" font-family="sans-serif" font-size="14.00" fill="#000000"> &#160;Declarations</text>
<polygon fill="#8dd3c7" stroke="transparent" points="130.5,-10 130.5,-30 150.5,-30 150.5,-10 130.5,-10"/>
<text text-anchor="start" x="154.2251" y="-15.4" font-family="sans-serif" font-size="14.00" fill="#000000"> &#160;Module</text>
<polygon fill="#80b1d3" stroke="transparent" points="216.5,-10 216.5,-30 236.5,-30 236.5,-10 216.5,-10"/>
<text text-anchor="start" x="240.2812" y="-15.4" font-family="sans-serif" font-size="14.00" fill="#000000"> &#160;Bootstrap</text>
<polygon fill="#fdb462" stroke="transparent" points="313.5,-10 313.5,-30 333.5,-30 333.5,-10 313.5,-10"/>
<text text-anchor="start" x="337.1732" y="-15.4" font-family="sans-serif" font-size="14.00" fill="#000000"> &#160;Providers</text>
<polygon fill="#fb8072" stroke="transparent" points="409.5,-10 409.5,-30 429.5,-30 429.5,-10 409.5,-10"/>
<text text-anchor="start" x="433.2258" y="-15.4" font-family="sans-serif" font-size="14.00" fill="#000000"> &#160;Exports</text>
<g id="clust1" class="cluster">
<title>cluster_HoangModule</title>
<polygon fill="none" stroke="#000000" stroke-dasharray="1,5" points="8,-70 8,-268 495,-268 495,-70 8,-70"/>
</g>
<g id="clust3" class="cluster">
<title>cluster_HoangModule_imports</title>
<polygon fill="none" stroke="#000000" points="21,-78 21,-130 482,-130 482,-78 21,-78"/>
</g>
<g id="clust4" class="cluster">
<title>cluster_HoangModule_exports</title>
<polygon fill="none" stroke="#000000" points="16,-208 16,-260 487,-260 487,-208 16,-208"/>
</g>
<!-- HChangeDashboardModule -->
<g id="node1" class="node">
<title>HChangeDashboardModule</title>
<polygon fill="#8dd3c7" stroke="#000000" points="473.5632,-122 470.5632,-126 449.5632,-126 446.5632,-122 300.4368,-122 300.4368,-86 473.5632,-86 473.5632,-122"/>
<text text-anchor="middle" x="387" y="-99.8" font-family="Times,serif" font-size="14.00" fill="#000000">HChangeDashboardModule</text>
</g>
<!-- HoangModule -->
<g id="node4" class="node">
<title>HoangModule</title>
<polygon fill="#8dd3c7" stroke="#000000" points="283.3711,-187 280.3711,-191 259.3711,-191 256.3711,-187 186.6289,-187 186.6289,-151 283.3711,-151 283.3711,-187"/>
<text text-anchor="middle" x="235" y="-164.8" font-family="Times,serif" font-size="14.00" fill="#000000">HoangModule</text>
</g>
<!-- HChangeDashboardModule&#45;&gt;HoangModule -->
<g id="edge1" class="edge">
<title>HChangeDashboardModule&#45;&gt;HoangModule</title>
<path fill="none" stroke="#000000" d="M416.5939,-122.0225C416.5939,-139.3734 416.5939,-163 416.5939,-163 416.5939,-163 293.6638,-163 293.6638,-163"/>
<polygon fill="#000000" stroke="#000000" points="293.6639,-159.5001 283.6638,-163 293.6638,-166.5001 293.6639,-159.5001"/>
</g>
<!-- HMapModule -->
<g id="node2" class="node">
<title>HMapModule</title>
<polygon fill="#8dd3c7" stroke="#000000" points="282.8161,-122 279.8161,-126 258.8161,-126 255.8161,-122 187.1839,-122 187.1839,-86 282.8161,-86 282.8161,-122"/>
<text text-anchor="middle" x="235" y="-99.8" font-family="Times,serif" font-size="14.00" fill="#000000">HMapModule</text>
</g>
<!-- HMapModule&#45;&gt;HoangModule -->
<g id="edge2" class="edge">
<title>HMapModule&#45;&gt;HoangModule</title>
<path fill="none" stroke="#000000" d="M235,-122.1061C235,-122.1061 235,-140.991 235,-140.991"/>
<polygon fill="#000000" stroke="#000000" points="231.5001,-140.9909 235,-150.991 238.5001,-140.991 231.5001,-140.9909"/>
</g>
<!-- HMessageListModule -->
<g id="node3" class="node">
<title>HMessageListModule</title>
<polygon fill="#8dd3c7" stroke="#000000" points="169.413,-122 166.413,-126 145.413,-126 142.413,-122 28.587,-122 28.587,-86 169.413,-86 169.413,-122"/>
<text text-anchor="middle" x="99" y="-99.8" font-family="Times,serif" font-size="14.00" fill="#000000">HMessageListModule</text>
</g>
<!-- HMessageListModule&#45;&gt;HoangModule -->
<g id="edge3" class="edge">
<title>HMessageListModule&#45;&gt;HoangModule</title>
<path fill="none" stroke="#000000" d="M121.5687,-122.0225C121.5687,-139.3734 121.5687,-163 121.5687,-163 121.5687,-163 176.5659,-163 176.5659,-163"/>
<polygon fill="#000000" stroke="#000000" points="176.5659,-166.5001 186.5659,-163 176.5659,-159.5001 176.5659,-166.5001"/>
</g>
<!-- HChangeDashboardModule  -->
<g id="node5" class="node">
<title>HChangeDashboardModule </title>
<polygon fill="#fb8072" stroke="#000000" points="479.0637,-252 302.9363,-252 302.9363,-216 479.0637,-216 479.0637,-252"/>
<text text-anchor="middle" x="391" y="-229.8" font-family="Times,serif" font-size="14.00" fill="#000000">HChangeDashboardModule </text>
</g>
<!-- HoangModule&#45;&gt;HChangeDashboardModule  -->
<g id="edge4" class="edge">
<title>HoangModule&#45;&gt;HChangeDashboardModule </title>
<path fill="none" stroke="#000000" stroke-dasharray="5,2" d="M283.5523,-175C318.5536,-175 359.6561,-175 359.6561,-175 359.6561,-175 359.6561,-205.9775 359.6561,-205.9775"/>
<polygon fill="#000000" stroke="#000000" points="356.1562,-205.9774 359.6561,-215.9775 363.1562,-205.9775 356.1562,-205.9774"/>
</g>
<!-- HMapModule  -->
<g id="node6" class="node">
<title>HMapModule </title>
<polygon fill="#fb8072" stroke="#000000" points="284.3158,-252 185.6842,-252 185.6842,-216 284.3158,-216 284.3158,-252"/>
<text text-anchor="middle" x="235" y="-229.8" font-family="Times,serif" font-size="14.00" fill="#000000">HMapModule </text>
</g>
<!-- HoangModule&#45;&gt;HMapModule  -->
<g id="edge5" class="edge">
<title>HoangModule&#45;&gt;HMapModule </title>
<path fill="none" stroke="#000000" stroke-dasharray="5,2" d="M235,-187.1061C235,-187.1061 235,-205.991 235,-205.991"/>
<polygon fill="#000000" stroke="#000000" points="231.5001,-205.9909 235,-215.991 238.5001,-205.991 231.5001,-205.9909"/>
</g>
<!-- HMessageListModule  -->
<g id="node7" class="node">
<title>HMessageListModule </title>
<polygon fill="#fb8072" stroke="#000000" points="167.9124,-252 24.0876,-252 24.0876,-216 167.9124,-216 167.9124,-252"/>
<text text-anchor="middle" x="96" y="-229.8" font-family="Times,serif" font-size="14.00" fill="#000000">HMessageListModule </text>
</g>
<!-- HoangModule&#45;&gt;HMessageListModule  -->
<g id="edge6" class="edge">
<title>HoangModule&#45;&gt;HMessageListModule </title>
<path fill="none" stroke="#000000" stroke-dasharray="5,2" d="M186.6154,-175C139.5766,-175 75.1813,-175 75.1813,-175 75.1813,-175 75.1813,-205.9775 75.1813,-205.9775"/>
<polygon fill="#000000" stroke="#000000" points="71.6814,-205.9774 75.1813,-215.9775 78.6814,-205.9775 71.6814,-205.9774"/>
</g>
</g>
</svg>
