<?xml version="1.0" encoding="UTF-8" standalone="no"?>
<!DOCTYPE svg PUBLIC "-//W3C//DTD SVG 1.1//EN"
 "http://www.w3.org/Graphics/SVG/1.1/DTD/svg11.dtd">
<!-- Generated by graphviz version 2.40.1 (20161225.0304)
 -->
<!-- Title: dependencies Pages: 1 -->
<svg width="2683pt" height="211pt"
 viewBox="0.00 0.00 2683.00 211.00" xmlns="http://www.w3.org/2000/svg" xmlns:xlink="http://www.w3.org/1999/xlink">
<g id="graph0" class="graph" transform="scale(1 1) rotate(0) translate(4 207)">
<title>dependencies</title>
<polygon fill="#ffffff" stroke="transparent" points="-4,4 -4,-207 2679,-207 2679,4 -4,4"/>
<text text-anchor="start" x="1316.5091" y="-42.4" font-family="sans-serif" font-weight="bold" font-size="14.00" fill="#000000">Legend</text>
<polygon fill="#ffffb3" stroke="transparent" points="1103.5,-10 1103.5,-30 1123.5,-30 1123.5,-10 1103.5,-10"/>
<text text-anchor="start" x="1127.129" y="-15.4" font-family="sans-serif" font-size="14.00" fill="#000000"> &#160;Declarations</text>
<polygon fill="#8dd3c7" stroke="transparent" points="1216.5,-10 1216.5,-30 1236.5,-30 1236.5,-10 1216.5,-10"/>
<text text-anchor="start" x="1240.2251" y="-15.4" font-family="sans-serif" font-size="14.00" fill="#000000"> &#160;Module</text>
<polygon fill="#80b1d3" stroke="transparent" points="1302.5,-10 1302.5,-30 1322.5,-30 1322.5,-10 1302.5,-10"/>
<text text-anchor="start" x="1326.2812" y="-15.4" font-family="sans-serif" font-size="14.00" fill="#000000"> &#160;Bootstrap</text>
<polygon fill="#fdb462" stroke="transparent" points="1399.5,-10 1399.5,-30 1419.5,-30 1419.5,-10 1399.5,-10"/>
<text text-anchor="start" x="1423.1732" y="-15.4" font-family="sans-serif" font-size="14.00" fill="#000000"> &#160;Providers</text>
<polygon fill="#fb8072" stroke="transparent" points="1495.5,-10 1495.5,-30 1515.5,-30 1515.5,-10 1495.5,-10"/>
<text text-anchor="start" x="1519.2258" y="-15.4" font-family="sans-serif" font-size="14.00" fill="#000000"> &#160;Exports</text>
<g id="clust1" class="cluster">
<title>cluster_GkClnModule</title>
<polygon fill="none" stroke="#000000" stroke-dasharray="1,5" points="8,-70 8,-195 2667,-195 2667,-70 8,-70"/>
</g>
<g id="clust2" class="cluster">
<title>cluster_GkClnModule_declarations</title>
<polygon fill="none" stroke="#000000" points="2525,-78 2525,-130 2659,-130 2659,-78 2525,-78"/>
</g>
<g id="clust4" class="cluster">
<title>cluster_GkClnModule_imports</title>
<polygon fill="none" stroke="#000000" points="1297,-78 1297,-130 2517,-130 2517,-78 1297,-78"/>
</g>
<g id="clust7" class="cluster">
<title>cluster_GkClnModule_providers</title>
<polygon fill="none" stroke="#000000" points="16,-78 16,-130 1289,-130 1289,-78 16,-78"/>
</g>
<!-- GkClnComponent -->
<g id="node1" class="node">
<title>GkClnComponent</title>
<polygon fill="#ffffb3" stroke="#000000" points="2651.1667,-122 2532.8333,-122 2532.8333,-86 2651.1667,-86 2651.1667,-122"/>
<text text-anchor="middle" x="2592" y="-99.8" font-family="Times,serif" font-size="14.00" fill="#000000">GkClnComponent</text>
</g>
<!-- GkClnModule -->
<g id="node2" class="node">
<title>GkClnModule</title>
<polygon fill="#8dd3c7" stroke="#000000" points="1447.3837,-187 1444.3837,-191 1423.3837,-191 1420.3837,-187 1350.6163,-187 1350.6163,-151 1447.3837,-151 1447.3837,-187"/>
<text text-anchor="middle" x="1399" y="-164.8" font-family="Times,serif" font-size="14.00" fill="#000000">GkClnModule</text>
</g>
<!-- GkClnComponent&#45;&gt;GkClnModule -->
<g id="edge1" class="edge">
<title>GkClnComponent&#45;&gt;GkClnModule</title>
<path fill="none" stroke="#000000" d="M2592,-122.3228C2592,-145.6602 2592,-183 2592,-183 2592,-183 1457.6172,-183 1457.6172,-183"/>
<polygon fill="#000000" stroke="#000000" points="1457.6173,-179.5001 1447.6172,-183 1457.6172,-186.5001 1457.6173,-179.5001"/>
</g>
<!-- NgaModule -->
<g id="node3" class="node">
<title>NgaModule</title>
<polygon fill="#8dd3c7" stroke="#000000" points="2509.3711,-122 2506.3711,-126 2485.3711,-126 2482.3711,-122 2426.6289,-122 2426.6289,-86 2509.3711,-86 2509.3711,-122"/>
<text text-anchor="middle" x="2468" y="-99.8" font-family="Times,serif" font-size="14.00" fill="#000000">NgaModule</text>
</g>
<!-- NgaModule&#45;&gt;GkClnModule -->
<g id="edge2" class="edge">
<title>NgaModule&#45;&gt;GkClnModule</title>
<path fill="none" stroke="#000000" d="M2468,-122.2921C2468,-144.2057 2468,-178 2468,-178 2468,-178 1457.7105,-178 1457.7105,-178"/>
<polygon fill="#000000" stroke="#000000" points="1457.7106,-174.5001 1447.7105,-178 1457.7105,-181.5001 1457.7106,-174.5001"/>
</g>
<!-- GkClnRoutingModule -->
<g id="node4" class="node">
<title>GkClnRoutingModule</title>
<polygon fill="#8dd3c7" stroke="#000000" points="2409.0014,-122 2406.0014,-126 2385.0014,-126 2382.0014,-122 2266.9986,-122 2266.9986,-86 2409.0014,-86 2409.0014,-122"/>
<text text-anchor="middle" x="2338" y="-99.8" font-family="Times,serif" font-size="14.00" fill="#000000">GkClnRoutingModule</text>
</g>
<!-- GkClnRoutingModule&#45;&gt;GkClnModule -->
<g id="edge3" class="edge">
<title>GkClnRoutingModule&#45;&gt;GkClnModule</title>
<path fill="none" stroke="#000000" d="M2338,-122.0267C2338,-142.7672 2338,-174 2338,-174 2338,-174 1457.5074,-174 1457.5074,-174"/>
<polygon fill="#000000" stroke="#000000" points="1457.5075,-170.5001 1447.5074,-174 1457.5074,-177.5001 1457.5075,-170.5001"/>
</g>
<!-- HDashboardBlankModule -->
<g id="node5" class="node">
<title>HDashboardBlankModule</title>
<polygon fill="#8dd3c7" stroke="#000000" points="2248.7394,-122 2245.7394,-126 2224.7394,-126 2221.7394,-122 2085.2606,-122 2085.2606,-86 2248.7394,-86 2248.7394,-122"/>
<text text-anchor="middle" x="2167" y="-99.8" font-family="Times,serif" font-size="14.00" fill="#000000">HDashboardBlankModule</text>
</g>
<!-- HDashboardBlankModule&#45;&gt;GkClnModule -->
<g id="edge4" class="edge">
<title>HDashboardBlankModule&#45;&gt;GkClnModule</title>
<path fill="none" stroke="#000000" d="M2167,-122.1061C2167,-141.3391 2167,-169 2167,-169 2167,-169 1457.6245,-169 1457.6245,-169"/>
<polygon fill="#000000" stroke="#000000" points="1457.6245,-165.5001 1447.6245,-169 1457.6244,-172.5001 1457.6245,-165.5001"/>
</g>
<!-- HDashboardKPIModule -->
<g id="node6" class="node">
<title>HDashboardKPIModule</title>
<polygon fill="#8dd3c7" stroke="#000000" points="2067.3473,-122 2064.3473,-126 2043.3473,-126 2040.3473,-122 1914.6527,-122 1914.6527,-86 2067.3473,-86 2067.3473,-122"/>
<text text-anchor="middle" x="1991" y="-99.8" font-family="Times,serif" font-size="14.00" fill="#000000">HDashboardKPIModule</text>
</g>
<!-- HDashboardKPIModule&#45;&gt;GkClnModule -->
<g id="edge5" class="edge">
<title>HDashboardKPIModule&#45;&gt;GkClnModule</title>
<path fill="none" stroke="#000000" d="M1991,-122.302C1991,-140.2699 1991,-165 1991,-165 1991,-165 1457.4458,-165 1457.4458,-165"/>
<polygon fill="#000000" stroke="#000000" points="1457.4459,-161.5001 1447.4458,-165 1457.4458,-168.5001 1457.4459,-161.5001"/>
</g>
<!-- HDashboardChartPDPModule -->
<g id="node7" class="node">
<title>HDashboardChartPDPModule</title>
<polygon fill="#8dd3c7" stroke="#000000" points="1896.5716,-122 1893.5716,-126 1872.5716,-126 1869.5716,-122 1709.4284,-122 1709.4284,-86 1896.5716,-86 1896.5716,-122"/>
<text text-anchor="middle" x="1803" y="-99.8" font-family="Times,serif" font-size="14.00" fill="#000000">HDashboardChartPDPModule</text>
</g>
<!-- HDashboardChartPDPModule&#45;&gt;GkClnModule -->
<g id="edge6" class="edge">
<title>HDashboardChartPDPModule&#45;&gt;GkClnModule</title>
<path fill="none" stroke="#000000" d="M1803,-122.027C1803,-138.3976 1803,-160 1803,-160 1803,-160 1457.7318,-160 1457.7318,-160"/>
<polygon fill="#000000" stroke="#000000" points="1457.7319,-156.5001 1447.7318,-160 1457.7318,-163.5001 1457.7319,-156.5001"/>
</g>
<!-- HDashboardChartBarModule -->
<g id="node8" class="node">
<title>HDashboardChartBarModule</title>
<polygon fill="#8dd3c7" stroke="#000000" points="1691.612,-122 1688.612,-126 1667.612,-126 1664.612,-122 1510.388,-122 1510.388,-86 1691.612,-86 1691.612,-122"/>
<text text-anchor="middle" x="1601" y="-99.8" font-family="Times,serif" font-size="14.00" fill="#000000">HDashboardChartBarModule</text>
</g>
<!-- HDashboardChartBarModule&#45;&gt;GkClnModule -->
<g id="edge7" class="edge">
<title>HDashboardChartBarModule&#45;&gt;GkClnModule</title>
<path fill="none" stroke="#000000" d="M1601,-122.1871C1601,-137.1824 1601,-156 1601,-156 1601,-156 1457.384,-156 1457.384,-156"/>
<polygon fill="#000000" stroke="#000000" points="1457.3841,-152.5001 1447.384,-156 1457.384,-159.5001 1457.3841,-152.5001"/>
</g>
<!-- HDashboardChartLineModule -->
<g id="node9" class="node">
<title>HDashboardChartLineModule</title>
<polygon fill="#8dd3c7" stroke="#000000" points="1492.5576,-122 1489.5576,-126 1468.5576,-126 1465.5576,-122 1305.4424,-122 1305.4424,-86 1492.5576,-86 1492.5576,-122"/>
<text text-anchor="middle" x="1399" y="-99.8" font-family="Times,serif" font-size="14.00" fill="#000000">HDashboardChartLineModule</text>
</g>
<!-- HDashboardChartLineModule&#45;&gt;GkClnModule -->
<g id="edge8" class="edge">
<title>HDashboardChartLineModule&#45;&gt;GkClnModule</title>
<path fill="none" stroke="#000000" d="M1399,-122.1061C1399,-122.1061 1399,-140.991 1399,-140.991"/>
<polygon fill="#000000" stroke="#000000" points="1395.5001,-140.9909 1399,-150.991 1402.5001,-140.991 1395.5001,-140.9909"/>
</g>
<!-- GkUserService -->
<g id="node10" class="node">
<title>GkUserService</title>
<ellipse fill="#fdb462" stroke="#000000" cx="1211" cy="-104" rx="70.0403" ry="18"/>
<text text-anchor="middle" x="1211" y="-99.8" font-family="Times,serif" font-size="14.00" fill="#000000">GkUserService</text>
</g>
<!-- GkUserService&#45;&gt;GkClnModule -->
<g id="edge9" class="edge">
<title>GkUserService&#45;&gt;GkClnModule</title>
<path fill="none" stroke="#000000" d="M1211,-122.1871C1211,-137.1824 1211,-156 1211,-156 1211,-156 1340.5853,-156 1340.5853,-156"/>
<polygon fill="#000000" stroke="#000000" points="1340.5854,-159.5001 1350.5853,-156 1340.5853,-152.5001 1340.5854,-159.5001"/>
</g>
<!-- GkRequestService -->
<g id="node11" class="node">
<title>GkRequestService</title>
<ellipse fill="#fdb462" stroke="#000000" cx="1040" cy="-104" rx="82.8032" ry="18"/>
<text text-anchor="middle" x="1040" y="-99.8" font-family="Times,serif" font-size="14.00" fill="#000000">GkRequestService</text>
</g>
<!-- GkRequestService&#45;&gt;GkClnModule -->
<g id="edge10" class="edge">
<title>GkRequestService&#45;&gt;GkClnModule</title>
<path fill="none" stroke="#000000" d="M1040,-122.027C1040,-138.3976 1040,-160 1040,-160 1040,-160 1340.5837,-160 1340.5837,-160"/>
<polygon fill="#000000" stroke="#000000" points="1340.5837,-163.5001 1350.5837,-160 1340.5836,-156.5001 1340.5837,-163.5001"/>
</g>
<!-- GkClientService -->
<g id="node12" class="node">
<title>GkClientService</title>
<ellipse fill="#fdb462" stroke="#000000" cx="864" cy="-104" rx="75.2964" ry="18"/>
<text text-anchor="middle" x="864" y="-99.8" font-family="Times,serif" font-size="14.00" fill="#000000">GkClientService</text>
</g>
<!-- GkClientService&#45;&gt;GkClnModule -->
<g id="edge11" class="edge">
<title>GkClientService&#45;&gt;GkClnModule</title>
<path fill="none" stroke="#000000" d="M864,-122.302C864,-140.2699 864,-165 864,-165 864,-165 1340.5787,-165 1340.5787,-165"/>
<polygon fill="#000000" stroke="#000000" points="1340.5788,-168.5001 1350.5787,-165 1340.5787,-161.5001 1340.5788,-168.5001"/>
</g>
<!-- ApprovalItemService -->
<g id="node13" class="node">
<title>ApprovalItemService</title>
<ellipse fill="#fdb462" stroke="#000000" cx="676" cy="-104" rx="94.3195" ry="18"/>
<text text-anchor="middle" x="676" y="-99.8" font-family="Times,serif" font-size="14.00" fill="#000000">ApprovalItemService</text>
</g>
<!-- ApprovalItemService&#45;&gt;GkClnModule -->
<g id="edge12" class="edge">
<title>ApprovalItemService&#45;&gt;GkClnModule</title>
<path fill="none" stroke="#000000" d="M676,-122.1061C676,-141.3391 676,-169 676,-169 676,-169 1340.4393,-169 1340.4393,-169"/>
<polygon fill="#000000" stroke="#000000" points="1340.4393,-172.5001 1350.4393,-169 1340.4392,-165.5001 1340.4393,-172.5001"/>
</g>
<!-- DatasourceService -->
<g id="node14" class="node">
<title>DatasourceService</title>
<ellipse fill="#fdb462" stroke="#000000" cx="480" cy="-104" rx="83.3423" ry="18"/>
<text text-anchor="middle" x="480" y="-99.8" font-family="Times,serif" font-size="14.00" fill="#000000">DatasourceService</text>
</g>
<!-- DatasourceService&#45;&gt;GkClnModule -->
<g id="edge13" class="edge">
<title>DatasourceService&#45;&gt;GkClnModule</title>
<path fill="none" stroke="#000000" d="M480,-122.0267C480,-142.7672 480,-174 480,-174 480,-174 1340.5624,-174 1340.5624,-174"/>
<polygon fill="#000000" stroke="#000000" points="1340.5625,-177.5001 1350.5624,-174 1340.5624,-170.5001 1340.5625,-177.5001"/>
</g>
<!-- RequestFileService -->
<g id="node15" class="node">
<title>RequestFileService</title>
<ellipse fill="#fdb462" stroke="#000000" cx="292" cy="-104" rx="86.2483" ry="18"/>
<text text-anchor="middle" x="292" y="-99.8" font-family="Times,serif" font-size="14.00" fill="#000000">RequestFileService</text>
</g>
<!-- RequestFileService&#45;&gt;GkClnModule -->
<g id="edge14" class="edge">
<title>RequestFileService&#45;&gt;GkClnModule</title>
<path fill="none" stroke="#000000" d="M292,-122.2921C292,-144.2057 292,-178 292,-178 292,-178 1340.3641,-178 1340.3641,-178"/>
<polygon fill="#000000" stroke="#000000" points="1340.3641,-181.5001 1350.3641,-178 1340.3641,-174.5001 1340.3641,-181.5001"/>
</g>
<!-- DashboardService -->
<g id="node16" class="node">
<title>DashboardService</title>
<ellipse fill="#fdb462" stroke="#000000" cx="106" cy="-104" rx="81.6423" ry="18"/>
<text text-anchor="middle" x="106" y="-99.8" font-family="Times,serif" font-size="14.00" fill="#000000">DashboardService</text>
</g>
<!-- DashboardService&#45;&gt;GkClnModule -->
<g id="edge15" class="edge">
<title>DashboardService&#45;&gt;GkClnModule</title>
<path fill="none" stroke="#000000" d="M106,-122.3228C106,-145.6602 106,-183 106,-183 106,-183 1340.2829,-183 1340.2829,-183"/>
<polygon fill="#000000" stroke="#000000" points="1340.283,-186.5001 1350.2829,-183 1340.2829,-179.5001 1340.283,-186.5001"/>
</g>
</g>
</svg>
