<?xml version="1.0" encoding="UTF-8" standalone="no"?>
<!DOCTYPE svg PUBLIC "-//W3C//DTD SVG 1.1//EN"
 "http://www.w3.org/Graphics/SVG/1.1/DTD/svg11.dtd">
<!-- Generated by graphviz version 2.40.1 (20161225.0304)
 -->
<!-- Title: dependencies Pages: 1 -->
<svg width="522pt" height="211pt"
 viewBox="0.00 0.00 522.00 211.00" xmlns="http://www.w3.org/2000/svg" xmlns:xlink="http://www.w3.org/1999/xlink">
<g id="graph0" class="graph" transform="scale(1 1) rotate(0) translate(4 207)">
<title>dependencies</title>
<polygon fill="#ffffff" stroke="transparent" points="-4,4 -4,-207 518,-207 518,4 -4,4"/>
<text text-anchor="start" x="236.0091" y="-42.4" font-family="sans-serif" font-weight="bold" font-size="14.00" fill="#000000">Legend</text>
<polygon fill="#ffffb3" stroke="transparent" points="23,-10 23,-30 43,-30 43,-10 23,-10"/>
<text text-anchor="start" x="46.629" y="-15.4" font-family="sans-serif" font-size="14.00" fill="#000000"> &#160;Declarations</text>
<polygon fill="#8dd3c7" stroke="transparent" points="136,-10 136,-30 156,-30 156,-10 136,-10"/>
<text text-anchor="start" x="159.7251" y="-15.4" font-family="sans-serif" font-size="14.00" fill="#000000"> &#160;Module</text>
<polygon fill="#80b1d3" stroke="transparent" points="222,-10 222,-30 242,-30 242,-10 222,-10"/>
<text text-anchor="start" x="245.7812" y="-15.4" font-family="sans-serif" font-size="14.00" fill="#000000"> &#160;Bootstrap</text>
<polygon fill="#fdb462" stroke="transparent" points="319,-10 319,-30 339,-30 339,-10 319,-10"/>
<text text-anchor="start" x="342.6732" y="-15.4" font-family="sans-serif" font-size="14.00" fill="#000000"> &#160;Providers</text>
<polygon fill="#fb8072" stroke="transparent" points="415,-10 415,-30 435,-30 435,-10 415,-10"/>
<text text-anchor="start" x="438.7258" y="-15.4" font-family="sans-serif" font-size="14.00" fill="#000000"> &#160;Exports</text>
<g id="clust1" class="cluster">
<title>cluster_GkCln11Module</title>
<polygon fill="none" stroke="#000000" stroke-dasharray="1,5" points="8,-70 8,-195 506,-195 506,-70 8,-70"/>
</g>
<g id="clust2" class="cluster">
<title>cluster_GkCln11Module_declarations</title>
<polygon fill="none" stroke="#000000" points="350,-78 350,-130 498,-130 498,-78 350,-78"/>
</g>
<g id="clust4" class="cluster">
<title>cluster_GkCln11Module_imports</title>
<polygon fill="none" stroke="#000000" points="16,-78 16,-130 342,-130 342,-78 16,-78"/>
</g>
<!-- GkCln11Component -->
<g id="node1" class="node">
<title>GkCln11Component</title>
<polygon fill="#ffffb3" stroke="#000000" points="490.1666,-122 357.8334,-122 357.8334,-86 490.1666,-86 490.1666,-122"/>
<text text-anchor="middle" x="424" y="-99.8" font-family="Times,serif" font-size="14.00" fill="#000000">GkCln11Component</text>
</g>
<!-- GkCln11Module -->
<g id="node2" class="node">
<title>GkCln11Module</title>
<polygon fill="#8dd3c7" stroke="#000000" points="321.3837,-187 318.3837,-191 297.3837,-191 294.3837,-187 210.6163,-187 210.6163,-151 321.3837,-151 321.3837,-187"/>
<text text-anchor="middle" x="266" y="-164.8" font-family="Times,serif" font-size="14.00" fill="#000000">GkCln11Module</text>
</g>
<!-- GkCln11Component&#45;&gt;GkCln11Module -->
<g id="edge1" class="edge">
<title>GkCln11Component&#45;&gt;GkCln11Module</title>
<path fill="none" stroke="#000000" d="M424,-122.1061C424,-141.3391 424,-169 424,-169 424,-169 331.7049,-169 331.7049,-169"/>
<polygon fill="#000000" stroke="#000000" points="331.7049,-165.5001 321.7049,-169 331.7049,-172.5001 331.7049,-165.5001"/>
</g>
<!-- GkClnSharedModule -->
<g id="node3" class="node">
<title>GkClnSharedModule</title>
<polygon fill="#8dd3c7" stroke="#000000" points="333.7562,-122 330.7562,-126 309.7562,-126 306.7562,-122 198.2438,-122 198.2438,-86 333.7562,-86 333.7562,-122"/>
<text text-anchor="middle" x="266" y="-99.8" font-family="Times,serif" font-size="14.00" fill="#000000">GkClnSharedModule</text>
</g>
<!-- GkClnSharedModule&#45;&gt;GkCln11Module -->
<g id="edge2" class="edge">
<title>GkClnSharedModule&#45;&gt;GkCln11Module</title>
<path fill="none" stroke="#000000" d="M266,-122.1061C266,-122.1061 266,-140.991 266,-140.991"/>
<polygon fill="#000000" stroke="#000000" points="262.5001,-140.9909 266,-150.991 269.5001,-140.991 262.5001,-140.9909"/>
</g>
<!-- GkCln11RoutingModule -->
<g id="node4" class="node">
<title>GkCln11RoutingModule</title>
<polygon fill="#8dd3c7" stroke="#000000" points="180.0014,-122 177.0014,-126 156.0014,-126 153.0014,-122 23.9986,-122 23.9986,-86 180.0014,-86 180.0014,-122"/>
<text text-anchor="middle" x="102" y="-99.8" font-family="Times,serif" font-size="14.00" fill="#000000">GkCln11RoutingModule</text>
</g>
<!-- GkCln11RoutingModule&#45;&gt;GkCln11Module -->
<g id="edge3" class="edge">
<title>GkCln11RoutingModule&#45;&gt;GkCln11Module</title>
<path fill="none" stroke="#000000" d="M102,-122.1061C102,-141.3391 102,-169 102,-169 102,-169 200.4771,-169 200.4771,-169"/>
<polygon fill="#000000" stroke="#000000" points="200.4771,-172.5001 210.4771,-169 200.477,-165.5001 200.4771,-172.5001"/>
</g>
</g>
</svg>
