<?xml version="1.0" encoding="UTF-8" standalone="no"?>
<!DOCTYPE svg PUBLIC "-//W3C//DTD SVG 1.1//EN"
 "http://www.w3.org/Graphics/SVG/1.1/DTD/svg11.dtd">
<!-- Generated by graphviz version 2.40.1 (20161225.0304)
 -->
<!-- Title: dependencies Pages: 1 -->
<svg width="709pt" height="211pt"
 viewBox="0.00 0.00 709.00 211.00" xmlns="http://www.w3.org/2000/svg" xmlns:xlink="http://www.w3.org/1999/xlink">
<g id="graph0" class="graph" transform="scale(1 1) rotate(0) translate(4 207)">
<title>dependencies</title>
<polygon fill="#ffffff" stroke="transparent" points="-4,4 -4,-207 705,-207 705,4 -4,4"/>
<text text-anchor="start" x="329.5091" y="-42.4" font-family="sans-serif" font-weight="bold" font-size="14.00" fill="#000000">Legend</text>
<polygon fill="#ffffb3" stroke="transparent" points="116.5,-10 116.5,-30 136.5,-30 136.5,-10 116.5,-10"/>
<text text-anchor="start" x="140.129" y="-15.4" font-family="sans-serif" font-size="14.00" fill="#000000"> &#160;Declarations</text>
<polygon fill="#8dd3c7" stroke="transparent" points="229.5,-10 229.5,-30 249.5,-30 249.5,-10 229.5,-10"/>
<text text-anchor="start" x="253.2251" y="-15.4" font-family="sans-serif" font-size="14.00" fill="#000000"> &#160;Module</text>
<polygon fill="#80b1d3" stroke="transparent" points="315.5,-10 315.5,-30 335.5,-30 335.5,-10 315.5,-10"/>
<text text-anchor="start" x="339.2812" y="-15.4" font-family="sans-serif" font-size="14.00" fill="#000000"> &#160;Bootstrap</text>
<polygon fill="#fdb462" stroke="transparent" points="412.5,-10 412.5,-30 432.5,-30 432.5,-10 412.5,-10"/>
<text text-anchor="start" x="436.1732" y="-15.4" font-family="sans-serif" font-size="14.00" fill="#000000"> &#160;Providers</text>
<polygon fill="#fb8072" stroke="transparent" points="508.5,-10 508.5,-30 528.5,-30 528.5,-10 508.5,-10"/>
<text text-anchor="start" x="532.2258" y="-15.4" font-family="sans-serif" font-size="14.00" fill="#000000"> &#160;Exports</text>
<g id="clust1" class="cluster">
<title>cluster_GkmModule</title>
<polygon fill="none" stroke="#000000" stroke-dasharray="1,5" points="8,-70 8,-195 693,-195 693,-70 8,-70"/>
</g>
<g id="clust2" class="cluster">
<title>cluster_GkmModule_declarations</title>
<polygon fill="none" stroke="#000000" points="418,-78 418,-130 685,-130 685,-78 418,-78"/>
</g>
<g id="clust5" class="cluster">
<title>cluster_GkmModule_imports</title>
<polygon fill="none" stroke="#000000" points="16,-78 16,-130 410,-130 410,-78 16,-78"/>
</g>
<!-- GkmComponent -->
<g id="node1" class="node">
<title>GkmComponent</title>
<polygon fill="#ffffb3" stroke="#000000" points="676.8301,-122 567.1699,-122 567.1699,-86 676.8301,-86 676.8301,-122"/>
<text text-anchor="middle" x="622" y="-99.8" font-family="Times,serif" font-size="14.00" fill="#000000">GkmComponent</text>
</g>
<!-- GkmModule -->
<g id="node3" class="node">
<title>GkmModule</title>
<polygon fill="#8dd3c7" stroke="#000000" points="404.5482,-187 401.5482,-191 380.5482,-191 377.5482,-187 317.4518,-187 317.4518,-151 404.5482,-151 404.5482,-187"/>
<text text-anchor="middle" x="361" y="-164.8" font-family="Times,serif" font-size="14.00" fill="#000000">GkmModule</text>
</g>
<!-- GkmComponent&#45;&gt;GkmModule -->
<g id="edge1" class="edge">
<title>GkmComponent&#45;&gt;GkmModule</title>
<path fill="none" stroke="#000000" d="M622,-122.2843C622,-143.3211 622,-175 622,-175 622,-175 414.6855,-175 414.6855,-175"/>
<polygon fill="#000000" stroke="#000000" points="414.6856,-171.5001 404.6855,-175 414.6855,-178.5001 414.6856,-171.5001"/>
</g>
<!-- Gkm00Component -->
<g id="node2" class="node">
<title>Gkm00Component</title>
<polygon fill="#ffffb3" stroke="#000000" points="549.83,-122 426.17,-122 426.17,-86 549.83,-86 549.83,-122"/>
<text text-anchor="middle" x="488" y="-99.8" font-family="Times,serif" font-size="14.00" fill="#000000">Gkm00Component</text>
</g>
<!-- Gkm00Component&#45;&gt;GkmModule -->
<g id="edge2" class="edge">
<title>Gkm00Component&#45;&gt;GkmModule</title>
<path fill="none" stroke="#000000" d="M488,-122.0225C488,-139.3734 488,-163 488,-163 488,-163 414.7062,-163 414.7062,-163"/>
<polygon fill="#000000" stroke="#000000" points="414.7062,-159.5001 404.7062,-163 414.7062,-166.5001 414.7062,-159.5001"/>
</g>
<!-- NgaModule -->
<g id="node4" class="node">
<title>NgaModule</title>
<polygon fill="#8dd3c7" stroke="#000000" points="402.3711,-122 399.3711,-126 378.3711,-126 375.3711,-122 319.6289,-122 319.6289,-86 402.3711,-86 402.3711,-122"/>
<text text-anchor="middle" x="361" y="-99.8" font-family="Times,serif" font-size="14.00" fill="#000000">NgaModule</text>
</g>
<!-- NgaModule&#45;&gt;GkmModule -->
<g id="edge3" class="edge">
<title>NgaModule&#45;&gt;GkmModule</title>
<path fill="none" stroke="#000000" d="M361,-122.1061C361,-122.1061 361,-140.991 361,-140.991"/>
<polygon fill="#000000" stroke="#000000" points="357.5001,-140.9909 361,-150.991 364.5001,-140.991 357.5001,-140.9909"/>
</g>
<!-- HNavBoardModule -->
<g id="node5" class="node">
<title>HNavBoardModule</title>
<polygon fill="#8dd3c7" stroke="#000000" points="301.6895,-122 298.6895,-126 277.6895,-126 274.6895,-122 174.3105,-122 174.3105,-86 301.6895,-86 301.6895,-122"/>
<text text-anchor="middle" x="238" y="-99.8" font-family="Times,serif" font-size="14.00" fill="#000000">HNavBoardModule</text>
</g>
<!-- HNavBoardModule&#45;&gt;GkmModule -->
<g id="edge4" class="edge">
<title>HNavBoardModule&#45;&gt;GkmModule</title>
<path fill="none" stroke="#000000" d="M238,-122.0225C238,-139.3734 238,-163 238,-163 238,-163 307.2885,-163 307.2885,-163"/>
<polygon fill="#000000" stroke="#000000" points="307.2885,-166.5001 317.2885,-163 307.2884,-159.5001 307.2885,-166.5001"/>
</g>
<!-- GkmRoutingModule -->
<g id="node6" class="node">
<title>GkmRoutingModule</title>
<polygon fill="#8dd3c7" stroke="#000000" points="156.1652,-122 153.1652,-126 132.1652,-126 129.1652,-122 23.8348,-122 23.8348,-86 156.1652,-86 156.1652,-122"/>
<text text-anchor="middle" x="90" y="-99.8" font-family="Times,serif" font-size="14.00" fill="#000000">GkmRoutingModule</text>
</g>
<!-- GkmRoutingModule&#45;&gt;GkmModule -->
<g id="edge5" class="edge">
<title>GkmRoutingModule&#45;&gt;GkmModule</title>
<path fill="none" stroke="#000000" d="M90,-122.2843C90,-143.3211 90,-175 90,-175 90,-175 307.158,-175 307.158,-175"/>
<polygon fill="#000000" stroke="#000000" points="307.158,-178.5001 317.158,-175 307.1579,-171.5001 307.158,-178.5001"/>
</g>
</g>
</svg>
