<?xml version="1.0" encoding="UTF-8" standalone="no"?>
<!DOCTYPE svg PUBLIC "-//W3C//DTD SVG 1.1//EN"
 "http://www.w3.org/Graphics/SVG/1.1/DTD/svg11.dtd">
<!-- Generated by graphviz version 2.40.1 (20161225.0304)
 -->
<!-- Title: dependencies Pages: 1 -->
<svg width="1626pt" height="211pt"
 viewBox="0.00 0.00 1626.00 211.00" xmlns="http://www.w3.org/2000/svg" xmlns:xlink="http://www.w3.org/1999/xlink">
<g id="graph0" class="graph" transform="scale(1 1) rotate(0) translate(4 207)">
<title>dependencies</title>
<polygon fill="#ffffff" stroke="transparent" points="-4,4 -4,-207 1622,-207 1622,4 -4,4"/>
<text text-anchor="start" x="788.0091" y="-42.4" font-family="sans-serif" font-weight="bold" font-size="14.00" fill="#000000">Legend</text>
<polygon fill="#ffffb3" stroke="transparent" points="575,-10 575,-30 595,-30 595,-10 575,-10"/>
<text text-anchor="start" x="598.629" y="-15.4" font-family="sans-serif" font-size="14.00" fill="#000000"> &#160;Declarations</text>
<polygon fill="#8dd3c7" stroke="transparent" points="688,-10 688,-30 708,-30 708,-10 688,-10"/>
<text text-anchor="start" x="711.7251" y="-15.4" font-family="sans-serif" font-size="14.00" fill="#000000"> &#160;Module</text>
<polygon fill="#80b1d3" stroke="transparent" points="774,-10 774,-30 794,-30 794,-10 774,-10"/>
<text text-anchor="start" x="797.7812" y="-15.4" font-family="sans-serif" font-size="14.00" fill="#000000"> &#160;Bootstrap</text>
<polygon fill="#fdb462" stroke="transparent" points="871,-10 871,-30 891,-30 891,-10 871,-10"/>
<text text-anchor="start" x="894.6732" y="-15.4" font-family="sans-serif" font-size="14.00" fill="#000000"> &#160;Providers</text>
<polygon fill="#fb8072" stroke="transparent" points="967,-10 967,-30 987,-30 987,-10 967,-10"/>
<text text-anchor="start" x="990.7258" y="-15.4" font-family="sans-serif" font-size="14.00" fill="#000000"> &#160;Exports</text>
<g id="clust1" class="cluster">
<title>cluster_GkCln31Module</title>
<polygon fill="none" stroke="#000000" stroke-dasharray="1,5" points="8,-70 8,-195 1610,-195 1610,-70 8,-70"/>
</g>
<g id="clust2" class="cluster">
<title>cluster_GkCln31Module_declarations</title>
<polygon fill="none" stroke="#000000" points="1454,-78 1454,-130 1602,-130 1602,-78 1454,-78"/>
</g>
<g id="clust4" class="cluster">
<title>cluster_GkCln31Module_imports</title>
<polygon fill="none" stroke="#000000" points="603,-78 603,-130 1446,-130 1446,-78 603,-78"/>
</g>
<g id="clust7" class="cluster">
<title>cluster_GkCln31Module_providers</title>
<polygon fill="none" stroke="#000000" points="16,-78 16,-130 595,-130 595,-78 16,-78"/>
</g>
<!-- GkCln31Component -->
<g id="node1" class="node">
<title>GkCln31Component</title>
<polygon fill="#ffffb3" stroke="#000000" points="1594.1666,-122 1461.8334,-122 1461.8334,-86 1594.1666,-86 1594.1666,-122"/>
<text text-anchor="middle" x="1528" y="-99.8" font-family="Times,serif" font-size="14.00" fill="#000000">GkCln31Component</text>
</g>
<!-- GkCln31Module -->
<g id="node2" class="node">
<title>GkCln31Module</title>
<polygon fill="#8dd3c7" stroke="#000000" points="904.3837,-187 901.3837,-191 880.3837,-191 877.3837,-187 793.6163,-187 793.6163,-151 904.3837,-151 904.3837,-187"/>
<text text-anchor="middle" x="849" y="-164.8" font-family="Times,serif" font-size="14.00" fill="#000000">GkCln31Module</text>
</g>
<!-- GkCln31Component&#45;&gt;GkCln31Module -->
<g id="edge1" class="edge">
<title>GkCln31Component&#45;&gt;GkCln31Module</title>
<path fill="none" stroke="#000000" d="M1528,-122.0109C1528,-144.4852 1528,-180 1528,-180 1528,-180 914.5654,-180 914.5654,-180"/>
<polygon fill="#000000" stroke="#000000" points="914.5655,-176.5001 904.5654,-180 914.5654,-183.5001 914.5655,-176.5001"/>
</g>
<!-- RequestHeaderModule -->
<g id="node3" class="node">
<title>RequestHeaderModule</title>
<polygon fill="#8dd3c7" stroke="#000000" points="1437.5618,-122 1434.5618,-126 1413.5618,-126 1410.5618,-122 1292.4382,-122 1292.4382,-86 1437.5618,-86 1437.5618,-122"/>
<text text-anchor="middle" x="1365" y="-99.8" font-family="Times,serif" font-size="14.00" fill="#000000">RequestHeaderModule</text>
</g>
<!-- RequestHeaderModule&#45;&gt;GkCln31Module -->
<g id="edge2" class="edge">
<title>RequestHeaderModule&#45;&gt;GkCln31Module</title>
<path fill="none" stroke="#000000" d="M1365,-122.1289C1365,-142.5724 1365,-173 1365,-173 1365,-173 914.7113,-173 914.7113,-173"/>
<polygon fill="#000000" stroke="#000000" points="914.7113,-169.5001 904.7113,-173 914.7113,-176.5001 914.7113,-169.5001"/>
</g>
<!-- RequestDocumentsModule -->
<g id="node4" class="node">
<title>RequestDocumentsModule</title>
<polygon fill="#8dd3c7" stroke="#000000" points="1274.4129,-122 1271.4129,-126 1250.4129,-126 1247.4129,-122 1105.5871,-122 1105.5871,-86 1274.4129,-86 1274.4129,-122"/>
<text text-anchor="middle" x="1190" y="-99.8" font-family="Times,serif" font-size="14.00" fill="#000000">RequestDocumentsModule</text>
</g>
<!-- RequestDocumentsModule&#45;&gt;GkCln31Module -->
<g id="edge3" class="edge">
<title>RequestDocumentsModule&#45;&gt;GkCln31Module</title>
<path fill="none" stroke="#000000" d="M1190,-122.2667C1190,-140.5552 1190,-166 1190,-166 1190,-166 914.5465,-166 914.5465,-166"/>
<polygon fill="#000000" stroke="#000000" points="914.5465,-162.5001 904.5465,-166 914.5464,-169.5001 914.5465,-162.5001"/>
</g>
<!-- RequestApprovalModule -->
<g id="node5" class="node">
<title>RequestApprovalModule</title>
<polygon fill="#8dd3c7" stroke="#000000" points="1087.5239,-122 1084.5239,-126 1063.5239,-126 1060.5239,-122 930.4761,-122 930.4761,-86 1087.5239,-86 1087.5239,-122"/>
<text text-anchor="middle" x="1009" y="-99.8" font-family="Times,serif" font-size="14.00" fill="#000000">RequestApprovalModule</text>
</g>
<!-- RequestApprovalModule&#45;&gt;GkCln31Module -->
<g id="edge4" class="edge">
<title>RequestApprovalModule&#45;&gt;GkCln31Module</title>
<path fill="none" stroke="#000000" d="M1009,-122.0091C1009,-138.0494 1009,-159 1009,-159 1009,-159 914.5112,-159 914.5112,-159"/>
<polygon fill="#000000" stroke="#000000" points="914.5112,-155.5001 904.5112,-159 914.5112,-162.5001 914.5112,-155.5001"/>
</g>
<!-- GkClnFormModule -->
<g id="node6" class="node">
<title>GkClnFormModule</title>
<polygon fill="#8dd3c7" stroke="#000000" points="912.7176,-122 909.7176,-126 888.7176,-126 885.7176,-122 785.2824,-122 785.2824,-86 912.7176,-86 912.7176,-122"/>
<text text-anchor="middle" x="849" y="-99.8" font-family="Times,serif" font-size="14.00" fill="#000000">GkClnFormModule</text>
</g>
<!-- GkClnFormModule&#45;&gt;GkCln31Module -->
<g id="edge5" class="edge">
<title>GkClnFormModule&#45;&gt;GkCln31Module</title>
<path fill="none" stroke="#000000" d="M849,-122.1061C849,-122.1061 849,-140.991 849,-140.991"/>
<polygon fill="#000000" stroke="#000000" points="845.5001,-140.9909 849,-150.991 852.5001,-140.991 845.5001,-140.9909"/>
</g>
<!-- GkCln31RoutingModule -->
<g id="node7" class="node">
<title>GkCln31RoutingModule</title>
<polygon fill="#8dd3c7" stroke="#000000" points="767.0014,-122 764.0014,-126 743.0014,-126 740.0014,-122 610.9986,-122 610.9986,-86 767.0014,-86 767.0014,-122"/>
<text text-anchor="middle" x="689" y="-99.8" font-family="Times,serif" font-size="14.00" fill="#000000">GkCln31RoutingModule</text>
</g>
<!-- GkCln31RoutingModule&#45;&gt;GkCln31Module -->
<g id="edge6" class="edge">
<title>GkCln31RoutingModule&#45;&gt;GkCln31Module</title>
<path fill="none" stroke="#000000" d="M689,-122.0091C689,-138.0494 689,-159 689,-159 689,-159 783.4888,-159 783.4888,-159"/>
<polygon fill="#000000" stroke="#000000" points="783.4888,-162.5001 793.4888,-159 783.4888,-155.5001 783.4888,-162.5001"/>
</g>
<!-- RequestsServices -->
<g id="node8" class="node">
<title>RequestsServices</title>
<ellipse fill="#fdb462" stroke="#000000" cx="508" cy="-104" rx="78.726" ry="18"/>
<text text-anchor="middle" x="508" y="-99.8" font-family="Times,serif" font-size="14.00" fill="#000000">RequestsServices</text>
</g>
<!-- RequestsServices&#45;&gt;GkCln31Module -->
<g id="edge7" class="edge">
<title>RequestsServices&#45;&gt;GkCln31Module</title>
<path fill="none" stroke="#000000" d="M508,-122.2667C508,-140.5552 508,-166 508,-166 508,-166 783.4535,-166 783.4535,-166"/>
<polygon fill="#000000" stroke="#000000" points="783.4536,-169.5001 793.4535,-166 783.4535,-162.5001 783.4536,-169.5001"/>
</g>
<!-- ApprovalItemsServices -->
<g id="node9" class="node">
<title>ApprovalItemsServices</title>
<ellipse fill="#fdb462" stroke="#000000" cx="310" cy="-104" rx="101.8419" ry="18"/>
<text text-anchor="middle" x="310" y="-99.8" font-family="Times,serif" font-size="14.00" fill="#000000">ApprovalItemsServices</text>
</g>
<!-- ApprovalItemsServices&#45;&gt;GkCln31Module -->
<g id="edge8" class="edge">
<title>ApprovalItemsServices&#45;&gt;GkCln31Module</title>
<path fill="none" stroke="#000000" d="M310,-122.1289C310,-142.5724 310,-173 310,-173 310,-173 783.5993,-173 783.5993,-173"/>
<polygon fill="#000000" stroke="#000000" points="783.5994,-176.5001 793.5993,-173 783.5993,-169.5001 783.5994,-176.5001"/>
</g>
<!-- GkClientsServices -->
<g id="node10" class="node">
<title>GkClientsServices</title>
<ellipse fill="#fdb462" stroke="#000000" cx="107" cy="-104" rx="82.8187" ry="18"/>
<text text-anchor="middle" x="107" y="-99.8" font-family="Times,serif" font-size="14.00" fill="#000000">GkClientsServices</text>
</g>
<!-- GkClientsServices&#45;&gt;GkCln31Module -->
<g id="edge9" class="edge">
<title>GkClientsServices&#45;&gt;GkCln31Module</title>
<path fill="none" stroke="#000000" d="M107,-122.0109C107,-144.4852 107,-180 107,-180 107,-180 783.5329,-180 783.5329,-180"/>
<polygon fill="#000000" stroke="#000000" points="783.5329,-183.5001 793.5329,-180 783.5328,-176.5001 783.5329,-183.5001"/>
</g>
</g>
</svg>
