<?xml version="1.0" encoding="UTF-8" standalone="no"?>
<!DOCTYPE svg PUBLIC "-//W3C//DTD SVG 1.1//EN"
 "http://www.w3.org/Graphics/SVG/1.1/DTD/svg11.dtd">
<!-- Generated by graphviz version 2.40.1 (20161225.0304)
 -->
<!-- Title: dependencies Pages: 1 -->
<svg width="1098pt" height="211pt"
 viewBox="0.00 0.00 1098.00 211.00" xmlns="http://www.w3.org/2000/svg" xmlns:xlink="http://www.w3.org/1999/xlink">
<g id="graph0" class="graph" transform="scale(1 1) rotate(0) translate(4 207)">
<title>dependencies</title>
<polygon fill="#ffffff" stroke="transparent" points="-4,4 -4,-207 1094,-207 1094,4 -4,4"/>
<text text-anchor="start" x="524.0091" y="-42.4" font-family="sans-serif" font-weight="bold" font-size="14.00" fill="#000000">Legend</text>
<polygon fill="#ffffb3" stroke="transparent" points="311,-10 311,-30 331,-30 331,-10 311,-10"/>
<text text-anchor="start" x="334.629" y="-15.4" font-family="sans-serif" font-size="14.00" fill="#000000"> &#160;Declarations</text>
<polygon fill="#8dd3c7" stroke="transparent" points="424,-10 424,-30 444,-30 444,-10 424,-10"/>
<text text-anchor="start" x="447.7251" y="-15.4" font-family="sans-serif" font-size="14.00" fill="#000000"> &#160;Module</text>
<polygon fill="#80b1d3" stroke="transparent" points="510,-10 510,-30 530,-30 530,-10 510,-10"/>
<text text-anchor="start" x="533.7812" y="-15.4" font-family="sans-serif" font-size="14.00" fill="#000000"> &#160;Bootstrap</text>
<polygon fill="#fdb462" stroke="transparent" points="607,-10 607,-30 627,-30 627,-10 607,-10"/>
<text text-anchor="start" x="630.6732" y="-15.4" font-family="sans-serif" font-size="14.00" fill="#000000"> &#160;Providers</text>
<polygon fill="#fb8072" stroke="transparent" points="703,-10 703,-30 723,-30 723,-10 703,-10"/>
<text text-anchor="start" x="726.7258" y="-15.4" font-family="sans-serif" font-size="14.00" fill="#000000"> &#160;Exports</text>
<g id="clust1" class="cluster">
<title>cluster_GkCln31Module</title>
<polygon fill="none" stroke="#000000" stroke-dasharray="1,5" points="8,-70 8,-195 1082,-195 1082,-70 8,-70"/>
</g>
<g id="clust2" class="cluster">
<title>cluster_GkCln31Module_declarations</title>
<polygon fill="none" stroke="#000000" points="926,-78 926,-130 1074,-130 1074,-78 926,-78"/>
</g>
<g id="clust4" class="cluster">
<title>cluster_GkCln31Module_imports</title>
<polygon fill="none" stroke="#000000" points="16,-78 16,-130 918,-130 918,-78 16,-78"/>
</g>
<!-- GkCln31Component -->
<g id="node1" class="node">
<title>GkCln31Component</title>
<polygon fill="#ffffb3" stroke="#000000" points="1066.1666,-122 933.8334,-122 933.8334,-86 1066.1666,-86 1066.1666,-122"/>
<text text-anchor="middle" x="1000" y="-99.8" font-family="Times,serif" font-size="14.00" fill="#000000">GkCln31Component</text>
</g>
<!-- GkCln31Module -->
<g id="node2" class="node">
<title>GkCln31Module</title>
<polygon fill="#8dd3c7" stroke="#000000" points="599.3837,-187 596.3837,-191 575.3837,-191 572.3837,-187 488.6163,-187 488.6163,-151 599.3837,-151 599.3837,-187"/>
<text text-anchor="middle" x="544" y="-164.8" font-family="Times,serif" font-size="14.00" fill="#000000">GkCln31Module</text>
</g>
<!-- GkCln31Component&#45;&gt;GkCln31Module -->
<g id="edge1" class="edge">
<title>GkCln31Component&#45;&gt;GkCln31Module</title>
<path fill="none" stroke="#000000" d="M1000,-122.2843C1000,-143.3211 1000,-175 1000,-175 1000,-175 609.4587,-175 609.4587,-175"/>
<polygon fill="#000000" stroke="#000000" points="609.4587,-171.5001 599.4587,-175 609.4586,-178.5001 609.4587,-171.5001"/>
</g>
<!-- HRequestHeaderModule -->
<g id="node3" class="node">
<title>HRequestHeaderModule</title>
<polygon fill="#8dd3c7" stroke="#000000" points="909.6685,-122 906.6685,-126 885.6685,-126 882.6685,-122 754.3315,-122 754.3315,-86 909.6685,-86 909.6685,-122"/>
<text text-anchor="middle" x="832" y="-99.8" font-family="Times,serif" font-size="14.00" fill="#000000">HRequestHeaderModule</text>
</g>
<!-- HRequestHeaderModule&#45;&gt;GkCln31Module -->
<g id="edge2" class="edge">
<title>HRequestHeaderModule&#45;&gt;GkCln31Module</title>
<path fill="none" stroke="#000000" d="M832,-122.0225C832,-139.3734 832,-163 832,-163 832,-163 609.5293,-163 609.5293,-163"/>
<polygon fill="#000000" stroke="#000000" points="609.5293,-159.5001 599.5293,-163 609.5293,-166.5001 609.5293,-159.5001"/>
</g>
<!-- HRequestDocumentsModule -->
<g id="node4" class="node">
<title>HRequestDocumentsModule</title>
<polygon fill="#8dd3c7" stroke="#000000" points="736.0196,-122 733.0196,-126 712.0196,-126 709.0196,-122 557.9804,-122 557.9804,-86 736.0196,-86 736.0196,-122"/>
<text text-anchor="middle" x="647" y="-99.8" font-family="Times,serif" font-size="14.00" fill="#000000">HRequestDocumentsModule</text>
</g>
<!-- HRequestDocumentsModule&#45;&gt;GkCln31Module -->
<g id="edge3" class="edge">
<title>HRequestDocumentsModule&#45;&gt;GkCln31Module</title>
<path fill="none" stroke="#000000" d="M578.5912,-122.1061C578.5912,-122.1061 578.5912,-140.991 578.5912,-140.991"/>
<polygon fill="#000000" stroke="#000000" points="575.0912,-140.9909 578.5912,-150.991 582.0912,-140.991 575.0912,-140.9909"/>
</g>
<!-- HRequestApprovalFlowModule -->
<g id="node5" class="node">
<title>HRequestApprovalFlowModule</title>
<polygon fill="#8dd3c7" stroke="#000000" points="540.41,-122 537.41,-126 516.41,-126 513.41,-122 343.59,-122 343.59,-86 540.41,-86 540.41,-122"/>
<text text-anchor="middle" x="442" y="-99.8" font-family="Times,serif" font-size="14.00" fill="#000000">HRequestApprovalFlowModule</text>
</g>
<!-- HRequestApprovalFlowModule&#45;&gt;GkCln31Module -->
<g id="edge4" class="edge">
<title>HRequestApprovalFlowModule&#45;&gt;GkCln31Module</title>
<path fill="none" stroke="#000000" d="M514.3815,-122.1061C514.3815,-122.1061 514.3815,-140.991 514.3815,-140.991"/>
<polygon fill="#000000" stroke="#000000" points="510.8816,-140.9909 514.3815,-150.991 517.8816,-140.991 510.8816,-140.9909"/>
</g>
<!-- GkClnFormModule -->
<g id="node6" class="node">
<title>GkClnFormModule</title>
<polygon fill="#8dd3c7" stroke="#000000" points="325.7176,-122 322.7176,-126 301.7176,-126 298.7176,-122 198.2824,-122 198.2824,-86 325.7176,-86 325.7176,-122"/>
<text text-anchor="middle" x="262" y="-99.8" font-family="Times,serif" font-size="14.00" fill="#000000">GkClnFormModule</text>
</g>
<!-- GkClnFormModule&#45;&gt;GkCln31Module -->
<g id="edge5" class="edge">
<title>GkClnFormModule&#45;&gt;GkCln31Module</title>
<path fill="none" stroke="#000000" d="M262,-122.0225C262,-139.3734 262,-163 262,-163 262,-163 478.2859,-163 478.2859,-163"/>
<polygon fill="#000000" stroke="#000000" points="478.2859,-166.5001 488.2859,-163 478.2858,-159.5001 478.2859,-166.5001"/>
</g>
<!-- GkCln31RoutingModule -->
<g id="node7" class="node">
<title>GkCln31RoutingModule</title>
<polygon fill="#8dd3c7" stroke="#000000" points="180.0014,-122 177.0014,-126 156.0014,-126 153.0014,-122 23.9986,-122 23.9986,-86 180.0014,-86 180.0014,-122"/>
<text text-anchor="middle" x="102" y="-99.8" font-family="Times,serif" font-size="14.00" fill="#000000">GkCln31RoutingModule</text>
</g>
<!-- GkCln31RoutingModule&#45;&gt;GkCln31Module -->
<g id="edge6" class="edge">
<title>GkCln31RoutingModule&#45;&gt;GkCln31Module</title>
<path fill="none" stroke="#000000" d="M102,-122.2843C102,-143.3211 102,-175 102,-175 102,-175 478.4679,-175 478.4679,-175"/>
<polygon fill="#000000" stroke="#000000" points="478.468,-178.5001 488.4679,-175 478.4679,-171.5001 478.468,-178.5001"/>
</g>
</g>
</svg>
