<?xml version="1.0" encoding="UTF-8" standalone="no"?>
<!DOCTYPE svg PUBLIC "-//W3C//DTD SVG 1.1//EN"
 "http://www.w3.org/Graphics/SVG/1.1/DTD/svg11.dtd">
<!-- Generated by graphviz version 2.40.1 (20161225.0304)
 -->
<!-- Title: dependencies Pages: 1 -->
<svg width="504pt" height="211pt"
 viewBox="0.00 0.00 504.00 211.00" xmlns="http://www.w3.org/2000/svg" xmlns:xlink="http://www.w3.org/1999/xlink">
<g id="graph0" class="graph" transform="scale(1 1) rotate(0) translate(4 207)">
<title>dependencies</title>
<polygon fill="#ffffff" stroke="transparent" points="-4,4 -4,-207 500,-207 500,4 -4,4"/>
<text text-anchor="start" x="227.0091" y="-42.4" font-family="sans-serif" font-weight="bold" font-size="14.00" fill="#000000">Legend</text>
<polygon fill="#ffffb3" stroke="transparent" points="14,-10 14,-30 34,-30 34,-10 14,-10"/>
<text text-anchor="start" x="37.629" y="-15.4" font-family="sans-serif" font-size="14.00" fill="#000000"> &#160;Declarations</text>
<polygon fill="#8dd3c7" stroke="transparent" points="127,-10 127,-30 147,-30 147,-10 127,-10"/>
<text text-anchor="start" x="150.7251" y="-15.4" font-family="sans-serif" font-size="14.00" fill="#000000"> &#160;Module</text>
<polygon fill="#80b1d3" stroke="transparent" points="213,-10 213,-30 233,-30 233,-10 213,-10"/>
<text text-anchor="start" x="236.7812" y="-15.4" font-family="sans-serif" font-size="14.00" fill="#000000"> &#160;Bootstrap</text>
<polygon fill="#fdb462" stroke="transparent" points="310,-10 310,-30 330,-30 330,-10 310,-10"/>
<text text-anchor="start" x="333.6732" y="-15.4" font-family="sans-serif" font-size="14.00" fill="#000000"> &#160;Providers</text>
<polygon fill="#fb8072" stroke="transparent" points="406,-10 406,-30 426,-30 426,-10 406,-10"/>
<text text-anchor="start" x="429.7258" y="-15.4" font-family="sans-serif" font-size="14.00" fill="#000000"> &#160;Exports</text>
<g id="clust1" class="cluster">
<title>cluster_GkCln51Module</title>
<polygon fill="none" stroke="#000000" stroke-dasharray="1,5" points="76,-70 76,-195 420,-195 420,-70 76,-70"/>
</g>
<g id="clust2" class="cluster">
<title>cluster_GkCln51Module_declarations</title>
<polygon fill="none" stroke="#000000" points="264,-78 264,-130 412,-130 412,-78 264,-78"/>
</g>
<g id="clust4" class="cluster">
<title>cluster_GkCln51Module_imports</title>
<polygon fill="none" stroke="#000000" points="84,-78 84,-130 256,-130 256,-78 84,-78"/>
</g>
<!-- GkCln51Component -->
<g id="node1" class="node">
<title>GkCln51Component</title>
<polygon fill="#ffffb3" stroke="#000000" points="404.1666,-122 271.8334,-122 271.8334,-86 404.1666,-86 404.1666,-122"/>
<text text-anchor="middle" x="338" y="-99.8" font-family="Times,serif" font-size="14.00" fill="#000000">GkCln51Component</text>
</g>
<!-- GkCln51Module -->
<g id="node2" class="node">
<title>GkCln51Module</title>
<polygon fill="#8dd3c7" stroke="#000000" points="309.3837,-187 306.3837,-191 285.3837,-191 282.3837,-187 198.6163,-187 198.6163,-151 309.3837,-151 309.3837,-187"/>
<text text-anchor="middle" x="254" y="-164.8" font-family="Times,serif" font-size="14.00" fill="#000000">GkCln51Module</text>
</g>
<!-- GkCln51Component&#45;&gt;GkCln51Module -->
<g id="edge1" class="edge">
<title>GkCln51Component&#45;&gt;GkCln51Module</title>
<path fill="none" stroke="#000000" d="M290.5544,-122.1061C290.5544,-122.1061 290.5544,-140.991 290.5544,-140.991"/>
<polygon fill="#000000" stroke="#000000" points="287.0544,-140.9909 290.5544,-150.991 294.0544,-140.991 287.0544,-140.9909"/>
</g>
<!-- GkCln51RoutingModule -->
<g id="node3" class="node">
<title>GkCln51RoutingModule</title>
<polygon fill="#8dd3c7" stroke="#000000" points="248.0014,-122 245.0014,-126 224.0014,-126 221.0014,-122 91.9986,-122 91.9986,-86 248.0014,-86 248.0014,-122"/>
<text text-anchor="middle" x="170" y="-99.8" font-family="Times,serif" font-size="14.00" fill="#000000">GkCln51RoutingModule</text>
</g>
<!-- GkCln51RoutingModule&#45;&gt;GkCln51Module -->
<g id="edge2" class="edge">
<title>GkCln51RoutingModule&#45;&gt;GkCln51Module</title>
<path fill="none" stroke="#000000" d="M223.2795,-122.1061C223.2795,-122.1061 223.2795,-140.991 223.2795,-140.991"/>
<polygon fill="#000000" stroke="#000000" points="219.7795,-140.9909 223.2795,-150.991 226.7795,-140.991 219.7795,-140.9909"/>
</g>
</g>
</svg>
