<?xml version="1.0" encoding="UTF-8" standalone="no"?>
<!DOCTYPE svg PUBLIC "-//W3C//DTD SVG 1.1//EN"
 "http://www.w3.org/Graphics/SVG/1.1/DTD/svg11.dtd">
<!-- Generated by graphviz version 2.40.1 (20161225.0304)
 -->
<!-- Title: dependencies Pages: 1 -->
<svg width="2192pt" height="211pt"
 viewBox="0.00 0.00 2192.00 211.00" xmlns="http://www.w3.org/2000/svg" xmlns:xlink="http://www.w3.org/1999/xlink">
<g id="graph0" class="graph" transform="scale(1 1) rotate(0) translate(4 207)">
<title>dependencies</title>
<polygon fill="#ffffff" stroke="transparent" points="-4,4 -4,-207 2188,-207 2188,4 -4,4"/>
<text text-anchor="start" x="1071.0091" y="-42.4" font-family="sans-serif" font-weight="bold" font-size="14.00" fill="#000000">Legend</text>
<polygon fill="#ffffb3" stroke="transparent" points="858,-10 858,-30 878,-30 878,-10 858,-10"/>
<text text-anchor="start" x="881.629" y="-15.4" font-family="sans-serif" font-size="14.00" fill="#000000"> &#160;Declarations</text>
<polygon fill="#8dd3c7" stroke="transparent" points="971,-10 971,-30 991,-30 991,-10 971,-10"/>
<text text-anchor="start" x="994.7251" y="-15.4" font-family="sans-serif" font-size="14.00" fill="#000000"> &#160;Module</text>
<polygon fill="#80b1d3" stroke="transparent" points="1057,-10 1057,-30 1077,-30 1077,-10 1057,-10"/>
<text text-anchor="start" x="1080.7812" y="-15.4" font-family="sans-serif" font-size="14.00" fill="#000000"> &#160;Bootstrap</text>
<polygon fill="#fdb462" stroke="transparent" points="1154,-10 1154,-30 1174,-30 1174,-10 1154,-10"/>
<text text-anchor="start" x="1177.6732" y="-15.4" font-family="sans-serif" font-size="14.00" fill="#000000"> &#160;Providers</text>
<polygon fill="#fb8072" stroke="transparent" points="1250,-10 1250,-30 1270,-30 1270,-10 1250,-10"/>
<text text-anchor="start" x="1273.7258" y="-15.4" font-family="sans-serif" font-size="14.00" fill="#000000"> &#160;Exports</text>
<g id="clust1" class="cluster">
<title>cluster_GkSolModule</title>
<polygon fill="none" stroke="#000000" stroke-dasharray="1,5" points="8,-70 8,-195 2176,-195 2176,-70 8,-70"/>
</g>
<g id="clust2" class="cluster">
<title>cluster_GkSolModule_declarations</title>
<polygon fill="none" stroke="#000000" points="1289,-78 1289,-130 2168,-130 2168,-78 1289,-78"/>
</g>
<g id="clust9" class="cluster">
<title>cluster_GkSolModule_imports</title>
<polygon fill="none" stroke="#000000" points="190,-78 190,-130 1281,-130 1281,-78 190,-78"/>
</g>
<g id="clust12" class="cluster">
<title>cluster_GkSolModule_providers</title>
<polygon fill="none" stroke="#000000" points="16,-78 16,-130 182,-130 182,-78 16,-78"/>
</g>
<!-- GkSolComponent -->
<g id="node1" class="node">
<title>GkSolComponent</title>
<polygon fill="#ffffb3" stroke="#000000" points="2159.6123,-122 2042.3877,-122 2042.3877,-86 2159.6123,-86 2159.6123,-122"/>
<text text-anchor="middle" x="2101" y="-99.8" font-family="Times,serif" font-size="14.00" fill="#000000">GkSolComponent</text>
</g>
<!-- GkSolModule -->
<g id="node7" class="node">
<title>GkSolModule</title>
<polygon fill="#8dd3c7" stroke="#000000" points="1185.8302,-187 1182.8302,-191 1161.8302,-191 1158.8302,-187 1090.1698,-187 1090.1698,-151 1185.8302,-151 1185.8302,-187"/>
<text text-anchor="middle" x="1138" y="-164.8" font-family="Times,serif" font-size="14.00" fill="#000000">GkSolModule</text>
</g>
<!-- GkSolComponent&#45;&gt;GkSolModule -->
<g id="edge1" class="edge">
<title>GkSolComponent&#45;&gt;GkSolModule</title>
<path fill="none" stroke="#000000" d="M2101,-122.0908C2101,-145.1328 2101,-182 2101,-182 2101,-182 1195.7553,-182 1195.7553,-182"/>
<polygon fill="#000000" stroke="#000000" points="1195.7554,-178.5001 1185.7553,-182 1195.7553,-185.5001 1195.7554,-178.5001"/>
</g>
<!-- GkSol00Component -->
<g id="node2" class="node">
<title>GkSol00Component</title>
<polygon fill="#ffffb3" stroke="#000000" points="2024.6122,-122 1893.3878,-122 1893.3878,-86 2024.6122,-86 2024.6122,-122"/>
<text text-anchor="middle" x="1959" y="-99.8" font-family="Times,serif" font-size="14.00" fill="#000000">GkSol00Component</text>
</g>
<!-- GkSol00Component&#45;&gt;GkSolModule -->
<g id="edge2" class="edge">
<title>GkSol00Component&#45;&gt;GkSolModule</title>
<path fill="none" stroke="#000000" d="M1959,-122.0449C1959,-143.6623 1959,-177 1959,-177 1959,-177 1195.6891,-177 1195.6891,-177"/>
<polygon fill="#000000" stroke="#000000" points="1195.6891,-173.5001 1185.6891,-177 1195.6891,-180.5001 1195.6891,-173.5001"/>
</g>
<!-- GkSol10Component -->
<g id="node3" class="node">
<title>GkSol10Component</title>
<polygon fill="#ffffb3" stroke="#000000" points="1875.6122,-122 1744.3878,-122 1744.3878,-86 1875.6122,-86 1875.6122,-122"/>
<text text-anchor="middle" x="1810" y="-99.8" font-family="Times,serif" font-size="14.00" fill="#000000">GkSol10Component</text>
</g>
<!-- GkSol10Component&#45;&gt;GkSolModule -->
<g id="edge3" class="edge">
<title>GkSol10Component&#45;&gt;GkSolModule</title>
<path fill="none" stroke="#000000" d="M1810,-122.2228C1810,-142.3652 1810,-172 1810,-172 1810,-172 1195.7899,-172 1195.7899,-172"/>
<polygon fill="#000000" stroke="#000000" points="1195.7899,-168.5001 1185.7899,-172 1195.7898,-175.5001 1195.7899,-168.5001"/>
</g>
<!-- GkSol20Component -->
<g id="node4" class="node">
<title>GkSol20Component</title>
<polygon fill="#ffffb3" stroke="#000000" points="1726.6122,-122 1595.3878,-122 1595.3878,-86 1726.6122,-86 1726.6122,-122"/>
<text text-anchor="middle" x="1661" y="-99.8" font-family="Times,serif" font-size="14.00" fill="#000000">GkSol20Component</text>
</g>
<!-- GkSol20Component&#45;&gt;GkSolModule -->
<g id="edge4" class="edge">
<title>GkSol20Component&#45;&gt;GkSolModule</title>
<path fill="none" stroke="#000000" d="M1661,-122.2222C1661,-140.8285 1661,-167 1661,-167 1661,-167 1195.7992,-167 1195.7992,-167"/>
<polygon fill="#000000" stroke="#000000" points="1195.7993,-163.5001 1185.7992,-167 1195.7992,-170.5001 1195.7993,-163.5001"/>
</g>
<!-- GkSol50Component -->
<g id="node5" class="node">
<title>GkSol50Component</title>
<polygon fill="#ffffb3" stroke="#000000" points="1577.6122,-122 1446.3878,-122 1446.3878,-86 1577.6122,-86 1577.6122,-122"/>
<text text-anchor="middle" x="1512" y="-99.8" font-family="Times,serif" font-size="14.00" fill="#000000">GkSol50Component</text>
</g>
<!-- GkSol50Component&#45;&gt;GkSolModule -->
<g id="edge5" class="edge">
<title>GkSol50Component&#45;&gt;GkSolModule</title>
<path fill="none" stroke="#000000" d="M1512,-122.0336C1512,-139.0597 1512,-162 1512,-162 1512,-162 1195.7472,-162 1195.7472,-162"/>
<polygon fill="#000000" stroke="#000000" points="1195.7473,-158.5001 1185.7472,-162 1195.7472,-165.5001 1195.7473,-158.5001"/>
</g>
<!-- GkSol60Component -->
<g id="node6" class="node">
<title>GkSol60Component</title>
<polygon fill="#ffffb3" stroke="#000000" points="1428.6122,-122 1297.3878,-122 1297.3878,-86 1428.6122,-86 1428.6122,-122"/>
<text text-anchor="middle" x="1363" y="-99.8" font-family="Times,serif" font-size="14.00" fill="#000000">GkSol60Component</text>
</g>
<!-- GkSol60Component&#45;&gt;GkSolModule -->
<g id="edge6" class="edge">
<title>GkSol60Component&#45;&gt;GkSolModule</title>
<path fill="none" stroke="#000000" d="M1363,-122.2396C1363,-137.5706 1363,-157 1363,-157 1363,-157 1195.7167,-157 1195.7167,-157"/>
<polygon fill="#000000" stroke="#000000" points="1195.7167,-153.5001 1185.7167,-157 1195.7167,-160.5001 1195.7167,-153.5001"/>
</g>
<!-- GkSolRoutingModule -->
<g id="node8" class="node">
<title>GkSolRoutingModule</title>
<polygon fill="#8dd3c7" stroke="#000000" points="1273.4481,-122 1270.4481,-126 1249.4481,-126 1246.4481,-122 1132.5519,-122 1132.5519,-86 1273.4481,-86 1273.4481,-122"/>
<text text-anchor="middle" x="1203" y="-99.8" font-family="Times,serif" font-size="14.00" fill="#000000">GkSolRoutingModule</text>
</g>
<!-- GkSolRoutingModule&#45;&gt;GkSolModule -->
<g id="edge7" class="edge">
<title>GkSolRoutingModule&#45;&gt;GkSolModule</title>
<path fill="none" stroke="#000000" d="M1159.2206,-122.1061C1159.2206,-122.1061 1159.2206,-140.991 1159.2206,-140.991"/>
<polygon fill="#000000" stroke="#000000" points="1155.7206,-140.9909 1159.2206,-150.991 1162.7206,-140.991 1155.7206,-140.9909"/>
</g>
<!-- NgaModule -->
<g id="node9" class="node">
<title>NgaModule</title>
<polygon fill="#8dd3c7" stroke="#000000" points="1114.3711,-122 1111.3711,-126 1090.3711,-126 1087.3711,-122 1031.6289,-122 1031.6289,-86 1114.3711,-86 1114.3711,-122"/>
<text text-anchor="middle" x="1073" y="-99.8" font-family="Times,serif" font-size="14.00" fill="#000000">NgaModule</text>
</g>
<!-- NgaModule&#45;&gt;GkSolModule -->
<g id="edge8" class="edge">
<title>NgaModule&#45;&gt;GkSolModule</title>
<path fill="none" stroke="#000000" d="M1102.3854,-122.1061C1102.3854,-122.1061 1102.3854,-140.991 1102.3854,-140.991"/>
<polygon fill="#000000" stroke="#000000" points="1098.8854,-140.9909 1102.3854,-150.991 1105.8854,-140.991 1098.8854,-140.9909"/>
</g>
<!-- HNavBoardModule -->
<g id="node10" class="node">
<title>HNavBoardModule</title>
<polygon fill="#8dd3c7" stroke="#000000" points="1013.6895,-122 1010.6895,-126 989.6895,-126 986.6895,-122 886.3105,-122 886.3105,-86 1013.6895,-86 1013.6895,-122"/>
<text text-anchor="middle" x="950" y="-99.8" font-family="Times,serif" font-size="14.00" fill="#000000">HNavBoardModule</text>
</g>
<!-- HNavBoardModule&#45;&gt;GkSolModule -->
<g id="edge9" class="edge">
<title>HNavBoardModule&#45;&gt;GkSolModule</title>
<path fill="none" stroke="#000000" d="M950,-122.2396C950,-137.5706 950,-157 950,-157 950,-157 1080.0732,-157 1080.0732,-157"/>
<polygon fill="#000000" stroke="#000000" points="1080.0733,-160.5001 1090.0732,-157 1080.0732,-153.5001 1080.0733,-160.5001"/>
</g>
<!-- HLeadFormModule -->
<g id="node11" class="node">
<title>HLeadFormModule</title>
<polygon fill="#8dd3c7" stroke="#000000" points="867.972,-122 864.972,-126 843.972,-126 840.972,-122 740.028,-122 740.028,-86 867.972,-86 867.972,-122"/>
<text text-anchor="middle" x="804" y="-99.8" font-family="Times,serif" font-size="14.00" fill="#000000">HLeadFormModule</text>
</g>
<!-- HLeadFormModule&#45;&gt;GkSolModule -->
<g id="edge10" class="edge">
<title>HLeadFormModule&#45;&gt;GkSolModule</title>
<path fill="none" stroke="#000000" d="M804,-122.0336C804,-139.0597 804,-162 804,-162 804,-162 1080.1459,-162 1080.1459,-162"/>
<polygon fill="#000000" stroke="#000000" points="1080.146,-165.5001 1090.1459,-162 1080.1459,-158.5001 1080.146,-165.5001"/>
</g>
<!-- HUploadFormModule -->
<g id="node12" class="node">
<title>HUploadFormModule</title>
<polygon fill="#8dd3c7" stroke="#000000" points="721.7021,-122 718.7021,-126 697.7021,-126 694.7021,-122 580.2979,-122 580.2979,-86 721.7021,-86 721.7021,-122"/>
<text text-anchor="middle" x="651" y="-99.8" font-family="Times,serif" font-size="14.00" fill="#000000">HUploadFormModule</text>
</g>
<!-- HUploadFormModule&#45;&gt;GkSolModule -->
<g id="edge11" class="edge">
<title>HUploadFormModule&#45;&gt;GkSolModule</title>
<path fill="none" stroke="#000000" d="M651,-122.2222C651,-140.8285 651,-167 651,-167 651,-167 1079.9718,-167 1079.9718,-167"/>
<polygon fill="#000000" stroke="#000000" points="1079.9718,-170.5001 1089.9718,-167 1079.9717,-163.5001 1079.9718,-170.5001"/>
</g>
<!-- HDownloadFormModule -->
<g id="node13" class="node">
<title>HDownloadFormModule</title>
<polygon fill="#8dd3c7" stroke="#000000" points="562.3089,-122 559.3089,-126 538.3089,-126 535.3089,-122 403.6911,-122 403.6911,-86 562.3089,-86 562.3089,-122"/>
<text text-anchor="middle" x="483" y="-99.8" font-family="Times,serif" font-size="14.00" fill="#000000">HDownloadFormModule</text>
</g>
<!-- HDownloadFormModule&#45;&gt;GkSolModule -->
<g id="edge12" class="edge">
<title>HDownloadFormModule&#45;&gt;GkSolModule</title>
<path fill="none" stroke="#000000" d="M483,-122.2228C483,-142.3652 483,-172 483,-172 483,-172 1080.1017,-172 1080.1017,-172"/>
<polygon fill="#000000" stroke="#000000" points="1080.1017,-175.5001 1090.1017,-172 1080.1016,-168.5001 1080.1017,-175.5001"/>
</g>
<!-- HOverviewBoxHeaderModule -->
<g id="node14" class="node">
<title>HOverviewBoxHeaderModule</title>
<polygon fill="#8dd3c7" stroke="#000000" points="386.098,-122 383.098,-126 362.098,-126 359.098,-122 197.902,-122 197.902,-86 386.098,-86 386.098,-122"/>
<text text-anchor="middle" x="292" y="-99.8" font-family="Times,serif" font-size="14.00" fill="#000000">HOverviewBoxHeaderModule</text>
</g>
<!-- HOverviewBoxHeaderModule&#45;&gt;GkSolModule -->
<g id="edge13" class="edge">
<title>HOverviewBoxHeaderModule&#45;&gt;GkSolModule</title>
<path fill="none" stroke="#000000" d="M292,-122.0449C292,-143.6623 292,-177 292,-177 292,-177 1080.0914,-177 1080.0914,-177"/>
<polygon fill="#000000" stroke="#000000" points="1080.0914,-180.5001 1090.0914,-177 1080.0914,-173.5001 1080.0914,-180.5001"/>
</g>
<!-- GkClientService -->
<g id="node15" class="node">
<title>GkClientService</title>
<ellipse fill="#fdb462" stroke="#000000" cx="99" cy="-104" rx="75.2964" ry="18"/>
<text text-anchor="middle" x="99" y="-99.8" font-family="Times,serif" font-size="14.00" fill="#000000">GkClientService</text>
</g>
<!-- GkClientService&#45;&gt;GkSolModule -->
<g id="edge14" class="edge">
<title>GkClientService&#45;&gt;GkSolModule</title>
<path fill="none" stroke="#000000" d="M99,-122.0908C99,-145.1328 99,-182 99,-182 99,-182 1080.3141,-182 1080.3141,-182"/>
<polygon fill="#000000" stroke="#000000" points="1080.3142,-185.5001 1090.3141,-182 1080.3141,-178.5001 1080.3142,-185.5001"/>
</g>
</g>
</svg>
