<?xml version="1.0" encoding="UTF-8" standalone="no"?>
<!DOCTYPE svg PUBLIC "-//W3C//DTD SVG 1.1//EN"
 "http://www.w3.org/Graphics/SVG/1.1/DTD/svg11.dtd">
<!-- Generated by graphviz version 2.40.1 (20161225.0304)
 -->
<!-- Title: dependencies Pages: 1 -->
<svg width="864pt" height="211pt"
 viewBox="0.00 0.00 864.00 211.00" xmlns="http://www.w3.org/2000/svg" xmlns:xlink="http://www.w3.org/1999/xlink">
<g id="graph0" class="graph" transform="scale(1 1) rotate(0) translate(4 207)">
<title>dependencies</title>
<polygon fill="#ffffff" stroke="transparent" points="-4,4 -4,-207 860,-207 860,4 -4,4"/>
<text text-anchor="start" x="407.0091" y="-42.4" font-family="sans-serif" font-weight="bold" font-size="14.00" fill="#000000">Legend</text>
<polygon fill="#ffffb3" stroke="transparent" points="194,-10 194,-30 214,-30 214,-10 194,-10"/>
<text text-anchor="start" x="217.629" y="-15.4" font-family="sans-serif" font-size="14.00" fill="#000000"> &#160;Declarations</text>
<polygon fill="#8dd3c7" stroke="transparent" points="307,-10 307,-30 327,-30 327,-10 307,-10"/>
<text text-anchor="start" x="330.7251" y="-15.4" font-family="sans-serif" font-size="14.00" fill="#000000"> &#160;Module</text>
<polygon fill="#80b1d3" stroke="transparent" points="393,-10 393,-30 413,-30 413,-10 393,-10"/>
<text text-anchor="start" x="416.7812" y="-15.4" font-family="sans-serif" font-size="14.00" fill="#000000"> &#160;Bootstrap</text>
<polygon fill="#fdb462" stroke="transparent" points="490,-10 490,-30 510,-30 510,-10 490,-10"/>
<text text-anchor="start" x="513.6732" y="-15.4" font-family="sans-serif" font-size="14.00" fill="#000000"> &#160;Providers</text>
<polygon fill="#fb8072" stroke="transparent" points="586,-10 586,-30 606,-30 606,-10 586,-10"/>
<text text-anchor="start" x="609.7258" y="-15.4" font-family="sans-serif" font-size="14.00" fill="#000000"> &#160;Exports</text>
<g id="clust1" class="cluster">
<title>cluster_MineModule</title>
<polygon fill="none" stroke="#000000" stroke-dasharray="1,5" points="8,-70 8,-195 848,-195 848,-70 8,-70"/>
</g>
<g id="clust2" class="cluster">
<title>cluster_MineModule_declarations</title>
<polygon fill="none" stroke="#000000" points="714,-78 714,-130 840,-130 840,-78 714,-78"/>
</g>
<g id="clust4" class="cluster">
<title>cluster_MineModule_imports</title>
<polygon fill="none" stroke="#000000" points="319,-78 319,-130 706,-130 706,-78 319,-78"/>
</g>
<g id="clust7" class="cluster">
<title>cluster_MineModule_providers</title>
<polygon fill="none" stroke="#000000" points="16,-78 16,-130 311,-130 311,-78 16,-78"/>
</g>
<!-- MineComponent -->
<g id="node1" class="node">
<title>MineComponent</title>
<polygon fill="#ffffb3" stroke="#000000" points="832.3823,-122 721.6177,-122 721.6177,-86 832.3823,-86 832.3823,-122"/>
<text text-anchor="middle" x="777" y="-99.8" font-family="Times,serif" font-size="14.00" fill="#000000">MineComponent</text>
</g>
<!-- MineModule -->
<g id="node2" class="node">
<title>MineModule</title>
<polygon fill="#8dd3c7" stroke="#000000" points="510.5997,-187 507.5997,-191 486.5997,-191 483.5997,-187 421.4003,-187 421.4003,-151 510.5997,-151 510.5997,-187"/>
<text text-anchor="middle" x="466" y="-164.8" font-family="Times,serif" font-size="14.00" fill="#000000">MineModule</text>
</g>
<!-- MineComponent&#45;&gt;MineModule -->
<g id="edge1" class="edge">
<title>MineComponent&#45;&gt;MineModule</title>
<path fill="none" stroke="#000000" d="M777,-122.2843C777,-143.3211 777,-175 777,-175 777,-175 520.5587,-175 520.5587,-175"/>
<polygon fill="#000000" stroke="#000000" points="520.5588,-171.5001 510.5587,-175 520.5587,-178.5001 520.5588,-171.5001"/>
</g>
<!-- NgaModule -->
<g id="node3" class="node">
<title>NgaModule</title>
<polygon fill="#8dd3c7" stroke="#000000" points="698.3711,-122 695.3711,-126 674.3711,-126 671.3711,-122 615.6289,-122 615.6289,-86 698.3711,-86 698.3711,-122"/>
<text text-anchor="middle" x="657" y="-99.8" font-family="Times,serif" font-size="14.00" fill="#000000">NgaModule</text>
</g>
<!-- NgaModule&#45;&gt;MineModule -->
<g id="edge2" class="edge">
<title>NgaModule&#45;&gt;MineModule</title>
<path fill="none" stroke="#000000" d="M657,-122.0225C657,-139.3734 657,-163 657,-163 657,-163 520.781,-163 520.781,-163"/>
<polygon fill="#000000" stroke="#000000" points="520.781,-159.5001 510.781,-163 520.781,-166.5001 520.781,-159.5001"/>
</g>
<!-- HTaskListModule -->
<g id="node4" class="node">
<title>HTaskListModule</title>
<polygon fill="#8dd3c7" stroke="#000000" points="597.1471,-122 594.1471,-126 573.1471,-126 570.1471,-122 478.8529,-122 478.8529,-86 597.1471,-86 597.1471,-122"/>
<text text-anchor="middle" x="538" y="-99.8" font-family="Times,serif" font-size="14.00" fill="#000000">HTaskListModule</text>
</g>
<!-- HTaskListModule&#45;&gt;MineModule -->
<g id="edge3" class="edge">
<title>HTaskListModule&#45;&gt;MineModule</title>
<path fill="none" stroke="#000000" d="M494.6133,-122.1061C494.6133,-122.1061 494.6133,-140.991 494.6133,-140.991"/>
<polygon fill="#000000" stroke="#000000" points="491.1133,-140.9909 494.6133,-150.991 498.1133,-140.991 491.1133,-140.9909"/>
</g>
<!-- MineRoutingModule -->
<g id="node5" class="node">
<title>MineRoutingModule</title>
<polygon fill="#8dd3c7" stroke="#000000" points="461.2176,-122 458.2176,-126 437.2176,-126 434.2176,-122 326.7824,-122 326.7824,-86 461.2176,-86 461.2176,-122"/>
<text text-anchor="middle" x="394" y="-99.8" font-family="Times,serif" font-size="14.00" fill="#000000">MineRoutingModule</text>
</g>
<!-- MineRoutingModule&#45;&gt;MineModule -->
<g id="edge4" class="edge">
<title>MineRoutingModule&#45;&gt;MineModule</title>
<path fill="none" stroke="#000000" d="M441.2795,-122.1061C441.2795,-122.1061 441.2795,-140.991 441.2795,-140.991"/>
<polygon fill="#000000" stroke="#000000" points="437.7795,-140.9909 441.2795,-150.991 444.7795,-140.991 437.7795,-140.9909"/>
</g>
<!-- EventService -->
<g id="node6" class="node">
<title>EventService</title>
<ellipse fill="#fdb462" stroke="#000000" cx="240" cy="-104" rx="62.5373" ry="18"/>
<text text-anchor="middle" x="240" y="-99.8" font-family="Times,serif" font-size="14.00" fill="#000000">EventService</text>
</g>
<!-- EventService&#45;&gt;MineModule -->
<g id="edge5" class="edge">
<title>EventService&#45;&gt;MineModule</title>
<path fill="none" stroke="#000000" d="M240,-122.0225C240,-139.3734 240,-163 240,-163 240,-163 411.3497,-163 411.3497,-163"/>
<polygon fill="#000000" stroke="#000000" points="411.3497,-166.5001 421.3497,-163 411.3496,-159.5001 411.3497,-166.5001"/>
</g>
<!-- TodosServices -->
<g id="node7" class="node">
<title>TodosServices</title>
<ellipse fill="#fdb462" stroke="#000000" cx="92" cy="-104" rx="67.776" ry="18"/>
<text text-anchor="middle" x="92" y="-99.8" font-family="Times,serif" font-size="14.00" fill="#000000">TodosServices</text>
</g>
<!-- TodosServices&#45;&gt;MineModule -->
<g id="edge6" class="edge">
<title>TodosServices&#45;&gt;MineModule</title>
<path fill="none" stroke="#000000" d="M92,-122.2843C92,-143.3211 92,-175 92,-175 92,-175 411.2583,-175 411.2583,-175"/>
<polygon fill="#000000" stroke="#000000" points="411.2584,-178.5001 421.2583,-175 411.2583,-171.5001 411.2584,-178.5001"/>
</g>
</g>
</svg>
