<?xml version="1.0" encoding="UTF-8" standalone="no"?>
<!DOCTYPE svg PUBLIC "-//W3C//DTD SVG 1.1//EN"
 "http://www.w3.org/Graphics/SVG/1.1/DTD/svg11.dtd">
<!-- Generated by graphviz version 2.40.1 (20161225.0304)
 -->
<!-- Title: dependencies Pages: 1 -->
<svg width="605pt" height="284pt"
 viewBox="0.00 0.00 605.00 284.00" xmlns="http://www.w3.org/2000/svg" xmlns:xlink="http://www.w3.org/1999/xlink">
<g id="graph0" class="graph" transform="scale(1 1) rotate(0) translate(4 280)">
<title>dependencies</title>
<polygon fill="#ffffff" stroke="transparent" points="-4,4 -4,-280 601,-280 601,4 -4,4"/>
<text text-anchor="start" x="277.5091" y="-42.4" font-family="sans-serif" font-weight="bold" font-size="14.00" fill="#000000">Legend</text>
<polygon fill="#ffffb3" stroke="transparent" points="64.5,-10 64.5,-30 84.5,-30 84.5,-10 64.5,-10"/>
<text text-anchor="start" x="88.129" y="-15.4" font-family="sans-serif" font-size="14.00" fill="#000000"> &#160;Declarations</text>
<polygon fill="#8dd3c7" stroke="transparent" points="177.5,-10 177.5,-30 197.5,-30 197.5,-10 177.5,-10"/>
<text text-anchor="start" x="201.2251" y="-15.4" font-family="sans-serif" font-size="14.00" fill="#000000"> &#160;Module</text>
<polygon fill="#80b1d3" stroke="transparent" points="263.5,-10 263.5,-30 283.5,-30 283.5,-10 263.5,-10"/>
<text text-anchor="start" x="287.2812" y="-15.4" font-family="sans-serif" font-size="14.00" fill="#000000"> &#160;Bootstrap</text>
<polygon fill="#fdb462" stroke="transparent" points="360.5,-10 360.5,-30 380.5,-30 380.5,-10 360.5,-10"/>
<text text-anchor="start" x="384.1732" y="-15.4" font-family="sans-serif" font-size="14.00" fill="#000000"> &#160;Providers</text>
<polygon fill="#fb8072" stroke="transparent" points="456.5,-10 456.5,-30 476.5,-30 476.5,-10 456.5,-10"/>
<text text-anchor="start" x="480.2258" y="-15.4" font-family="sans-serif" font-size="14.00" fill="#000000"> &#160;Exports</text>
<g id="clust1" class="cluster">
<title>cluster_HRequestApprovalModule</title>
<polygon fill="none" stroke="#000000" stroke-dasharray="1,5" points="8,-70 8,-268 589,-268 589,-70 8,-70"/>
</g>
<g id="clust2" class="cluster">
<title>cluster_HRequestApprovalModule_declarations</title>
<polygon fill="none" stroke="#000000" points="441,-78 441,-130 581,-130 581,-78 441,-78"/>
</g>
<g id="clust4" class="cluster">
<title>cluster_HRequestApprovalModule_imports</title>
<polygon fill="none" stroke="#000000" points="16,-78 16,-130 433,-130 433,-78 16,-78"/>
</g>
<g id="clust5" class="cluster">
<title>cluster_HRequestApprovalModule_exports</title>
<polygon fill="none" stroke="#000000" points="212,-208 212,-260 356,-260 356,-208 212,-208"/>
</g>
<!-- HRequestApproval -->
<g id="node1" class="node">
<title>HRequestApproval</title>
<polygon fill="#ffffb3" stroke="#000000" points="573.08,-122 448.92,-122 448.92,-86 573.08,-86 573.08,-122"/>
<text text-anchor="middle" x="511" y="-99.8" font-family="Times,serif" font-size="14.00" fill="#000000">HRequestApproval</text>
</g>
<!-- HRequestApprovalModule -->
<g id="node2" class="node">
<title>HRequestApprovalModule</title>
<polygon fill="#8dd3c7" stroke="#000000" points="367.6302,-187 364.6302,-191 343.6302,-191 340.6302,-187 200.3698,-187 200.3698,-151 367.6302,-151 367.6302,-187"/>
<text text-anchor="middle" x="284" y="-164.8" font-family="Times,serif" font-size="14.00" fill="#000000">HRequestApprovalModule</text>
</g>
<!-- HRequestApproval&#45;&gt;HRequestApprovalModule -->
<g id="edge1" class="edge">
<title>HRequestApproval&#45;&gt;HRequestApprovalModule</title>
<path fill="none" stroke="#000000" d="M511,-122.1061C511,-141.3391 511,-169 511,-169 511,-169 377.8815,-169 377.8815,-169"/>
<polygon fill="#000000" stroke="#000000" points="377.8815,-165.5001 367.8815,-169 377.8814,-172.5001 377.8815,-165.5001"/>
</g>
<!-- HRequestApproval  -->
<g id="node6" class="node">
<title>HRequestApproval </title>
<polygon fill="#fb8072" stroke="#000000" points="347.5807,-252 220.4193,-252 220.4193,-216 347.5807,-216 347.5807,-252"/>
<text text-anchor="middle" x="284" y="-229.8" font-family="Times,serif" font-size="14.00" fill="#000000">HRequestApproval </text>
</g>
<!-- HRequestApprovalModule&#45;&gt;HRequestApproval  -->
<g id="edge5" class="edge">
<title>HRequestApprovalModule&#45;&gt;HRequestApproval </title>
<path fill="none" stroke="#000000" stroke-dasharray="5,2" d="M284,-187.1061C284,-187.1061 284,-205.991 284,-205.991"/>
<polygon fill="#000000" stroke="#000000" points="280.5001,-205.9909 284,-215.991 287.5001,-205.991 280.5001,-205.9909"/>
</g>
<!-- AppTranslationModule -->
<g id="node3" class="node">
<title>AppTranslationModule</title>
<polygon fill="#8dd3c7" stroke="#000000" points="424.9158,-122 421.9158,-126 400.9158,-126 397.9158,-122 277.0842,-122 277.0842,-86 424.9158,-86 424.9158,-122"/>
<text text-anchor="middle" x="351" y="-99.8" font-family="Times,serif" font-size="14.00" fill="#000000">AppTranslationModule</text>
</g>
<!-- AppTranslationModule&#45;&gt;HRequestApprovalModule -->
<g id="edge2" class="edge">
<title>AppTranslationModule&#45;&gt;HRequestApprovalModule</title>
<path fill="none" stroke="#000000" d="M322.5536,-122.1061C322.5536,-122.1061 322.5536,-140.991 322.5536,-140.991"/>
<polygon fill="#000000" stroke="#000000" points="319.0537,-140.9909 322.5536,-150.991 326.0537,-140.991 319.0537,-140.9909"/>
</g>
<!-- NgaModule -->
<g id="node4" class="node">
<title>NgaModule</title>
<polygon fill="#8dd3c7" stroke="#000000" points="259.3711,-122 256.3711,-126 235.3711,-126 232.3711,-122 176.6289,-122 176.6289,-86 259.3711,-86 259.3711,-122"/>
<text text-anchor="middle" x="218" y="-99.8" font-family="Times,serif" font-size="14.00" fill="#000000">NgaModule</text>
</g>
<!-- NgaModule&#45;&gt;HRequestApprovalModule -->
<g id="edge3" class="edge">
<title>NgaModule&#45;&gt;HRequestApprovalModule</title>
<path fill="none" stroke="#000000" d="M229.8103,-122.1061C229.8103,-122.1061 229.8103,-140.991 229.8103,-140.991"/>
<polygon fill="#000000" stroke="#000000" points="226.3104,-140.9909 229.8103,-150.991 233.3104,-140.991 226.3104,-140.9909"/>
</g>
<!-- HGkDataListModule -->
<g id="node5" class="node">
<title>HGkDataListModule</title>
<polygon fill="#8dd3c7" stroke="#000000" points="158.4678,-122 155.4678,-126 134.4678,-126 131.4678,-122 23.5322,-122 23.5322,-86 158.4678,-86 158.4678,-122"/>
<text text-anchor="middle" x="91" y="-99.8" font-family="Times,serif" font-size="14.00" fill="#000000">HGkDataListModule</text>
</g>
<!-- HGkDataListModule&#45;&gt;HRequestApprovalModule -->
<g id="edge4" class="edge">
<title>HGkDataListModule&#45;&gt;HRequestApprovalModule</title>
<path fill="none" stroke="#000000" d="M91,-122.1061C91,-141.3391 91,-169 91,-169 91,-169 190.1894,-169 190.1894,-169"/>
<polygon fill="#000000" stroke="#000000" points="190.1894,-172.5001 200.1894,-169 190.1894,-165.5001 190.1894,-172.5001"/>
</g>
</g>
</svg>
