<?xml version="1.0" encoding="UTF-8" standalone="no"?>
<!DOCTYPE svg PUBLIC "-//W3C//DTD SVG 1.1//EN"
 "http://www.w3.org/Graphics/SVG/1.1/DTD/svg11.dtd">
<!-- Generated by graphviz version 2.40.1 (20161225.0304)
 -->
<!-- Title: dependencies Pages: 1 -->
<svg width="504pt" height="211pt"
 viewBox="0.00 0.00 504.00 211.00" xmlns="http://www.w3.org/2000/svg" xmlns:xlink="http://www.w3.org/1999/xlink">
<g id="graph0" class="graph" transform="scale(1 1) rotate(0) translate(4 207)">
<title>dependencies</title>
<polygon fill="#ffffff" stroke="transparent" points="-4,4 -4,-207 500,-207 500,4 -4,4"/>
<text text-anchor="start" x="227.0091" y="-42.4" font-family="sans-serif" font-weight="bold" font-size="14.00" fill="#000000">Legend</text>
<polygon fill="#ffffb3" stroke="transparent" points="14,-10 14,-30 34,-30 34,-10 14,-10"/>
<text text-anchor="start" x="37.629" y="-15.4" font-family="sans-serif" font-size="14.00" fill="#000000"> &#160;Declarations</text>
<polygon fill="#8dd3c7" stroke="transparent" points="127,-10 127,-30 147,-30 147,-10 127,-10"/>
<text text-anchor="start" x="150.7251" y="-15.4" font-family="sans-serif" font-size="14.00" fill="#000000"> &#160;Module</text>
<polygon fill="#80b1d3" stroke="transparent" points="213,-10 213,-30 233,-30 233,-10 213,-10"/>
<text text-anchor="start" x="236.7812" y="-15.4" font-family="sans-serif" font-size="14.00" fill="#000000"> &#160;Bootstrap</text>
<polygon fill="#fdb462" stroke="transparent" points="310,-10 310,-30 330,-30 330,-10 310,-10"/>
<text text-anchor="start" x="333.6732" y="-15.4" font-family="sans-serif" font-size="14.00" fill="#000000"> &#160;Providers</text>
<polygon fill="#fb8072" stroke="transparent" points="406,-10 406,-30 426,-30 426,-10 406,-10"/>
<text text-anchor="start" x="429.7258" y="-15.4" font-family="sans-serif" font-size="14.00" fill="#000000"> &#160;Exports</text>
<g id="clust1" class="cluster">
<title>cluster_NtfctModule</title>
<polygon fill="none" stroke="#000000" stroke-dasharray="1,5" points="25,-70 25,-195 471,-195 471,-70 25,-70"/>
</g>
<g id="clust2" class="cluster">
<title>cluster_NtfctModule_declarations</title>
<polygon fill="none" stroke="#000000" points="337,-78 337,-130 463,-130 463,-78 337,-78"/>
</g>
<g id="clust4" class="cluster">
<title>cluster_NtfctModule_imports</title>
<polygon fill="none" stroke="#000000" points="33,-78 33,-130 329,-130 329,-78 33,-78"/>
</g>
<!-- NtfctComponent -->
<g id="node1" class="node">
<title>NtfctComponent</title>
<polygon fill="#ffffb3" stroke="#000000" points="455.0954,-122 344.9046,-122 344.9046,-86 455.0954,-86 455.0954,-122"/>
<text text-anchor="middle" x="400" y="-99.8" font-family="Times,serif" font-size="14.00" fill="#000000">NtfctComponent</text>
</g>
<!-- NtfctModule -->
<g id="node2" class="node">
<title>NtfctModule</title>
<polygon fill="#8dd3c7" stroke="#000000" points="301.3134,-187 298.3134,-191 277.3134,-191 274.3134,-187 212.6866,-187 212.6866,-151 301.3134,-151 301.3134,-187"/>
<text text-anchor="middle" x="257" y="-164.8" font-family="Times,serif" font-size="14.00" fill="#000000">NtfctModule</text>
</g>
<!-- NtfctComponent&#45;&gt;NtfctModule -->
<g id="edge1" class="edge">
<title>NtfctComponent&#45;&gt;NtfctModule</title>
<path fill="none" stroke="#000000" d="M400,-122.1061C400,-141.3391 400,-169 400,-169 400,-169 311.4622,-169 311.4622,-169"/>
<polygon fill="#000000" stroke="#000000" points="311.4623,-165.5001 301.4622,-169 311.4622,-172.5001 311.4623,-165.5001"/>
</g>
<!-- HLeadFormModule -->
<g id="node3" class="node">
<title>HLeadFormModule</title>
<polygon fill="#8dd3c7" stroke="#000000" points="320.972,-122 317.972,-126 296.972,-126 293.972,-122 193.028,-122 193.028,-86 320.972,-86 320.972,-122"/>
<text text-anchor="middle" x="257" y="-99.8" font-family="Times,serif" font-size="14.00" fill="#000000">HLeadFormModule</text>
</g>
<!-- HLeadFormModule&#45;&gt;NtfctModule -->
<g id="edge2" class="edge">
<title>HLeadFormModule&#45;&gt;NtfctModule</title>
<path fill="none" stroke="#000000" d="M257,-122.1061C257,-122.1061 257,-140.991 257,-140.991"/>
<polygon fill="#000000" stroke="#000000" points="253.5001,-140.9909 257,-150.991 260.5001,-140.991 253.5001,-140.9909"/>
</g>
<!-- NtfctRoutingModule -->
<g id="node4" class="node">
<title>NtfctRoutingModule</title>
<polygon fill="#8dd3c7" stroke="#000000" points="174.9313,-122 171.9313,-126 150.9313,-126 147.9313,-122 41.0687,-122 41.0687,-86 174.9313,-86 174.9313,-122"/>
<text text-anchor="middle" x="108" y="-99.8" font-family="Times,serif" font-size="14.00" fill="#000000">NtfctRoutingModule</text>
</g>
<!-- NtfctRoutingModule&#45;&gt;NtfctModule -->
<g id="edge3" class="edge">
<title>NtfctRoutingModule&#45;&gt;NtfctModule</title>
<path fill="none" stroke="#000000" d="M108,-122.1061C108,-141.3391 108,-169 108,-169 108,-169 202.6985,-169 202.6985,-169"/>
<polygon fill="#000000" stroke="#000000" points="202.6985,-172.5001 212.6985,-169 202.6985,-165.5001 202.6985,-172.5001"/>
</g>
</g>
</svg>
