<?xml version="1.0" encoding="UTF-8" standalone="no"?>
<!DOCTYPE svg PUBLIC "-//W3C//DTD SVG 1.1//EN"
 "http://www.w3.org/Graphics/SVG/1.1/DTD/svg11.dtd">
<!-- Generated by graphviz version 2.40.1 (20161225.0304)
 -->
<!-- Title: dependencies Pages: 1 -->
<svg width="668pt" height="211pt"
 viewBox="0.00 0.00 668.00 211.00" xmlns="http://www.w3.org/2000/svg" xmlns:xlink="http://www.w3.org/1999/xlink">
<g id="graph0" class="graph" transform="scale(1 1) rotate(0) translate(4 207)">
<title>dependencies</title>
<polygon fill="#ffffff" stroke="transparent" points="-4,4 -4,-207 664,-207 664,4 -4,4"/>
<text text-anchor="start" x="309.0091" y="-42.4" font-family="sans-serif" font-weight="bold" font-size="14.00" fill="#000000">Legend</text>
<polygon fill="#ffffb3" stroke="transparent" points="96,-10 96,-30 116,-30 116,-10 96,-10"/>
<text text-anchor="start" x="119.629" y="-15.4" font-family="sans-serif" font-size="14.00" fill="#000000"> &#160;Declarations</text>
<polygon fill="#8dd3c7" stroke="transparent" points="209,-10 209,-30 229,-30 229,-10 209,-10"/>
<text text-anchor="start" x="232.7251" y="-15.4" font-family="sans-serif" font-size="14.00" fill="#000000"> &#160;Module</text>
<polygon fill="#80b1d3" stroke="transparent" points="295,-10 295,-30 315,-30 315,-10 295,-10"/>
<text text-anchor="start" x="318.7812" y="-15.4" font-family="sans-serif" font-size="14.00" fill="#000000"> &#160;Bootstrap</text>
<polygon fill="#fdb462" stroke="transparent" points="392,-10 392,-30 412,-30 412,-10 392,-10"/>
<text text-anchor="start" x="415.6732" y="-15.4" font-family="sans-serif" font-size="14.00" fill="#000000"> &#160;Providers</text>
<polygon fill="#fb8072" stroke="transparent" points="488,-10 488,-30 508,-30 508,-10 488,-10"/>
<text text-anchor="start" x="511.7258" y="-15.4" font-family="sans-serif" font-size="14.00" fill="#000000"> &#160;Exports</text>
<g id="clust1" class="cluster">
<title>cluster_GkCln18Module</title>
<polygon fill="none" stroke="#000000" stroke-dasharray="1,5" points="8,-70 8,-195 652,-195 652,-70 8,-70"/>
</g>
<g id="clust2" class="cluster">
<title>cluster_GkCln18Module_declarations</title>
<polygon fill="none" stroke="#000000" points="496,-78 496,-130 644,-130 644,-78 496,-78"/>
</g>
<g id="clust4" class="cluster">
<title>cluster_GkCln18Module_imports</title>
<polygon fill="none" stroke="#000000" points="16,-78 16,-130 488,-130 488,-78 16,-78"/>
</g>
<!-- GkCln18Component -->
<g id="node1" class="node">
<title>GkCln18Component</title>
<polygon fill="#ffffb3" stroke="#000000" points="636.1666,-122 503.8334,-122 503.8334,-86 636.1666,-86 636.1666,-122"/>
<text text-anchor="middle" x="570" y="-99.8" font-family="Times,serif" font-size="14.00" fill="#000000">GkCln18Component</text>
</g>
<!-- GkCln18Module -->
<g id="node2" class="node">
<title>GkCln18Module</title>
<polygon fill="#8dd3c7" stroke="#000000" points="396.3837,-187 393.3837,-191 372.3837,-191 369.3837,-187 285.6163,-187 285.6163,-151 396.3837,-151 396.3837,-187"/>
<text text-anchor="middle" x="341" y="-164.8" font-family="Times,serif" font-size="14.00" fill="#000000">GkCln18Module</text>
</g>
<!-- GkCln18Component&#45;&gt;GkCln18Module -->
<g id="edge1" class="edge">
<title>GkCln18Component&#45;&gt;GkCln18Module</title>
<path fill="none" stroke="#000000" d="M570,-122.1061C570,-141.3391 570,-169 570,-169 570,-169 406.4345,-169 406.4345,-169"/>
<polygon fill="#000000" stroke="#000000" points="406.4345,-165.5001 396.4345,-169 406.4345,-172.5001 406.4345,-165.5001"/>
</g>
<!-- HLeadFormModule -->
<g id="node3" class="node">
<title>HLeadFormModule</title>
<polygon fill="#8dd3c7" stroke="#000000" points="479.972,-122 476.972,-126 455.972,-126 452.972,-122 352.028,-122 352.028,-86 479.972,-86 479.972,-122"/>
<text text-anchor="middle" x="416" y="-99.8" font-family="Times,serif" font-size="14.00" fill="#000000">HLeadFormModule</text>
</g>
<!-- HLeadFormModule&#45;&gt;GkCln18Module -->
<g id="edge2" class="edge">
<title>HLeadFormModule&#45;&gt;GkCln18Module</title>
<path fill="none" stroke="#000000" d="M374.2279,-122.1061C374.2279,-122.1061 374.2279,-140.991 374.2279,-140.991"/>
<polygon fill="#000000" stroke="#000000" points="370.728,-140.9909 374.2279,-150.991 377.728,-140.991 370.728,-140.9909"/>
</g>
<!-- GkClnSharedModule -->
<g id="node4" class="node">
<title>GkClnSharedModule</title>
<polygon fill="#8dd3c7" stroke="#000000" points="333.7562,-122 330.7562,-126 309.7562,-126 306.7562,-122 198.2438,-122 198.2438,-86 333.7562,-86 333.7562,-122"/>
<text text-anchor="middle" x="266" y="-99.8" font-family="Times,serif" font-size="14.00" fill="#000000">GkClnSharedModule</text>
</g>
<!-- GkClnSharedModule&#45;&gt;GkCln18Module -->
<g id="edge3" class="edge">
<title>GkClnSharedModule&#45;&gt;GkCln18Module</title>
<path fill="none" stroke="#000000" d="M309.7181,-122.1061C309.7181,-122.1061 309.7181,-140.991 309.7181,-140.991"/>
<polygon fill="#000000" stroke="#000000" points="306.2182,-140.9909 309.7181,-150.991 313.2182,-140.991 306.2182,-140.9909"/>
</g>
<!-- GkCln18RoutingModule -->
<g id="node5" class="node">
<title>GkCln18RoutingModule</title>
<polygon fill="#8dd3c7" stroke="#000000" points="180.0014,-122 177.0014,-126 156.0014,-126 153.0014,-122 23.9986,-122 23.9986,-86 180.0014,-86 180.0014,-122"/>
<text text-anchor="middle" x="102" y="-99.8" font-family="Times,serif" font-size="14.00" fill="#000000">GkCln18RoutingModule</text>
</g>
<!-- GkCln18RoutingModule&#45;&gt;GkCln18Module -->
<g id="edge4" class="edge">
<title>GkCln18RoutingModule&#45;&gt;GkCln18Module</title>
<path fill="none" stroke="#000000" d="M102,-122.1061C102,-141.3391 102,-169 102,-169 102,-169 275.5679,-169 275.5679,-169"/>
<polygon fill="#000000" stroke="#000000" points="275.5679,-172.5001 285.5679,-169 275.5678,-165.5001 275.5679,-172.5001"/>
</g>
</g>
</svg>
