<?xml version="1.0" encoding="UTF-8" standalone="no"?>
<!DOCTYPE svg PUBLIC "-//W3C//DTD SVG 1.1//EN"
 "http://www.w3.org/Graphics/SVG/1.1/DTD/svg11.dtd">
<!-- Generated by graphviz version 2.40.1 (20161225.0304)
 -->
<!-- Title: dependencies Pages: 1 -->
<svg width="702pt" height="211pt"
 viewBox="0.00 0.00 702.00 211.00" xmlns="http://www.w3.org/2000/svg" xmlns:xlink="http://www.w3.org/1999/xlink">
<g id="graph0" class="graph" transform="scale(1 1) rotate(0) translate(4 207)">
<title>dependencies</title>
<polygon fill="#ffffff" stroke="transparent" points="-4,4 -4,-207 698,-207 698,4 -4,4"/>
<text text-anchor="start" x="326.0091" y="-42.4" font-family="sans-serif" font-weight="bold" font-size="14.00" fill="#000000">Legend</text>
<polygon fill="#ffffb3" stroke="transparent" points="113,-10 113,-30 133,-30 133,-10 113,-10"/>
<text text-anchor="start" x="136.629" y="-15.4" font-family="sans-serif" font-size="14.00" fill="#000000"> &#160;Declarations</text>
<polygon fill="#8dd3c7" stroke="transparent" points="226,-10 226,-30 246,-30 246,-10 226,-10"/>
<text text-anchor="start" x="249.7251" y="-15.4" font-family="sans-serif" font-size="14.00" fill="#000000"> &#160;Module</text>
<polygon fill="#80b1d3" stroke="transparent" points="312,-10 312,-30 332,-30 332,-10 312,-10"/>
<text text-anchor="start" x="335.7812" y="-15.4" font-family="sans-serif" font-size="14.00" fill="#000000"> &#160;Bootstrap</text>
<polygon fill="#fdb462" stroke="transparent" points="409,-10 409,-30 429,-30 429,-10 409,-10"/>
<text text-anchor="start" x="432.6732" y="-15.4" font-family="sans-serif" font-size="14.00" fill="#000000"> &#160;Providers</text>
<polygon fill="#fb8072" stroke="transparent" points="505,-10 505,-30 525,-30 525,-10 505,-10"/>
<text text-anchor="start" x="528.7258" y="-15.4" font-family="sans-serif" font-size="14.00" fill="#000000"> &#160;Exports</text>
<g id="clust1" class="cluster">
<title>cluster_InboxModule</title>
<polygon fill="none" stroke="#000000" stroke-dasharray="1,5" points="8,-70 8,-195 686,-195 686,-70 8,-70"/>
</g>
<g id="clust2" class="cluster">
<title>cluster_InboxModule_declarations</title>
<polygon fill="none" stroke="#000000" points="548,-78 548,-130 678,-130 678,-78 548,-78"/>
</g>
<g id="clust4" class="cluster">
<title>cluster_InboxModule_imports</title>
<polygon fill="none" stroke="#000000" points="198,-78 198,-130 540,-130 540,-78 198,-78"/>
</g>
<g id="clust7" class="cluster">
<title>cluster_InboxModule_providers</title>
<polygon fill="none" stroke="#000000" points="16,-78 16,-130 190,-130 190,-78 16,-78"/>
</g>
<!-- InboxComponent -->
<g id="node1" class="node">
<title>InboxComponent</title>
<polygon fill="#ffffb3" stroke="#000000" points="669.993,-122 556.007,-122 556.007,-86 669.993,-86 669.993,-122"/>
<text text-anchor="middle" x="613" y="-99.8" font-family="Times,serif" font-size="14.00" fill="#000000">InboxComponent</text>
</g>
<!-- InboxModule -->
<g id="node2" class="node">
<title>InboxModule</title>
<polygon fill="#8dd3c7" stroke="#000000" points="407.2106,-187 404.2106,-191 383.2106,-191 380.2106,-187 314.7894,-187 314.7894,-151 407.2106,-151 407.2106,-187"/>
<text text-anchor="middle" x="361" y="-164.8" font-family="Times,serif" font-size="14.00" fill="#000000">InboxModule</text>
</g>
<!-- InboxComponent&#45;&gt;InboxModule -->
<g id="edge1" class="edge">
<title>InboxComponent&#45;&gt;InboxModule</title>
<path fill="none" stroke="#000000" d="M613,-122.1061C613,-141.3391 613,-169 613,-169 613,-169 417.2207,-169 417.2207,-169"/>
<polygon fill="#000000" stroke="#000000" points="417.2207,-165.5001 407.2207,-169 417.2206,-172.5001 417.2207,-165.5001"/>
</g>
<!-- HDataTableByTrayModule -->
<g id="node3" class="node">
<title>HDataTableByTrayModule</title>
<polygon fill="#8dd3c7" stroke="#000000" points="532.2198,-122 529.2198,-126 508.2198,-126 505.2198,-122 361.7802,-122 361.7802,-86 532.2198,-86 532.2198,-122"/>
<text text-anchor="middle" x="447" y="-99.8" font-family="Times,serif" font-size="14.00" fill="#000000">HDataTableByTrayModule</text>
</g>
<!-- HDataTableByTrayModule&#45;&gt;InboxModule -->
<g id="edge2" class="edge">
<title>HDataTableByTrayModule&#45;&gt;InboxModule</title>
<path fill="none" stroke="#000000" d="M384.3727,-122.1061C384.3727,-122.1061 384.3727,-140.991 384.3727,-140.991"/>
<polygon fill="#000000" stroke="#000000" points="380.8728,-140.9909 384.3727,-150.991 387.8728,-140.991 380.8728,-140.9909"/>
</g>
<!-- InboxRoutingModule -->
<g id="node4" class="node">
<title>InboxRoutingModule</title>
<polygon fill="#8dd3c7" stroke="#000000" points="343.8286,-122 340.8286,-126 319.8286,-126 316.8286,-122 206.1714,-122 206.1714,-86 343.8286,-86 343.8286,-122"/>
<text text-anchor="middle" x="275" y="-99.8" font-family="Times,serif" font-size="14.00" fill="#000000">InboxRoutingModule</text>
</g>
<!-- InboxRoutingModule&#45;&gt;InboxModule -->
<g id="edge3" class="edge">
<title>InboxRoutingModule&#45;&gt;InboxModule</title>
<path fill="none" stroke="#000000" d="M329.2795,-122.1061C329.2795,-122.1061 329.2795,-140.991 329.2795,-140.991"/>
<polygon fill="#000000" stroke="#000000" points="325.7795,-140.9909 329.2795,-150.991 332.7795,-140.991 325.7795,-140.9909"/>
</g>
<!-- RequestsServices -->
<g id="node5" class="node">
<title>RequestsServices</title>
<ellipse fill="#fdb462" stroke="#000000" cx="103" cy="-104" rx="78.726" ry="18"/>
<text text-anchor="middle" x="103" y="-99.8" font-family="Times,serif" font-size="14.00" fill="#000000">RequestsServices</text>
</g>
<!-- RequestsServices&#45;&gt;InboxModule -->
<g id="edge4" class="edge">
<title>RequestsServices&#45;&gt;InboxModule</title>
<path fill="none" stroke="#000000" d="M103,-122.1061C103,-141.3391 103,-169 103,-169 103,-169 304.8748,-169 304.8748,-169"/>
<polygon fill="#000000" stroke="#000000" points="304.8748,-172.5001 314.8748,-169 304.8747,-165.5001 304.8748,-172.5001"/>
</g>
</g>
</svg>
