<?xml version="1.0" encoding="UTF-8" standalone="no"?>
<!DOCTYPE svg PUBLIC "-//W3C//DTD SVG 1.1//EN"
 "http://www.w3.org/Graphics/SVG/1.1/DTD/svg11.dtd">
<!-- Generated by graphviz version 2.40.1 (20161225.0304)
 -->
<!-- Title: dependencies Pages: 1 -->
<svg width="506pt" height="211pt"
 viewBox="0.00 0.00 506.00 211.00" xmlns="http://www.w3.org/2000/svg" xmlns:xlink="http://www.w3.org/1999/xlink">
<g id="graph0" class="graph" transform="scale(1 1) rotate(0) translate(4 207)">
<title>dependencies</title>
<polygon fill="#ffffff" stroke="transparent" points="-4,4 -4,-207 502,-207 502,4 -4,4"/>
<text text-anchor="start" x="228.0091" y="-42.4" font-family="sans-serif" font-weight="bold" font-size="14.00" fill="#000000">Legend</text>
<polygon fill="#ffffb3" stroke="transparent" points="15,-10 15,-30 35,-30 35,-10 15,-10"/>
<text text-anchor="start" x="38.629" y="-15.4" font-family="sans-serif" font-size="14.00" fill="#000000"> &#160;Declarations</text>
<polygon fill="#8dd3c7" stroke="transparent" points="128,-10 128,-30 148,-30 148,-10 128,-10"/>
<text text-anchor="start" x="151.7251" y="-15.4" font-family="sans-serif" font-size="14.00" fill="#000000"> &#160;Module</text>
<polygon fill="#80b1d3" stroke="transparent" points="214,-10 214,-30 234,-30 234,-10 214,-10"/>
<text text-anchor="start" x="237.7812" y="-15.4" font-family="sans-serif" font-size="14.00" fill="#000000"> &#160;Bootstrap</text>
<polygon fill="#fdb462" stroke="transparent" points="311,-10 311,-30 331,-30 331,-10 311,-10"/>
<text text-anchor="start" x="334.6732" y="-15.4" font-family="sans-serif" font-size="14.00" fill="#000000"> &#160;Providers</text>
<polygon fill="#fb8072" stroke="transparent" points="407,-10 407,-30 427,-30 427,-10 407,-10"/>
<text text-anchor="start" x="430.7258" y="-15.4" font-family="sans-serif" font-size="14.00" fill="#000000"> &#160;Exports</text>
<g id="clust1" class="cluster">
<title>cluster_DebugModule</title>
<polygon fill="none" stroke="#000000" stroke-dasharray="1,5" points="8,-70 8,-195 490,-195 490,-70 8,-70"/>
</g>
<g id="clust2" class="cluster">
<title>cluster_DebugModule_declarations</title>
<polygon fill="none" stroke="#000000" points="348,-78 348,-130 482,-130 482,-78 348,-78"/>
</g>
<g id="clust4" class="cluster">
<title>cluster_DebugModule_imports</title>
<polygon fill="none" stroke="#000000" points="16,-78 16,-130 340,-130 340,-78 16,-78"/>
</g>
<!-- DebugComponent -->
<g id="node1" class="node">
<title>DebugComponent</title>
<polygon fill="#ffffb3" stroke="#000000" points="474.1541,-122 355.8459,-122 355.8459,-86 474.1541,-86 474.1541,-122"/>
<text text-anchor="middle" x="415" y="-99.8" font-family="Times,serif" font-size="14.00" fill="#000000">DebugComponent</text>
</g>
<!-- DebugModule -->
<g id="node2" class="node">
<title>DebugModule</title>
<polygon fill="#8dd3c7" stroke="#000000" points="306.3711,-187 303.3711,-191 282.3711,-191 279.3711,-187 209.6289,-187 209.6289,-151 306.3711,-151 306.3711,-187"/>
<text text-anchor="middle" x="258" y="-164.8" font-family="Times,serif" font-size="14.00" fill="#000000">DebugModule</text>
</g>
<!-- DebugComponent&#45;&gt;DebugModule -->
<g id="edge1" class="edge">
<title>DebugComponent&#45;&gt;DebugModule</title>
<path fill="none" stroke="#000000" d="M415,-122.1061C415,-141.3391 415,-169 415,-169 415,-169 316.3862,-169 316.3862,-169"/>
<polygon fill="#000000" stroke="#000000" points="316.3863,-165.5001 306.3862,-169 316.3862,-172.5001 316.3863,-165.5001"/>
</g>
<!-- AppTranslationModule -->
<g id="node3" class="node">
<title>AppTranslationModule</title>
<polygon fill="#8dd3c7" stroke="#000000" points="331.9158,-122 328.9158,-126 307.9158,-126 304.9158,-122 184.0842,-122 184.0842,-86 331.9158,-86 331.9158,-122"/>
<text text-anchor="middle" x="258" y="-99.8" font-family="Times,serif" font-size="14.00" fill="#000000">AppTranslationModule</text>
</g>
<!-- AppTranslationModule&#45;&gt;DebugModule -->
<g id="edge2" class="edge">
<title>AppTranslationModule&#45;&gt;DebugModule</title>
<path fill="none" stroke="#000000" d="M258,-122.1061C258,-122.1061 258,-140.991 258,-140.991"/>
<polygon fill="#000000" stroke="#000000" points="254.5001,-140.9909 258,-150.991 261.5001,-140.991 254.5001,-140.9909"/>
</g>
<!-- DebugRoutingModule -->
<g id="node4" class="node">
<title>DebugRoutingModule</title>
<polygon fill="#8dd3c7" stroke="#000000" points="165.9888,-122 162.9888,-126 141.9888,-126 138.9888,-122 24.0112,-122 24.0112,-86 165.9888,-86 165.9888,-122"/>
<text text-anchor="middle" x="95" y="-99.8" font-family="Times,serif" font-size="14.00" fill="#000000">DebugRoutingModule</text>
</g>
<!-- DebugRoutingModule&#45;&gt;DebugModule -->
<g id="edge3" class="edge">
<title>DebugRoutingModule&#45;&gt;DebugModule</title>
<path fill="none" stroke="#000000" d="M95,-122.1061C95,-141.3391 95,-169 95,-169 95,-169 199.5359,-169 199.5359,-169"/>
<polygon fill="#000000" stroke="#000000" points="199.536,-172.5001 209.5359,-169 199.5359,-165.5001 199.536,-172.5001"/>
</g>
</g>
</svg>
