<?xml version="1.0" encoding="UTF-8" standalone="no"?>
<!DOCTYPE svg PUBLIC "-//W3C//DTD SVG 1.1//EN"
 "http://www.w3.org/Graphics/SVG/1.1/DTD/svg11.dtd">
<!-- Generated by graphviz version 2.40.1 (20161225.0304)
 -->
<!-- Title: dependencies Pages: 1 -->
<svg width="680pt" height="211pt"
 viewBox="0.00 0.00 680.00 211.00" xmlns="http://www.w3.org/2000/svg" xmlns:xlink="http://www.w3.org/1999/xlink">
<g id="graph0" class="graph" transform="scale(1 1) rotate(0) translate(4 207)">
<title>dependencies</title>
<polygon fill="#ffffff" stroke="transparent" points="-4,4 -4,-207 676,-207 676,4 -4,4"/>
<text text-anchor="start" x="315.0091" y="-42.4" font-family="sans-serif" font-weight="bold" font-size="14.00" fill="#000000">Legend</text>
<polygon fill="#ffffb3" stroke="transparent" points="102,-10 102,-30 122,-30 122,-10 102,-10"/>
<text text-anchor="start" x="125.629" y="-15.4" font-family="sans-serif" font-size="14.00" fill="#000000"> &#160;Declarations</text>
<polygon fill="#8dd3c7" stroke="transparent" points="215,-10 215,-30 235,-30 235,-10 215,-10"/>
<text text-anchor="start" x="238.7251" y="-15.4" font-family="sans-serif" font-size="14.00" fill="#000000"> &#160;Module</text>
<polygon fill="#80b1d3" stroke="transparent" points="301,-10 301,-30 321,-30 321,-10 301,-10"/>
<text text-anchor="start" x="324.7812" y="-15.4" font-family="sans-serif" font-size="14.00" fill="#000000"> &#160;Bootstrap</text>
<polygon fill="#fdb462" stroke="transparent" points="398,-10 398,-30 418,-30 418,-10 398,-10"/>
<text text-anchor="start" x="421.6732" y="-15.4" font-family="sans-serif" font-size="14.00" fill="#000000"> &#160;Providers</text>
<polygon fill="#fb8072" stroke="transparent" points="494,-10 494,-30 514,-30 514,-10 494,-10"/>
<text text-anchor="start" x="517.7258" y="-15.4" font-family="sans-serif" font-size="14.00" fill="#000000"> &#160;Exports</text>
<g id="clust1" class="cluster">
<title>cluster_GkCln19Module</title>
<polygon fill="none" stroke="#000000" stroke-dasharray="1,5" points="8,-70 8,-195 664,-195 664,-70 8,-70"/>
</g>
<g id="clust2" class="cluster">
<title>cluster_GkCln19Module_declarations</title>
<polygon fill="none" stroke="#000000" points="508,-78 508,-130 656,-130 656,-78 508,-78"/>
</g>
<g id="clust4" class="cluster">
<title>cluster_GkCln19Module_imports</title>
<polygon fill="none" stroke="#000000" points="16,-78 16,-130 500,-130 500,-78 16,-78"/>
</g>
<!-- GkCln19Component -->
<g id="node1" class="node">
<title>GkCln19Component</title>
<polygon fill="#ffffb3" stroke="#000000" points="648.1666,-122 515.8334,-122 515.8334,-86 648.1666,-86 648.1666,-122"/>
<text text-anchor="middle" x="582" y="-99.8" font-family="Times,serif" font-size="14.00" fill="#000000">GkCln19Component</text>
</g>
<!-- GkCln19Module -->
<g id="node2" class="node">
<title>GkCln19Module</title>
<polygon fill="#8dd3c7" stroke="#000000" points="405.3837,-187 402.3837,-191 381.3837,-191 378.3837,-187 294.6163,-187 294.6163,-151 405.3837,-151 405.3837,-187"/>
<text text-anchor="middle" x="350" y="-164.8" font-family="Times,serif" font-size="14.00" fill="#000000">GkCln19Module</text>
</g>
<!-- GkCln19Component&#45;&gt;GkCln19Module -->
<g id="edge1" class="edge">
<title>GkCln19Component&#45;&gt;GkCln19Module</title>
<path fill="none" stroke="#000000" d="M582,-122.1061C582,-141.3391 582,-169 582,-169 582,-169 415.5698,-169 415.5698,-169"/>
<polygon fill="#000000" stroke="#000000" points="415.5698,-165.5001 405.5698,-169 415.5697,-172.5001 415.5698,-165.5001"/>
</g>
<!-- HLeadFormModule -->
<g id="node3" class="node">
<title>HLeadFormModule</title>
<polygon fill="#8dd3c7" stroke="#000000" points="491.972,-122 488.972,-126 467.972,-126 464.972,-122 364.028,-122 364.028,-86 491.972,-86 491.972,-122"/>
<text text-anchor="middle" x="428" y="-99.8" font-family="Times,serif" font-size="14.00" fill="#000000">HLeadFormModule</text>
</g>
<!-- HLeadFormModule&#45;&gt;GkCln19Module -->
<g id="edge2" class="edge">
<title>HLeadFormModule&#45;&gt;GkCln19Module</title>
<path fill="none" stroke="#000000" d="M384.7279,-122.1061C384.7279,-122.1061 384.7279,-140.991 384.7279,-140.991"/>
<polygon fill="#000000" stroke="#000000" points="381.228,-140.9909 384.7279,-150.991 388.228,-140.991 381.228,-140.9909"/>
</g>
<!-- HViewChangesModule -->
<g id="node4" class="node">
<title>HViewChangesModule</title>
<polygon fill="#8dd3c7" stroke="#000000" points="346.1853,-122 343.1853,-126 322.1853,-126 319.1853,-122 197.8147,-122 197.8147,-86 346.1853,-86 346.1853,-122"/>
<text text-anchor="middle" x="272" y="-99.8" font-family="Times,serif" font-size="14.00" fill="#000000">HViewChangesModule</text>
</g>
<!-- HViewChangesModule&#45;&gt;GkCln19Module -->
<g id="edge3" class="edge">
<title>HViewChangesModule&#45;&gt;GkCln19Module</title>
<path fill="none" stroke="#000000" d="M320.3254,-122.1061C320.3254,-122.1061 320.3254,-140.991 320.3254,-140.991"/>
<polygon fill="#000000" stroke="#000000" points="316.8255,-140.9909 320.3254,-150.991 323.8255,-140.991 316.8255,-140.9909"/>
</g>
<!-- GkCln19RoutingModule -->
<g id="node5" class="node">
<title>GkCln19RoutingModule</title>
<polygon fill="#8dd3c7" stroke="#000000" points="180.0014,-122 177.0014,-126 156.0014,-126 153.0014,-122 23.9986,-122 23.9986,-86 180.0014,-86 180.0014,-122"/>
<text text-anchor="middle" x="102" y="-99.8" font-family="Times,serif" font-size="14.00" fill="#000000">GkCln19RoutingModule</text>
</g>
<!-- GkCln19RoutingModule&#45;&gt;GkCln19Module -->
<g id="edge4" class="edge">
<title>GkCln19RoutingModule&#45;&gt;GkCln19Module</title>
<path fill="none" stroke="#000000" d="M102,-122.1061C102,-141.3391 102,-169 102,-169 102,-169 284.344,-169 284.344,-169"/>
<polygon fill="#000000" stroke="#000000" points="284.344,-172.5001 294.344,-169 284.3439,-165.5001 284.344,-172.5001"/>
</g>
</g>
</svg>
