<?xml version="1.0" encoding="UTF-8" standalone="no"?>
<!DOCTYPE svg PUBLIC "-//W3C//DTD SVG 1.1//EN"
 "http://www.w3.org/Graphics/SVG/1.1/DTD/svg11.dtd">
<!-- Generated by graphviz version 2.40.1 (20161225.0304)
 -->
<!-- Title: dependencies Pages: 1 -->
<svg width="504pt" height="211pt"
 viewBox="0.00 0.00 504.00 211.00" xmlns="http://www.w3.org/2000/svg" xmlns:xlink="http://www.w3.org/1999/xlink">
<g id="graph0" class="graph" transform="scale(1 1) rotate(0) translate(4 207)">
<title>dependencies</title>
<polygon fill="#ffffff" stroke="transparent" points="-4,4 -4,-207 500,-207 500,4 -4,4"/>
<text text-anchor="start" x="227.0091" y="-42.4" font-family="sans-serif" font-weight="bold" font-size="14.00" fill="#000000">Legend</text>
<polygon fill="#ffffb3" stroke="transparent" points="14,-10 14,-30 34,-30 34,-10 14,-10"/>
<text text-anchor="start" x="37.629" y="-15.4" font-family="sans-serif" font-size="14.00" fill="#000000"> &#160;Declarations</text>
<polygon fill="#8dd3c7" stroke="transparent" points="127,-10 127,-30 147,-30 147,-10 127,-10"/>
<text text-anchor="start" x="150.7251" y="-15.4" font-family="sans-serif" font-size="14.00" fill="#000000"> &#160;Module</text>
<polygon fill="#80b1d3" stroke="transparent" points="213,-10 213,-30 233,-30 233,-10 213,-10"/>
<text text-anchor="start" x="236.7812" y="-15.4" font-family="sans-serif" font-size="14.00" fill="#000000"> &#160;Bootstrap</text>
<polygon fill="#fdb462" stroke="transparent" points="310,-10 310,-30 330,-30 330,-10 310,-10"/>
<text text-anchor="start" x="333.6732" y="-15.4" font-family="sans-serif" font-size="14.00" fill="#000000"> &#160;Providers</text>
<polygon fill="#fb8072" stroke="transparent" points="406,-10 406,-30 426,-30 426,-10 406,-10"/>
<text text-anchor="start" x="429.7258" y="-15.4" font-family="sans-serif" font-size="14.00" fill="#000000"> &#160;Exports</text>
<g id="clust1" class="cluster">
<title>cluster_MainModule</title>
<polygon fill="none" stroke="#000000" stroke-dasharray="1,5" points="47.5,-70 47.5,-195 448.5,-195 448.5,-70 47.5,-70"/>
</g>
<g id="clust2" class="cluster">
<title>cluster_MainModule_declarations</title>
<polygon fill="none" stroke="#000000" points="314.5,-78 314.5,-130 440.5,-130 440.5,-78 314.5,-78"/>
</g>
<g id="clust4" class="cluster">
<title>cluster_MainModule_imports</title>
<polygon fill="none" stroke="#000000" points="55.5,-78 55.5,-130 306.5,-130 306.5,-78 55.5,-78"/>
</g>
<!-- MainComponent -->
<g id="node1" class="node">
<title>MainComponent</title>
<polygon fill="#ffffb3" stroke="#000000" points="432.8823,-122 322.1177,-122 322.1177,-86 432.8823,-86 432.8823,-122"/>
<text text-anchor="middle" x="377.5" y="-99.8" font-family="Times,serif" font-size="14.00" fill="#000000">MainComponent</text>
</g>
<!-- MainModule -->
<g id="node2" class="node">
<title>MainModule</title>
<polygon fill="#8dd3c7" stroke="#000000" points="302.0997,-187 299.0997,-191 278.0997,-191 275.0997,-187 212.9003,-187 212.9003,-151 302.0997,-151 302.0997,-187"/>
<text text-anchor="middle" x="257.5" y="-164.8" font-family="Times,serif" font-size="14.00" fill="#000000">MainModule</text>
</g>
<!-- MainComponent&#45;&gt;MainModule -->
<g id="edge1" class="edge">
<title>MainComponent&#45;&gt;MainModule</title>
<path fill="none" stroke="#000000" d="M377.5,-122.1061C377.5,-141.3391 377.5,-169 377.5,-169 377.5,-169 312.1836,-169 312.1836,-169"/>
<polygon fill="#000000" stroke="#000000" points="312.1836,-165.5001 302.1836,-169 312.1835,-172.5001 312.1836,-165.5001"/>
</g>
<!-- NgaModule -->
<g id="node3" class="node">
<title>NgaModule</title>
<polygon fill="#8dd3c7" stroke="#000000" points="298.8711,-122 295.8711,-126 274.8711,-126 271.8711,-122 216.1289,-122 216.1289,-86 298.8711,-86 298.8711,-122"/>
<text text-anchor="middle" x="257.5" y="-99.8" font-family="Times,serif" font-size="14.00" fill="#000000">NgaModule</text>
</g>
<!-- NgaModule&#45;&gt;MainModule -->
<g id="edge2" class="edge">
<title>NgaModule&#45;&gt;MainModule</title>
<path fill="none" stroke="#000000" d="M257.5,-122.1061C257.5,-122.1061 257.5,-140.991 257.5,-140.991"/>
<polygon fill="#000000" stroke="#000000" points="254.0001,-140.9909 257.5,-150.991 261.0001,-140.991 254.0001,-140.9909"/>
</g>
<!-- MainRoutingModule -->
<g id="node4" class="node">
<title>MainRoutingModule</title>
<polygon fill="#8dd3c7" stroke="#000000" points="197.7176,-122 194.7176,-126 173.7176,-126 170.7176,-122 63.2824,-122 63.2824,-86 197.7176,-86 197.7176,-122"/>
<text text-anchor="middle" x="130.5" y="-99.8" font-family="Times,serif" font-size="14.00" fill="#000000">MainRoutingModule</text>
</g>
<!-- MainRoutingModule&#45;&gt;MainModule -->
<g id="edge3" class="edge">
<title>MainRoutingModule&#45;&gt;MainModule</title>
<path fill="none" stroke="#000000" d="M130.5,-122.1061C130.5,-141.3391 130.5,-169 130.5,-169 130.5,-169 202.7246,-169 202.7246,-169"/>
<polygon fill="#000000" stroke="#000000" points="202.7246,-172.5001 212.7246,-169 202.7245,-165.5001 202.7246,-172.5001"/>
</g>
</g>
</svg>
