<?xml version="1.0" encoding="UTF-8" standalone="no"?>
<!DOCTYPE svg PUBLIC "-//W3C//DTD SVG 1.1//EN"
 "http://www.w3.org/Graphics/SVG/1.1/DTD/svg11.dtd">
<!-- Generated by graphviz version 2.40.1 (20161225.0304)
 -->
<!-- Title: dependencies Pages: 1 -->
<svg width="504pt" height="211pt"
 viewBox="0.00 0.00 504.00 211.00" xmlns="http://www.w3.org/2000/svg" xmlns:xlink="http://www.w3.org/1999/xlink">
<g id="graph0" class="graph" transform="scale(1 1) rotate(0) translate(4 207)">
<title>dependencies</title>
<polygon fill="#ffffff" stroke="transparent" points="-4,4 -4,-207 500,-207 500,4 -4,4"/>
<text text-anchor="start" x="227.0091" y="-42.4" font-family="sans-serif" font-weight="bold" font-size="14.00" fill="#000000">Legend</text>
<polygon fill="#ffffb3" stroke="transparent" points="14,-10 14,-30 34,-30 34,-10 14,-10"/>
<text text-anchor="start" x="37.629" y="-15.4" font-family="sans-serif" font-size="14.00" fill="#000000"> &#160;Declarations</text>
<polygon fill="#8dd3c7" stroke="transparent" points="127,-10 127,-30 147,-30 147,-10 127,-10"/>
<text text-anchor="start" x="150.7251" y="-15.4" font-family="sans-serif" font-size="14.00" fill="#000000"> &#160;Module</text>
<polygon fill="#80b1d3" stroke="transparent" points="213,-10 213,-30 233,-30 233,-10 213,-10"/>
<text text-anchor="start" x="236.7812" y="-15.4" font-family="sans-serif" font-size="14.00" fill="#000000"> &#160;Bootstrap</text>
<polygon fill="#fdb462" stroke="transparent" points="310,-10 310,-30 330,-30 330,-10 310,-10"/>
<text text-anchor="start" x="333.6732" y="-15.4" font-family="sans-serif" font-size="14.00" fill="#000000"> &#160;Providers</text>
<polygon fill="#fb8072" stroke="transparent" points="406,-10 406,-30 426,-30 426,-10 406,-10"/>
<text text-anchor="start" x="429.7258" y="-15.4" font-family="sans-serif" font-size="14.00" fill="#000000"> &#160;Exports</text>
<g id="clust1" class="cluster">
<title>cluster_GkCln29Module</title>
<polygon fill="none" stroke="#000000" stroke-dasharray="1,5" points="11,-70 11,-195 485,-195 485,-70 11,-70"/>
</g>
<g id="clust2" class="cluster">
<title>cluster_GkCln29Module_declarations</title>
<polygon fill="none" stroke="#000000" points="329,-78 329,-130 477,-130 477,-78 329,-78"/>
</g>
<g id="clust4" class="cluster">
<title>cluster_GkCln29Module_imports</title>
<polygon fill="none" stroke="#000000" points="19,-78 19,-130 321,-130 321,-78 19,-78"/>
</g>
<!-- GkCln29Component -->
<g id="node1" class="node">
<title>GkCln29Component</title>
<polygon fill="#ffffb3" stroke="#000000" points="469.1666,-122 336.8334,-122 336.8334,-86 469.1666,-86 469.1666,-122"/>
<text text-anchor="middle" x="403" y="-99.8" font-family="Times,serif" font-size="14.00" fill="#000000">GkCln29Component</text>
</g>
<!-- GkCln29Module -->
<g id="node2" class="node">
<title>GkCln29Module</title>
<polygon fill="#8dd3c7" stroke="#000000" points="312.3837,-187 309.3837,-191 288.3837,-191 285.3837,-187 201.6163,-187 201.6163,-151 312.3837,-151 312.3837,-187"/>
<text text-anchor="middle" x="257" y="-164.8" font-family="Times,serif" font-size="14.00" fill="#000000">GkCln29Module</text>
</g>
<!-- GkCln29Component&#45;&gt;GkCln29Module -->
<g id="edge1" class="edge">
<title>GkCln29Component&#45;&gt;GkCln29Module</title>
<path fill="none" stroke="#000000" d="M403,-122.1061C403,-141.3391 403,-169 403,-169 403,-169 322.6128,-169 322.6128,-169"/>
<polygon fill="#000000" stroke="#000000" points="322.6129,-165.5001 312.6128,-169 322.6128,-172.5001 322.6129,-165.5001"/>
</g>
<!-- HHistoryModule -->
<g id="node3" class="node">
<title>HHistoryModule</title>
<polygon fill="#8dd3c7" stroke="#000000" points="312.6499,-122 309.6499,-126 288.6499,-126 285.6499,-122 201.3501,-122 201.3501,-86 312.6499,-86 312.6499,-122"/>
<text text-anchor="middle" x="257" y="-99.8" font-family="Times,serif" font-size="14.00" fill="#000000">HHistoryModule</text>
</g>
<!-- HHistoryModule&#45;&gt;GkCln29Module -->
<g id="edge2" class="edge">
<title>HHistoryModule&#45;&gt;GkCln29Module</title>
<path fill="none" stroke="#000000" d="M257,-122.1061C257,-122.1061 257,-140.991 257,-140.991"/>
<polygon fill="#000000" stroke="#000000" points="253.5001,-140.9909 257,-150.991 260.5001,-140.991 253.5001,-140.9909"/>
</g>
<!-- GkCln29RoutingModule -->
<g id="node4" class="node">
<title>GkCln29RoutingModule</title>
<polygon fill="#8dd3c7" stroke="#000000" points="183.0014,-122 180.0014,-126 159.0014,-126 156.0014,-122 26.9986,-122 26.9986,-86 183.0014,-86 183.0014,-122"/>
<text text-anchor="middle" x="105" y="-99.8" font-family="Times,serif" font-size="14.00" fill="#000000">GkCln29RoutingModule</text>
</g>
<!-- GkCln29RoutingModule&#45;&gt;GkCln29Module -->
<g id="edge3" class="edge">
<title>GkCln29RoutingModule&#45;&gt;GkCln29Module</title>
<path fill="none" stroke="#000000" d="M105,-122.1061C105,-141.3391 105,-169 105,-169 105,-169 191.2639,-169 191.2639,-169"/>
<polygon fill="#000000" stroke="#000000" points="191.2639,-172.5001 201.2639,-169 191.2639,-165.5001 191.2639,-172.5001"/>
</g>
</g>
</svg>
