<?xml version="1.0" encoding="UTF-8" standalone="no"?>
<!DOCTYPE svg PUBLIC "-//W3C//DTD SVG 1.1//EN"
 "http://www.w3.org/Graphics/SVG/1.1/DTD/svg11.dtd">
<!-- Generated by graphviz version 2.40.1 (20161225.0304)
 -->
<!-- Title: dependencies Pages: 1 -->
<svg width="504pt" height="211pt"
 viewBox="0.00 0.00 504.00 211.00" xmlns="http://www.w3.org/2000/svg" xmlns:xlink="http://www.w3.org/1999/xlink">
<g id="graph0" class="graph" transform="scale(1 1) rotate(0) translate(4 207)">
<title>dependencies</title>
<polygon fill="#ffffff" stroke="transparent" points="-4,4 -4,-207 500,-207 500,4 -4,4"/>
<text text-anchor="start" x="227.0091" y="-42.4" font-family="sans-serif" font-weight="bold" font-size="14.00" fill="#000000">Legend</text>
<polygon fill="#ffffb3" stroke="transparent" points="14,-10 14,-30 34,-30 34,-10 14,-10"/>
<text text-anchor="start" x="37.629" y="-15.4" font-family="sans-serif" font-size="14.00" fill="#000000"> &#160;Declarations</text>
<polygon fill="#8dd3c7" stroke="transparent" points="127,-10 127,-30 147,-30 147,-10 127,-10"/>
<text text-anchor="start" x="150.7251" y="-15.4" font-family="sans-serif" font-size="14.00" fill="#000000"> &#160;Module</text>
<polygon fill="#80b1d3" stroke="transparent" points="213,-10 213,-30 233,-30 233,-10 213,-10"/>
<text text-anchor="start" x="236.7812" y="-15.4" font-family="sans-serif" font-size="14.00" fill="#000000"> &#160;Bootstrap</text>
<polygon fill="#fdb462" stroke="transparent" points="310,-10 310,-30 330,-30 330,-10 310,-10"/>
<text text-anchor="start" x="333.6732" y="-15.4" font-family="sans-serif" font-size="14.00" fill="#000000"> &#160;Providers</text>
<polygon fill="#fb8072" stroke="transparent" points="406,-10 406,-30 426,-30 426,-10 406,-10"/>
<text text-anchor="start" x="429.7258" y="-15.4" font-family="sans-serif" font-size="14.00" fill="#000000"> &#160;Exports</text>
<g id="clust1" class="cluster">
<title>cluster_DictModule</title>
<polygon fill="none" stroke="#000000" stroke-dasharray="1,5" points="20,-70 20,-195 476,-195 476,-70 20,-70"/>
</g>
<g id="clust2" class="cluster">
<title>cluster_DictModule_declarations</title>
<polygon fill="none" stroke="#000000" points="346,-78 346,-130 468,-130 468,-78 346,-78"/>
</g>
<g id="clust4" class="cluster">
<title>cluster_DictModule_imports</title>
<polygon fill="none" stroke="#000000" points="28,-78 28,-130 338,-130 338,-78 28,-78"/>
</g>
<!-- DictComponent -->
<g id="node1" class="node">
<title>DictComponent</title>
<polygon fill="#ffffb3" stroke="#000000" points="459.9357,-122 354.0643,-122 354.0643,-86 459.9357,-86 459.9357,-122"/>
<text text-anchor="middle" x="407" y="-99.8" font-family="Times,serif" font-size="14.00" fill="#000000">DictComponent</text>
</g>
<!-- DictModule -->
<g id="node2" class="node">
<title>DictModule</title>
<polygon fill="#8dd3c7" stroke="#000000" points="297.6529,-187 294.6529,-191 273.6529,-191 270.6529,-187 214.3471,-187 214.3471,-151 297.6529,-151 297.6529,-187"/>
<text text-anchor="middle" x="256" y="-164.8" font-family="Times,serif" font-size="14.00" fill="#000000">DictModule</text>
</g>
<!-- DictComponent&#45;&gt;DictModule -->
<g id="edge1" class="edge">
<title>DictComponent&#45;&gt;DictModule</title>
<path fill="none" stroke="#000000" d="M407,-122.1061C407,-141.3391 407,-169 407,-169 407,-169 307.6611,-169 307.6611,-169"/>
<polygon fill="#000000" stroke="#000000" points="307.6612,-165.5001 297.6611,-169 307.6611,-172.5001 307.6612,-165.5001"/>
</g>
<!-- AppTranslationModule -->
<g id="node3" class="node">
<title>AppTranslationModule</title>
<polygon fill="#8dd3c7" stroke="#000000" points="329.9158,-122 326.9158,-126 305.9158,-126 302.9158,-122 182.0842,-122 182.0842,-86 329.9158,-86 329.9158,-122"/>
<text text-anchor="middle" x="256" y="-99.8" font-family="Times,serif" font-size="14.00" fill="#000000">AppTranslationModule</text>
</g>
<!-- AppTranslationModule&#45;&gt;DictModule -->
<g id="edge2" class="edge">
<title>AppTranslationModule&#45;&gt;DictModule</title>
<path fill="none" stroke="#000000" d="M256,-122.1061C256,-122.1061 256,-140.991 256,-140.991"/>
<polygon fill="#000000" stroke="#000000" points="252.5001,-140.9909 256,-150.991 259.5001,-140.991 252.5001,-140.9909"/>
</g>
<!-- DictRoutingModule -->
<g id="node4" class="node">
<title>DictRoutingModule</title>
<polygon fill="#8dd3c7" stroke="#000000" points="164.2702,-122 161.2702,-126 140.2702,-126 137.2702,-122 35.7298,-122 35.7298,-86 164.2702,-86 164.2702,-122"/>
<text text-anchor="middle" x="100" y="-99.8" font-family="Times,serif" font-size="14.00" fill="#000000">DictRoutingModule</text>
</g>
<!-- DictRoutingModule&#45;&gt;DictModule -->
<g id="edge3" class="edge">
<title>DictRoutingModule&#45;&gt;DictModule</title>
<path fill="none" stroke="#000000" d="M100,-122.1061C100,-141.3391 100,-169 100,-169 100,-169 204.1949,-169 204.1949,-169"/>
<polygon fill="#000000" stroke="#000000" points="204.1949,-172.5001 214.1949,-169 204.1948,-165.5001 204.1949,-172.5001"/>
</g>
</g>
</svg>
