<?xml version="1.0" encoding="UTF-8" standalone="no"?>
<!DOCTYPE svg PUBLIC "-//W3C//DTD SVG 1.1//EN"
 "http://www.w3.org/Graphics/SVG/1.1/DTD/svg11.dtd">
<!-- Generated by graphviz version 2.40.1 (20161225.0304)
 -->
<!-- Title: dependencies Pages: 1 -->
<svg width="504pt" height="284pt"
 viewBox="0.00 0.00 504.00 284.00" xmlns="http://www.w3.org/2000/svg" xmlns:xlink="http://www.w3.org/1999/xlink">
<g id="graph0" class="graph" transform="scale(1 1) rotate(0) translate(4 280)">
<title>dependencies</title>
<polygon fill="#ffffff" stroke="transparent" points="-4,4 -4,-280 500,-280 500,4 -4,4"/>
<text text-anchor="start" x="227.0091" y="-42.4" font-family="sans-serif" font-weight="bold" font-size="14.00" fill="#000000">Legend</text>
<polygon fill="#ffffb3" stroke="transparent" points="14,-10 14,-30 34,-30 34,-10 14,-10"/>
<text text-anchor="start" x="37.629" y="-15.4" font-family="sans-serif" font-size="14.00" fill="#000000"> &#160;Declarations</text>
<polygon fill="#8dd3c7" stroke="transparent" points="127,-10 127,-30 147,-30 147,-10 127,-10"/>
<text text-anchor="start" x="150.7251" y="-15.4" font-family="sans-serif" font-size="14.00" fill="#000000"> &#160;Module</text>
<polygon fill="#80b1d3" stroke="transparent" points="213,-10 213,-30 233,-30 233,-10 213,-10"/>
<text text-anchor="start" x="236.7812" y="-15.4" font-family="sans-serif" font-size="14.00" fill="#000000"> &#160;Bootstrap</text>
<polygon fill="#fdb462" stroke="transparent" points="310,-10 310,-30 330,-30 330,-10 310,-10"/>
<text text-anchor="start" x="333.6732" y="-15.4" font-family="sans-serif" font-size="14.00" fill="#000000"> &#160;Providers</text>
<polygon fill="#fb8072" stroke="transparent" points="406,-10 406,-30 426,-30 426,-10 406,-10"/>
<text text-anchor="start" x="429.7258" y="-15.4" font-family="sans-serif" font-size="14.00" fill="#000000"> &#160;Exports</text>
<g id="clust1" class="cluster">
<title>cluster_HRequestDocumentsModule</title>
<polygon fill="none" stroke="#000000" stroke-dasharray="1,5" points="29,-70 29,-268 467,-268 467,-70 29,-70"/>
</g>
<g id="clust2" class="cluster">
<title>cluster_HRequestDocumentsModule_declarations</title>
<polygon fill="none" stroke="#000000" points="309,-78 309,-130 459,-130 459,-78 309,-78"/>
</g>
<g id="clust4" class="cluster">
<title>cluster_HRequestDocumentsModule_imports</title>
<polygon fill="none" stroke="#000000" points="37,-78 37,-130 301,-130 301,-78 37,-78"/>
</g>
<g id="clust5" class="cluster">
<title>cluster_HRequestDocumentsModule_exports</title>
<polygon fill="none" stroke="#000000" points="142,-208 142,-260 296,-260 296,-208 142,-208"/>
</g>
<!-- HRequestDocuments -->
<g id="node1" class="node">
<title>HRequestDocuments</title>
<polygon fill="#ffffb3" stroke="#000000" points="451.4692,-122 316.5308,-122 316.5308,-86 451.4692,-86 451.4692,-122"/>
<text text-anchor="middle" x="384" y="-99.8" font-family="Times,serif" font-size="14.00" fill="#000000">HRequestDocuments</text>
</g>
<!-- HRequestDocumentsModule -->
<g id="node2" class="node">
<title>HRequestDocumentsModule</title>
<polygon fill="#8dd3c7" stroke="#000000" points="308.0196,-187 305.0196,-191 284.0196,-191 281.0196,-187 129.9804,-187 129.9804,-151 308.0196,-151 308.0196,-187"/>
<text text-anchor="middle" x="219" y="-164.8" font-family="Times,serif" font-size="14.00" fill="#000000">HRequestDocumentsModule</text>
</g>
<!-- HRequestDocuments&#45;&gt;HRequestDocumentsModule -->
<g id="edge1" class="edge">
<title>HRequestDocuments&#45;&gt;HRequestDocumentsModule</title>
<path fill="none" stroke="#000000" d="M316.1924,-104C306.9076,-104 300.4836,-104 300.4836,-104 300.4836,-104 300.4836,-140.8939 300.4836,-140.8939"/>
<polygon fill="#000000" stroke="#000000" points="296.9836,-140.8938 300.4836,-150.8939 303.9836,-140.8939 296.9836,-140.8938"/>
</g>
<!-- HRequestDocuments  -->
<g id="node5" class="node">
<title>HRequestDocuments </title>
<polygon fill="#fb8072" stroke="#000000" points="288.47,-252 149.53,-252 149.53,-216 288.47,-216 288.47,-252"/>
<text text-anchor="middle" x="219" y="-229.8" font-family="Times,serif" font-size="14.00" fill="#000000">HRequestDocuments </text>
</g>
<!-- HRequestDocumentsModule&#45;&gt;HRequestDocuments  -->
<g id="edge4" class="edge">
<title>HRequestDocumentsModule&#45;&gt;HRequestDocuments </title>
<path fill="none" stroke="#000000" stroke-dasharray="5,2" d="M219,-187.1061C219,-187.1061 219,-205.991 219,-205.991"/>
<polygon fill="#000000" stroke="#000000" points="215.5001,-205.9909 219,-215.991 222.5001,-205.991 215.5001,-205.9909"/>
</g>
<!-- AppTranslationModule -->
<g id="node3" class="node">
<title>AppTranslationModule</title>
<polygon fill="#8dd3c7" stroke="#000000" points="292.9158,-122 289.9158,-126 268.9158,-126 265.9158,-122 145.0842,-122 145.0842,-86 292.9158,-86 292.9158,-122"/>
<text text-anchor="middle" x="219" y="-99.8" font-family="Times,serif" font-size="14.00" fill="#000000">AppTranslationModule</text>
</g>
<!-- AppTranslationModule&#45;&gt;HRequestDocumentsModule -->
<g id="edge2" class="edge">
<title>AppTranslationModule&#45;&gt;HRequestDocumentsModule</title>
<path fill="none" stroke="#000000" d="M219,-122.1061C219,-122.1061 219,-140.991 219,-140.991"/>
<polygon fill="#000000" stroke="#000000" points="215.5001,-140.9909 219,-150.991 222.5001,-140.991 215.5001,-140.9909"/>
</g>
<!-- NgaModule -->
<g id="node4" class="node">
<title>NgaModule</title>
<polygon fill="#8dd3c7" stroke="#000000" points="127.3711,-122 124.3711,-126 103.3711,-126 100.3711,-122 44.6289,-122 44.6289,-86 127.3711,-86 127.3711,-122"/>
<text text-anchor="middle" x="86" y="-99.8" font-family="Times,serif" font-size="14.00" fill="#000000">NgaModule</text>
</g>
<!-- NgaModule&#45;&gt;HRequestDocumentsModule -->
<g id="edge3" class="edge">
<title>NgaModule&#45;&gt;HRequestDocumentsModule</title>
<path fill="none" stroke="#000000" d="M127.5836,-104C133.4414,-104 137.5165,-104 137.5165,-104 137.5165,-104 137.5165,-140.8939 137.5165,-140.8939"/>
<polygon fill="#000000" stroke="#000000" points="134.0165,-140.8938 137.5165,-150.8939 141.0165,-140.8939 134.0165,-140.8938"/>
</g>
</g>
</svg>
