<?xml version="1.0" encoding="UTF-8" standalone="no"?>
<!DOCTYPE svg PUBLIC "-//W3C//DTD SVG 1.1//EN"
 "http://www.w3.org/Graphics/SVG/1.1/DTD/svg11.dtd">
<!-- Generated by graphviz version 2.40.1 (20161225.0304)
 -->
<!-- Title: dependencies Pages: 1 -->
<svg width="504pt" height="284pt"
 viewBox="0.00 0.00 504.00 284.00" xmlns="http://www.w3.org/2000/svg" xmlns:xlink="http://www.w3.org/1999/xlink">
<g id="graph0" class="graph" transform="scale(1 1) rotate(0) translate(4 280)">
<title>dependencies</title>
<polygon fill="#ffffff" stroke="transparent" points="-4,4 -4,-280 500,-280 500,4 -4,4"/>
<text text-anchor="start" x="227.0091" y="-42.4" font-family="sans-serif" font-weight="bold" font-size="14.00" fill="#000000">Legend</text>
<polygon fill="#ffffb3" stroke="transparent" points="14,-10 14,-30 34,-30 34,-10 14,-10"/>
<text text-anchor="start" x="37.629" y="-15.4" font-family="sans-serif" font-size="14.00" fill="#000000"> &#160;Declarations</text>
<polygon fill="#8dd3c7" stroke="transparent" points="127,-10 127,-30 147,-30 147,-10 127,-10"/>
<text text-anchor="start" x="150.7251" y="-15.4" font-family="sans-serif" font-size="14.00" fill="#000000"> &#160;Module</text>
<polygon fill="#80b1d3" stroke="transparent" points="213,-10 213,-30 233,-30 233,-10 213,-10"/>
<text text-anchor="start" x="236.7812" y="-15.4" font-family="sans-serif" font-size="14.00" fill="#000000"> &#160;Bootstrap</text>
<polygon fill="#fdb462" stroke="transparent" points="310,-10 310,-30 330,-30 330,-10 310,-10"/>
<text text-anchor="start" x="333.6732" y="-15.4" font-family="sans-serif" font-size="14.00" fill="#000000"> &#160;Providers</text>
<polygon fill="#fb8072" stroke="transparent" points="406,-10 406,-30 426,-30 426,-10 406,-10"/>
<text text-anchor="start" x="429.7258" y="-15.4" font-family="sans-serif" font-size="14.00" fill="#000000"> &#160;Exports</text>
<g id="clust1" class="cluster">
<title>cluster_RequestDocumentsModule</title>
<polygon fill="none" stroke="#000000" stroke-dasharray="1,5" points="39,-70 39,-268 457,-268 457,-70 39,-70"/>
</g>
<g id="clust2" class="cluster">
<title>cluster_RequestDocumentsModule_declarations</title>
<polygon fill="none" stroke="#000000" points="309,-78 309,-130 449,-130 449,-78 309,-78"/>
</g>
<g id="clust5" class="cluster">
<title>cluster_RequestDocumentsModule_exports</title>
<polygon fill="none" stroke="#000000" points="197,-208 197,-260 341,-260 341,-208 197,-208"/>
</g>
<g id="clust7" class="cluster">
<title>cluster_RequestDocumentsModule_providers</title>
<polygon fill="none" stroke="#000000" points="47,-78 47,-130 301,-130 301,-78 47,-78"/>
</g>
<!-- RequestDocuments -->
<g id="node1" class="node">
<title>RequestDocuments</title>
<polygon fill="#ffffb3" stroke="#000000" points="441.3627,-122 316.6373,-122 316.6373,-86 441.3627,-86 441.3627,-122"/>
<text text-anchor="middle" x="379" y="-99.8" font-family="Times,serif" font-size="14.00" fill="#000000">RequestDocuments</text>
</g>
<!-- RequestDocumentsModule -->
<g id="node2" class="node">
<title>RequestDocumentsModule</title>
<polygon fill="#8dd3c7" stroke="#000000" points="353.4129,-187 350.4129,-191 329.4129,-191 326.4129,-187 184.5871,-187 184.5871,-151 353.4129,-151 353.4129,-187"/>
<text text-anchor="middle" x="269" y="-164.8" font-family="Times,serif" font-size="14.00" fill="#000000">RequestDocumentsModule</text>
</g>
<!-- RequestDocuments&#45;&gt;RequestDocumentsModule -->
<g id="edge1" class="edge">
<title>RequestDocuments&#45;&gt;RequestDocumentsModule</title>
<path fill="none" stroke="#000000" d="M334.8875,-122.1061C334.8875,-122.1061 334.8875,-140.991 334.8875,-140.991"/>
<polygon fill="#000000" stroke="#000000" points="331.3875,-140.9909 334.8875,-150.991 338.3875,-140.991 331.3875,-140.9909"/>
</g>
<!-- RequestDocuments  -->
<g id="node3" class="node">
<title>RequestDocuments </title>
<polygon fill="#fb8072" stroke="#000000" points="333.3631,-252 204.6369,-252 204.6369,-216 333.3631,-216 333.3631,-252"/>
<text text-anchor="middle" x="269" y="-229.8" font-family="Times,serif" font-size="14.00" fill="#000000">RequestDocuments </text>
</g>
<!-- RequestDocumentsModule&#45;&gt;RequestDocuments  -->
<g id="edge2" class="edge">
<title>RequestDocumentsModule&#45;&gt;RequestDocuments </title>
<path fill="none" stroke="#000000" stroke-dasharray="5,2" d="M269,-187.1061C269,-187.1061 269,-205.991 269,-205.991"/>
<polygon fill="#000000" stroke="#000000" points="265.5001,-205.9909 269,-215.991 272.5001,-205.991 265.5001,-205.9909"/>
</g>
<!-- RequestDocumentsServices -->
<g id="node4" class="node">
<title>RequestDocumentsServices</title>
<ellipse fill="#fdb462" stroke="#000000" cx="174" cy="-104" rx="118.678" ry="18"/>
<text text-anchor="middle" x="174" y="-99.8" font-family="Times,serif" font-size="14.00" fill="#000000">RequestDocumentsServices</text>
</g>
<!-- RequestDocumentsServices&#45;&gt;RequestDocumentsModule -->
<g id="edge3" class="edge">
<title>RequestDocumentsServices&#45;&gt;RequestDocumentsModule</title>
<path fill="none" stroke="#000000" d="M238.8164,-119.4041C238.8164,-119.4041 238.8164,-140.9397 238.8164,-140.9397"/>
<polygon fill="#000000" stroke="#000000" points="235.3165,-140.9397 238.8164,-150.9397 242.3165,-140.9398 235.3165,-140.9397"/>
</g>
</g>
</svg>
