<?xml version="1.0" encoding="UTF-8" standalone="no"?>
<!DOCTYPE svg PUBLIC "-//W3C//DTD SVG 1.1//EN"
 "http://www.w3.org/Graphics/SVG/1.1/DTD/svg11.dtd">
<!-- Generated by graphviz version 2.40.1 (20161225.0304)
 -->
<!-- Title: dependencies Pages: 1 -->
<svg width="757pt" height="211pt"
 viewBox="0.00 0.00 757.00 211.00" xmlns="http://www.w3.org/2000/svg" xmlns:xlink="http://www.w3.org/1999/xlink">
<g id="graph0" class="graph" transform="scale(1 1) rotate(0) translate(4 207)">
<title>dependencies</title>
<polygon fill="#ffffff" stroke="transparent" points="-4,4 -4,-207 753,-207 753,4 -4,4"/>
<text text-anchor="start" x="353.5091" y="-42.4" font-family="sans-serif" font-weight="bold" font-size="14.00" fill="#000000">Legend</text>
<polygon fill="#ffffb3" stroke="transparent" points="140.5,-10 140.5,-30 160.5,-30 160.5,-10 140.5,-10"/>
<text text-anchor="start" x="164.129" y="-15.4" font-family="sans-serif" font-size="14.00" fill="#000000"> &#160;Declarations</text>
<polygon fill="#8dd3c7" stroke="transparent" points="253.5,-10 253.5,-30 273.5,-30 273.5,-10 253.5,-10"/>
<text text-anchor="start" x="277.2251" y="-15.4" font-family="sans-serif" font-size="14.00" fill="#000000"> &#160;Module</text>
<polygon fill="#80b1d3" stroke="transparent" points="339.5,-10 339.5,-30 359.5,-30 359.5,-10 339.5,-10"/>
<text text-anchor="start" x="363.2812" y="-15.4" font-family="sans-serif" font-size="14.00" fill="#000000"> &#160;Bootstrap</text>
<polygon fill="#fdb462" stroke="transparent" points="436.5,-10 436.5,-30 456.5,-30 456.5,-10 436.5,-10"/>
<text text-anchor="start" x="460.1732" y="-15.4" font-family="sans-serif" font-size="14.00" fill="#000000"> &#160;Providers</text>
<polygon fill="#fb8072" stroke="transparent" points="532.5,-10 532.5,-30 552.5,-30 552.5,-10 532.5,-10"/>
<text text-anchor="start" x="556.2258" y="-15.4" font-family="sans-serif" font-size="14.00" fill="#000000"> &#160;Exports</text>
<g id="clust1" class="cluster">
<title>cluster_InProgressModule</title>
<polygon fill="none" stroke="#000000" stroke-dasharray="1,5" points="8,-70 8,-195 741,-195 741,-70 8,-70"/>
</g>
<g id="clust2" class="cluster">
<title>cluster_InProgressModule_declarations</title>
<polygon fill="none" stroke="#000000" points="575,-78 575,-130 733,-130 733,-78 575,-78"/>
</g>
<g id="clust4" class="cluster">
<title>cluster_InProgressModule_imports</title>
<polygon fill="none" stroke="#000000" points="198,-78 198,-130 567,-130 567,-78 198,-78"/>
</g>
<g id="clust7" class="cluster">
<title>cluster_InProgressModule_providers</title>
<polygon fill="none" stroke="#000000" points="16,-78 16,-130 190,-130 190,-78 16,-78"/>
</g>
<!-- InProgressComponent -->
<g id="node1" class="node">
<title>InProgressComponent</title>
<polygon fill="#ffffb3" stroke="#000000" points="724.7007,-122 583.2993,-122 583.2993,-86 724.7007,-86 724.7007,-122"/>
<text text-anchor="middle" x="654" y="-99.8" font-family="Times,serif" font-size="14.00" fill="#000000">InProgressComponent</text>
</g>
<!-- InProgressModule -->
<g id="node2" class="node">
<title>InProgressModule</title>
<polygon fill="#8dd3c7" stroke="#000000" points="440.9187,-187 437.9187,-191 416.9187,-191 413.9187,-187 321.0813,-187 321.0813,-151 440.9187,-151 440.9187,-187"/>
<text text-anchor="middle" x="381" y="-164.8" font-family="Times,serif" font-size="14.00" fill="#000000">InProgressModule</text>
</g>
<!-- InProgressComponent&#45;&gt;InProgressModule -->
<g id="edge1" class="edge">
<title>InProgressComponent&#45;&gt;InProgressModule</title>
<path fill="none" stroke="#000000" d="M654,-122.1061C654,-141.3391 654,-169 654,-169 654,-169 450.911,-169 450.911,-169"/>
<polygon fill="#000000" stroke="#000000" points="450.911,-165.5001 440.911,-169 450.911,-172.5001 450.911,-165.5001"/>
</g>
<!-- HDataTableByTrayModule -->
<g id="node3" class="node">
<title>HDataTableByTrayModule</title>
<polygon fill="#8dd3c7" stroke="#000000" points="559.2198,-122 556.2198,-126 535.2198,-126 532.2198,-122 388.7802,-122 388.7802,-86 559.2198,-86 559.2198,-122"/>
<text text-anchor="middle" x="474" y="-99.8" font-family="Times,serif" font-size="14.00" fill="#000000">HDataTableByTrayModule</text>
</g>
<!-- HDataTableByTrayModule&#45;&gt;InProgressModule -->
<g id="edge2" class="edge">
<title>HDataTableByTrayModule&#45;&gt;InProgressModule</title>
<path fill="none" stroke="#000000" d="M414.6746,-122.1061C414.6746,-122.1061 414.6746,-140.991 414.6746,-140.991"/>
<polygon fill="#000000" stroke="#000000" points="411.1747,-140.9909 414.6746,-150.991 418.1747,-140.991 411.1747,-140.9909"/>
</g>
<!-- InProgressRoutingModule -->
<g id="node4" class="node">
<title>InProgressRoutingModule</title>
<polygon fill="#8dd3c7" stroke="#000000" points="370.0365,-122 367.0365,-126 346.0365,-126 343.0365,-122 205.9635,-122 205.9635,-86 370.0365,-86 370.0365,-122"/>
<text text-anchor="middle" x="288" y="-99.8" font-family="Times,serif" font-size="14.00" fill="#000000">InProgressRoutingModule</text>
</g>
<!-- InProgressRoutingModule&#45;&gt;InProgressModule -->
<g id="edge3" class="edge">
<title>InProgressRoutingModule&#45;&gt;InProgressModule</title>
<path fill="none" stroke="#000000" d="M345.7795,-122.1061C345.7795,-122.1061 345.7795,-140.991 345.7795,-140.991"/>
<polygon fill="#000000" stroke="#000000" points="342.2795,-140.9909 345.7795,-150.991 349.2795,-140.991 342.2795,-140.9909"/>
</g>
<!-- RequestsServices -->
<g id="node5" class="node">
<title>RequestsServices</title>
<ellipse fill="#fdb462" stroke="#000000" cx="103" cy="-104" rx="78.726" ry="18"/>
<text text-anchor="middle" x="103" y="-99.8" font-family="Times,serif" font-size="14.00" fill="#000000">RequestsServices</text>
</g>
<!-- RequestsServices&#45;&gt;InProgressModule -->
<g id="edge4" class="edge">
<title>RequestsServices&#45;&gt;InProgressModule</title>
<path fill="none" stroke="#000000" d="M103,-122.1061C103,-141.3391 103,-169 103,-169 103,-169 311.0204,-169 311.0204,-169"/>
<polygon fill="#000000" stroke="#000000" points="311.0204,-172.5001 321.0204,-169 311.0204,-165.5001 311.0204,-172.5001"/>
</g>
</g>
</svg>
