<?xml version="1.0" encoding="UTF-8" standalone="no"?>
<!DOCTYPE svg PUBLIC "-//W3C//DTD SVG 1.1//EN"
 "http://www.w3.org/Graphics/SVG/1.1/DTD/svg11.dtd">
<!-- Generated by graphviz version 2.40.1 (20161225.0304)
 -->
<!-- Title: dependencies Pages: 1 -->
<svg width="958pt" height="211pt"
 viewBox="0.00 0.00 958.00 211.00" xmlns="http://www.w3.org/2000/svg" xmlns:xlink="http://www.w3.org/1999/xlink">
<g id="graph0" class="graph" transform="scale(1 1) rotate(0) translate(4 207)">
<title>dependencies</title>
<polygon fill="#ffffff" stroke="transparent" points="-4,4 -4,-207 954,-207 954,4 -4,4"/>
<text text-anchor="start" x="454.0091" y="-42.4" font-family="sans-serif" font-weight="bold" font-size="14.00" fill="#000000">Legend</text>
<polygon fill="#ffffb3" stroke="transparent" points="241,-10 241,-30 261,-30 261,-10 241,-10"/>
<text text-anchor="start" x="264.629" y="-15.4" font-family="sans-serif" font-size="14.00" fill="#000000"> &#160;Declarations</text>
<polygon fill="#8dd3c7" stroke="transparent" points="354,-10 354,-30 374,-30 374,-10 354,-10"/>
<text text-anchor="start" x="377.7251" y="-15.4" font-family="sans-serif" font-size="14.00" fill="#000000"> &#160;Module</text>
<polygon fill="#80b1d3" stroke="transparent" points="440,-10 440,-30 460,-30 460,-10 440,-10"/>
<text text-anchor="start" x="463.7812" y="-15.4" font-family="sans-serif" font-size="14.00" fill="#000000"> &#160;Bootstrap</text>
<polygon fill="#fdb462" stroke="transparent" points="537,-10 537,-30 557,-30 557,-10 537,-10"/>
<text text-anchor="start" x="560.6732" y="-15.4" font-family="sans-serif" font-size="14.00" fill="#000000"> &#160;Providers</text>
<polygon fill="#fb8072" stroke="transparent" points="633,-10 633,-30 653,-30 653,-10 633,-10"/>
<text text-anchor="start" x="656.7258" y="-15.4" font-family="sans-serif" font-size="14.00" fill="#000000"> &#160;Exports</text>
<g id="clust1" class="cluster">
<title>cluster_CompletedModule</title>
<polygon fill="none" stroke="#000000" stroke-dasharray="1,5" points="8,-70 8,-195 942,-195 942,-70 8,-70"/>
</g>
<g id="clust2" class="cluster">
<title>cluster_CompletedModule_declarations</title>
<polygon fill="none" stroke="#000000" points="776,-78 776,-130 934,-130 934,-78 776,-78"/>
</g>
<g id="clust4" class="cluster">
<title>cluster_CompletedModule_imports</title>
<polygon fill="none" stroke="#000000" points="198,-78 198,-130 768,-130 768,-78 198,-78"/>
</g>
<g id="clust7" class="cluster">
<title>cluster_CompletedModule_providers</title>
<polygon fill="none" stroke="#000000" points="16,-78 16,-130 190,-130 190,-78 16,-78"/>
</g>
<!-- CompletedComponent -->
<g id="node1" class="node">
<title>CompletedComponent</title>
<polygon fill="#ffffb3" stroke="#000000" points="926.2702,-122 783.7298,-122 783.7298,-86 926.2702,-86 926.2702,-122"/>
<text text-anchor="middle" x="855" y="-99.8" font-family="Times,serif" font-size="14.00" fill="#000000">CompletedComponent</text>
</g>
<!-- CompletedModule -->
<g id="node2" class="node">
<title>CompletedModule</title>
<polygon fill="#8dd3c7" stroke="#000000" points="541.4874,-187 538.4874,-191 517.4874,-191 514.4874,-187 420.5126,-187 420.5126,-151 541.4874,-151 541.4874,-187"/>
<text text-anchor="middle" x="481" y="-164.8" font-family="Times,serif" font-size="14.00" fill="#000000">CompletedModule</text>
</g>
<!-- CompletedComponent&#45;&gt;CompletedModule -->
<g id="edge1" class="edge">
<title>CompletedComponent&#45;&gt;CompletedModule</title>
<path fill="none" stroke="#000000" d="M855,-122.2843C855,-143.3211 855,-175 855,-175 855,-175 551.5052,-175 551.5052,-175"/>
<polygon fill="#000000" stroke="#000000" points="551.5053,-171.5001 541.5052,-175 551.5052,-178.5001 551.5053,-171.5001"/>
</g>
<!-- HDataTableByTrayModule -->
<g id="node3" class="node">
<title>HDataTableByTrayModule</title>
<polygon fill="#8dd3c7" stroke="#000000" points="760.2198,-122 757.2198,-126 736.2198,-126 733.2198,-122 589.7802,-122 589.7802,-86 760.2198,-86 760.2198,-122"/>
<text text-anchor="middle" x="675" y="-99.8" font-family="Times,serif" font-size="14.00" fill="#000000">HDataTableByTrayModule</text>
</g>
<!-- HDataTableByTrayModule&#45;&gt;CompletedModule -->
<g id="edge2" class="edge">
<title>HDataTableByTrayModule&#45;&gt;CompletedModule</title>
<path fill="none" stroke="#000000" d="M675,-122.0225C675,-139.3734 675,-163 675,-163 675,-163 551.5848,-163 551.5848,-163"/>
<polygon fill="#000000" stroke="#000000" points="551.5849,-159.5001 541.5848,-163 551.5848,-166.5001 551.5849,-159.5001"/>
</g>
<!-- HTurboTableForTrayModule -->
<g id="node4" class="node">
<title>HTurboTableForTrayModule</title>
<polygon fill="#8dd3c7" stroke="#000000" points="571.6134,-122 568.6134,-126 547.6134,-126 544.6134,-122 390.3866,-122 390.3866,-86 571.6134,-86 571.6134,-122"/>
<text text-anchor="middle" x="481" y="-99.8" font-family="Times,serif" font-size="14.00" fill="#000000">HTurboTableForTrayModule</text>
</g>
<!-- HTurboTableForTrayModule&#45;&gt;CompletedModule -->
<g id="edge3" class="edge">
<title>HTurboTableForTrayModule&#45;&gt;CompletedModule</title>
<path fill="none" stroke="#000000" d="M481,-122.1061C481,-122.1061 481,-140.991 481,-140.991"/>
<polygon fill="#000000" stroke="#000000" points="477.5001,-140.9909 481,-150.991 484.5001,-140.991 477.5001,-140.9909"/>
</g>
<!-- CompletedRoutingModule -->
<g id="node5" class="node">
<title>CompletedRoutingModule</title>
<polygon fill="#8dd3c7" stroke="#000000" points="372.1052,-122 369.1052,-126 348.1052,-126 345.1052,-122 205.8948,-122 205.8948,-86 372.1052,-86 372.1052,-122"/>
<text text-anchor="middle" x="289" y="-99.8" font-family="Times,serif" font-size="14.00" fill="#000000">CompletedRoutingModule</text>
</g>
<!-- CompletedRoutingModule&#45;&gt;CompletedModule -->
<g id="edge4" class="edge">
<title>CompletedRoutingModule&#45;&gt;CompletedModule</title>
<path fill="none" stroke="#000000" d="M289,-122.0225C289,-139.3734 289,-163 289,-163 289,-163 410.25,-163 410.25,-163"/>
<polygon fill="#000000" stroke="#000000" points="410.25,-166.5001 420.25,-163 410.25,-159.5001 410.25,-166.5001"/>
</g>
<!-- RequestsServices -->
<g id="node6" class="node">
<title>RequestsServices</title>
<ellipse fill="#fdb462" stroke="#000000" cx="103" cy="-104" rx="78.726" ry="18"/>
<text text-anchor="middle" x="103" y="-99.8" font-family="Times,serif" font-size="14.00" fill="#000000">RequestsServices</text>
</g>
<!-- RequestsServices&#45;&gt;CompletedModule -->
<g id="edge5" class="edge">
<title>RequestsServices&#45;&gt;CompletedModule</title>
<path fill="none" stroke="#000000" d="M103,-122.2843C103,-143.3211 103,-175 103,-175 103,-175 410.2678,-175 410.2678,-175"/>
<polygon fill="#000000" stroke="#000000" points="410.2678,-178.5001 420.2678,-175 410.2677,-171.5001 410.2678,-178.5001"/>
</g>
</g>
</svg>
