<?xml version="1.0" encoding="UTF-8" standalone="no"?>
<!DOCTYPE svg PUBLIC "-//W3C//DTD SVG 1.1//EN"
 "http://www.w3.org/Graphics/SVG/1.1/DTD/svg11.dtd">
<!-- Generated by graphviz version 2.40.1 (20161225.0304)
 -->
<!-- Title: dependencies Pages: 1 -->
<svg width="758pt" height="211pt"
 viewBox="0.00 0.00 758.00 211.00" xmlns="http://www.w3.org/2000/svg" xmlns:xlink="http://www.w3.org/1999/xlink">
<g id="graph0" class="graph" transform="scale(1 1) rotate(0) translate(4 207)">
<title>dependencies</title>
<polygon fill="#ffffff" stroke="transparent" points="-4,4 -4,-207 754,-207 754,4 -4,4"/>
<text text-anchor="start" x="354.0091" y="-42.4" font-family="sans-serif" font-weight="bold" font-size="14.00" fill="#000000">Legend</text>
<polygon fill="#ffffb3" stroke="transparent" points="141,-10 141,-30 161,-30 161,-10 141,-10"/>
<text text-anchor="start" x="164.629" y="-15.4" font-family="sans-serif" font-size="14.00" fill="#000000"> &#160;Declarations</text>
<polygon fill="#8dd3c7" stroke="transparent" points="254,-10 254,-30 274,-30 274,-10 254,-10"/>
<text text-anchor="start" x="277.7251" y="-15.4" font-family="sans-serif" font-size="14.00" fill="#000000"> &#160;Module</text>
<polygon fill="#80b1d3" stroke="transparent" points="340,-10 340,-30 360,-30 360,-10 340,-10"/>
<text text-anchor="start" x="363.7812" y="-15.4" font-family="sans-serif" font-size="14.00" fill="#000000"> &#160;Bootstrap</text>
<polygon fill="#fdb462" stroke="transparent" points="437,-10 437,-30 457,-30 457,-10 437,-10"/>
<text text-anchor="start" x="460.6732" y="-15.4" font-family="sans-serif" font-size="14.00" fill="#000000"> &#160;Providers</text>
<polygon fill="#fb8072" stroke="transparent" points="533,-10 533,-30 553,-30 553,-10 533,-10"/>
<text text-anchor="start" x="556.7258" y="-15.4" font-family="sans-serif" font-size="14.00" fill="#000000"> &#160;Exports</text>
<g id="clust1" class="cluster">
<title>cluster_CompletedModule</title>
<polygon fill="none" stroke="#000000" stroke-dasharray="1,5" points="8,-70 8,-195 742,-195 742,-70 8,-70"/>
</g>
<g id="clust2" class="cluster">
<title>cluster_CompletedModule_declarations</title>
<polygon fill="none" stroke="#000000" points="576,-78 576,-130 734,-130 734,-78 576,-78"/>
</g>
<g id="clust4" class="cluster">
<title>cluster_CompletedModule_imports</title>
<polygon fill="none" stroke="#000000" points="198,-78 198,-130 568,-130 568,-78 198,-78"/>
</g>
<g id="clust7" class="cluster">
<title>cluster_CompletedModule_providers</title>
<polygon fill="none" stroke="#000000" points="16,-78 16,-130 190,-130 190,-78 16,-78"/>
</g>
<!-- CompletedComponent -->
<g id="node1" class="node">
<title>CompletedComponent</title>
<polygon fill="#ffffb3" stroke="#000000" points="726.2702,-122 583.7298,-122 583.7298,-86 726.2702,-86 726.2702,-122"/>
<text text-anchor="middle" x="655" y="-99.8" font-family="Times,serif" font-size="14.00" fill="#000000">CompletedComponent</text>
</g>
<!-- CompletedModule -->
<g id="node2" class="node">
<title>CompletedModule</title>
<polygon fill="#8dd3c7" stroke="#000000" points="442.4874,-187 439.4874,-191 418.4874,-191 415.4874,-187 321.5126,-187 321.5126,-151 442.4874,-151 442.4874,-187"/>
<text text-anchor="middle" x="382" y="-164.8" font-family="Times,serif" font-size="14.00" fill="#000000">CompletedModule</text>
</g>
<!-- CompletedComponent&#45;&gt;CompletedModule -->
<g id="edge1" class="edge">
<title>CompletedComponent&#45;&gt;CompletedModule</title>
<path fill="none" stroke="#000000" d="M655,-122.1061C655,-141.3391 655,-169 655,-169 655,-169 452.5875,-169 452.5875,-169"/>
<polygon fill="#000000" stroke="#000000" points="452.5876,-165.5001 442.5875,-169 452.5875,-172.5001 452.5876,-165.5001"/>
</g>
<!-- HDataTableByTrayModule -->
<g id="node3" class="node">
<title>HDataTableByTrayModule</title>
<polygon fill="#8dd3c7" stroke="#000000" points="560.2198,-122 557.2198,-126 536.2198,-126 533.2198,-122 389.7802,-122 389.7802,-86 560.2198,-86 560.2198,-122"/>
<text text-anchor="middle" x="475" y="-99.8" font-family="Times,serif" font-size="14.00" fill="#000000">HDataTableByTrayModule</text>
</g>
<!-- HDataTableByTrayModule&#45;&gt;CompletedModule -->
<g id="edge2" class="edge">
<title>HDataTableByTrayModule&#45;&gt;CompletedModule</title>
<path fill="none" stroke="#000000" d="M416.067,-122.1061C416.067,-122.1061 416.067,-140.991 416.067,-140.991"/>
<polygon fill="#000000" stroke="#000000" points="412.567,-140.9909 416.067,-150.991 419.567,-140.991 412.567,-140.9909"/>
</g>
<!-- CompletedRoutingModule -->
<g id="node4" class="node">
<title>CompletedRoutingModule</title>
<polygon fill="#8dd3c7" stroke="#000000" points="372.1052,-122 369.1052,-126 348.1052,-126 345.1052,-122 205.8948,-122 205.8948,-86 372.1052,-86 372.1052,-122"/>
<text text-anchor="middle" x="289" y="-99.8" font-family="Times,serif" font-size="14.00" fill="#000000">CompletedRoutingModule</text>
</g>
<!-- CompletedRoutingModule&#45;&gt;CompletedModule -->
<g id="edge3" class="edge">
<title>CompletedRoutingModule&#45;&gt;CompletedModule</title>
<path fill="none" stroke="#000000" d="M346.7795,-122.1061C346.7795,-122.1061 346.7795,-140.991 346.7795,-140.991"/>
<polygon fill="#000000" stroke="#000000" points="343.2795,-140.9909 346.7795,-150.991 350.2795,-140.991 343.2795,-140.9909"/>
</g>
<!-- RequestsServices -->
<g id="node5" class="node">
<title>RequestsServices</title>
<ellipse fill="#fdb462" stroke="#000000" cx="103" cy="-104" rx="78.726" ry="18"/>
<text text-anchor="middle" x="103" y="-99.8" font-family="Times,serif" font-size="14.00" fill="#000000">RequestsServices</text>
</g>
<!-- RequestsServices&#45;&gt;CompletedModule -->
<g id="edge4" class="edge">
<title>RequestsServices&#45;&gt;CompletedModule</title>
<path fill="none" stroke="#000000" d="M103,-122.1061C103,-141.3391 103,-169 103,-169 103,-169 311.4612,-169 311.4612,-169"/>
<polygon fill="#000000" stroke="#000000" points="311.4612,-172.5001 321.4612,-169 311.4611,-165.5001 311.4612,-172.5001"/>
</g>
</g>
</svg>
