<?xml version="1.0" encoding="UTF-8" standalone="no"?>
<!DOCTYPE svg PUBLIC "-//W3C//DTD SVG 1.1//EN"
 "http://www.w3.org/Graphics/SVG/1.1/DTD/svg11.dtd">
<!-- Generated by graphviz version 2.40.1 (20161225.0304)
 -->
<!-- Title: dependencies Pages: 1 -->
<svg width="504pt" height="211pt"
 viewBox="0.00 0.00 504.00 211.00" xmlns="http://www.w3.org/2000/svg" xmlns:xlink="http://www.w3.org/1999/xlink">
<g id="graph0" class="graph" transform="scale(1 1) rotate(0) translate(4 207)">
<title>dependencies</title>
<polygon fill="#ffffff" stroke="transparent" points="-4,4 -4,-207 500,-207 500,4 -4,4"/>
<text text-anchor="start" x="227.0091" y="-42.4" font-family="sans-serif" font-weight="bold" font-size="14.00" fill="#000000">Legend</text>
<polygon fill="#ffffb3" stroke="transparent" points="14,-10 14,-30 34,-30 34,-10 14,-10"/>
<text text-anchor="start" x="37.629" y="-15.4" font-family="sans-serif" font-size="14.00" fill="#000000"> &#160;Declarations</text>
<polygon fill="#8dd3c7" stroke="transparent" points="127,-10 127,-30 147,-30 147,-10 127,-10"/>
<text text-anchor="start" x="150.7251" y="-15.4" font-family="sans-serif" font-size="14.00" fill="#000000"> &#160;Module</text>
<polygon fill="#80b1d3" stroke="transparent" points="213,-10 213,-30 233,-30 233,-10 213,-10"/>
<text text-anchor="start" x="236.7812" y="-15.4" font-family="sans-serif" font-size="14.00" fill="#000000"> &#160;Bootstrap</text>
<polygon fill="#fdb462" stroke="transparent" points="310,-10 310,-30 330,-30 330,-10 310,-10"/>
<text text-anchor="start" x="333.6732" y="-15.4" font-family="sans-serif" font-size="14.00" fill="#000000"> &#160;Providers</text>
<polygon fill="#fb8072" stroke="transparent" points="406,-10 406,-30 426,-30 426,-10 406,-10"/>
<text text-anchor="start" x="429.7258" y="-15.4" font-family="sans-serif" font-size="14.00" fill="#000000"> &#160;Exports</text>
<g id="clust1" class="cluster">
<title>cluster_ChatModule</title>
<polygon fill="none" stroke="#000000" stroke-dasharray="1,5" points="43,-70 43,-195 453,-195 453,-70 43,-70"/>
</g>
<g id="clust2" class="cluster">
<title>cluster_ChatModule_declarations</title>
<polygon fill="none" stroke="#000000" points="321,-78 321,-130 445,-130 445,-78 321,-78"/>
</g>
<g id="clust4" class="cluster">
<title>cluster_ChatModule_imports</title>
<polygon fill="none" stroke="#000000" points="51,-78 51,-130 313,-130 313,-78 51,-78"/>
</g>
<!-- ChatComponent -->
<g id="node1" class="node">
<title>ChatComponent</title>
<polygon fill="#ffffb3" stroke="#000000" points="436.7744,-122 329.2256,-122 329.2256,-86 436.7744,-86 436.7744,-122"/>
<text text-anchor="middle" x="383" y="-99.8" font-family="Times,serif" font-size="14.00" fill="#000000">ChatComponent</text>
</g>
<!-- ChatModule -->
<g id="node2" class="node">
<title>ChatModule</title>
<polygon fill="#8dd3c7" stroke="#000000" points="299.9916,-187 296.9916,-191 275.9916,-191 272.9916,-187 214.0084,-187 214.0084,-151 299.9916,-151 299.9916,-187"/>
<text text-anchor="middle" x="257" y="-164.8" font-family="Times,serif" font-size="14.00" fill="#000000">ChatModule</text>
</g>
<!-- ChatComponent&#45;&gt;ChatModule -->
<g id="edge1" class="edge">
<title>ChatComponent&#45;&gt;ChatModule</title>
<path fill="none" stroke="#000000" d="M383,-122.1061C383,-141.3391 383,-169 383,-169 383,-169 310.0096,-169 310.0096,-169"/>
<polygon fill="#000000" stroke="#000000" points="310.0097,-165.5001 300.0096,-169 310.0096,-172.5001 310.0097,-165.5001"/>
</g>
<!-- HChatModule -->
<g id="node3" class="node">
<title>HChatModule</title>
<polygon fill="#8dd3c7" stroke="#000000" points="305.0983,-122 302.0983,-126 281.0983,-126 278.0983,-122 208.9017,-122 208.9017,-86 305.0983,-86 305.0983,-122"/>
<text text-anchor="middle" x="257" y="-99.8" font-family="Times,serif" font-size="14.00" fill="#000000">HChatModule</text>
</g>
<!-- HChatModule&#45;&gt;ChatModule -->
<g id="edge2" class="edge">
<title>HChatModule&#45;&gt;ChatModule</title>
<path fill="none" stroke="#000000" d="M257,-122.1061C257,-122.1061 257,-140.991 257,-140.991"/>
<polygon fill="#000000" stroke="#000000" points="253.5001,-140.9909 257,-150.991 260.5001,-140.991 253.5001,-140.9909"/>
</g>
<!-- ChatRoutingModule -->
<g id="node4" class="node">
<title>ChatRoutingModule</title>
<polygon fill="#8dd3c7" stroke="#000000" points="190.6094,-122 187.6094,-126 166.6094,-126 163.6094,-122 59.3906,-122 59.3906,-86 190.6094,-86 190.6094,-122"/>
<text text-anchor="middle" x="125" y="-99.8" font-family="Times,serif" font-size="14.00" fill="#000000">ChatRoutingModule</text>
</g>
<!-- ChatRoutingModule&#45;&gt;ChatModule -->
<g id="edge3" class="edge">
<title>ChatRoutingModule&#45;&gt;ChatModule</title>
<path fill="none" stroke="#000000" d="M125,-122.1061C125,-141.3391 125,-169 125,-169 125,-169 203.7783,-169 203.7783,-169"/>
<polygon fill="#000000" stroke="#000000" points="203.7783,-172.5001 213.7783,-169 203.7782,-165.5001 203.7783,-172.5001"/>
</g>
</g>
</svg>
