<?xml version="1.0" encoding="UTF-8" standalone="no"?>
<!DOCTYPE svg PUBLIC "-//W3C//DTD SVG 1.1//EN"
 "http://www.w3.org/Graphics/SVG/1.1/DTD/svg11.dtd">
<!-- Generated by graphviz version 2.40.1 (20161225.0304)
 -->
<!-- Title: dependencies Pages: 1 -->
<svg width="2040pt" height="211pt"
 viewBox="0.00 0.00 2040.00 211.00" xmlns="http://www.w3.org/2000/svg" xmlns:xlink="http://www.w3.org/1999/xlink">
<g id="graph0" class="graph" transform="scale(1 1) rotate(0) translate(4 207)">
<title>dependencies</title>
<polygon fill="#ffffff" stroke="transparent" points="-4,4 -4,-207 2036,-207 2036,4 -4,4"/>
<text text-anchor="start" x="995.0091" y="-42.4" font-family="sans-serif" font-weight="bold" font-size="14.00" fill="#000000">Legend</text>
<polygon fill="#ffffb3" stroke="transparent" points="782,-10 782,-30 802,-30 802,-10 782,-10"/>
<text text-anchor="start" x="805.629" y="-15.4" font-family="sans-serif" font-size="14.00" fill="#000000"> &#160;Declarations</text>
<polygon fill="#8dd3c7" stroke="transparent" points="895,-10 895,-30 915,-30 915,-10 895,-10"/>
<text text-anchor="start" x="918.7251" y="-15.4" font-family="sans-serif" font-size="14.00" fill="#000000"> &#160;Module</text>
<polygon fill="#80b1d3" stroke="transparent" points="981,-10 981,-30 1001,-30 1001,-10 981,-10"/>
<text text-anchor="start" x="1004.7812" y="-15.4" font-family="sans-serif" font-size="14.00" fill="#000000"> &#160;Bootstrap</text>
<polygon fill="#fdb462" stroke="transparent" points="1078,-10 1078,-30 1098,-30 1098,-10 1078,-10"/>
<text text-anchor="start" x="1101.6732" y="-15.4" font-family="sans-serif" font-size="14.00" fill="#000000"> &#160;Providers</text>
<polygon fill="#fb8072" stroke="transparent" points="1174,-10 1174,-30 1194,-30 1194,-10 1174,-10"/>
<text text-anchor="start" x="1197.7258" y="-15.4" font-family="sans-serif" font-size="14.00" fill="#000000"> &#160;Exports</text>
<g id="clust1" class="cluster">
<title>cluster_HelpModule</title>
<polygon fill="none" stroke="#000000" stroke-dasharray="1,5" points="8,-70 8,-195 2024,-195 2024,-70 8,-70"/>
</g>
<g id="clust2" class="cluster">
<title>cluster_HelpModule_declarations</title>
<polygon fill="none" stroke="#000000" points="272,-78 272,-130 2016,-130 2016,-78 272,-78"/>
</g>
<g id="clust14" class="cluster">
<title>cluster_HelpModule_imports</title>
<polygon fill="none" stroke="#000000" points="16,-78 16,-130 264,-130 264,-78 16,-78"/>
</g>
<!-- HelpComponent -->
<g id="node1" class="node">
<title>HelpComponent</title>
<polygon fill="#ffffb3" stroke="#000000" points="2008.0452,-122 1899.9548,-122 1899.9548,-86 2008.0452,-86 2008.0452,-122"/>
<text text-anchor="middle" x="1954" y="-99.8" font-family="Times,serif" font-size="14.00" fill="#000000">HelpComponent</text>
</g>
<!-- HelpModule -->
<g id="node12" class="node">
<title>HelpModule</title>
<polygon fill="#8dd3c7" stroke="#000000" points="1043.2619,-187 1040.2619,-191 1019.2619,-191 1016.2619,-187 956.7381,-187 956.7381,-151 1043.2619,-151 1043.2619,-187"/>
<text text-anchor="middle" x="1000" y="-164.8" font-family="Times,serif" font-size="14.00" fill="#000000">HelpModule</text>
</g>
<!-- HelpComponent&#45;&gt;HelpModule -->
<g id="edge1" class="edge">
<title>HelpComponent&#45;&gt;HelpModule</title>
<path fill="none" stroke="#000000" d="M1954,-122.0908C1954,-145.1328 1954,-182 1954,-182 1954,-182 1053.4704,-182 1053.4704,-182"/>
<polygon fill="#000000" stroke="#000000" points="1053.4704,-178.5001 1043.4704,-182 1053.4703,-185.5001 1053.4704,-178.5001"/>
</g>
<!-- Help00000Component -->
<g id="node2" class="node">
<title>Help00000Component</title>
<polygon fill="#ffffb3" stroke="#000000" points="1881.5449,-122 1738.4551,-122 1738.4551,-86 1881.5449,-86 1881.5449,-122"/>
<text text-anchor="middle" x="1810" y="-99.8" font-family="Times,serif" font-size="14.00" fill="#000000">Help00000Component</text>
</g>
<!-- Help00000Component&#45;&gt;HelpModule -->
<g id="edge2" class="edge">
<title>Help00000Component&#45;&gt;HelpModule</title>
<path fill="none" stroke="#000000" d="M1810,-122.0449C1810,-143.6623 1810,-177 1810,-177 1810,-177 1053.2628,-177 1053.2628,-177"/>
<polygon fill="#000000" stroke="#000000" points="1053.2628,-173.5001 1043.2628,-177 1053.2627,-180.5001 1053.2628,-173.5001"/>
</g>
<!-- Help10000Component -->
<g id="node3" class="node">
<title>Help10000Component</title>
<polygon fill="#ffffb3" stroke="#000000" points="1719.5449,-122 1576.4551,-122 1576.4551,-86 1719.5449,-86 1719.5449,-122"/>
<text text-anchor="middle" x="1648" y="-99.8" font-family="Times,serif" font-size="14.00" fill="#000000">Help10000Component</text>
</g>
<!-- Help10000Component&#45;&gt;HelpModule -->
<g id="edge3" class="edge">
<title>Help10000Component&#45;&gt;HelpModule</title>
<path fill="none" stroke="#000000" d="M1648,-122.2228C1648,-142.3652 1648,-172 1648,-172 1648,-172 1053.2708,-172 1053.2708,-172"/>
<polygon fill="#000000" stroke="#000000" points="1053.2708,-168.5001 1043.2708,-172 1053.2708,-175.5001 1053.2708,-168.5001"/>
</g>
<!-- Help20000Component -->
<g id="node4" class="node">
<title>Help20000Component</title>
<polygon fill="#ffffb3" stroke="#000000" points="1557.5449,-122 1414.4551,-122 1414.4551,-86 1557.5449,-86 1557.5449,-122"/>
<text text-anchor="middle" x="1486" y="-99.8" font-family="Times,serif" font-size="14.00" fill="#000000">Help20000Component</text>
</g>
<!-- Help20000Component&#45;&gt;HelpModule -->
<g id="edge4" class="edge">
<title>Help20000Component&#45;&gt;HelpModule</title>
<path fill="none" stroke="#000000" d="M1486,-122.2222C1486,-140.8285 1486,-167 1486,-167 1486,-167 1053.557,-167 1053.557,-167"/>
<polygon fill="#000000" stroke="#000000" points="1053.557,-163.5001 1043.557,-167 1053.5569,-170.5001 1053.557,-163.5001"/>
</g>
<!-- Help30000Component -->
<g id="node5" class="node">
<title>Help30000Component</title>
<polygon fill="#ffffb3" stroke="#000000" points="1395.5449,-122 1252.4551,-122 1252.4551,-86 1395.5449,-86 1395.5449,-122"/>
<text text-anchor="middle" x="1324" y="-99.8" font-family="Times,serif" font-size="14.00" fill="#000000">Help30000Component</text>
</g>
<!-- Help30000Component&#45;&gt;HelpModule -->
<g id="edge5" class="edge">
<title>Help30000Component&#45;&gt;HelpModule</title>
<path fill="none" stroke="#000000" d="M1324,-122.0336C1324,-139.0597 1324,-162 1324,-162 1324,-162 1053.3599,-162 1053.3599,-162"/>
<polygon fill="#000000" stroke="#000000" points="1053.3599,-158.5001 1043.3599,-162 1053.3599,-165.5001 1053.3599,-158.5001"/>
</g>
<!-- Help40000Component -->
<g id="node6" class="node">
<title>Help40000Component</title>
<polygon fill="#ffffb3" stroke="#000000" points="1233.5449,-122 1090.4551,-122 1090.4551,-86 1233.5449,-86 1233.5449,-122"/>
<text text-anchor="middle" x="1162" y="-99.8" font-family="Times,serif" font-size="14.00" fill="#000000">Help40000Component</text>
</g>
<!-- Help40000Component&#45;&gt;HelpModule -->
<g id="edge6" class="edge">
<title>Help40000Component&#45;&gt;HelpModule</title>
<path fill="none" stroke="#000000" d="M1162,-122.2396C1162,-137.5706 1162,-157 1162,-157 1162,-157 1053.413,-157 1053.413,-157"/>
<polygon fill="#000000" stroke="#000000" points="1053.4131,-153.5001 1043.413,-157 1053.413,-160.5001 1053.4131,-153.5001"/>
</g>
<!-- Help50000Component -->
<g id="node7" class="node">
<title>Help50000Component</title>
<polygon fill="#ffffb3" stroke="#000000" points="1071.5449,-122 928.4551,-122 928.4551,-86 1071.5449,-86 1071.5449,-122"/>
<text text-anchor="middle" x="1000" y="-99.8" font-family="Times,serif" font-size="14.00" fill="#000000">Help50000Component</text>
</g>
<!-- Help50000Component&#45;&gt;HelpModule -->
<g id="edge7" class="edge">
<title>Help50000Component&#45;&gt;HelpModule</title>
<path fill="none" stroke="#000000" d="M1000,-122.1061C1000,-122.1061 1000,-140.991 1000,-140.991"/>
<polygon fill="#000000" stroke="#000000" points="996.5001,-140.9909 1000,-150.991 1003.5001,-140.991 996.5001,-140.9909"/>
</g>
<!-- Help60000Component -->
<g id="node8" class="node">
<title>Help60000Component</title>
<polygon fill="#ffffb3" stroke="#000000" points="909.5449,-122 766.4551,-122 766.4551,-86 909.5449,-86 909.5449,-122"/>
<text text-anchor="middle" x="838" y="-99.8" font-family="Times,serif" font-size="14.00" fill="#000000">Help60000Component</text>
</g>
<!-- Help60000Component&#45;&gt;HelpModule -->
<g id="edge8" class="edge">
<title>Help60000Component&#45;&gt;HelpModule</title>
<path fill="none" stroke="#000000" d="M838,-122.2396C838,-137.5706 838,-157 838,-157 838,-157 946.587,-157 946.587,-157"/>
<polygon fill="#000000" stroke="#000000" points="946.587,-160.5001 956.587,-157 946.5869,-153.5001 946.587,-160.5001"/>
</g>
<!-- Help70000Component -->
<g id="node9" class="node">
<title>Help70000Component</title>
<polygon fill="#ffffb3" stroke="#000000" points="747.5449,-122 604.4551,-122 604.4551,-86 747.5449,-86 747.5449,-122"/>
<text text-anchor="middle" x="676" y="-99.8" font-family="Times,serif" font-size="14.00" fill="#000000">Help70000Component</text>
</g>
<!-- Help70000Component&#45;&gt;HelpModule -->
<g id="edge9" class="edge">
<title>Help70000Component&#45;&gt;HelpModule</title>
<path fill="none" stroke="#000000" d="M676,-122.0336C676,-139.0597 676,-162 676,-162 676,-162 946.6401,-162 946.6401,-162"/>
<polygon fill="#000000" stroke="#000000" points="946.6401,-165.5001 956.6401,-162 946.6401,-158.5001 946.6401,-165.5001"/>
</g>
<!-- Help80000Component -->
<g id="node10" class="node">
<title>Help80000Component</title>
<polygon fill="#ffffb3" stroke="#000000" points="585.5449,-122 442.4551,-122 442.4551,-86 585.5449,-86 585.5449,-122"/>
<text text-anchor="middle" x="514" y="-99.8" font-family="Times,serif" font-size="14.00" fill="#000000">Help80000Component</text>
</g>
<!-- Help80000Component&#45;&gt;HelpModule -->
<g id="edge10" class="edge">
<title>Help80000Component&#45;&gt;HelpModule</title>
<path fill="none" stroke="#000000" d="M514,-122.2222C514,-140.8285 514,-167 514,-167 514,-167 946.443,-167 946.443,-167"/>
<polygon fill="#000000" stroke="#000000" points="946.4431,-170.5001 956.443,-167 946.443,-163.5001 946.4431,-170.5001"/>
</g>
<!-- Help90000Component -->
<g id="node11" class="node">
<title>Help90000Component</title>
<polygon fill="#ffffb3" stroke="#000000" points="423.5449,-122 280.4551,-122 280.4551,-86 423.5449,-86 423.5449,-122"/>
<text text-anchor="middle" x="352" y="-99.8" font-family="Times,serif" font-size="14.00" fill="#000000">Help90000Component</text>
</g>
<!-- Help90000Component&#45;&gt;HelpModule -->
<g id="edge11" class="edge">
<title>Help90000Component&#45;&gt;HelpModule</title>
<path fill="none" stroke="#000000" d="M352,-122.2228C352,-142.3652 352,-172 352,-172 352,-172 946.7292,-172 946.7292,-172"/>
<polygon fill="#000000" stroke="#000000" points="946.7292,-175.5001 956.7292,-172 946.7292,-168.5001 946.7292,-175.5001"/>
</g>
<!-- NgaModule -->
<g id="node13" class="node">
<title>NgaModule</title>
<polygon fill="#8dd3c7" stroke="#000000" points="256.3711,-122 253.3711,-126 232.3711,-126 229.3711,-122 173.6289,-122 173.6289,-86 256.3711,-86 256.3711,-122"/>
<text text-anchor="middle" x="215" y="-99.8" font-family="Times,serif" font-size="14.00" fill="#000000">NgaModule</text>
</g>
<!-- NgaModule&#45;&gt;HelpModule -->
<g id="edge12" class="edge">
<title>NgaModule&#45;&gt;HelpModule</title>
<path fill="none" stroke="#000000" d="M215,-122.0449C215,-143.6623 215,-177 215,-177 215,-177 946.6768,-177 946.6768,-177"/>
<polygon fill="#000000" stroke="#000000" points="946.6769,-180.5001 956.6768,-177 946.6768,-173.5001 946.6769,-180.5001"/>
</g>
<!-- HelpRoutingModule -->
<g id="node14" class="node">
<title>HelpRoutingModule</title>
<polygon fill="#8dd3c7" stroke="#000000" points="155.8795,-122 152.8795,-126 131.8795,-126 128.8795,-122 24.1205,-122 24.1205,-86 155.8795,-86 155.8795,-122"/>
<text text-anchor="middle" x="90" y="-99.8" font-family="Times,serif" font-size="14.00" fill="#000000">HelpRoutingModule</text>
</g>
<!-- HelpRoutingModule&#45;&gt;HelpModule -->
<g id="edge13" class="edge">
<title>HelpRoutingModule&#45;&gt;HelpModule</title>
<path fill="none" stroke="#000000" d="M90,-122.0908C90,-145.1328 90,-182 90,-182 90,-182 946.721,-182 946.721,-182"/>
<polygon fill="#000000" stroke="#000000" points="946.721,-185.5001 956.721,-182 946.721,-178.5001 946.721,-185.5001"/>
</g>
</g>
</svg>
