<?xml version="1.0" encoding="UTF-8" standalone="no"?>
<!DOCTYPE svg PUBLIC "-//W3C//DTD SVG 1.1//EN"
 "http://www.w3.org/Graphics/SVG/1.1/DTD/svg11.dtd">
<!-- Generated by graphviz version 2.40.1 (20161225.0304)
 -->
<!-- Title: dependencies Pages: 1 -->
<svg width="504pt" height="211pt"
 viewBox="0.00 0.00 504.00 211.00" xmlns="http://www.w3.org/2000/svg" xmlns:xlink="http://www.w3.org/1999/xlink">
<g id="graph0" class="graph" transform="scale(1 1) rotate(0) translate(4 207)">
<title>dependencies</title>
<polygon fill="#ffffff" stroke="transparent" points="-4,4 -4,-207 500,-207 500,4 -4,4"/>
<text text-anchor="start" x="227.0091" y="-42.4" font-family="sans-serif" font-weight="bold" font-size="14.00" fill="#000000">Legend</text>
<polygon fill="#ffffb3" stroke="transparent" points="14,-10 14,-30 34,-30 34,-10 14,-10"/>
<text text-anchor="start" x="37.629" y="-15.4" font-family="sans-serif" font-size="14.00" fill="#000000"> &#160;Declarations</text>
<polygon fill="#8dd3c7" stroke="transparent" points="127,-10 127,-30 147,-30 147,-10 127,-10"/>
<text text-anchor="start" x="150.7251" y="-15.4" font-family="sans-serif" font-size="14.00" fill="#000000"> &#160;Module</text>
<polygon fill="#80b1d3" stroke="transparent" points="213,-10 213,-30 233,-30 233,-10 213,-10"/>
<text text-anchor="start" x="236.7812" y="-15.4" font-family="sans-serif" font-size="14.00" fill="#000000"> &#160;Bootstrap</text>
<polygon fill="#fdb462" stroke="transparent" points="310,-10 310,-30 330,-30 330,-10 310,-10"/>
<text text-anchor="start" x="333.6732" y="-15.4" font-family="sans-serif" font-size="14.00" fill="#000000"> &#160;Providers</text>
<polygon fill="#fb8072" stroke="transparent" points="406,-10 406,-30 426,-30 426,-10 406,-10"/>
<text text-anchor="start" x="429.7258" y="-15.4" font-family="sans-serif" font-size="14.00" fill="#000000"> &#160;Exports</text>
<g id="clust1" class="cluster">
<title>cluster_IntroModule</title>
<polygon fill="none" stroke="#000000" stroke-dasharray="1,5" points="17,-70 17,-195 479,-195 479,-70 17,-70"/>
</g>
<g id="clust2" class="cluster">
<title>cluster_IntroModule_declarations</title>
<polygon fill="none" stroke="#000000" points="347,-78 347,-130 471,-130 471,-78 347,-78"/>
</g>
<g id="clust4" class="cluster">
<title>cluster_IntroModule_imports</title>
<polygon fill="none" stroke="#000000" points="25,-78 25,-130 339,-130 339,-78 25,-78"/>
</g>
<!-- IntroComponent -->
<g id="node1" class="node">
<title>IntroComponent</title>
<polygon fill="#ffffb3" stroke="#000000" points="463.0452,-122 354.9548,-122 354.9548,-86 463.0452,-86 463.0452,-122"/>
<text text-anchor="middle" x="409" y="-99.8" font-family="Times,serif" font-size="14.00" fill="#000000">IntroComponent</text>
</g>
<!-- IntroModule -->
<g id="node2" class="node">
<title>IntroModule</title>
<polygon fill="#8dd3c7" stroke="#000000" points="300.2619,-187 297.2619,-191 276.2619,-191 273.2619,-187 213.7381,-187 213.7381,-151 300.2619,-151 300.2619,-187"/>
<text text-anchor="middle" x="257" y="-164.8" font-family="Times,serif" font-size="14.00" fill="#000000">IntroModule</text>
</g>
<!-- IntroComponent&#45;&gt;IntroModule -->
<g id="edge1" class="edge">
<title>IntroComponent&#45;&gt;IntroModule</title>
<path fill="none" stroke="#000000" d="M409,-122.1061C409,-141.3391 409,-169 409,-169 409,-169 310.5571,-169 310.5571,-169"/>
<polygon fill="#000000" stroke="#000000" points="310.5571,-165.5001 300.5571,-169 310.5571,-172.5001 310.5571,-165.5001"/>
</g>
<!-- AppTranslationModule -->
<g id="node3" class="node">
<title>AppTranslationModule</title>
<polygon fill="#8dd3c7" stroke="#000000" points="330.9158,-122 327.9158,-126 306.9158,-126 303.9158,-122 183.0842,-122 183.0842,-86 330.9158,-86 330.9158,-122"/>
<text text-anchor="middle" x="257" y="-99.8" font-family="Times,serif" font-size="14.00" fill="#000000">AppTranslationModule</text>
</g>
<!-- AppTranslationModule&#45;&gt;IntroModule -->
<g id="edge2" class="edge">
<title>AppTranslationModule&#45;&gt;IntroModule</title>
<path fill="none" stroke="#000000" d="M257,-122.1061C257,-122.1061 257,-140.991 257,-140.991"/>
<polygon fill="#000000" stroke="#000000" points="253.5001,-140.9909 257,-150.991 260.5001,-140.991 253.5001,-140.9909"/>
</g>
<!-- IntroRoutingModule -->
<g id="node4" class="node">
<title>IntroRoutingModule</title>
<polygon fill="#8dd3c7" stroke="#000000" points="164.8795,-122 161.8795,-126 140.8795,-126 137.8795,-122 33.1205,-122 33.1205,-86 164.8795,-86 164.8795,-122"/>
<text text-anchor="middle" x="99" y="-99.8" font-family="Times,serif" font-size="14.00" fill="#000000">IntroRoutingModule</text>
</g>
<!-- IntroRoutingModule&#45;&gt;IntroModule -->
<g id="edge3" class="edge">
<title>IntroRoutingModule&#45;&gt;IntroModule</title>
<path fill="none" stroke="#000000" d="M99,-122.1061C99,-141.3391 99,-169 99,-169 99,-169 203.4076,-169 203.4076,-169"/>
<polygon fill="#000000" stroke="#000000" points="203.4076,-172.5001 213.4076,-169 203.4075,-165.5001 203.4076,-172.5001"/>
</g>
</g>
</svg>
