<?xml version="1.0" encoding="UTF-8" standalone="no"?>
<!DOCTYPE svg PUBLIC "-//W3C//DTD SVG 1.1//EN"
 "http://www.w3.org/Graphics/SVG/1.1/DTD/svg11.dtd">
<!-- Generated by graphviz version 2.40.1 (20161225.0304)
 -->
<!-- Title: dependencies Pages: 1 -->
<svg width="2657pt" height="284pt"
 viewBox="0.00 0.00 2657.00 284.00" xmlns="http://www.w3.org/2000/svg" xmlns:xlink="http://www.w3.org/1999/xlink">
<g id="graph0" class="graph" transform="scale(1 1) rotate(0) translate(4 280)">
<title>dependencies</title>
<polygon fill="#ffffff" stroke="transparent" points="-4,4 -4,-280 2653,-280 2653,4 -4,4"/>
<text text-anchor="start" x="1303.5091" y="-42.4" font-family="sans-serif" font-weight="bold" font-size="14.00" fill="#000000">Legend</text>
<polygon fill="#ffffb3" stroke="transparent" points="1090.5,-10 1090.5,-30 1110.5,-30 1110.5,-10 1090.5,-10"/>
<text text-anchor="start" x="1114.129" y="-15.4" font-family="sans-serif" font-size="14.00" fill="#000000"> &#160;Declarations</text>
<polygon fill="#8dd3c7" stroke="transparent" points="1203.5,-10 1203.5,-30 1223.5,-30 1223.5,-10 1203.5,-10"/>
<text text-anchor="start" x="1227.2251" y="-15.4" font-family="sans-serif" font-size="14.00" fill="#000000"> &#160;Module</text>
<polygon fill="#80b1d3" stroke="transparent" points="1289.5,-10 1289.5,-30 1309.5,-30 1309.5,-10 1289.5,-10"/>
<text text-anchor="start" x="1313.2812" y="-15.4" font-family="sans-serif" font-size="14.00" fill="#000000"> &#160;Bootstrap</text>
<polygon fill="#fdb462" stroke="transparent" points="1386.5,-10 1386.5,-30 1406.5,-30 1406.5,-10 1386.5,-10"/>
<text text-anchor="start" x="1410.1732" y="-15.4" font-family="sans-serif" font-size="14.00" fill="#000000"> &#160;Providers</text>
<polygon fill="#fb8072" stroke="transparent" points="1482.5,-10 1482.5,-30 1502.5,-30 1502.5,-10 1482.5,-10"/>
<text text-anchor="start" x="1506.2258" y="-15.4" font-family="sans-serif" font-size="14.00" fill="#000000"> &#160;Exports</text>
<g id="clust1" class="cluster">
<title>cluster_AppModule</title>
<polygon fill="none" stroke="#000000" stroke-dasharray="1,5" points="8,-70 8,-268 2641,-268 2641,-70 8,-70"/>
</g>
<g id="clust2" class="cluster">
<title>cluster_AppModule_declarations</title>
<polygon fill="none" stroke="#000000" points="644,-78 644,-130 2633,-130 2633,-78 644,-78"/>
</g>
<g id="clust15" class="cluster">
<title>cluster_AppModule_imports</title>
<polygon fill="none" stroke="#000000" points="360,-78 360,-130 636,-130 636,-78 360,-78"/>
</g>
<g id="clust17" class="cluster">
<title>cluster_AppModule_bootstrap</title>
<polygon fill="none" stroke="#000000" points="1257,-208 1257,-260 1381,-260 1381,-208 1257,-208"/>
</g>
<g id="clust18" class="cluster">
<title>cluster_AppModule_providers</title>
<polygon fill="none" stroke="#000000" points="16,-78 16,-130 352,-130 352,-78 16,-78"/>
</g>
<!-- AppComponent -->
<g id="node1" class="node">
<title>AppComponent</title>
<polygon fill="#ffffb3" stroke="#000000" points="2624.9399,-122 2519.0601,-122 2519.0601,-86 2624.9399,-86 2624.9399,-122"/>
<text text-anchor="middle" x="2572" y="-99.8" font-family="Times,serif" font-size="14.00" fill="#000000">AppComponent</text>
</g>
<!-- AppModule -->
<g id="node13" class="node">
<title>AppModule</title>
<polygon fill="#8dd3c7" stroke="#000000" points="1360.6571,-187 1357.6571,-191 1336.6571,-191 1333.6571,-187 1277.3429,-187 1277.3429,-151 1360.6571,-151 1360.6571,-187"/>
<text text-anchor="middle" x="1319" y="-164.8" font-family="Times,serif" font-size="14.00" fill="#000000">AppModule</text>
</g>
<!-- AppComponent&#45;&gt;AppModule -->
<g id="edge1" class="edge">
<title>AppComponent&#45;&gt;AppModule</title>
<path fill="none" stroke="#000000" d="M2572,-122.3228C2572,-145.6602 2572,-183 2572,-183 2572,-183 1370.6896,-183 1370.6896,-183"/>
<polygon fill="#000000" stroke="#000000" points="1370.6896,-179.5001 1360.6896,-183 1370.6895,-186.5001 1370.6896,-179.5001"/>
</g>
<!-- BaseComponent -->
<g id="node2" class="node">
<title>BaseComponent</title>
<polygon fill="#ffffb3" stroke="#000000" points="2501.0438,-122 2392.9562,-122 2392.9562,-86 2501.0438,-86 2501.0438,-122"/>
<text text-anchor="middle" x="2447" y="-99.8" font-family="Times,serif" font-size="14.00" fill="#000000">BaseComponent</text>
</g>
<!-- BaseComponent&#45;&gt;AppModule -->
<g id="edge2" class="edge">
<title>BaseComponent&#45;&gt;AppModule</title>
<path fill="none" stroke="#000000" d="M2447,-122.2921C2447,-144.2057 2447,-178 2447,-178 2447,-178 1370.8214,-178 1370.8214,-178"/>
<polygon fill="#000000" stroke="#000000" points="1370.8215,-174.5001 1360.8214,-178 1370.8214,-181.5001 1370.8215,-174.5001"/>
</g>
<!-- TrayBaseComponent -->
<g id="node3" class="node">
<title>TrayBaseComponent</title>
<polygon fill="#ffffb3" stroke="#000000" points="2374.4706,-122 2239.5294,-122 2239.5294,-86 2374.4706,-86 2374.4706,-122"/>
<text text-anchor="middle" x="2307" y="-99.8" font-family="Times,serif" font-size="14.00" fill="#000000">TrayBaseComponent</text>
</g>
<!-- TrayBaseComponent&#45;&gt;AppModule -->
<g id="edge3" class="edge">
<title>TrayBaseComponent&#45;&gt;AppModule</title>
<path fill="none" stroke="#000000" d="M2307,-122.0267C2307,-142.7672 2307,-174 2307,-174 2307,-174 1370.8221,-174 1370.8221,-174"/>
<polygon fill="#000000" stroke="#000000" points="1370.8221,-170.5001 1360.8221,-174 1370.822,-177.5001 1370.8221,-170.5001"/>
</g>
<!-- GkFullLayoutComponent -->
<g id="node4" class="node">
<title>GkFullLayoutComponent</title>
<polygon fill="#ffffb3" stroke="#000000" points="2221.161,-122 2060.839,-122 2060.839,-86 2221.161,-86 2221.161,-122"/>
<text text-anchor="middle" x="2141" y="-99.8" font-family="Times,serif" font-size="14.00" fill="#000000">GkFullLayoutComponent</text>
</g>
<!-- GkFullLayoutComponent&#45;&gt;AppModule -->
<g id="edge4" class="edge">
<title>GkFullLayoutComponent&#45;&gt;AppModule</title>
<path fill="none" stroke="#000000" d="M2141,-122.1061C2141,-141.3391 2141,-169 2141,-169 2141,-169 1370.8932,-169 1370.8932,-169"/>
<polygon fill="#000000" stroke="#000000" points="1370.8932,-165.5001 1360.8932,-169 1370.8932,-172.5001 1370.8932,-165.5001"/>
</g>
<!-- GkSimpleLayoutComponent -->
<g id="node5" class="node">
<title>GkSimpleLayoutComponent</title>
<polygon fill="#ffffb3" stroke="#000000" points="2042.766,-122 1865.234,-122 1865.234,-86 2042.766,-86 2042.766,-122"/>
<text text-anchor="middle" x="1954" y="-99.8" font-family="Times,serif" font-size="14.00" fill="#000000">GkSimpleLayoutComponent</text>
</g>
<!-- GkSimpleLayoutComponent&#45;&gt;AppModule -->
<g id="edge5" class="edge">
<title>GkSimpleLayoutComponent&#45;&gt;AppModule</title>
<path fill="none" stroke="#000000" d="M1954,-122.302C1954,-140.2699 1954,-165 1954,-165 1954,-165 1370.6641,-165 1370.6641,-165"/>
<polygon fill="#000000" stroke="#000000" points="1370.6642,-161.5001 1360.6641,-165 1370.6641,-168.5001 1370.6642,-161.5001"/>
</g>
<!-- GkLogoComponent -->
<g id="node6" class="node">
<title>GkLogoComponent</title>
<polygon fill="#ffffb3" stroke="#000000" points="1846.9916,-122 1719.0084,-122 1719.0084,-86 1846.9916,-86 1846.9916,-122"/>
<text text-anchor="middle" x="1783" y="-99.8" font-family="Times,serif" font-size="14.00" fill="#000000">GkLogoComponent</text>
</g>
<!-- GkLogoComponent&#45;&gt;AppModule -->
<g id="edge6" class="edge">
<title>GkLogoComponent&#45;&gt;AppModule</title>
<path fill="none" stroke="#000000" d="M1783,-122.027C1783,-138.3976 1783,-160 1783,-160 1783,-160 1370.9953,-160 1370.9953,-160"/>
<polygon fill="#000000" stroke="#000000" points="1370.9953,-156.5001 1360.9953,-160 1370.9952,-163.5001 1370.9953,-156.5001"/>
</g>
<!-- GkSidebarWrapperComponent -->
<g id="node7" class="node">
<title>GkSidebarWrapperComponent</title>
<polygon fill="#ffffb3" stroke="#000000" points="1701.1671,-122 1510.8329,-122 1510.8329,-86 1701.1671,-86 1701.1671,-122"/>
<text text-anchor="middle" x="1606" y="-99.8" font-family="Times,serif" font-size="14.00" fill="#000000">GkSidebarWrapperComponent</text>
</g>
<!-- GkSidebarWrapperComponent&#45;&gt;AppModule -->
<g id="edge7" class="edge">
<title>GkSidebarWrapperComponent&#45;&gt;AppModule</title>
<path fill="none" stroke="#000000" d="M1606,-122.1871C1606,-137.1824 1606,-156 1606,-156 1606,-156 1370.7323,-156 1370.7323,-156"/>
<polygon fill="#000000" stroke="#000000" points="1370.7323,-152.5001 1360.7323,-156 1370.7322,-159.5001 1370.7323,-152.5001"/>
</g>
<!-- GkSidebarMenuComponent -->
<g id="node8" class="node">
<title>GkSidebarMenuComponent</title>
<polygon fill="#ffffb3" stroke="#000000" points="1492.8613,-122 1319.1387,-122 1319.1387,-86 1492.8613,-86 1492.8613,-122"/>
<text text-anchor="middle" x="1406" y="-99.8" font-family="Times,serif" font-size="14.00" fill="#000000">GkSidebarMenuComponent</text>
</g>
<!-- GkSidebarMenuComponent&#45;&gt;AppModule -->
<g id="edge8" class="edge">
<title>GkSidebarMenuComponent&#45;&gt;AppModule</title>
<path fill="none" stroke="#000000" d="M1339.9488,-122.1061C1339.9488,-122.1061 1339.9488,-140.991 1339.9488,-140.991"/>
<polygon fill="#000000" stroke="#000000" points="1336.4489,-140.9909 1339.9488,-150.991 1343.4489,-140.991 1336.4489,-140.9909"/>
</g>
<!-- GkHeaderComponent -->
<g id="node9" class="node">
<title>GkHeaderComponent</title>
<polygon fill="#ffffb3" stroke="#000000" points="1301.3501,-122 1162.6499,-122 1162.6499,-86 1301.3501,-86 1301.3501,-122"/>
<text text-anchor="middle" x="1232" y="-99.8" font-family="Times,serif" font-size="14.00" fill="#000000">GkHeaderComponent</text>
</g>
<!-- GkHeaderComponent&#45;&gt;AppModule -->
<g id="edge9" class="edge">
<title>GkHeaderComponent&#45;&gt;AppModule</title>
<path fill="none" stroke="#000000" d="M1289.2984,-122.1061C1289.2984,-122.1061 1289.2984,-140.991 1289.2984,-140.991"/>
<polygon fill="#000000" stroke="#000000" points="1285.7985,-140.9909 1289.2984,-150.991 1292.7985,-140.991 1285.7985,-140.9909"/>
</g>
<!-- GkBreadcrumbsComponent -->
<g id="node10" class="node">
<title>GkBreadcrumbsComponent</title>
<polygon fill="#ffffb3" stroke="#000000" points="1144.5758,-122 971.4242,-122 971.4242,-86 1144.5758,-86 1144.5758,-122"/>
<text text-anchor="middle" x="1058" y="-99.8" font-family="Times,serif" font-size="14.00" fill="#000000">GkBreadcrumbsComponent</text>
</g>
<!-- GkBreadcrumbsComponent&#45;&gt;AppModule -->
<g id="edge10" class="edge">
<title>GkBreadcrumbsComponent&#45;&gt;AppModule</title>
<path fill="none" stroke="#000000" d="M1058,-122.1871C1058,-137.1824 1058,-156 1058,-156 1058,-156 1267.0658,-156 1267.0658,-156"/>
<polygon fill="#000000" stroke="#000000" points="1267.0659,-159.5001 1277.0658,-156 1267.0658,-152.5001 1267.0659,-159.5001"/>
</g>
<!-- GkWorkingComponent -->
<g id="node11" class="node">
<title>GkWorkingComponent</title>
<polygon fill="#ffffb3" stroke="#000000" points="953.2049,-122 804.7951,-122 804.7951,-86 953.2049,-86 953.2049,-122"/>
<text text-anchor="middle" x="879" y="-99.8" font-family="Times,serif" font-size="14.00" fill="#000000">GkWorkingComponent</text>
</g>
<!-- GkWorkingComponent&#45;&gt;AppModule -->
<g id="edge11" class="edge">
<title>GkWorkingComponent&#45;&gt;AppModule</title>
<path fill="none" stroke="#000000" d="M879,-122.027C879,-138.3976 879,-160 879,-160 879,-160 1267.2092,-160 1267.2092,-160"/>
<polygon fill="#000000" stroke="#000000" points="1267.2092,-163.5001 1277.2092,-160 1267.2092,-156.5001 1267.2092,-163.5001"/>
</g>
<!-- GkFooterComponent -->
<g id="node12" class="node">
<title>GkFooterComponent</title>
<polygon fill="#ffffb3" stroke="#000000" points="786.4874,-122 651.5126,-122 651.5126,-86 786.4874,-86 786.4874,-122"/>
<text text-anchor="middle" x="719" y="-99.8" font-family="Times,serif" font-size="14.00" fill="#000000">GkFooterComponent</text>
</g>
<!-- GkFooterComponent&#45;&gt;AppModule -->
<g id="edge12" class="edge">
<title>GkFooterComponent&#45;&gt;AppModule</title>
<path fill="none" stroke="#000000" d="M719,-122.302C719,-140.2699 719,-165 719,-165 719,-165 1267.2855,-165 1267.2855,-165"/>
<polygon fill="#000000" stroke="#000000" points="1267.2856,-168.5001 1277.2855,-165 1267.2855,-161.5001 1267.2856,-168.5001"/>
</g>
<!-- AppComponent  -->
<g id="node16" class="node">
<title>AppComponent </title>
<polygon fill="#80b1d3" stroke="#000000" points="1373.439,-252 1264.561,-252 1264.561,-216 1373.439,-216 1373.439,-252"/>
<text text-anchor="middle" x="1319" y="-229.8" font-family="Times,serif" font-size="14.00" fill="#000000">AppComponent </text>
</g>
<!-- AppModule&#45;&gt;AppComponent  -->
<g id="edge15" class="edge">
<title>AppModule&#45;&gt;AppComponent </title>
<path fill="none" stroke="#000000" stroke-dasharray="1,5" d="M1319,-187.1061C1319,-187.1061 1319,-205.991 1319,-205.991"/>
<polygon fill="#000000" stroke="#000000" points="1315.5001,-205.9909 1319,-215.991 1322.5001,-205.991 1315.5001,-205.9909"/>
</g>
<!-- GraphQLModule -->
<g id="node14" class="node">
<title>GraphQLModule</title>
<polygon fill="#8dd3c7" stroke="#000000" points="627.691,-122 624.691,-126 603.691,-126 600.691,-122 514.309,-122 514.309,-86 627.691,-86 627.691,-122"/>
<text text-anchor="middle" x="571" y="-99.8" font-family="Times,serif" font-size="14.00" fill="#000000">GraphQLModule</text>
</g>
<!-- GraphQLModule&#45;&gt;AppModule -->
<g id="edge13" class="edge">
<title>GraphQLModule&#45;&gt;AppModule</title>
<path fill="none" stroke="#000000" d="M571,-122.1061C571,-141.3391 571,-169 571,-169 571,-169 1267.1815,-169 1267.1815,-169"/>
<polygon fill="#000000" stroke="#000000" points="1267.1815,-172.5001 1277.1815,-169 1267.1814,-165.5001 1267.1815,-172.5001"/>
</g>
<!-- AppRoutingModule -->
<g id="node15" class="node">
<title>AppRoutingModule</title>
<polygon fill="#8dd3c7" stroke="#000000" points="496.2744,-122 493.2744,-126 472.2744,-126 469.2744,-122 367.7256,-122 367.7256,-86 496.2744,-86 496.2744,-122"/>
<text text-anchor="middle" x="432" y="-99.8" font-family="Times,serif" font-size="14.00" fill="#000000">AppRoutingModule</text>
</g>
<!-- AppRoutingModule&#45;&gt;AppModule -->
<g id="edge14" class="edge">
<title>AppRoutingModule&#45;&gt;AppModule</title>
<path fill="none" stroke="#000000" d="M432,-122.0267C432,-142.7672 432,-174 432,-174 432,-174 1267.1118,-174 1267.1118,-174"/>
<polygon fill="#000000" stroke="#000000" points="1267.1119,-177.5001 1277.1118,-174 1267.1118,-170.5001 1267.1119,-177.5001"/>
</g>
<!-- GlobalState -->
<g id="node17" class="node">
<title>GlobalState</title>
<ellipse fill="#fdb462" stroke="#000000" cx="287" cy="-104" rx="56.7561" ry="18"/>
<text text-anchor="middle" x="287" y="-99.8" font-family="Times,serif" font-size="14.00" fill="#000000">GlobalState</text>
</g>
<!-- GlobalState&#45;&gt;AppModule -->
<g id="edge16" class="edge">
<title>GlobalState&#45;&gt;AppModule</title>
<path fill="none" stroke="#000000" d="M287,-122.2921C287,-144.2057 287,-178 287,-178 287,-178 1267.2662,-178 1267.2662,-178"/>
<polygon fill="#000000" stroke="#000000" points="1267.2662,-181.5001 1277.2662,-178 1267.2662,-174.5001 1267.2662,-181.5001"/>
</g>
<!-- NotificationsServices -->
<g id="node18" class="node">
<title>NotificationsServices</title>
<ellipse fill="#fdb462" stroke="#000000" cx="118" cy="-104" rx="94.3331" ry="18"/>
<text text-anchor="middle" x="118" y="-99.8" font-family="Times,serif" font-size="14.00" fill="#000000">NotificationsServices</text>
</g>
<!-- NotificationsServices&#45;&gt;AppModule -->
<g id="edge17" class="edge">
<title>NotificationsServices&#45;&gt;AppModule</title>
<path fill="none" stroke="#000000" d="M118,-122.3228C118,-145.6602 118,-183 118,-183 118,-183 1267.3101,-183 1267.3101,-183"/>
<polygon fill="#000000" stroke="#000000" points="1267.3101,-186.5001 1277.3101,-183 1267.3101,-179.5001 1267.3101,-186.5001"/>
</g>
</g>
</svg>
