<?xml version="1.0" encoding="UTF-8" standalone="no"?>
<!DOCTYPE svg PUBLIC "-//W3C//DTD SVG 1.1//EN"
 "http://www.w3.org/Graphics/SVG/1.1/DTD/svg11.dtd">
<!-- Generated by graphviz version 2.40.1 (20161225.0304)
 -->
<!-- Title: dependencies Pages: 1 -->
<svg width="2319pt" height="284pt"
 viewBox="0.00 0.00 2319.00 284.00" xmlns="http://www.w3.org/2000/svg" xmlns:xlink="http://www.w3.org/1999/xlink">
<g id="graph0" class="graph" transform="scale(1 1) rotate(0) translate(4 280)">
<title>dependencies</title>
<polygon fill="#ffffff" stroke="transparent" points="-4,4 -4,-280 2315,-280 2315,4 -4,4"/>
<text text-anchor="start" x="1134.5091" y="-42.4" font-family="sans-serif" font-weight="bold" font-size="14.00" fill="#000000">Legend</text>
<polygon fill="#ffffb3" stroke="transparent" points="921.5,-10 921.5,-30 941.5,-30 941.5,-10 921.5,-10"/>
<text text-anchor="start" x="945.129" y="-15.4" font-family="sans-serif" font-size="14.00" fill="#000000"> &#160;Declarations</text>
<polygon fill="#8dd3c7" stroke="transparent" points="1034.5,-10 1034.5,-30 1054.5,-30 1054.5,-10 1034.5,-10"/>
<text text-anchor="start" x="1058.2251" y="-15.4" font-family="sans-serif" font-size="14.00" fill="#000000"> &#160;Module</text>
<polygon fill="#80b1d3" stroke="transparent" points="1120.5,-10 1120.5,-30 1140.5,-30 1140.5,-10 1120.5,-10"/>
<text text-anchor="start" x="1144.2812" y="-15.4" font-family="sans-serif" font-size="14.00" fill="#000000"> &#160;Bootstrap</text>
<polygon fill="#fdb462" stroke="transparent" points="1217.5,-10 1217.5,-30 1237.5,-30 1237.5,-10 1217.5,-10"/>
<text text-anchor="start" x="1241.1732" y="-15.4" font-family="sans-serif" font-size="14.00" fill="#000000"> &#160;Providers</text>
<polygon fill="#fb8072" stroke="transparent" points="1313.5,-10 1313.5,-30 1333.5,-30 1333.5,-10 1313.5,-10"/>
<text text-anchor="start" x="1337.2258" y="-15.4" font-family="sans-serif" font-size="14.00" fill="#000000"> &#160;Exports</text>
<g id="clust1" class="cluster">
<title>cluster_AppModule</title>
<polygon fill="none" stroke="#000000" stroke-dasharray="1,5" points="8,-70 8,-268 2303,-268 2303,-70 8,-70"/>
</g>
<g id="clust2" class="cluster">
<title>cluster_AppModule_declarations</title>
<polygon fill="none" stroke="#000000" points="306,-78 306,-130 2295,-130 2295,-78 306,-78"/>
</g>
<g id="clust15" class="cluster">
<title>cluster_AppModule_imports</title>
<polygon fill="none" stroke="#000000" points="154,-78 154,-130 298,-130 298,-78 154,-78"/>
</g>
<g id="clust17" class="cluster">
<title>cluster_AppModule_bootstrap</title>
<polygon fill="none" stroke="#000000" points="1106,-208 1106,-260 1230,-260 1230,-208 1106,-208"/>
</g>
<g id="clust18" class="cluster">
<title>cluster_AppModule_providers</title>
<polygon fill="none" stroke="#000000" points="16,-78 16,-130 146,-130 146,-78 16,-78"/>
</g>
<!-- AppComponent -->
<g id="node1" class="node">
<title>AppComponent</title>
<polygon fill="#ffffb3" stroke="#000000" points="2286.9399,-122 2181.0601,-122 2181.0601,-86 2286.9399,-86 2286.9399,-122"/>
<text text-anchor="middle" x="2234" y="-99.8" font-family="Times,serif" font-size="14.00" fill="#000000">AppComponent</text>
</g>
<!-- AppModule -->
<g id="node13" class="node">
<title>AppModule</title>
<polygon fill="#8dd3c7" stroke="#000000" points="1209.6571,-187 1206.6571,-191 1185.6571,-191 1182.6571,-187 1126.3429,-187 1126.3429,-151 1209.6571,-151 1209.6571,-187"/>
<text text-anchor="middle" x="1168" y="-164.8" font-family="Times,serif" font-size="14.00" fill="#000000">AppModule</text>
</g>
<!-- AppComponent&#45;&gt;AppModule -->
<g id="edge1" class="edge">
<title>AppComponent&#45;&gt;AppModule</title>
<path fill="none" stroke="#000000" d="M2234,-122.0908C2234,-145.1328 2234,-182 2234,-182 2234,-182 1219.7885,-182 1219.7885,-182"/>
<polygon fill="#000000" stroke="#000000" points="1219.7885,-178.5001 1209.7885,-182 1219.7884,-185.5001 1219.7885,-178.5001"/>
</g>
<!-- BaseComponent -->
<g id="node2" class="node">
<title>BaseComponent</title>
<polygon fill="#ffffb3" stroke="#000000" points="2163.0438,-122 2054.9562,-122 2054.9562,-86 2163.0438,-86 2163.0438,-122"/>
<text text-anchor="middle" x="2109" y="-99.8" font-family="Times,serif" font-size="14.00" fill="#000000">BaseComponent</text>
</g>
<!-- BaseComponent&#45;&gt;AppModule -->
<g id="edge2" class="edge">
<title>BaseComponent&#45;&gt;AppModule</title>
<path fill="none" stroke="#000000" d="M2109,-122.0449C2109,-143.6623 2109,-177 2109,-177 2109,-177 1219.9538,-177 1219.9538,-177"/>
<polygon fill="#000000" stroke="#000000" points="1219.9539,-173.5001 1209.9538,-177 1219.9538,-180.5001 1219.9539,-173.5001"/>
</g>
<!-- TrayBaseComponent -->
<g id="node3" class="node">
<title>TrayBaseComponent</title>
<polygon fill="#ffffb3" stroke="#000000" points="2036.4706,-122 1901.5294,-122 1901.5294,-86 2036.4706,-86 2036.4706,-122"/>
<text text-anchor="middle" x="1969" y="-99.8" font-family="Times,serif" font-size="14.00" fill="#000000">TrayBaseComponent</text>
</g>
<!-- TrayBaseComponent&#45;&gt;AppModule -->
<g id="edge3" class="edge">
<title>TrayBaseComponent&#45;&gt;AppModule</title>
<path fill="none" stroke="#000000" d="M1969,-122.2228C1969,-142.3652 1969,-172 1969,-172 1969,-172 1219.6576,-172 1219.6576,-172"/>
<polygon fill="#000000" stroke="#000000" points="1219.6576,-168.5001 1209.6576,-172 1219.6575,-175.5001 1219.6576,-168.5001"/>
</g>
<!-- GkFullLayoutComponent -->
<g id="node4" class="node">
<title>GkFullLayoutComponent</title>
<polygon fill="#ffffb3" stroke="#000000" points="1883.161,-122 1722.839,-122 1722.839,-86 1883.161,-86 1883.161,-122"/>
<text text-anchor="middle" x="1803" y="-99.8" font-family="Times,serif" font-size="14.00" fill="#000000">GkFullLayoutComponent</text>
</g>
<!-- GkFullLayoutComponent&#45;&gt;AppModule -->
<g id="edge4" class="edge">
<title>GkFullLayoutComponent&#45;&gt;AppModule</title>
<path fill="none" stroke="#000000" d="M1803,-122.2222C1803,-140.8285 1803,-167 1803,-167 1803,-167 1219.6641,-167 1219.6641,-167"/>
<polygon fill="#000000" stroke="#000000" points="1219.6642,-163.5001 1209.6641,-167 1219.6641,-170.5001 1219.6642,-163.5001"/>
</g>
<!-- GkSimpleLayoutComponent -->
<g id="node5" class="node">
<title>GkSimpleLayoutComponent</title>
<polygon fill="#ffffb3" stroke="#000000" points="1704.766,-122 1527.234,-122 1527.234,-86 1704.766,-86 1704.766,-122"/>
<text text-anchor="middle" x="1616" y="-99.8" font-family="Times,serif" font-size="14.00" fill="#000000">GkSimpleLayoutComponent</text>
</g>
<!-- GkSimpleLayoutComponent&#45;&gt;AppModule -->
<g id="edge5" class="edge">
<title>GkSimpleLayoutComponent&#45;&gt;AppModule</title>
<path fill="none" stroke="#000000" d="M1616,-122.0336C1616,-139.0597 1616,-162 1616,-162 1616,-162 1219.7445,-162 1219.7445,-162"/>
<polygon fill="#000000" stroke="#000000" points="1219.7445,-158.5001 1209.7445,-162 1219.7444,-165.5001 1219.7445,-158.5001"/>
</g>
<!-- GkLogoComponent -->
<g id="node6" class="node">
<title>GkLogoComponent</title>
<polygon fill="#ffffb3" stroke="#000000" points="1508.9916,-122 1381.0084,-122 1381.0084,-86 1508.9916,-86 1508.9916,-122"/>
<text text-anchor="middle" x="1445" y="-99.8" font-family="Times,serif" font-size="14.00" fill="#000000">GkLogoComponent</text>
</g>
<!-- GkLogoComponent&#45;&gt;AppModule -->
<g id="edge6" class="edge">
<title>GkLogoComponent&#45;&gt;AppModule</title>
<path fill="none" stroke="#000000" d="M1445,-122.2396C1445,-137.5706 1445,-157 1445,-157 1445,-157 1219.7696,-157 1219.7696,-157"/>
<polygon fill="#000000" stroke="#000000" points="1219.7696,-153.5001 1209.7696,-157 1219.7696,-160.5001 1219.7696,-153.5001"/>
</g>
<!-- GkSidebarWrapperComponent -->
<g id="node7" class="node">
<title>GkSidebarWrapperComponent</title>
<polygon fill="#ffffb3" stroke="#000000" points="1363.1671,-122 1172.8329,-122 1172.8329,-86 1363.1671,-86 1363.1671,-122"/>
<text text-anchor="middle" x="1268" y="-99.8" font-family="Times,serif" font-size="14.00" fill="#000000">GkSidebarWrapperComponent</text>
</g>
<!-- GkSidebarWrapperComponent&#45;&gt;AppModule -->
<g id="edge7" class="edge">
<title>GkSidebarWrapperComponent&#45;&gt;AppModule</title>
<path fill="none" stroke="#000000" d="M1191.3724,-122.1061C1191.3724,-122.1061 1191.3724,-140.991 1191.3724,-140.991"/>
<polygon fill="#000000" stroke="#000000" points="1187.8724,-140.9909 1191.3724,-150.991 1194.8724,-140.991 1187.8724,-140.9909"/>
</g>
<!-- GkSidebarMenuComponent -->
<g id="node8" class="node">
<title>GkSidebarMenuComponent</title>
<polygon fill="#ffffb3" stroke="#000000" points="1154.8613,-122 981.1387,-122 981.1387,-86 1154.8613,-86 1154.8613,-122"/>
<text text-anchor="middle" x="1068" y="-99.8" font-family="Times,serif" font-size="14.00" fill="#000000">GkSidebarMenuComponent</text>
</g>
<!-- GkSidebarMenuComponent&#45;&gt;AppModule -->
<g id="edge8" class="edge">
<title>GkSidebarMenuComponent&#45;&gt;AppModule</title>
<path fill="none" stroke="#000000" d="M1140.5512,-122.1061C1140.5512,-122.1061 1140.5512,-140.991 1140.5512,-140.991"/>
<polygon fill="#000000" stroke="#000000" points="1137.0513,-140.9909 1140.5512,-150.991 1144.0513,-140.991 1137.0513,-140.9909"/>
</g>
<!-- GkHeaderComponent -->
<g id="node9" class="node">
<title>GkHeaderComponent</title>
<polygon fill="#ffffb3" stroke="#000000" points="963.3501,-122 824.6499,-122 824.6499,-86 963.3501,-86 963.3501,-122"/>
<text text-anchor="middle" x="894" y="-99.8" font-family="Times,serif" font-size="14.00" fill="#000000">GkHeaderComponent</text>
</g>
<!-- GkHeaderComponent&#45;&gt;AppModule -->
<g id="edge9" class="edge">
<title>GkHeaderComponent&#45;&gt;AppModule</title>
<path fill="none" stroke="#000000" d="M894,-122.2396C894,-137.5706 894,-157 894,-157 894,-157 1116.087,-157 1116.087,-157"/>
<polygon fill="#000000" stroke="#000000" points="1116.0871,-160.5001 1126.087,-157 1116.087,-153.5001 1116.0871,-160.5001"/>
</g>
<!-- GkBreadcrumbsComponent -->
<g id="node10" class="node">
<title>GkBreadcrumbsComponent</title>
<polygon fill="#ffffb3" stroke="#000000" points="806.5758,-122 633.4242,-122 633.4242,-86 806.5758,-86 806.5758,-122"/>
<text text-anchor="middle" x="720" y="-99.8" font-family="Times,serif" font-size="14.00" fill="#000000">GkBreadcrumbsComponent</text>
</g>
<!-- GkBreadcrumbsComponent&#45;&gt;AppModule -->
<g id="edge10" class="edge">
<title>GkBreadcrumbsComponent&#45;&gt;AppModule</title>
<path fill="none" stroke="#000000" d="M720,-122.0336C720,-139.0597 720,-162 720,-162 720,-162 1116.2555,-162 1116.2555,-162"/>
<polygon fill="#000000" stroke="#000000" points="1116.2556,-165.5001 1126.2555,-162 1116.2555,-158.5001 1116.2556,-165.5001"/>
</g>
<!-- GkWorkingComponent -->
<g id="node11" class="node">
<title>GkWorkingComponent</title>
<polygon fill="#ffffb3" stroke="#000000" points="615.2049,-122 466.7951,-122 466.7951,-86 615.2049,-86 615.2049,-122"/>
<text text-anchor="middle" x="541" y="-99.8" font-family="Times,serif" font-size="14.00" fill="#000000">GkWorkingComponent</text>
</g>
<!-- GkWorkingComponent&#45;&gt;AppModule -->
<g id="edge11" class="edge">
<title>GkWorkingComponent&#45;&gt;AppModule</title>
<path fill="none" stroke="#000000" d="M541,-122.2222C541,-140.8285 541,-167 541,-167 541,-167 1115.8872,-167 1115.8872,-167"/>
<polygon fill="#000000" stroke="#000000" points="1115.8872,-170.5001 1125.8872,-167 1115.8871,-163.5001 1115.8872,-170.5001"/>
</g>
<!-- GkFooterComponent -->
<g id="node12" class="node">
<title>GkFooterComponent</title>
<polygon fill="#ffffb3" stroke="#000000" points="448.4874,-122 313.5126,-122 313.5126,-86 448.4874,-86 448.4874,-122"/>
<text text-anchor="middle" x="381" y="-99.8" font-family="Times,serif" font-size="14.00" fill="#000000">GkFooterComponent</text>
</g>
<!-- GkFooterComponent&#45;&gt;AppModule -->
<g id="edge12" class="edge">
<title>GkFooterComponent&#45;&gt;AppModule</title>
<path fill="none" stroke="#000000" d="M381,-122.2228C381,-142.3652 381,-172 381,-172 381,-172 1116.2431,-172 1116.2431,-172"/>
<polygon fill="#000000" stroke="#000000" points="1116.2432,-175.5001 1126.2431,-172 1116.2431,-168.5001 1116.2432,-175.5001"/>
</g>
<!-- AppComponent  -->
<g id="node15" class="node">
<title>AppComponent </title>
<polygon fill="#80b1d3" stroke="#000000" points="1222.439,-252 1113.561,-252 1113.561,-216 1222.439,-216 1222.439,-252"/>
<text text-anchor="middle" x="1168" y="-229.8" font-family="Times,serif" font-size="14.00" fill="#000000">AppComponent </text>
</g>
<!-- AppModule&#45;&gt;AppComponent  -->
<g id="edge14" class="edge">
<title>AppModule&#45;&gt;AppComponent </title>
<path fill="none" stroke="#000000" stroke-dasharray="1,5" d="M1168,-187.1061C1168,-187.1061 1168,-205.991 1168,-205.991"/>
<polygon fill="#000000" stroke="#000000" points="1164.5001,-205.9909 1168,-215.991 1171.5001,-205.991 1164.5001,-205.9909"/>
</g>
<!-- AppRoutingModule -->
<g id="node14" class="node">
<title>AppRoutingModule</title>
<polygon fill="#8dd3c7" stroke="#000000" points="290.2744,-122 287.2744,-126 266.2744,-126 263.2744,-122 161.7256,-122 161.7256,-86 290.2744,-86 290.2744,-122"/>
<text text-anchor="middle" x="226" y="-99.8" font-family="Times,serif" font-size="14.00" fill="#000000">AppRoutingModule</text>
</g>
<!-- AppRoutingModule&#45;&gt;AppModule -->
<g id="edge13" class="edge">
<title>AppRoutingModule&#45;&gt;AppModule</title>
<path fill="none" stroke="#000000" d="M226,-122.0449C226,-143.6623 226,-177 226,-177 226,-177 1116.308,-177 1116.308,-177"/>
<polygon fill="#000000" stroke="#000000" points="1116.308,-180.5001 1126.308,-177 1116.3079,-173.5001 1116.308,-180.5001"/>
</g>
<!-- GlobalState -->
<g id="node16" class="node">
<title>GlobalState</title>
<ellipse fill="#fdb462" stroke="#000000" cx="81" cy="-104" rx="56.7561" ry="18"/>
<text text-anchor="middle" x="81" y="-99.8" font-family="Times,serif" font-size="14.00" fill="#000000">GlobalState</text>
</g>
<!-- GlobalState&#45;&gt;AppModule -->
<g id="edge15" class="edge">
<title>GlobalState&#45;&gt;AppModule</title>
<path fill="none" stroke="#000000" d="M81,-122.0908C81,-145.1328 81,-182 81,-182 81,-182 1116.0544,-182 1116.0544,-182"/>
<polygon fill="#000000" stroke="#000000" points="1116.0544,-185.5001 1126.0544,-182 1116.0543,-178.5001 1116.0544,-185.5001"/>
</g>
</g>
</svg>
