<?xml version="1.0" encoding="UTF-8" standalone="no"?>
<!DOCTYPE svg PUBLIC "-//W3C//DTD SVG 1.1//EN"
 "http://www.w3.org/Graphics/SVG/1.1/DTD/svg11.dtd">
<!-- Generated by graphviz version 2.40.1 (20161225.0304)
 -->
<!-- Title: dependencies Pages: 1 -->
<svg width="2212pt" height="211pt"
 viewBox="0.00 0.00 2212.00 211.00" xmlns="http://www.w3.org/2000/svg" xmlns:xlink="http://www.w3.org/1999/xlink">
<g id="graph0" class="graph" transform="scale(1 1) rotate(0) translate(4 207)">
<title>dependencies</title>
<polygon fill="#ffffff" stroke="transparent" points="-4,4 -4,-207 2208,-207 2208,4 -4,4"/>
<text text-anchor="start" x="1081.0091" y="-42.4" font-family="sans-serif" font-weight="bold" font-size="14.00" fill="#000000">Legend</text>
<polygon fill="#ffffb3" stroke="transparent" points="868,-10 868,-30 888,-30 888,-10 868,-10"/>
<text text-anchor="start" x="891.629" y="-15.4" font-family="sans-serif" font-size="14.00" fill="#000000"> &#160;Declarations</text>
<polygon fill="#8dd3c7" stroke="transparent" points="981,-10 981,-30 1001,-30 1001,-10 981,-10"/>
<text text-anchor="start" x="1004.7251" y="-15.4" font-family="sans-serif" font-size="14.00" fill="#000000"> &#160;Module</text>
<polygon fill="#80b1d3" stroke="transparent" points="1067,-10 1067,-30 1087,-30 1087,-10 1067,-10"/>
<text text-anchor="start" x="1090.7812" y="-15.4" font-family="sans-serif" font-size="14.00" fill="#000000"> &#160;Bootstrap</text>
<polygon fill="#fdb462" stroke="transparent" points="1164,-10 1164,-30 1184,-30 1184,-10 1164,-10"/>
<text text-anchor="start" x="1187.6732" y="-15.4" font-family="sans-serif" font-size="14.00" fill="#000000"> &#160;Providers</text>
<polygon fill="#fb8072" stroke="transparent" points="1260,-10 1260,-30 1280,-30 1280,-10 1260,-10"/>
<text text-anchor="start" x="1283.7258" y="-15.4" font-family="sans-serif" font-size="14.00" fill="#000000"> &#160;Exports</text>
<g id="clust1" class="cluster">
<title>cluster_GkTcdModule</title>
<polygon fill="none" stroke="#000000" stroke-dasharray="1,5" points="8,-70 8,-195 2196,-195 2196,-70 8,-70"/>
</g>
<g id="clust2" class="cluster">
<title>cluster_GkTcdModule_declarations</title>
<polygon fill="none" stroke="#000000" points="1292,-78 1292,-130 2188,-130 2188,-78 1292,-78"/>
</g>
<g id="clust9" class="cluster">
<title>cluster_GkTcdModule_imports</title>
<polygon fill="none" stroke="#000000" points="190,-78 190,-130 1284,-130 1284,-78 190,-78"/>
</g>
<g id="clust12" class="cluster">
<title>cluster_GkTcdModule_providers</title>
<polygon fill="none" stroke="#000000" points="16,-78 16,-130 182,-130 182,-78 16,-78"/>
</g>
<!-- GkTcdComponent -->
<g id="node1" class="node">
<title>GkTcdComponent</title>
<polygon fill="#ffffb3" stroke="#000000" points="2180.2064,-122 2059.7936,-122 2059.7936,-86 2180.2064,-86 2180.2064,-122"/>
<text text-anchor="middle" x="2120" y="-99.8" font-family="Times,serif" font-size="14.00" fill="#000000">GkTcdComponent</text>
</g>
<!-- GkTcdModule -->
<g id="node7" class="node">
<title>GkTcdModule</title>
<polygon fill="#8dd3c7" stroke="#000000" points="1187.4245,-187 1184.4245,-191 1163.4245,-191 1160.4245,-187 1088.5755,-187 1088.5755,-151 1187.4245,-151 1187.4245,-187"/>
<text text-anchor="middle" x="1138" y="-164.8" font-family="Times,serif" font-size="14.00" fill="#000000">GkTcdModule</text>
</g>
<!-- GkTcdComponent&#45;&gt;GkTcdModule -->
<g id="edge1" class="edge">
<title>GkTcdComponent&#45;&gt;GkTcdModule</title>
<path fill="none" stroke="#000000" d="M2120,-122.0908C2120,-145.1328 2120,-182 2120,-182 2120,-182 1197.3705,-182 1197.3705,-182"/>
<polygon fill="#000000" stroke="#000000" points="1197.3705,-178.5001 1187.3705,-182 1197.3705,-185.5001 1197.3705,-178.5001"/>
</g>
<!-- GkTcd00Component -->
<g id="node2" class="node">
<title>GkTcd00Component</title>
<polygon fill="#ffffb3" stroke="#000000" points="2042.2064,-122 1907.7936,-122 1907.7936,-86 2042.2064,-86 2042.2064,-122"/>
<text text-anchor="middle" x="1975" y="-99.8" font-family="Times,serif" font-size="14.00" fill="#000000">GkTcd00Component</text>
</g>
<!-- GkTcd00Component&#45;&gt;GkTcdModule -->
<g id="edge2" class="edge">
<title>GkTcd00Component&#45;&gt;GkTcdModule</title>
<path fill="none" stroke="#000000" d="M1975,-122.0449C1975,-143.6623 1975,-177 1975,-177 1975,-177 1197.2333,-177 1197.2333,-177"/>
<polygon fill="#000000" stroke="#000000" points="1197.2334,-173.5001 1187.2333,-177 1197.2333,-180.5001 1197.2334,-173.5001"/>
</g>
<!-- GkTcd10Component -->
<g id="node3" class="node">
<title>GkTcd10Component</title>
<polygon fill="#ffffb3" stroke="#000000" points="1890.2064,-122 1755.7936,-122 1755.7936,-86 1890.2064,-86 1890.2064,-122"/>
<text text-anchor="middle" x="1823" y="-99.8" font-family="Times,serif" font-size="14.00" fill="#000000">GkTcd10Component</text>
</g>
<!-- GkTcd10Component&#45;&gt;GkTcdModule -->
<g id="edge3" class="edge">
<title>GkTcd10Component&#45;&gt;GkTcdModule</title>
<path fill="none" stroke="#000000" d="M1823,-122.2228C1823,-142.3652 1823,-172 1823,-172 1823,-172 1197.2635,-172 1197.2635,-172"/>
<polygon fill="#000000" stroke="#000000" points="1197.2635,-168.5001 1187.2635,-172 1197.2635,-175.5001 1197.2635,-168.5001"/>
</g>
<!-- GkTcd20Component -->
<g id="node4" class="node">
<title>GkTcd20Component</title>
<polygon fill="#ffffb3" stroke="#000000" points="1738.2064,-122 1603.7936,-122 1603.7936,-86 1738.2064,-86 1738.2064,-122"/>
<text text-anchor="middle" x="1671" y="-99.8" font-family="Times,serif" font-size="14.00" fill="#000000">GkTcd20Component</text>
</g>
<!-- GkTcd20Component&#45;&gt;GkTcdModule -->
<g id="edge4" class="edge">
<title>GkTcd20Component&#45;&gt;GkTcdModule</title>
<path fill="none" stroke="#000000" d="M1671,-122.2222C1671,-140.8285 1671,-167 1671,-167 1671,-167 1197.6647,-167 1197.6647,-167"/>
<polygon fill="#000000" stroke="#000000" points="1197.6648,-163.5001 1187.6647,-167 1197.6647,-170.5001 1197.6648,-163.5001"/>
</g>
<!-- GkTcd50Component -->
<g id="node5" class="node">
<title>GkTcd50Component</title>
<polygon fill="#ffffb3" stroke="#000000" points="1586.2064,-122 1451.7936,-122 1451.7936,-86 1586.2064,-86 1586.2064,-122"/>
<text text-anchor="middle" x="1519" y="-99.8" font-family="Times,serif" font-size="14.00" fill="#000000">GkTcd50Component</text>
</g>
<!-- GkTcd50Component&#45;&gt;GkTcdModule -->
<g id="edge5" class="edge">
<title>GkTcd50Component&#45;&gt;GkTcdModule</title>
<path fill="none" stroke="#000000" d="M1519,-122.0336C1519,-139.0597 1519,-162 1519,-162 1519,-162 1197.4185,-162 1197.4185,-162"/>
<polygon fill="#000000" stroke="#000000" points="1197.4185,-158.5001 1187.4185,-162 1197.4185,-165.5001 1197.4185,-158.5001"/>
</g>
<!-- GkTcd60Component -->
<g id="node6" class="node">
<title>GkTcd60Component</title>
<polygon fill="#ffffb3" stroke="#000000" points="1434.2064,-122 1299.7936,-122 1299.7936,-86 1434.2064,-86 1434.2064,-122"/>
<text text-anchor="middle" x="1367" y="-99.8" font-family="Times,serif" font-size="14.00" fill="#000000">GkTcd60Component</text>
</g>
<!-- GkTcd60Component&#45;&gt;GkTcdModule -->
<g id="edge6" class="edge">
<title>GkTcd60Component&#45;&gt;GkTcdModule</title>
<path fill="none" stroke="#000000" d="M1367,-122.2396C1367,-137.5706 1367,-157 1367,-157 1367,-157 1197.4077,-157 1197.4077,-157"/>
<polygon fill="#000000" stroke="#000000" points="1197.4077,-153.5001 1187.4077,-157 1197.4076,-160.5001 1197.4077,-153.5001"/>
</g>
<!-- GkTcdRoutingModule -->
<g id="node8" class="node">
<title>GkTcdRoutingModule</title>
<polygon fill="#8dd3c7" stroke="#000000" points="1275.5421,-122 1272.5421,-126 1251.5421,-126 1248.5421,-122 1132.4579,-122 1132.4579,-86 1275.5421,-86 1275.5421,-122"/>
<text text-anchor="middle" x="1204" y="-99.8" font-family="Times,serif" font-size="14.00" fill="#000000">GkTcdRoutingModule</text>
</g>
<!-- GkTcdRoutingModule&#45;&gt;GkTcdModule -->
<g id="edge7" class="edge">
<title>GkTcdRoutingModule&#45;&gt;GkTcdModule</title>
<path fill="none" stroke="#000000" d="M1159.7206,-122.1061C1159.7206,-122.1061 1159.7206,-140.991 1159.7206,-140.991"/>
<polygon fill="#000000" stroke="#000000" points="1156.2206,-140.9909 1159.7206,-150.991 1163.2206,-140.991 1156.2206,-140.9909"/>
</g>
<!-- NgaModule -->
<g id="node9" class="node">
<title>NgaModule</title>
<polygon fill="#8dd3c7" stroke="#000000" points="1114.3711,-122 1111.3711,-126 1090.3711,-126 1087.3711,-122 1031.6289,-122 1031.6289,-86 1114.3711,-86 1114.3711,-122"/>
<text text-anchor="middle" x="1073" y="-99.8" font-family="Times,serif" font-size="14.00" fill="#000000">NgaModule</text>
</g>
<!-- NgaModule&#45;&gt;GkTcdModule -->
<g id="edge8" class="edge">
<title>NgaModule&#45;&gt;GkTcdModule</title>
<path fill="none" stroke="#000000" d="M1101.6119,-122.1061C1101.6119,-122.1061 1101.6119,-140.991 1101.6119,-140.991"/>
<polygon fill="#000000" stroke="#000000" points="1098.1119,-140.9909 1101.6119,-150.991 1105.1119,-140.991 1098.1119,-140.9909"/>
</g>
<!-- HNavBoardModule -->
<g id="node10" class="node">
<title>HNavBoardModule</title>
<polygon fill="#8dd3c7" stroke="#000000" points="1013.6895,-122 1010.6895,-126 989.6895,-126 986.6895,-122 886.3105,-122 886.3105,-86 1013.6895,-86 1013.6895,-122"/>
<text text-anchor="middle" x="950" y="-99.8" font-family="Times,serif" font-size="14.00" fill="#000000">HNavBoardModule</text>
</g>
<!-- HNavBoardModule&#45;&gt;GkTcdModule -->
<g id="edge9" class="edge">
<title>HNavBoardModule&#45;&gt;GkTcdModule</title>
<path fill="none" stroke="#000000" d="M950,-122.2396C950,-137.5706 950,-157 950,-157 950,-157 1078.6052,-157 1078.6052,-157"/>
<polygon fill="#000000" stroke="#000000" points="1078.6052,-160.5001 1088.6052,-157 1078.6052,-153.5001 1078.6052,-160.5001"/>
</g>
<!-- HLeadFormModule -->
<g id="node11" class="node">
<title>HLeadFormModule</title>
<polygon fill="#8dd3c7" stroke="#000000" points="867.972,-122 864.972,-126 843.972,-126 840.972,-122 740.028,-122 740.028,-86 867.972,-86 867.972,-122"/>
<text text-anchor="middle" x="804" y="-99.8" font-family="Times,serif" font-size="14.00" fill="#000000">HLeadFormModule</text>
</g>
<!-- HLeadFormModule&#45;&gt;GkTcdModule -->
<g id="edge10" class="edge">
<title>HLeadFormModule&#45;&gt;GkTcdModule</title>
<path fill="none" stroke="#000000" d="M804,-122.0336C804,-139.0597 804,-162 804,-162 804,-162 1078.7171,-162 1078.7171,-162"/>
<polygon fill="#000000" stroke="#000000" points="1078.7172,-165.5001 1088.7171,-162 1078.7171,-158.5001 1078.7172,-165.5001"/>
</g>
<!-- HUploadFormModule -->
<g id="node12" class="node">
<title>HUploadFormModule</title>
<polygon fill="#8dd3c7" stroke="#000000" points="721.7021,-122 718.7021,-126 697.7021,-126 694.7021,-122 580.2979,-122 580.2979,-86 721.7021,-86 721.7021,-122"/>
<text text-anchor="middle" x="651" y="-99.8" font-family="Times,serif" font-size="14.00" fill="#000000">HUploadFormModule</text>
</g>
<!-- HUploadFormModule&#45;&gt;GkTcdModule -->
<g id="edge11" class="edge">
<title>HUploadFormModule&#45;&gt;GkTcdModule</title>
<path fill="none" stroke="#000000" d="M651,-122.2222C651,-140.8285 651,-167 651,-167 651,-167 1078.6238,-167 1078.6238,-167"/>
<polygon fill="#000000" stroke="#000000" points="1078.6238,-170.5001 1088.6238,-167 1078.6238,-163.5001 1078.6238,-170.5001"/>
</g>
<!-- HDownloadFormModule -->
<g id="node13" class="node">
<title>HDownloadFormModule</title>
<polygon fill="#8dd3c7" stroke="#000000" points="562.3089,-122 559.3089,-126 538.3089,-126 535.3089,-122 403.6911,-122 403.6911,-86 562.3089,-86 562.3089,-122"/>
<text text-anchor="middle" x="483" y="-99.8" font-family="Times,serif" font-size="14.00" fill="#000000">HDownloadFormModule</text>
</g>
<!-- HDownloadFormModule&#45;&gt;GkTcdModule -->
<g id="edge12" class="edge">
<title>HDownloadFormModule&#45;&gt;GkTcdModule</title>
<path fill="none" stroke="#000000" d="M483,-122.2228C483,-142.3652 483,-172 483,-172 483,-172 1078.7685,-172 1078.7685,-172"/>
<polygon fill="#000000" stroke="#000000" points="1078.7686,-175.5001 1088.7685,-172 1078.7685,-168.5001 1078.7686,-175.5001"/>
</g>
<!-- HOverviewBoxHeaderModule -->
<g id="node14" class="node">
<title>HOverviewBoxHeaderModule</title>
<polygon fill="#8dd3c7" stroke="#000000" points="386.098,-122 383.098,-126 362.098,-126 359.098,-122 197.902,-122 197.902,-86 386.098,-86 386.098,-122"/>
<text text-anchor="middle" x="292" y="-99.8" font-family="Times,serif" font-size="14.00" fill="#000000">HOverviewBoxHeaderModule</text>
</g>
<!-- HOverviewBoxHeaderModule&#45;&gt;GkTcdModule -->
<g id="edge13" class="edge">
<title>HOverviewBoxHeaderModule&#45;&gt;GkTcdModule</title>
<path fill="none" stroke="#000000" d="M292,-122.0449C292,-143.6623 292,-177 292,-177 292,-177 1078.5484,-177 1078.5484,-177"/>
<polygon fill="#000000" stroke="#000000" points="1078.5485,-180.5001 1088.5484,-177 1078.5484,-173.5001 1078.5485,-180.5001"/>
</g>
<!-- GkClientService -->
<g id="node15" class="node">
<title>GkClientService</title>
<ellipse fill="#fdb462" stroke="#000000" cx="99" cy="-104" rx="75.2964" ry="18"/>
<text text-anchor="middle" x="99" y="-99.8" font-family="Times,serif" font-size="14.00" fill="#000000">GkClientService</text>
</g>
<!-- GkClientService&#45;&gt;GkTcdModule -->
<g id="edge14" class="edge">
<title>GkClientService&#45;&gt;GkTcdModule</title>
<path fill="none" stroke="#000000" d="M99,-122.0908C99,-145.1328 99,-182 99,-182 99,-182 1078.5858,-182 1078.5858,-182"/>
<polygon fill="#000000" stroke="#000000" points="1078.5859,-185.5001 1088.5858,-182 1078.5858,-178.5001 1078.5859,-185.5001"/>
</g>
</g>
</svg>
