<?xml version="1.0" encoding="UTF-8" standalone="no"?>
<!DOCTYPE svg PUBLIC "-//W3C//DTD SVG 1.1//EN"
 "http://www.w3.org/Graphics/SVG/1.1/DTD/svg11.dtd">
<!-- Generated by graphviz version 2.40.1 (20161225.0304)
 -->
<!-- Title: dependencies Pages: 1 -->
<svg width="2292pt" height="211pt"
 viewBox="0.00 0.00 2292.00 211.00" xmlns="http://www.w3.org/2000/svg" xmlns:xlink="http://www.w3.org/1999/xlink">
<g id="graph0" class="graph" transform="scale(1 1) rotate(0) translate(4 207)">
<title>dependencies</title>
<polygon fill="#ffffff" stroke="transparent" points="-4,4 -4,-207 2288,-207 2288,4 -4,4"/>
<text text-anchor="start" x="1121.0091" y="-42.4" font-family="sans-serif" font-weight="bold" font-size="14.00" fill="#000000">Legend</text>
<polygon fill="#ffffb3" stroke="transparent" points="908,-10 908,-30 928,-30 928,-10 908,-10"/>
<text text-anchor="start" x="931.629" y="-15.4" font-family="sans-serif" font-size="14.00" fill="#000000"> &#160;Declarations</text>
<polygon fill="#8dd3c7" stroke="transparent" points="1021,-10 1021,-30 1041,-30 1041,-10 1021,-10"/>
<text text-anchor="start" x="1044.7251" y="-15.4" font-family="sans-serif" font-size="14.00" fill="#000000"> &#160;Module</text>
<polygon fill="#80b1d3" stroke="transparent" points="1107,-10 1107,-30 1127,-30 1127,-10 1107,-10"/>
<text text-anchor="start" x="1130.7812" y="-15.4" font-family="sans-serif" font-size="14.00" fill="#000000"> &#160;Bootstrap</text>
<polygon fill="#fdb462" stroke="transparent" points="1204,-10 1204,-30 1224,-30 1224,-10 1204,-10"/>
<text text-anchor="start" x="1227.6732" y="-15.4" font-family="sans-serif" font-size="14.00" fill="#000000"> &#160;Providers</text>
<polygon fill="#fb8072" stroke="transparent" points="1300,-10 1300,-30 1320,-30 1320,-10 1300,-10"/>
<text text-anchor="start" x="1323.7258" y="-15.4" font-family="sans-serif" font-size="14.00" fill="#000000"> &#160;Exports</text>
<g id="clust1" class="cluster">
<title>cluster_SettingModule</title>
<polygon fill="none" stroke="#000000" stroke-dasharray="1,5" points="8,-70 8,-195 2276,-195 2276,-70 8,-70"/>
</g>
<g id="clust2" class="cluster">
<title>cluster_SettingModule_declarations</title>
<polygon fill="none" stroke="#000000" points="2130,-78 2130,-130 2268,-130 2268,-78 2130,-78"/>
</g>
<g id="clust4" class="cluster">
<title>cluster_SettingModule_imports</title>
<polygon fill="none" stroke="#000000" points="16,-78 16,-130 2122,-130 2122,-78 16,-78"/>
</g>
<!-- SettingComponent -->
<g id="node1" class="node">
<title>SettingComponent</title>
<polygon fill="#ffffb3" stroke="#000000" points="2259.5014,-122 2138.4986,-122 2138.4986,-86 2259.5014,-86 2259.5014,-122"/>
<text text-anchor="middle" x="2199" y="-99.8" font-family="Times,serif" font-size="14.00" fill="#000000">SettingComponent</text>
</g>
<!-- SettingModule -->
<g id="node2" class="node">
<title>SettingModule</title>
<polygon fill="#8dd3c7" stroke="#000000" points="1215.719,-187 1212.719,-191 1191.719,-191 1188.719,-187 1116.281,-187 1116.281,-151 1215.719,-151 1215.719,-187"/>
<text text-anchor="middle" x="1166" y="-164.8" font-family="Times,serif" font-size="14.00" fill="#000000">SettingModule</text>
</g>
<!-- SettingComponent&#45;&gt;SettingModule -->
<g id="edge1" class="edge">
<title>SettingComponent&#45;&gt;SettingModule</title>
<path fill="none" stroke="#000000" d="M2199,-122.3228C2199,-145.6602 2199,-183 2199,-183 2199,-183 1225.8237,-183 1225.8237,-183"/>
<polygon fill="#000000" stroke="#000000" points="1225.8238,-179.5001 1215.8237,-183 1225.8237,-186.5001 1225.8238,-179.5001"/>
</g>
<!-- NgaModule -->
<g id="node3" class="node">
<title>NgaModule</title>
<polygon fill="#8dd3c7" stroke="#000000" points="2114.3711,-122 2111.3711,-126 2090.3711,-126 2087.3711,-122 2031.6289,-122 2031.6289,-86 2114.3711,-86 2114.3711,-122"/>
<text text-anchor="middle" x="2073" y="-99.8" font-family="Times,serif" font-size="14.00" fill="#000000">NgaModule</text>
</g>
<!-- NgaModule&#45;&gt;SettingModule -->
<g id="edge2" class="edge">
<title>NgaModule&#45;&gt;SettingModule</title>
<path fill="none" stroke="#000000" d="M2073,-122.2921C2073,-144.2057 2073,-178 2073,-178 2073,-178 1225.7318,-178 1225.7318,-178"/>
<polygon fill="#000000" stroke="#000000" points="1225.7319,-174.5001 1215.7318,-178 1225.7318,-181.5001 1225.7319,-174.5001"/>
</g>
<!-- HToastySettingModule -->
<g id="node4" class="node">
<title>HToastySettingModule</title>
<polygon fill="#8dd3c7" stroke="#000000" points="2013.9284,-122 2010.9284,-126 1989.9284,-126 1986.9284,-122 1866.0716,-122 1866.0716,-86 2013.9284,-86 2013.9284,-122"/>
<text text-anchor="middle" x="1940" y="-99.8" font-family="Times,serif" font-size="14.00" fill="#000000">HToastySettingModule</text>
</g>
<!-- HToastySettingModule&#45;&gt;SettingModule -->
<g id="edge3" class="edge">
<title>HToastySettingModule&#45;&gt;SettingModule</title>
<path fill="none" stroke="#000000" d="M1940,-122.0267C1940,-142.7672 1940,-174 1940,-174 1940,-174 1225.8909,-174 1225.8909,-174"/>
<polygon fill="#000000" stroke="#000000" points="1225.8909,-170.5001 1215.8909,-174 1225.8909,-177.5001 1225.8909,-170.5001"/>
</g>
<!-- HChangeDashboardModule -->
<g id="node5" class="node">
<title>HChangeDashboardModule</title>
<polygon fill="#8dd3c7" stroke="#000000" points="1848.5632,-122 1845.5632,-126 1824.5632,-126 1821.5632,-122 1675.4368,-122 1675.4368,-86 1848.5632,-86 1848.5632,-122"/>
<text text-anchor="middle" x="1762" y="-99.8" font-family="Times,serif" font-size="14.00" fill="#000000">HChangeDashboardModule</text>
</g>
<!-- HChangeDashboardModule&#45;&gt;SettingModule -->
<g id="edge4" class="edge">
<title>HChangeDashboardModule&#45;&gt;SettingModule</title>
<path fill="none" stroke="#000000" d="M1762,-122.1061C1762,-141.3391 1762,-169 1762,-169 1762,-169 1225.7895,-169 1225.7895,-169"/>
<polygon fill="#000000" stroke="#000000" points="1225.7895,-165.5001 1215.7895,-169 1225.7895,-172.5001 1225.7895,-165.5001"/>
</g>
<!-- HContactFormModule -->
<g id="node6" class="node">
<title>HContactFormModule</title>
<polygon fill="#8dd3c7" stroke="#000000" points="1657.5379,-122 1654.5379,-126 1633.5379,-126 1630.5379,-122 1514.4621,-122 1514.4621,-86 1657.5379,-86 1657.5379,-122"/>
<text text-anchor="middle" x="1586" y="-99.8" font-family="Times,serif" font-size="14.00" fill="#000000">HContactFormModule</text>
</g>
<!-- HContactFormModule&#45;&gt;SettingModule -->
<g id="edge5" class="edge">
<title>HContactFormModule&#45;&gt;SettingModule</title>
<path fill="none" stroke="#000000" d="M1586,-122.302C1586,-140.2699 1586,-165 1586,-165 1586,-165 1225.8288,-165 1225.8288,-165"/>
<polygon fill="#000000" stroke="#000000" points="1225.8289,-161.5001 1215.8288,-165 1225.8288,-168.5001 1225.8289,-161.5001"/>
</g>
<!-- HImageBoxModule -->
<g id="node7" class="node">
<title>HImageBoxModule</title>
<polygon fill="#8dd3c7" stroke="#000000" points="1495.9734,-122 1492.9734,-126 1471.9734,-126 1468.9734,-122 1368.0266,-122 1368.0266,-86 1495.9734,-86 1495.9734,-122"/>
<text text-anchor="middle" x="1432" y="-99.8" font-family="Times,serif" font-size="14.00" fill="#000000">HImageBoxModule</text>
</g>
<!-- HImageBoxModule&#45;&gt;SettingModule -->
<g id="edge6" class="edge">
<title>HImageBoxModule&#45;&gt;SettingModule</title>
<path fill="none" stroke="#000000" d="M1432,-122.027C1432,-138.3976 1432,-160 1432,-160 1432,-160 1225.7205,-160 1225.7205,-160"/>
<polygon fill="#000000" stroke="#000000" points="1225.7206,-156.5001 1215.7205,-160 1225.7205,-163.5001 1225.7206,-156.5001"/>
</g>
<!-- HMapModule -->
<g id="node8" class="node">
<title>HMapModule</title>
<polygon fill="#8dd3c7" stroke="#000000" points="1349.8161,-122 1346.8161,-126 1325.8161,-126 1322.8161,-122 1254.1839,-122 1254.1839,-86 1349.8161,-86 1349.8161,-122"/>
<text text-anchor="middle" x="1302" y="-99.8" font-family="Times,serif" font-size="14.00" fill="#000000">HMapModule</text>
</g>
<!-- HMapModule&#45;&gt;SettingModule -->
<g id="edge7" class="edge">
<title>HMapModule&#45;&gt;SettingModule</title>
<path fill="none" stroke="#000000" d="M1302,-122.1871C1302,-137.1824 1302,-156 1302,-156 1302,-156 1225.8691,-156 1225.8691,-156"/>
<polygon fill="#000000" stroke="#000000" points="1225.8692,-152.5001 1215.8691,-156 1225.8691,-159.5001 1225.8692,-152.5001"/>
</g>
<!-- HMessageListModule -->
<g id="node9" class="node">
<title>HMessageListModule</title>
<polygon fill="#8dd3c7" stroke="#000000" points="1236.413,-122 1233.413,-126 1212.413,-126 1209.413,-122 1095.587,-122 1095.587,-86 1236.413,-86 1236.413,-122"/>
<text text-anchor="middle" x="1166" y="-99.8" font-family="Times,serif" font-size="14.00" fill="#000000">HMessageListModule</text>
</g>
<!-- HMessageListModule&#45;&gt;SettingModule -->
<g id="edge8" class="edge">
<title>HMessageListModule&#45;&gt;SettingModule</title>
<path fill="none" stroke="#000000" d="M1166,-122.1061C1166,-122.1061 1166,-140.991 1166,-140.991"/>
<polygon fill="#000000" stroke="#000000" points="1162.5001,-140.9909 1166,-150.991 1169.5001,-140.991 1162.5001,-140.9909"/>
</g>
<!-- HNavBoardModule -->
<g id="node10" class="node">
<title>HNavBoardModule</title>
<polygon fill="#8dd3c7" stroke="#000000" points="1077.6895,-122 1074.6895,-126 1053.6895,-126 1050.6895,-122 950.3105,-122 950.3105,-86 1077.6895,-86 1077.6895,-122"/>
<text text-anchor="middle" x="1014" y="-99.8" font-family="Times,serif" font-size="14.00" fill="#000000">HNavBoardModule</text>
</g>
<!-- HNavBoardModule&#45;&gt;SettingModule -->
<g id="edge9" class="edge">
<title>HNavBoardModule&#45;&gt;SettingModule</title>
<path fill="none" stroke="#000000" d="M1014,-122.1871C1014,-137.1824 1014,-156 1014,-156 1014,-156 1106.2295,-156 1106.2295,-156"/>
<polygon fill="#000000" stroke="#000000" points="1106.2296,-159.5001 1116.2295,-156 1106.2295,-152.5001 1106.2296,-159.5001"/>
</g>
<!-- HOverviewBoxHeaderModule -->
<g id="node11" class="node">
<title>HOverviewBoxHeaderModule</title>
<polygon fill="#8dd3c7" stroke="#000000" points="932.098,-122 929.098,-126 908.098,-126 905.098,-122 743.902,-122 743.902,-86 932.098,-86 932.098,-122"/>
<text text-anchor="middle" x="838" y="-99.8" font-family="Times,serif" font-size="14.00" fill="#000000">HOverviewBoxHeaderModule</text>
</g>
<!-- HOverviewBoxHeaderModule&#45;&gt;SettingModule -->
<g id="edge10" class="edge">
<title>HOverviewBoxHeaderModule&#45;&gt;SettingModule</title>
<path fill="none" stroke="#000000" d="M838,-122.027C838,-138.3976 838,-160 838,-160 838,-160 1106.1839,-160 1106.1839,-160"/>
<polygon fill="#000000" stroke="#000000" points="1106.1839,-163.5001 1116.1839,-160 1106.1838,-156.5001 1106.1839,-163.5001"/>
</g>
<!-- HStatusBarModule -->
<g id="node12" class="node">
<title>HStatusBarModule</title>
<polygon fill="#8dd3c7" stroke="#000000" points="726.0912,-122 723.0912,-126 702.0912,-126 699.0912,-122 601.9088,-122 601.9088,-86 726.0912,-86 726.0912,-122"/>
<text text-anchor="middle" x="664" y="-99.8" font-family="Times,serif" font-size="14.00" fill="#000000">HStatusBarModule</text>
</g>
<!-- HStatusBarModule&#45;&gt;SettingModule -->
<g id="edge11" class="edge">
<title>HStatusBarModule&#45;&gt;SettingModule</title>
<path fill="none" stroke="#000000" d="M664,-122.302C664,-140.2699 664,-165 664,-165 664,-165 1106.031,-165 1106.031,-165"/>
<polygon fill="#000000" stroke="#000000" points="1106.0311,-168.5001 1116.031,-165 1106.031,-161.5001 1106.0311,-168.5001"/>
</g>
<!-- HTaskBoxModule -->
<g id="node13" class="node">
<title>HTaskBoxModule</title>
<polygon fill="#8dd3c7" stroke="#000000" points="584.205,-122 581.205,-126 560.205,-126 557.205,-122 463.795,-122 463.795,-86 584.205,-86 584.205,-122"/>
<text text-anchor="middle" x="524" y="-99.8" font-family="Times,serif" font-size="14.00" fill="#000000">HTaskBoxModule</text>
</g>
<!-- HTaskBoxModule&#45;&gt;SettingModule -->
<g id="edge12" class="edge">
<title>HTaskBoxModule&#45;&gt;SettingModule</title>
<path fill="none" stroke="#000000" d="M524,-122.1061C524,-141.3391 524,-169 524,-169 524,-169 1106.1576,-169 1106.1576,-169"/>
<polygon fill="#000000" stroke="#000000" points="1106.1576,-172.5001 1116.1576,-169 1106.1575,-165.5001 1106.1576,-172.5001"/>
</g>
<!-- HTaskListModule -->
<g id="node14" class="node">
<title>HTaskListModule</title>
<polygon fill="#8dd3c7" stroke="#000000" points="446.1471,-122 443.1471,-126 422.1471,-126 419.1471,-122 327.8529,-122 327.8529,-86 446.1471,-86 446.1471,-122"/>
<text text-anchor="middle" x="387" y="-99.8" font-family="Times,serif" font-size="14.00" fill="#000000">HTaskListModule</text>
</g>
<!-- HTaskListModule&#45;&gt;SettingModule -->
<g id="edge13" class="edge">
<title>HTaskListModule&#45;&gt;SettingModule</title>
<path fill="none" stroke="#000000" d="M387,-122.0267C387,-142.7672 387,-174 387,-174 387,-174 1106.3824,-174 1106.3824,-174"/>
<polygon fill="#000000" stroke="#000000" points="1106.3825,-177.5001 1116.3824,-174 1106.3824,-170.5001 1106.3825,-177.5001"/>
</g>
<!-- HUserCardModule -->
<g id="node15" class="node">
<title>HUserCardModule</title>
<polygon fill="#8dd3c7" stroke="#000000" points="309.795,-122 306.795,-126 285.795,-126 282.795,-122 186.205,-122 186.205,-86 309.795,-86 309.795,-122"/>
<text text-anchor="middle" x="248" y="-99.8" font-family="Times,serif" font-size="14.00" fill="#000000">HUserCardModule</text>
</g>
<!-- HUserCardModule&#45;&gt;SettingModule -->
<g id="edge14" class="edge">
<title>HUserCardModule&#45;&gt;SettingModule</title>
<path fill="none" stroke="#000000" d="M248,-122.2921C248,-144.2057 248,-178 248,-178 248,-178 1106.3188,-178 1106.3188,-178"/>
<polygon fill="#000000" stroke="#000000" points="1106.3189,-181.5001 1116.3188,-178 1106.3188,-174.5001 1106.3189,-181.5001"/>
</g>
<!-- SettingRoutingModule -->
<g id="node16" class="node">
<title>SettingRoutingModule</title>
<polygon fill="#8dd3c7" stroke="#000000" points="168.337,-122 165.337,-126 144.337,-126 141.337,-122 23.663,-122 23.663,-86 168.337,-86 168.337,-122"/>
<text text-anchor="middle" x="96" y="-99.8" font-family="Times,serif" font-size="14.00" fill="#000000">SettingRoutingModule</text>
</g>
<!-- SettingRoutingModule&#45;&gt;SettingModule -->
<g id="edge15" class="edge">
<title>SettingRoutingModule&#45;&gt;SettingModule</title>
<path fill="none" stroke="#000000" d="M96,-122.3228C96,-145.6602 96,-183 96,-183 96,-183 1106.1828,-183 1106.1828,-183"/>
<polygon fill="#000000" stroke="#000000" points="1106.1828,-186.5001 1116.1828,-183 1106.1828,-179.5001 1106.1828,-186.5001"/>
</g>
</g>
</svg>
