<?xml version="1.0" encoding="UTF-8" standalone="no"?>
<!DOCTYPE svg PUBLIC "-//W3C//DTD SVG 1.1//EN"
 "http://www.w3.org/Graphics/SVG/1.1/DTD/svg11.dtd">
<!-- Generated by graphviz version 2.40.1 (20161225.0304)
 -->
<!-- Title: dependencies Pages: 1 -->
<svg width="811pt" height="211pt"
 viewBox="0.00 0.00 811.00 211.00" xmlns="http://www.w3.org/2000/svg" xmlns:xlink="http://www.w3.org/1999/xlink">
<g id="graph0" class="graph" transform="scale(1 1) rotate(0) translate(4 207)">
<title>dependencies</title>
<polygon fill="#ffffff" stroke="transparent" points="-4,4 -4,-207 807,-207 807,4 -4,4"/>
<text text-anchor="start" x="380.5091" y="-42.4" font-family="sans-serif" font-weight="bold" font-size="14.00" fill="#000000">Legend</text>
<polygon fill="#ffffb3" stroke="transparent" points="167.5,-10 167.5,-30 187.5,-30 187.5,-10 167.5,-10"/>
<text text-anchor="start" x="191.129" y="-15.4" font-family="sans-serif" font-size="14.00" fill="#000000"> &#160;Declarations</text>
<polygon fill="#8dd3c7" stroke="transparent" points="280.5,-10 280.5,-30 300.5,-30 300.5,-10 280.5,-10"/>
<text text-anchor="start" x="304.2251" y="-15.4" font-family="sans-serif" font-size="14.00" fill="#000000"> &#160;Module</text>
<polygon fill="#80b1d3" stroke="transparent" points="366.5,-10 366.5,-30 386.5,-30 386.5,-10 366.5,-10"/>
<text text-anchor="start" x="390.2812" y="-15.4" font-family="sans-serif" font-size="14.00" fill="#000000"> &#160;Bootstrap</text>
<polygon fill="#fdb462" stroke="transparent" points="463.5,-10 463.5,-30 483.5,-30 483.5,-10 463.5,-10"/>
<text text-anchor="start" x="487.1732" y="-15.4" font-family="sans-serif" font-size="14.00" fill="#000000"> &#160;Providers</text>
<polygon fill="#fb8072" stroke="transparent" points="559.5,-10 559.5,-30 579.5,-30 579.5,-10 559.5,-10"/>
<text text-anchor="start" x="583.2258" y="-15.4" font-family="sans-serif" font-size="14.00" fill="#000000"> &#160;Exports</text>
<g id="clust1" class="cluster">
<title>cluster_NotificationModule</title>
<polygon fill="none" stroke="#000000" stroke-dasharray="1,5" points="8,-70 8,-195 795,-195 795,-70 8,-70"/>
</g>
<g id="clust2" class="cluster">
<title>cluster_NotificationModule_declarations</title>
<polygon fill="none" stroke="#000000" points="424,-78 424,-130 787,-130 787,-78 424,-78"/>
</g>
<g id="clust5" class="cluster">
<title>cluster_NotificationModule_imports</title>
<polygon fill="none" stroke="#000000" points="228,-78 228,-130 416,-130 416,-78 228,-78"/>
</g>
<g id="clust8" class="cluster">
<title>cluster_NotificationModule_providers</title>
<polygon fill="none" stroke="#000000" points="16,-78 16,-130 220,-130 220,-78 16,-78"/>
</g>
<!-- NotificationComponent -->
<g id="node1" class="node">
<title>NotificationComponent</title>
<polygon fill="#ffffb3" stroke="#000000" points="779.4818,-122 630.5182,-122 630.5182,-86 779.4818,-86 779.4818,-122"/>
<text text-anchor="middle" x="705" y="-99.8" font-family="Times,serif" font-size="14.00" fill="#000000">NotificationComponent</text>
</g>
<!-- NotificationModule -->
<g id="node3" class="node">
<title>NotificationModule</title>
<polygon fill="#8dd3c7" stroke="#000000" points="485.6994,-187 482.6994,-191 461.6994,-191 458.6994,-187 358.3006,-187 358.3006,-151 485.6994,-151 485.6994,-187"/>
<text text-anchor="middle" x="422" y="-164.8" font-family="Times,serif" font-size="14.00" fill="#000000">NotificationModule</text>
</g>
<!-- NotificationComponent&#45;&gt;NotificationModule -->
<g id="edge1" class="edge">
<title>NotificationComponent&#45;&gt;NotificationModule</title>
<path fill="none" stroke="#000000" d="M705,-122.1061C705,-141.3391 705,-169 705,-169 705,-169 495.8636,-169 495.8636,-169"/>
<polygon fill="#000000" stroke="#000000" points="495.8636,-165.5001 485.8636,-169 495.8636,-172.5001 495.8636,-165.5001"/>
</g>
<!-- NotificationTableComponent -->
<g id="node2" class="node">
<title>NotificationTableComponent</title>
<polygon fill="#ffffb3" stroke="#000000" points="612.3543,-122 431.6457,-122 431.6457,-86 612.3543,-86 612.3543,-122"/>
<text text-anchor="middle" x="522" y="-99.8" font-family="Times,serif" font-size="14.00" fill="#000000">NotificationTableComponent</text>
</g>
<!-- NotificationTableComponent&#45;&gt;NotificationModule -->
<g id="edge2" class="edge">
<title>NotificationTableComponent&#45;&gt;NotificationModule</title>
<path fill="none" stroke="#000000" d="M458.5863,-122.1061C458.5863,-122.1061 458.5863,-140.991 458.5863,-140.991"/>
<polygon fill="#000000" stroke="#000000" points="455.0863,-140.9909 458.5863,-150.991 462.0863,-140.991 455.0863,-140.9909"/>
</g>
<!-- NotificationRoutingModule -->
<g id="node4" class="node">
<title>NotificationRoutingModule</title>
<polygon fill="#8dd3c7" stroke="#000000" points="408.3173,-122 405.3173,-126 384.3173,-126 381.3173,-122 235.6827,-122 235.6827,-86 408.3173,-86 408.3173,-122"/>
<text text-anchor="middle" x="322" y="-99.8" font-family="Times,serif" font-size="14.00" fill="#000000">NotificationRoutingModule</text>
</g>
<!-- NotificationRoutingModule&#45;&gt;NotificationModule -->
<g id="edge3" class="edge">
<title>NotificationRoutingModule&#45;&gt;NotificationModule</title>
<path fill="none" stroke="#000000" d="M383.2795,-122.1061C383.2795,-122.1061 383.2795,-140.991 383.2795,-140.991"/>
<polygon fill="#000000" stroke="#000000" points="379.7795,-140.9909 383.2795,-150.991 386.7795,-140.991 379.7795,-140.9909"/>
</g>
<!-- NotificationsServices -->
<g id="node5" class="node">
<title>NotificationsServices</title>
<ellipse fill="#fdb462" stroke="#000000" cx="118" cy="-104" rx="94.3331" ry="18"/>
<text text-anchor="middle" x="118" y="-99.8" font-family="Times,serif" font-size="14.00" fill="#000000">NotificationsServices</text>
</g>
<!-- NotificationsServices&#45;&gt;NotificationModule -->
<g id="edge4" class="edge">
<title>NotificationsServices&#45;&gt;NotificationModule</title>
<path fill="none" stroke="#000000" d="M118,-122.1061C118,-141.3391 118,-169 118,-169 118,-169 348.2716,-169 348.2716,-169"/>
<polygon fill="#000000" stroke="#000000" points="348.2717,-172.5001 358.2716,-169 348.2716,-165.5001 348.2717,-172.5001"/>
</g>
</g>
</svg>
