<?xml version="1.0" encoding="UTF-8" standalone="no"?>
<!DOCTYPE svg PUBLIC "-//W3C//DTD SVG 1.1//EN"
 "http://www.w3.org/Graphics/SVG/1.1/DTD/svg11.dtd">
<!-- Generated by graphviz version 2.40.1 (20161225.0304)
 -->
<!-- Title: dependencies Pages: 1 -->
<svg width="664pt" height="211pt"
 viewBox="0.00 0.00 664.00 211.00" xmlns="http://www.w3.org/2000/svg" xmlns:xlink="http://www.w3.org/1999/xlink">
<g id="graph0" class="graph" transform="scale(1 1) rotate(0) translate(4 207)">
<title>dependencies</title>
<polygon fill="#ffffff" stroke="transparent" points="-4,4 -4,-207 660,-207 660,4 -4,4"/>
<text text-anchor="start" x="307.0091" y="-42.4" font-family="sans-serif" font-weight="bold" font-size="14.00" fill="#000000">Legend</text>
<polygon fill="#ffffb3" stroke="transparent" points="94,-10 94,-30 114,-30 114,-10 94,-10"/>
<text text-anchor="start" x="117.629" y="-15.4" font-family="sans-serif" font-size="14.00" fill="#000000"> &#160;Declarations</text>
<polygon fill="#8dd3c7" stroke="transparent" points="207,-10 207,-30 227,-30 227,-10 207,-10"/>
<text text-anchor="start" x="230.7251" y="-15.4" font-family="sans-serif" font-size="14.00" fill="#000000"> &#160;Module</text>
<polygon fill="#80b1d3" stroke="transparent" points="293,-10 293,-30 313,-30 313,-10 293,-10"/>
<text text-anchor="start" x="316.7812" y="-15.4" font-family="sans-serif" font-size="14.00" fill="#000000"> &#160;Bootstrap</text>
<polygon fill="#fdb462" stroke="transparent" points="390,-10 390,-30 410,-30 410,-10 390,-10"/>
<text text-anchor="start" x="413.6732" y="-15.4" font-family="sans-serif" font-size="14.00" fill="#000000"> &#160;Providers</text>
<polygon fill="#fb8072" stroke="transparent" points="486,-10 486,-30 506,-30 506,-10 486,-10"/>
<text text-anchor="start" x="509.7258" y="-15.4" font-family="sans-serif" font-size="14.00" fill="#000000"> &#160;Exports</text>
<g id="clust1" class="cluster">
<title>cluster_GkCln85Module</title>
<polygon fill="none" stroke="#000000" stroke-dasharray="1,5" points="8,-70 8,-195 648,-195 648,-70 8,-70"/>
</g>
<g id="clust2" class="cluster">
<title>cluster_GkCln85Module_declarations</title>
<polygon fill="none" stroke="#000000" points="492,-78 492,-130 640,-130 640,-78 492,-78"/>
</g>
<g id="clust4" class="cluster">
<title>cluster_GkCln85Module_imports</title>
<polygon fill="none" stroke="#000000" points="312,-78 312,-130 484,-130 484,-78 312,-78"/>
</g>
<g id="clust7" class="cluster">
<title>cluster_GkCln85Module_providers</title>
<polygon fill="none" stroke="#000000" points="16,-78 16,-130 304,-130 304,-78 16,-78"/>
</g>
<!-- GkCln85Component -->
<g id="node1" class="node">
<title>GkCln85Component</title>
<polygon fill="#ffffb3" stroke="#000000" points="632.1666,-122 499.8334,-122 499.8334,-86 632.1666,-86 632.1666,-122"/>
<text text-anchor="middle" x="566" y="-99.8" font-family="Times,serif" font-size="14.00" fill="#000000">GkCln85Component</text>
</g>
<!-- GkCln85Module -->
<g id="node2" class="node">
<title>GkCln85Module</title>
<polygon fill="#8dd3c7" stroke="#000000" points="369.3837,-187 366.3837,-191 345.3837,-191 342.3837,-187 258.6163,-187 258.6163,-151 369.3837,-151 369.3837,-187"/>
<text text-anchor="middle" x="314" y="-164.8" font-family="Times,serif" font-size="14.00" fill="#000000">GkCln85Module</text>
</g>
<!-- GkCln85Component&#45;&gt;GkCln85Module -->
<g id="edge1" class="edge">
<title>GkCln85Component&#45;&gt;GkCln85Module</title>
<path fill="none" stroke="#000000" d="M566,-122.1061C566,-141.3391 566,-169 566,-169 566,-169 379.6144,-169 379.6144,-169"/>
<polygon fill="#000000" stroke="#000000" points="379.6145,-165.5001 369.6144,-169 379.6144,-172.5001 379.6145,-165.5001"/>
</g>
<!-- GkCln85RoutingModule -->
<g id="node3" class="node">
<title>GkCln85RoutingModule</title>
<polygon fill="#8dd3c7" stroke="#000000" points="476.0014,-122 473.0014,-126 452.0014,-126 449.0014,-122 319.9986,-122 319.9986,-86 476.0014,-86 476.0014,-122"/>
<text text-anchor="middle" x="398" y="-99.8" font-family="Times,serif" font-size="14.00" fill="#000000">GkCln85RoutingModule</text>
</g>
<!-- GkCln85RoutingModule&#45;&gt;GkCln85Module -->
<g id="edge2" class="edge">
<title>GkCln85RoutingModule&#45;&gt;GkCln85Module</title>
<path fill="none" stroke="#000000" d="M344.7206,-122.1061C344.7206,-122.1061 344.7206,-140.991 344.7206,-140.991"/>
<polygon fill="#000000" stroke="#000000" points="341.2206,-140.9909 344.7206,-150.991 348.2206,-140.991 341.2206,-140.9909"/>
</g>
<!-- HelperService -->
<g id="node4" class="node">
<title>HelperService</title>
<ellipse fill="#fdb462" stroke="#000000" cx="230" cy="-104" rx="66.0281" ry="18"/>
<text text-anchor="middle" x="230" y="-99.8" font-family="Times,serif" font-size="14.00" fill="#000000">HelperService</text>
</g>
<!-- HelperService&#45;&gt;GkCln85Module -->
<g id="edge3" class="edge">
<title>HelperService&#45;&gt;GkCln85Module</title>
<path fill="none" stroke="#000000" d="M277.4109,-116.8419C277.4109,-116.8419 277.4109,-140.5231 277.4109,-140.5231"/>
<polygon fill="#000000" stroke="#000000" points="273.911,-140.523 277.4109,-150.5231 280.911,-140.5231 273.911,-140.523"/>
</g>
<!-- IconsService -->
<g id="node5" class="node">
<title>IconsService</title>
<ellipse fill="#fdb462" stroke="#000000" cx="85" cy="-104" rx="60.812" ry="18"/>
<text text-anchor="middle" x="85" y="-99.8" font-family="Times,serif" font-size="14.00" fill="#000000">IconsService</text>
</g>
<!-- IconsService&#45;&gt;GkCln85Module -->
<g id="edge4" class="edge">
<title>IconsService&#45;&gt;GkCln85Module</title>
<path fill="none" stroke="#000000" d="M85,-122.1061C85,-141.3391 85,-169 85,-169 85,-169 248.5655,-169 248.5655,-169"/>
<polygon fill="#000000" stroke="#000000" points="248.5655,-172.5001 258.5655,-169 248.5655,-165.5001 248.5655,-172.5001"/>
</g>
</g>
</svg>
