<?xml version="1.0" encoding="UTF-8" standalone="no"?>
<!DOCTYPE svg PUBLIC "-//W3C//DTD SVG 1.1//EN"
 "http://www.w3.org/Graphics/SVG/1.1/DTD/svg11.dtd">
<!-- Generated by graphviz version 2.40.1 (20161225.0304)
 -->
<!-- Title: dependencies Pages: 1 -->
<svg width="1023pt" height="284pt"
 viewBox="0.00 0.00 1023.00 284.00" xmlns="http://www.w3.org/2000/svg" xmlns:xlink="http://www.w3.org/1999/xlink">
<g id="graph0" class="graph" transform="scale(1 1) rotate(0) translate(4 280)">
<title>dependencies</title>
<polygon fill="#ffffff" stroke="transparent" points="-4,4 -4,-280 1019,-280 1019,4 -4,4"/>
<text text-anchor="start" x="486.5091" y="-42.4" font-family="sans-serif" font-weight="bold" font-size="14.00" fill="#000000">Legend</text>
<polygon fill="#ffffb3" stroke="transparent" points="273.5,-10 273.5,-30 293.5,-30 293.5,-10 273.5,-10"/>
<text text-anchor="start" x="297.129" y="-15.4" font-family="sans-serif" font-size="14.00" fill="#000000"> &#160;Declarations</text>
<polygon fill="#8dd3c7" stroke="transparent" points="386.5,-10 386.5,-30 406.5,-30 406.5,-10 386.5,-10"/>
<text text-anchor="start" x="410.2251" y="-15.4" font-family="sans-serif" font-size="14.00" fill="#000000"> &#160;Module</text>
<polygon fill="#80b1d3" stroke="transparent" points="472.5,-10 472.5,-30 492.5,-30 492.5,-10 472.5,-10"/>
<text text-anchor="start" x="496.2812" y="-15.4" font-family="sans-serif" font-size="14.00" fill="#000000"> &#160;Bootstrap</text>
<polygon fill="#fdb462" stroke="transparent" points="569.5,-10 569.5,-30 589.5,-30 589.5,-10 569.5,-10"/>
<text text-anchor="start" x="593.1732" y="-15.4" font-family="sans-serif" font-size="14.00" fill="#000000"> &#160;Providers</text>
<polygon fill="#fb8072" stroke="transparent" points="665.5,-10 665.5,-30 685.5,-30 685.5,-10 665.5,-10"/>
<text text-anchor="start" x="689.2258" y="-15.4" font-family="sans-serif" font-size="14.00" fill="#000000"> &#160;Exports</text>
<g id="clust1" class="cluster">
<title>cluster_GkClnSharedModule</title>
<polygon fill="none" stroke="#000000" stroke-dasharray="1,5" points="8,-70 8,-268 1007,-268 1007,-70 8,-70"/>
</g>
<g id="clust2" class="cluster">
<title>cluster_GkClnSharedModule_declarations</title>
<polygon fill="none" stroke="#000000" points="891,-78 891,-130 999,-130 999,-78 891,-78"/>
</g>
<g id="clust4" class="cluster">
<title>cluster_GkClnSharedModule_imports</title>
<polygon fill="none" stroke="#000000" points="206,-78 206,-130 883,-130 883,-78 206,-78"/>
</g>
<g id="clust5" class="cluster">
<title>cluster_GkClnSharedModule_exports</title>
<polygon fill="none" stroke="#000000" points="492,-208 492,-260 604,-260 604,-208 492,-208"/>
</g>
<g id="clust7" class="cluster">
<title>cluster_GkClnSharedModule_providers</title>
<polygon fill="none" stroke="#000000" points="16,-78 16,-130 198,-130 198,-78 16,-78"/>
</g>
<!-- GkClnShared -->
<g id="node1" class="node">
<title>GkClnShared</title>
<polygon fill="#ffffb3" stroke="#000000" points="991.2064,-122 898.7936,-122 898.7936,-86 991.2064,-86 991.2064,-122"/>
<text text-anchor="middle" x="945" y="-99.8" font-family="Times,serif" font-size="14.00" fill="#000000">GkClnShared</text>
</g>
<!-- GkClnSharedModule -->
<g id="node2" class="node">
<title>GkClnSharedModule</title>
<polygon fill="#8dd3c7" stroke="#000000" points="615.7562,-187 612.7562,-191 591.7562,-191 588.7562,-187 480.2438,-187 480.2438,-151 615.7562,-151 615.7562,-187"/>
<text text-anchor="middle" x="548" y="-164.8" font-family="Times,serif" font-size="14.00" fill="#000000">GkClnSharedModule</text>
</g>
<!-- GkClnShared&#45;&gt;GkClnSharedModule -->
<g id="edge1" class="edge">
<title>GkClnShared&#45;&gt;GkClnSharedModule</title>
<path fill="none" stroke="#000000" d="M945,-122.2843C945,-143.3211 945,-175 945,-175 945,-175 625.7956,-175 625.7956,-175"/>
<polygon fill="#000000" stroke="#000000" points="625.7957,-171.5001 615.7956,-175 625.7956,-178.5001 625.7957,-171.5001"/>
</g>
<!-- GkClnShared  -->
<g id="node8" class="node">
<title>GkClnShared </title>
<polygon fill="#fb8072" stroke="#000000" points="595.7066,-252 500.2934,-252 500.2934,-216 595.7066,-216 595.7066,-252"/>
<text text-anchor="middle" x="548" y="-229.8" font-family="Times,serif" font-size="14.00" fill="#000000">GkClnShared </text>
</g>
<!-- GkClnSharedModule&#45;&gt;GkClnShared  -->
<g id="edge7" class="edge">
<title>GkClnSharedModule&#45;&gt;GkClnShared </title>
<path fill="none" stroke="#000000" stroke-dasharray="5,2" d="M548,-187.1061C548,-187.1061 548,-205.991 548,-205.991"/>
<polygon fill="#000000" stroke="#000000" points="544.5001,-205.9909 548,-215.991 551.5001,-205.991 544.5001,-205.9909"/>
</g>
<!-- NgaModule -->
<g id="node3" class="node">
<title>NgaModule</title>
<polygon fill="#8dd3c7" stroke="#000000" points="875.3711,-122 872.3711,-126 851.3711,-126 848.3711,-122 792.6289,-122 792.6289,-86 875.3711,-86 875.3711,-122"/>
<text text-anchor="middle" x="834" y="-99.8" font-family="Times,serif" font-size="14.00" fill="#000000">NgaModule</text>
</g>
<!-- NgaModule&#45;&gt;GkClnSharedModule -->
<g id="edge2" class="edge">
<title>NgaModule&#45;&gt;GkClnSharedModule</title>
<path fill="none" stroke="#000000" d="M834,-122.0225C834,-139.3734 834,-163 834,-163 834,-163 625.778,-163 625.778,-163"/>
<polygon fill="#000000" stroke="#000000" points="625.778,-159.5001 615.778,-163 625.778,-166.5001 625.778,-159.5001"/>
</g>
<!-- HIndividualNavModule -->
<g id="node4" class="node">
<title>HIndividualNavModule</title>
<polygon fill="#8dd3c7" stroke="#000000" points="774.0253,-122 771.0253,-126 750.0253,-126 747.0253,-122 623.9747,-122 623.9747,-86 774.0253,-86 774.0253,-122"/>
<text text-anchor="middle" x="699" y="-99.8" font-family="Times,serif" font-size="14.00" fill="#000000">HIndividualNavModule</text>
</g>
<!-- HIndividualNavModule&#45;&gt;GkClnSharedModule -->
<g id="edge3" class="edge">
<title>HIndividualNavModule&#45;&gt;GkClnSharedModule</title>
<path fill="none" stroke="#000000" d="M623.832,-104C615.993,-104 610.8209,-104 610.8209,-104 610.8209,-104 610.8209,-140.8939 610.8209,-140.8939"/>
<polygon fill="#000000" stroke="#000000" points="607.3209,-140.8938 610.8209,-150.8939 614.3209,-140.8939 607.3209,-140.8938"/>
</g>
<!-- HAddressModule -->
<g id="node5" class="node">
<title>HAddressModule</title>
<polygon fill="#8dd3c7" stroke="#000000" points="605.5284,-122 602.5284,-126 581.5284,-126 578.5284,-122 490.4716,-122 490.4716,-86 605.5284,-86 605.5284,-122"/>
<text text-anchor="middle" x="548" y="-99.8" font-family="Times,serif" font-size="14.00" fill="#000000">HAddressModule</text>
</g>
<!-- HAddressModule&#45;&gt;GkClnSharedModule -->
<g id="edge4" class="edge">
<title>HAddressModule&#45;&gt;GkClnSharedModule</title>
<path fill="none" stroke="#000000" d="M548,-122.1061C548,-122.1061 548,-140.991 548,-140.991"/>
<polygon fill="#000000" stroke="#000000" points="544.5001,-140.9909 548,-150.991 551.5001,-140.991 544.5001,-140.9909"/>
</g>
<!-- HContactModule -->
<g id="node6" class="node">
<title>HContactModule</title>
<polygon fill="#8dd3c7" stroke="#000000" points="472.7036,-122 469.7036,-126 448.7036,-126 445.7036,-122 359.2964,-122 359.2964,-86 472.7036,-86 472.7036,-122"/>
<text text-anchor="middle" x="416" y="-99.8" font-family="Times,serif" font-size="14.00" fill="#000000">HContactModule</text>
</g>
<!-- HContactModule&#45;&gt;GkClnSharedModule -->
<g id="edge5" class="edge">
<title>HContactModule&#45;&gt;GkClnSharedModule</title>
<path fill="none" stroke="#000000" d="M472.8113,-104C480.1535,-104 485.1792,-104 485.1792,-104 485.1792,-104 485.1792,-140.8939 485.1792,-140.8939"/>
<polygon fill="#000000" stroke="#000000" points="481.6792,-140.8938 485.1792,-150.8939 488.6792,-140.8939 481.6792,-140.8938"/>
</g>
<!-- GkClnFormModule -->
<g id="node7" class="node">
<title>GkClnFormModule</title>
<polygon fill="#8dd3c7" stroke="#000000" points="341.7176,-122 338.7176,-126 317.7176,-126 314.7176,-122 214.2824,-122 214.2824,-86 341.7176,-86 341.7176,-122"/>
<text text-anchor="middle" x="278" y="-99.8" font-family="Times,serif" font-size="14.00" fill="#000000">GkClnFormModule</text>
</g>
<!-- GkClnFormModule&#45;&gt;GkClnSharedModule -->
<g id="edge6" class="edge">
<title>GkClnFormModule&#45;&gt;GkClnSharedModule</title>
<path fill="none" stroke="#000000" d="M278,-122.0225C278,-139.3734 278,-163 278,-163 278,-163 470.2161,-163 470.2161,-163"/>
<polygon fill="#000000" stroke="#000000" points="470.2161,-166.5001 480.2161,-163 470.2161,-159.5001 470.2161,-166.5001"/>
</g>
<!-- GkClientsServices -->
<g id="node9" class="node">
<title>GkClientsServices</title>
<ellipse fill="#fdb462" stroke="#000000" cx="107" cy="-104" rx="82.8187" ry="18"/>
<text text-anchor="middle" x="107" y="-99.8" font-family="Times,serif" font-size="14.00" fill="#000000">GkClientsServices</text>
</g>
<!-- GkClientsServices&#45;&gt;GkClnSharedModule -->
<g id="edge8" class="edge">
<title>GkClientsServices&#45;&gt;GkClnSharedModule</title>
<path fill="none" stroke="#000000" d="M107,-122.2843C107,-143.3211 107,-175 107,-175 107,-175 470.0602,-175 470.0602,-175"/>
<polygon fill="#000000" stroke="#000000" points="470.0602,-178.5001 480.0602,-175 470.0602,-171.5001 470.0602,-178.5001"/>
</g>
</g>
</svg>
