<?xml version="1.0" encoding="UTF-8" standalone="no"?>
<!DOCTYPE svg PUBLIC "-//W3C//DTD SVG 1.1//EN"
 "http://www.w3.org/Graphics/SVG/1.1/DTD/svg11.dtd">
<!-- Generated by graphviz version 2.40.1 (20161225.0304)
 -->
<!-- Title: dependencies Pages: 1 -->
<svg width="980pt" height="284pt"
 viewBox="0.00 0.00 980.00 284.00" xmlns="http://www.w3.org/2000/svg" xmlns:xlink="http://www.w3.org/1999/xlink">
<g id="graph0" class="graph" transform="scale(1 1) rotate(0) translate(4 280)">
<title>dependencies</title>
<polygon fill="#ffffff" stroke="transparent" points="-4,4 -4,-280 976,-280 976,4 -4,4"/>
<text text-anchor="start" x="465.0091" y="-42.4" font-family="sans-serif" font-weight="bold" font-size="14.00" fill="#000000">Legend</text>
<polygon fill="#ffffb3" stroke="transparent" points="252,-10 252,-30 272,-30 272,-10 252,-10"/>
<text text-anchor="start" x="275.629" y="-15.4" font-family="sans-serif" font-size="14.00" fill="#000000"> &#160;Declarations</text>
<polygon fill="#8dd3c7" stroke="transparent" points="365,-10 365,-30 385,-30 385,-10 365,-10"/>
<text text-anchor="start" x="388.7251" y="-15.4" font-family="sans-serif" font-size="14.00" fill="#000000"> &#160;Module</text>
<polygon fill="#80b1d3" stroke="transparent" points="451,-10 451,-30 471,-30 471,-10 451,-10"/>
<text text-anchor="start" x="474.7812" y="-15.4" font-family="sans-serif" font-size="14.00" fill="#000000"> &#160;Bootstrap</text>
<polygon fill="#fdb462" stroke="transparent" points="548,-10 548,-30 568,-30 568,-10 548,-10"/>
<text text-anchor="start" x="571.6732" y="-15.4" font-family="sans-serif" font-size="14.00" fill="#000000"> &#160;Providers</text>
<polygon fill="#fb8072" stroke="transparent" points="644,-10 644,-30 664,-30 664,-10 644,-10"/>
<text text-anchor="start" x="667.7258" y="-15.4" font-family="sans-serif" font-size="14.00" fill="#000000"> &#160;Exports</text>
<g id="clust1" class="cluster">
<title>cluster_GkClnSharedModule</title>
<polygon fill="none" stroke="#000000" stroke-dasharray="1,5" points="8,-70 8,-268 964,-268 964,-70 8,-70"/>
</g>
<g id="clust2" class="cluster">
<title>cluster_GkClnSharedModule_declarations</title>
<polygon fill="none" stroke="#000000" points="746,-78 746,-130 956,-130 956,-78 746,-78"/>
</g>
<g id="clust5" class="cluster">
<title>cluster_GkClnSharedModule_imports</title>
<polygon fill="none" stroke="#000000" points="206,-78 206,-130 738,-130 738,-78 206,-78"/>
</g>
<g id="clust6" class="cluster">
<title>cluster_GkClnSharedModule_exports</title>
<polygon fill="none" stroke="#000000" points="447,-208 447,-260 664,-260 664,-208 447,-208"/>
</g>
<g id="clust8" class="cluster">
<title>cluster_GkClnSharedModule_providers</title>
<polygon fill="none" stroke="#000000" points="16,-78 16,-130 198,-130 198,-78 16,-78"/>
</g>
<!-- GkClnShared -->
<g id="node1" class="node">
<title>GkClnShared</title>
<polygon fill="#ffffb3" stroke="#000000" points="948.2064,-122 855.7936,-122 855.7936,-86 948.2064,-86 948.2064,-122"/>
<text text-anchor="middle" x="902" y="-99.8" font-family="Times,serif" font-size="14.00" fill="#000000">GkClnShared</text>
</g>
<!-- GkClnSharedModule -->
<g id="node3" class="node">
<title>GkClnSharedModule</title>
<polygon fill="#8dd3c7" stroke="#000000" points="621.7562,-187 618.7562,-191 597.7562,-191 594.7562,-187 486.2438,-187 486.2438,-151 621.7562,-151 621.7562,-187"/>
<text text-anchor="middle" x="554" y="-164.8" font-family="Times,serif" font-size="14.00" fill="#000000">GkClnSharedModule</text>
</g>
<!-- GkClnShared&#45;&gt;GkClnSharedModule -->
<g id="edge1" class="edge">
<title>GkClnShared&#45;&gt;GkClnSharedModule</title>
<path fill="none" stroke="#000000" d="M902,-122.2921C902,-144.2057 902,-178 902,-178 902,-178 631.924,-178 631.924,-178"/>
<polygon fill="#000000" stroke="#000000" points="631.9241,-174.5001 621.924,-178 631.924,-181.5001 631.9241,-174.5001"/>
</g>
<!-- GkClnForm -->
<g id="node2" class="node">
<title>GkClnForm</title>
<polygon fill="#ffffb3" stroke="#000000" points="837.6683,-122 754.3317,-122 754.3317,-86 837.6683,-86 837.6683,-122"/>
<text text-anchor="middle" x="796" y="-99.8" font-family="Times,serif" font-size="14.00" fill="#000000">GkClnForm</text>
</g>
<!-- GkClnForm&#45;&gt;GkClnSharedModule -->
<g id="edge2" class="edge">
<title>GkClnForm&#45;&gt;GkClnSharedModule</title>
<path fill="none" stroke="#000000" d="M796,-122.1061C796,-141.3391 796,-169 796,-169 796,-169 632.0545,-169 632.0545,-169"/>
<polygon fill="#000000" stroke="#000000" points="632.0545,-165.5001 622.0545,-169 632.0545,-172.5001 632.0545,-165.5001"/>
</g>
<!-- GkClnShared  -->
<g id="node8" class="node">
<title>GkClnShared </title>
<polygon fill="#fb8072" stroke="#000000" points="655.7066,-252 560.2934,-252 560.2934,-216 655.7066,-216 655.7066,-252"/>
<text text-anchor="middle" x="608" y="-229.8" font-family="Times,serif" font-size="14.00" fill="#000000">GkClnShared </text>
</g>
<!-- GkClnSharedModule&#45;&gt;GkClnShared  -->
<g id="edge7" class="edge">
<title>GkClnSharedModule&#45;&gt;GkClnShared </title>
<path fill="none" stroke="#000000" stroke-dasharray="5,2" d="M591.0125,-187.1061C591.0125,-187.1061 591.0125,-205.991 591.0125,-205.991"/>
<polygon fill="#000000" stroke="#000000" points="587.5125,-205.9909 591.0125,-215.991 594.5125,-205.991 587.5125,-205.9909"/>
</g>
<!-- GkClnForm  -->
<g id="node9" class="node">
<title>GkClnForm </title>
<polygon fill="#fb8072" stroke="#000000" points="542.6678,-252 455.3322,-252 455.3322,-216 542.6678,-216 542.6678,-252"/>
<text text-anchor="middle" x="499" y="-229.8" font-family="Times,serif" font-size="14.00" fill="#000000">GkClnForm </text>
</g>
<!-- GkClnSharedModule&#45;&gt;GkClnForm  -->
<g id="edge8" class="edge">
<title>GkClnSharedModule&#45;&gt;GkClnForm </title>
<path fill="none" stroke="#000000" stroke-dasharray="5,2" d="M514.3529,-187.1061C514.3529,-187.1061 514.3529,-205.991 514.3529,-205.991"/>
<polygon fill="#000000" stroke="#000000" points="510.853,-205.9909 514.3529,-215.991 517.853,-205.991 510.853,-205.9909"/>
</g>
<!-- NgaModule -->
<g id="node4" class="node">
<title>NgaModule</title>
<polygon fill="#8dd3c7" stroke="#000000" points="730.3711,-122 727.3711,-126 706.3711,-126 703.3711,-122 647.6289,-122 647.6289,-86 730.3711,-86 730.3711,-122"/>
<text text-anchor="middle" x="689" y="-99.8" font-family="Times,serif" font-size="14.00" fill="#000000">NgaModule</text>
</g>
<!-- NgaModule&#45;&gt;GkClnSharedModule -->
<g id="edge3" class="edge">
<title>NgaModule&#45;&gt;GkClnSharedModule</title>
<path fill="none" stroke="#000000" d="M651.7088,-122.027C651.7088,-138.3976 651.7088,-160 651.7088,-160 651.7088,-160 631.862,-160 631.862,-160"/>
<polygon fill="#000000" stroke="#000000" points="631.8621,-156.5001 621.862,-160 631.862,-163.5001 631.8621,-156.5001"/>
</g>
<!-- HIndividualNavModule -->
<g id="node5" class="node">
<title>HIndividualNavModule</title>
<polygon fill="#8dd3c7" stroke="#000000" points="629.0253,-122 626.0253,-126 605.0253,-126 602.0253,-122 478.9747,-122 478.9747,-86 629.0253,-86 629.0253,-122"/>
<text text-anchor="middle" x="554" y="-99.8" font-family="Times,serif" font-size="14.00" fill="#000000">HIndividualNavModule</text>
</g>
<!-- HIndividualNavModule&#45;&gt;GkClnSharedModule -->
<g id="edge4" class="edge">
<title>HIndividualNavModule&#45;&gt;GkClnSharedModule</title>
<path fill="none" stroke="#000000" d="M554,-122.1061C554,-122.1061 554,-140.991 554,-140.991"/>
<polygon fill="#000000" stroke="#000000" points="550.5001,-140.9909 554,-150.991 557.5001,-140.991 550.5001,-140.9909"/>
</g>
<!-- HAddressModule -->
<g id="node6" class="node">
<title>HAddressModule</title>
<polygon fill="#8dd3c7" stroke="#000000" points="460.5284,-122 457.5284,-126 436.5284,-126 433.5284,-122 345.4716,-122 345.4716,-86 460.5284,-86 460.5284,-122"/>
<text text-anchor="middle" x="403" y="-99.8" font-family="Times,serif" font-size="14.00" fill="#000000">HAddressModule</text>
</g>
<!-- HAddressModule&#45;&gt;GkClnSharedModule -->
<g id="edge5" class="edge">
<title>HAddressModule&#45;&gt;GkClnSharedModule</title>
<path fill="none" stroke="#000000" d="M400.3263,-122.027C400.3263,-138.3976 400.3263,-160 400.3263,-160 400.3263,-160 476.1491,-160 476.1491,-160"/>
<polygon fill="#000000" stroke="#000000" points="476.1492,-163.5001 486.1491,-160 476.1491,-156.5001 476.1492,-163.5001"/>
</g>
<!-- HContactModule -->
<g id="node7" class="node">
<title>HContactModule</title>
<polygon fill="#8dd3c7" stroke="#000000" points="327.7036,-122 324.7036,-126 303.7036,-126 300.7036,-122 214.2964,-122 214.2964,-86 327.7036,-86 327.7036,-122"/>
<text text-anchor="middle" x="271" y="-99.8" font-family="Times,serif" font-size="14.00" fill="#000000">HContactModule</text>
</g>
<!-- HContactModule&#45;&gt;GkClnSharedModule -->
<g id="edge6" class="edge">
<title>HContactModule&#45;&gt;GkClnSharedModule</title>
<path fill="none" stroke="#000000" d="M271,-122.1061C271,-141.3391 271,-169 271,-169 271,-169 476.2144,-169 476.2144,-169"/>
<polygon fill="#000000" stroke="#000000" points="476.2145,-172.5001 486.2144,-169 476.2144,-165.5001 476.2145,-172.5001"/>
</g>
<!-- GkClientsServices -->
<g id="node10" class="node">
<title>GkClientsServices</title>
<ellipse fill="#fdb462" stroke="#000000" cx="107" cy="-104" rx="82.8187" ry="18"/>
<text text-anchor="middle" x="107" y="-99.8" font-family="Times,serif" font-size="14.00" fill="#000000">GkClientsServices</text>
</g>
<!-- GkClientsServices&#45;&gt;GkClnSharedModule -->
<g id="edge9" class="edge">
<title>GkClientsServices&#45;&gt;GkClnSharedModule</title>
<path fill="none" stroke="#000000" d="M107,-122.2921C107,-144.2057 107,-178 107,-178 107,-178 476.1103,-178 476.1103,-178"/>
<polygon fill="#000000" stroke="#000000" points="476.1104,-181.5001 486.1103,-178 476.1103,-174.5001 476.1104,-181.5001"/>
</g>
</g>
</svg>
