<?xml version="1.0" encoding="UTF-8" standalone="no"?>
<!DOCTYPE svg PUBLIC "-//W3C//DTD SVG 1.1//EN"
 "http://www.w3.org/Graphics/SVG/1.1/DTD/svg11.dtd">
<!-- Generated by graphviz version 2.40.1 (20161225.0304)
 -->
<!-- Title: dependencies Pages: 1 -->
<svg width="504pt" height="284pt"
 viewBox="0.00 0.00 504.00 284.00" xmlns="http://www.w3.org/2000/svg" xmlns:xlink="http://www.w3.org/1999/xlink">
<g id="graph0" class="graph" transform="scale(1 1) rotate(0) translate(4 280)">
<title>dependencies</title>
<polygon fill="#ffffff" stroke="transparent" points="-4,4 -4,-280 500,-280 500,4 -4,4"/>
<text text-anchor="start" x="227.0091" y="-42.4" font-family="sans-serif" font-weight="bold" font-size="14.00" fill="#000000">Legend</text>
<polygon fill="#ffffb3" stroke="transparent" points="14,-10 14,-30 34,-30 34,-10 14,-10"/>
<text text-anchor="start" x="37.629" y="-15.4" font-family="sans-serif" font-size="14.00" fill="#000000"> &#160;Declarations</text>
<polygon fill="#8dd3c7" stroke="transparent" points="127,-10 127,-30 147,-30 147,-10 127,-10"/>
<text text-anchor="start" x="150.7251" y="-15.4" font-family="sans-serif" font-size="14.00" fill="#000000"> &#160;Module</text>
<polygon fill="#80b1d3" stroke="transparent" points="213,-10 213,-30 233,-30 233,-10 213,-10"/>
<text text-anchor="start" x="236.7812" y="-15.4" font-family="sans-serif" font-size="14.00" fill="#000000"> &#160;Bootstrap</text>
<polygon fill="#fdb462" stroke="transparent" points="310,-10 310,-30 330,-30 330,-10 310,-10"/>
<text text-anchor="start" x="333.6732" y="-15.4" font-family="sans-serif" font-size="14.00" fill="#000000"> &#160;Providers</text>
<polygon fill="#fb8072" stroke="transparent" points="406,-10 406,-30 426,-30 426,-10 406,-10"/>
<text text-anchor="start" x="429.7258" y="-15.4" font-family="sans-serif" font-size="14.00" fill="#000000"> &#160;Exports</text>
<g id="clust1" class="cluster">
<title>cluster_HRequestApprovalFlowModule</title>
<polygon fill="none" stroke="#000000" stroke-dasharray="1,5" points="70,-70 70,-268 426,-268 426,-70 70,-70"/>
</g>
<g id="clust2" class="cluster">
<title>cluster_HRequestApprovalFlowModule_declarations</title>
<polygon fill="none" stroke="#000000" points="250,-78 250,-130 418,-130 418,-78 250,-78"/>
</g>
<g id="clust4" class="cluster">
<title>cluster_HRequestApprovalFlowModule_imports</title>
<polygon fill="none" stroke="#000000" points="78,-78 78,-130 242,-130 242,-78 78,-78"/>
</g>
<g id="clust5" class="cluster">
<title>cluster_HRequestApprovalFlowModule_exports</title>
<polygon fill="none" stroke="#000000" points="162,-208 162,-260 334,-260 334,-208 162,-208"/>
</g>
<!-- HRequestApprovalFlow -->
<g id="node1" class="node">
<title>HRequestApprovalFlow</title>
<polygon fill="#ffffb3" stroke="#000000" points="410.3599,-122 257.6401,-122 257.6401,-86 410.3599,-86 410.3599,-122"/>
<text text-anchor="middle" x="334" y="-99.8" font-family="Times,serif" font-size="14.00" fill="#000000">HRequestApprovalFlow</text>
</g>
<!-- HRequestApprovalFlowModule -->
<g id="node2" class="node">
<title>HRequestApprovalFlowModule</title>
<polygon fill="#8dd3c7" stroke="#000000" points="346.41,-187 343.41,-191 322.41,-191 319.41,-187 149.59,-187 149.59,-151 346.41,-151 346.41,-187"/>
<text text-anchor="middle" x="248" y="-164.8" font-family="Times,serif" font-size="14.00" fill="#000000">HRequestApprovalFlowModule</text>
</g>
<!-- HRequestApprovalFlow&#45;&gt;HRequestApprovalFlowModule -->
<g id="edge1" class="edge">
<title>HRequestApprovalFlow&#45;&gt;HRequestApprovalFlowModule</title>
<path fill="none" stroke="#000000" d="M301.8875,-122.1061C301.8875,-122.1061 301.8875,-140.991 301.8875,-140.991"/>
<polygon fill="#000000" stroke="#000000" points="298.3875,-140.9909 301.8875,-150.991 305.3875,-140.991 298.3875,-140.9909"/>
</g>
<!-- HRequestApprovalFlow  -->
<g id="node4" class="node">
<title>HRequestApprovalFlow </title>
<polygon fill="#fb8072" stroke="#000000" points="326.3602,-252 169.6398,-252 169.6398,-216 326.3602,-216 326.3602,-252"/>
<text text-anchor="middle" x="248" y="-229.8" font-family="Times,serif" font-size="14.00" fill="#000000">HRequestApprovalFlow </text>
</g>
<!-- HRequestApprovalFlowModule&#45;&gt;HRequestApprovalFlow  -->
<g id="edge3" class="edge">
<title>HRequestApprovalFlowModule&#45;&gt;HRequestApprovalFlow </title>
<path fill="none" stroke="#000000" stroke-dasharray="5,2" d="M248,-187.1061C248,-187.1061 248,-205.991 248,-205.991"/>
<polygon fill="#000000" stroke="#000000" points="244.5001,-205.9909 248,-215.991 251.5001,-205.991 244.5001,-205.9909"/>
</g>
<!-- AppTranslationModule -->
<g id="node3" class="node">
<title>AppTranslationModule</title>
<polygon fill="#8dd3c7" stroke="#000000" points="233.9158,-122 230.9158,-126 209.9158,-126 206.9158,-122 86.0842,-122 86.0842,-86 233.9158,-86 233.9158,-122"/>
<text text-anchor="middle" x="160" y="-99.8" font-family="Times,serif" font-size="14.00" fill="#000000">AppTranslationModule</text>
</g>
<!-- AppTranslationModule&#45;&gt;HRequestApprovalFlowModule -->
<g id="edge2" class="edge">
<title>AppTranslationModule&#45;&gt;HRequestApprovalFlowModule</title>
<path fill="none" stroke="#000000" d="M191.7514,-122.1061C191.7514,-122.1061 191.7514,-140.991 191.7514,-140.991"/>
<polygon fill="#000000" stroke="#000000" points="188.2515,-140.9909 191.7514,-150.991 195.2515,-140.991 188.2515,-140.9909"/>
</g>
</g>
</svg>
