<?xml version="1.0" encoding="UTF-8" standalone="no"?>
<!DOCTYPE svg PUBLIC "-//W3C//DTD SVG 1.1//EN"
 "http://www.w3.org/Graphics/SVG/1.1/DTD/svg11.dtd">
<!-- Generated by graphviz version 2.40.1 (20161225.0304)
 -->
<!-- Title: dependencies Pages: 1 -->
<svg width="588pt" height="284pt"
 viewBox="0.00 0.00 588.00 284.00" xmlns="http://www.w3.org/2000/svg" xmlns:xlink="http://www.w3.org/1999/xlink">
<g id="graph0" class="graph" transform="scale(1 1) rotate(0) translate(4 280)">
<title>dependencies</title>
<polygon fill="#ffffff" stroke="transparent" points="-4,4 -4,-280 584,-280 584,4 -4,4"/>
<text text-anchor="start" x="269.0091" y="-42.4" font-family="sans-serif" font-weight="bold" font-size="14.00" fill="#000000">Legend</text>
<polygon fill="#ffffb3" stroke="transparent" points="56,-10 56,-30 76,-30 76,-10 56,-10"/>
<text text-anchor="start" x="79.629" y="-15.4" font-family="sans-serif" font-size="14.00" fill="#000000"> &#160;Declarations</text>
<polygon fill="#8dd3c7" stroke="transparent" points="169,-10 169,-30 189,-30 189,-10 169,-10"/>
<text text-anchor="start" x="192.7251" y="-15.4" font-family="sans-serif" font-size="14.00" fill="#000000"> &#160;Module</text>
<polygon fill="#80b1d3" stroke="transparent" points="255,-10 255,-30 275,-30 275,-10 255,-10"/>
<text text-anchor="start" x="278.7812" y="-15.4" font-family="sans-serif" font-size="14.00" fill="#000000"> &#160;Bootstrap</text>
<polygon fill="#fdb462" stroke="transparent" points="352,-10 352,-30 372,-30 372,-10 352,-10"/>
<text text-anchor="start" x="375.6732" y="-15.4" font-family="sans-serif" font-size="14.00" fill="#000000"> &#160;Providers</text>
<polygon fill="#fb8072" stroke="transparent" points="448,-10 448,-30 468,-30 468,-10 448,-10"/>
<text text-anchor="start" x="471.7258" y="-15.4" font-family="sans-serif" font-size="14.00" fill="#000000"> &#160;Exports</text>
<g id="clust1" class="cluster">
<title>cluster_HDashboardKPIModule</title>
<polygon fill="none" stroke="#000000" stroke-dasharray="1,5" points="8,-70 8,-268 572,-268 572,-70 8,-70"/>
</g>
<g id="clust2" class="cluster">
<title>cluster_HDashboardKPIModule_declarations</title>
<polygon fill="none" stroke="#000000" points="374,-78 374,-130 564,-130 564,-78 374,-78"/>
</g>
<g id="clust4" class="cluster">
<title>cluster_HDashboardKPIModule_imports</title>
<polygon fill="none" stroke="#000000" points="162,-78 162,-130 366,-130 366,-78 162,-78"/>
</g>
<g id="clust5" class="cluster">
<title>cluster_HDashboardKPIModule_exports</title>
<polygon fill="none" stroke="#000000" points="167,-208 167,-260 361,-260 361,-208 167,-208"/>
</g>
<g id="clust7" class="cluster">
<title>cluster_HDashboardKPIModule_providers</title>
<polygon fill="none" stroke="#000000" points="16,-78 16,-130 154,-130 154,-78 16,-78"/>
</g>
<!-- HDashboardKPIComponent -->
<g id="node1" class="node">
<title>HDashboardKPIComponent</title>
<polygon fill="#ffffb3" stroke="#000000" points="556.1302,-122 381.8698,-122 381.8698,-86 556.1302,-86 556.1302,-122"/>
<text text-anchor="middle" x="469" y="-99.8" font-family="Times,serif" font-size="14.00" fill="#000000">HDashboardKPIComponent</text>
</g>
<!-- HDashboardKPIModule -->
<g id="node2" class="node">
<title>HDashboardKPIModule</title>
<polygon fill="#8dd3c7" stroke="#000000" points="340.3473,-187 337.3473,-191 316.3473,-191 313.3473,-187 187.6527,-187 187.6527,-151 340.3473,-151 340.3473,-187"/>
<text text-anchor="middle" x="264" y="-164.8" font-family="Times,serif" font-size="14.00" fill="#000000">HDashboardKPIModule</text>
</g>
<!-- HDashboardKPIComponent&#45;&gt;HDashboardKPIModule -->
<g id="edge1" class="edge">
<title>HDashboardKPIComponent&#45;&gt;HDashboardKPIModule</title>
<path fill="none" stroke="#000000" d="M469,-122.1061C469,-141.3391 469,-169 469,-169 469,-169 350.626,-169 350.626,-169"/>
<polygon fill="#000000" stroke="#000000" points="350.626,-165.5001 340.626,-169 350.6259,-172.5001 350.626,-165.5001"/>
</g>
<!-- HDashboardKPIComponent  -->
<g id="node4" class="node">
<title>HDashboardKPIComponent </title>
<polygon fill="#fb8072" stroke="#000000" points="353.1298,-252 174.8702,-252 174.8702,-216 353.1298,-216 353.1298,-252"/>
<text text-anchor="middle" x="264" y="-229.8" font-family="Times,serif" font-size="14.00" fill="#000000">HDashboardKPIComponent </text>
</g>
<!-- HDashboardKPIModule&#45;&gt;HDashboardKPIComponent  -->
<g id="edge3" class="edge">
<title>HDashboardKPIModule&#45;&gt;HDashboardKPIComponent </title>
<path fill="none" stroke="#000000" stroke-dasharray="5,2" d="M264,-187.1061C264,-187.1061 264,-205.991 264,-205.991"/>
<polygon fill="#000000" stroke="#000000" points="260.5001,-205.9909 264,-215.991 267.5001,-205.991 260.5001,-205.9909"/>
</g>
<!-- HOverviewBoxHeaderModule -->
<g id="node3" class="node">
<title>HOverviewBoxHeaderModule</title>
<polygon fill="#8dd3c7" stroke="#000000" points="358.098,-122 355.098,-126 334.098,-126 331.098,-122 169.902,-122 169.902,-86 358.098,-86 358.098,-122"/>
<text text-anchor="middle" x="264" y="-99.8" font-family="Times,serif" font-size="14.00" fill="#000000">HOverviewBoxHeaderModule</text>
</g>
<!-- HOverviewBoxHeaderModule&#45;&gt;HDashboardKPIModule -->
<g id="edge2" class="edge">
<title>HOverviewBoxHeaderModule&#45;&gt;HDashboardKPIModule</title>
<path fill="none" stroke="#000000" d="M264,-122.1061C264,-122.1061 264,-140.991 264,-140.991"/>
<polygon fill="#000000" stroke="#000000" points="260.5001,-140.9909 264,-150.991 267.5001,-140.991 260.5001,-140.9909"/>
</g>
<!-- IconsService -->
<g id="node5" class="node">
<title>IconsService</title>
<ellipse fill="#fdb462" stroke="#000000" cx="85" cy="-104" rx="60.812" ry="18"/>
<text text-anchor="middle" x="85" y="-99.8" font-family="Times,serif" font-size="14.00" fill="#000000">IconsService</text>
</g>
<!-- IconsService&#45;&gt;HDashboardKPIModule -->
<g id="edge4" class="edge">
<title>IconsService&#45;&gt;HDashboardKPIModule</title>
<path fill="none" stroke="#000000" d="M85,-122.1061C85,-141.3391 85,-169 85,-169 85,-169 177.5687,-169 177.5687,-169"/>
<polygon fill="#000000" stroke="#000000" points="177.5687,-172.5001 187.5687,-169 177.5686,-165.5001 177.5687,-172.5001"/>
</g>
</g>
</svg>
