<?xml version="1.0" encoding="UTF-8" standalone="no"?>
<!DOCTYPE svg PUBLIC "-//W3C//DTD SVG 1.1//EN"
 "http://www.w3.org/Graphics/SVG/1.1/DTD/svg11.dtd">
<!-- Generated by graphviz version 2.40.1 (20161225.0304)
 -->
<!-- Title: dependencies Pages: 1 -->
<svg width="544pt" height="211pt"
 viewBox="0.00 0.00 544.00 211.00" xmlns="http://www.w3.org/2000/svg" xmlns:xlink="http://www.w3.org/1999/xlink">
<g id="graph0" class="graph" transform="scale(1 1) rotate(0) translate(4 207)">
<title>dependencies</title>
<polygon fill="#ffffff" stroke="transparent" points="-4,4 -4,-207 540,-207 540,4 -4,4"/>
<text text-anchor="start" x="247.0091" y="-42.4" font-family="sans-serif" font-weight="bold" font-size="14.00" fill="#000000">Legend</text>
<polygon fill="#ffffb3" stroke="transparent" points="34,-10 34,-30 54,-30 54,-10 34,-10"/>
<text text-anchor="start" x="57.629" y="-15.4" font-family="sans-serif" font-size="14.00" fill="#000000"> &#160;Declarations</text>
<polygon fill="#8dd3c7" stroke="transparent" points="147,-10 147,-30 167,-30 167,-10 147,-10"/>
<text text-anchor="start" x="170.7251" y="-15.4" font-family="sans-serif" font-size="14.00" fill="#000000"> &#160;Module</text>
<polygon fill="#80b1d3" stroke="transparent" points="233,-10 233,-30 253,-30 253,-10 233,-10"/>
<text text-anchor="start" x="256.7812" y="-15.4" font-family="sans-serif" font-size="14.00" fill="#000000"> &#160;Bootstrap</text>
<polygon fill="#fdb462" stroke="transparent" points="330,-10 330,-30 350,-30 350,-10 330,-10"/>
<text text-anchor="start" x="353.6732" y="-15.4" font-family="sans-serif" font-size="14.00" fill="#000000"> &#160;Providers</text>
<polygon fill="#fb8072" stroke="transparent" points="426,-10 426,-30 446,-30 446,-10 426,-10"/>
<text text-anchor="start" x="449.7258" y="-15.4" font-family="sans-serif" font-size="14.00" fill="#000000"> &#160;Exports</text>
<g id="clust1" class="cluster">
<title>cluster_GkCln22Module</title>
<polygon fill="none" stroke="#000000" stroke-dasharray="1,5" points="8,-70 8,-195 528,-195 528,-70 8,-70"/>
</g>
<g id="clust2" class="cluster">
<title>cluster_GkCln22Module_declarations</title>
<polygon fill="none" stroke="#000000" points="372,-78 372,-130 520,-130 520,-78 372,-78"/>
</g>
<g id="clust4" class="cluster">
<title>cluster_GkCln22Module_imports</title>
<polygon fill="none" stroke="#000000" points="16,-78 16,-130 364,-130 364,-78 16,-78"/>
</g>
<!-- GkCln22Component -->
<g id="node1" class="node">
<title>GkCln22Component</title>
<polygon fill="#ffffb3" stroke="#000000" points="512.1666,-122 379.8334,-122 379.8334,-86 512.1666,-86 512.1666,-122"/>
<text text-anchor="middle" x="446" y="-99.8" font-family="Times,serif" font-size="14.00" fill="#000000">GkCln22Component</text>
</g>
<!-- GkCln22Module -->
<g id="node2" class="node">
<title>GkCln22Module</title>
<polygon fill="#8dd3c7" stroke="#000000" points="332.3837,-187 329.3837,-191 308.3837,-191 305.3837,-187 221.6163,-187 221.6163,-151 332.3837,-151 332.3837,-187"/>
<text text-anchor="middle" x="277" y="-164.8" font-family="Times,serif" font-size="14.00" fill="#000000">GkCln22Module</text>
</g>
<!-- GkCln22Component&#45;&gt;GkCln22Module -->
<g id="edge1" class="edge">
<title>GkCln22Component&#45;&gt;GkCln22Module</title>
<path fill="none" stroke="#000000" d="M446,-122.1061C446,-141.3391 446,-169 446,-169 446,-169 342.8053,-169 342.8053,-169"/>
<polygon fill="#000000" stroke="#000000" points="342.8053,-165.5001 332.8053,-169 342.8053,-172.5001 342.8053,-165.5001"/>
</g>
<!-- HDownloadFormModule -->
<g id="node3" class="node">
<title>HDownloadFormModule</title>
<polygon fill="#8dd3c7" stroke="#000000" points="356.3089,-122 353.3089,-126 332.3089,-126 329.3089,-122 197.6911,-122 197.6911,-86 356.3089,-86 356.3089,-122"/>
<text text-anchor="middle" x="277" y="-99.8" font-family="Times,serif" font-size="14.00" fill="#000000">HDownloadFormModule</text>
</g>
<!-- HDownloadFormModule&#45;&gt;GkCln22Module -->
<g id="edge2" class="edge">
<title>HDownloadFormModule&#45;&gt;GkCln22Module</title>
<path fill="none" stroke="#000000" d="M277,-122.1061C277,-122.1061 277,-140.991 277,-140.991"/>
<polygon fill="#000000" stroke="#000000" points="273.5001,-140.9909 277,-150.991 280.5001,-140.991 273.5001,-140.9909"/>
</g>
<!-- GkCln22RoutingModule -->
<g id="node4" class="node">
<title>GkCln22RoutingModule</title>
<polygon fill="#8dd3c7" stroke="#000000" points="180.0014,-122 177.0014,-126 156.0014,-126 153.0014,-122 23.9986,-122 23.9986,-86 180.0014,-86 180.0014,-122"/>
<text text-anchor="middle" x="102" y="-99.8" font-family="Times,serif" font-size="14.00" fill="#000000">GkCln22RoutingModule</text>
</g>
<!-- GkCln22RoutingModule&#45;&gt;GkCln22Module -->
<g id="edge3" class="edge">
<title>GkCln22RoutingModule&#45;&gt;GkCln22Module</title>
<path fill="none" stroke="#000000" d="M102,-122.1061C102,-141.3391 102,-169 102,-169 102,-169 211.1478,-169 211.1478,-169"/>
<polygon fill="#000000" stroke="#000000" points="211.1478,-172.5001 221.1478,-169 211.1477,-165.5001 211.1478,-172.5001"/>
</g>
</g>
</svg>
