<?xml version="1.0" encoding="UTF-8" standalone="no"?>
<!DOCTYPE svg PUBLIC "-//W3C//DTD SVG 1.1//EN"
 "http://www.w3.org/Graphics/SVG/1.1/DTD/svg11.dtd">
<!-- Generated by graphviz version 2.40.1 (20161225.0304)
 -->
<!-- Title: dependencies Pages: 1 -->
<svg width="811pt" height="284pt"
 viewBox="0.00 0.00 811.00 284.00" xmlns="http://www.w3.org/2000/svg" xmlns:xlink="http://www.w3.org/1999/xlink">
<g id="graph0" class="graph" transform="scale(1 1) rotate(0) translate(4 280)">
<title>dependencies</title>
<polygon fill="#ffffff" stroke="transparent" points="-4,4 -4,-280 807,-280 807,4 -4,4"/>
<text text-anchor="start" x="380.5091" y="-42.4" font-family="sans-serif" font-weight="bold" font-size="14.00" fill="#000000">Legend</text>
<polygon fill="#ffffb3" stroke="transparent" points="167.5,-10 167.5,-30 187.5,-30 187.5,-10 167.5,-10"/>
<text text-anchor="start" x="191.129" y="-15.4" font-family="sans-serif" font-size="14.00" fill="#000000"> &#160;Declarations</text>
<polygon fill="#8dd3c7" stroke="transparent" points="280.5,-10 280.5,-30 300.5,-30 300.5,-10 280.5,-10"/>
<text text-anchor="start" x="304.2251" y="-15.4" font-family="sans-serif" font-size="14.00" fill="#000000"> &#160;Module</text>
<polygon fill="#80b1d3" stroke="transparent" points="366.5,-10 366.5,-30 386.5,-30 386.5,-10 366.5,-10"/>
<text text-anchor="start" x="390.2812" y="-15.4" font-family="sans-serif" font-size="14.00" fill="#000000"> &#160;Bootstrap</text>
<polygon fill="#fdb462" stroke="transparent" points="463.5,-10 463.5,-30 483.5,-30 483.5,-10 463.5,-10"/>
<text text-anchor="start" x="487.1732" y="-15.4" font-family="sans-serif" font-size="14.00" fill="#000000"> &#160;Providers</text>
<polygon fill="#fb8072" stroke="transparent" points="559.5,-10 559.5,-30 579.5,-30 579.5,-10 559.5,-10"/>
<text text-anchor="start" x="583.2258" y="-15.4" font-family="sans-serif" font-size="14.00" fill="#000000"> &#160;Exports</text>
<g id="clust1" class="cluster">
<title>cluster_RequestHeaderModule</title>
<polygon fill="none" stroke="#000000" stroke-dasharray="1,5" points="8,-70 8,-268 795,-268 795,-70 8,-70"/>
</g>
<g id="clust2" class="cluster">
<title>cluster_RequestHeaderModule_declarations</title>
<polygon fill="none" stroke="#000000" points="669,-78 669,-130 787,-130 787,-78 669,-78"/>
</g>
<g id="clust4" class="cluster">
<title>cluster_RequestHeaderModule_imports</title>
<polygon fill="none" stroke="#000000" points="397,-78 397,-130 661,-130 661,-78 397,-78"/>
</g>
<g id="clust5" class="cluster">
<title>cluster_RequestHeaderModule_exports</title>
<polygon fill="none" stroke="#000000" points="385,-208 385,-260 507,-260 507,-208 385,-208"/>
</g>
<g id="clust7" class="cluster">
<title>cluster_RequestHeaderModule_providers</title>
<polygon fill="none" stroke="#000000" points="16,-78 16,-130 389,-130 389,-78 16,-78"/>
</g>
<!-- RequestHeader -->
<g id="node1" class="node">
<title>RequestHeader</title>
<polygon fill="#ffffb3" stroke="#000000" points="778.5132,-122 677.4868,-122 677.4868,-86 778.5132,-86 778.5132,-122"/>
<text text-anchor="middle" x="728" y="-99.8" font-family="Times,serif" font-size="14.00" fill="#000000">RequestHeader</text>
</g>
<!-- RequestHeaderModule -->
<g id="node2" class="node">
<title>RequestHeaderModule</title>
<polygon fill="#8dd3c7" stroke="#000000" points="518.5618,-187 515.5618,-191 494.5618,-191 491.5618,-187 373.4382,-187 373.4382,-151 518.5618,-151 518.5618,-187"/>
<text text-anchor="middle" x="446" y="-164.8" font-family="Times,serif" font-size="14.00" fill="#000000">RequestHeaderModule</text>
</g>
<!-- RequestHeader&#45;&gt;RequestHeaderModule -->
<g id="edge1" class="edge">
<title>RequestHeader&#45;&gt;RequestHeaderModule</title>
<path fill="none" stroke="#000000" d="M728,-122.1061C728,-141.3391 728,-169 728,-169 728,-169 528.622,-169 528.622,-169"/>
<polygon fill="#000000" stroke="#000000" points="528.622,-165.5001 518.622,-169 528.622,-172.5001 528.622,-165.5001"/>
</g>
<!-- RequestHeader  -->
<g id="node5" class="node">
<title>RequestHeader </title>
<polygon fill="#fb8072" stroke="#000000" points="498.512,-252 393.488,-252 393.488,-216 498.512,-216 498.512,-252"/>
<text text-anchor="middle" x="446" y="-229.8" font-family="Times,serif" font-size="14.00" fill="#000000">RequestHeader </text>
</g>
<!-- RequestHeaderModule&#45;&gt;RequestHeader  -->
<g id="edge4" class="edge">
<title>RequestHeaderModule&#45;&gt;RequestHeader </title>
<path fill="none" stroke="#000000" stroke-dasharray="5,2" d="M446,-187.1061C446,-187.1061 446,-205.991 446,-205.991"/>
<polygon fill="#000000" stroke="#000000" points="442.5001,-205.9909 446,-215.991 449.5001,-205.991 442.5001,-205.9909"/>
</g>
<!-- AppTranslationModule -->
<g id="node3" class="node">
<title>AppTranslationModule</title>
<polygon fill="#8dd3c7" stroke="#000000" points="652.9158,-122 649.9158,-126 628.9158,-126 625.9158,-122 505.0842,-122 505.0842,-86 652.9158,-86 652.9158,-122"/>
<text text-anchor="middle" x="579" y="-99.8" font-family="Times,serif" font-size="14.00" fill="#000000">AppTranslationModule</text>
</g>
<!-- AppTranslationModule&#45;&gt;RequestHeaderModule -->
<g id="edge2" class="edge">
<title>AppTranslationModule&#45;&gt;RequestHeaderModule</title>
<path fill="none" stroke="#000000" d="M511.9117,-122.1061C511.9117,-122.1061 511.9117,-140.991 511.9117,-140.991"/>
<polygon fill="#000000" stroke="#000000" points="508.4117,-140.9909 511.9117,-150.991 515.4117,-140.991 508.4117,-140.9909"/>
</g>
<!-- NgaModule -->
<g id="node4" class="node">
<title>NgaModule</title>
<polygon fill="#8dd3c7" stroke="#000000" points="487.3711,-122 484.3711,-126 463.3711,-126 460.3711,-122 404.6289,-122 404.6289,-86 487.3711,-86 487.3711,-122"/>
<text text-anchor="middle" x="446" y="-99.8" font-family="Times,serif" font-size="14.00" fill="#000000">NgaModule</text>
</g>
<!-- NgaModule&#45;&gt;RequestHeaderModule -->
<g id="edge3" class="edge">
<title>NgaModule&#45;&gt;RequestHeaderModule</title>
<path fill="none" stroke="#000000" d="M446,-122.1061C446,-122.1061 446,-140.991 446,-140.991"/>
<polygon fill="#000000" stroke="#000000" points="442.5001,-140.9909 446,-150.991 449.5001,-140.991 442.5001,-140.9909"/>
</g>
<!-- UserService -->
<g id="node6" class="node">
<title>UserService</title>
<ellipse fill="#fdb462" stroke="#000000" cx="323" cy="-104" rx="58.4415" ry="18"/>
<text text-anchor="middle" x="323" y="-99.8" font-family="Times,serif" font-size="14.00" fill="#000000">UserService</text>
</g>
<!-- UserService&#45;&gt;RequestHeaderModule -->
<g id="edge5" class="edge">
<title>UserService&#45;&gt;RequestHeaderModule</title>
<path fill="none" stroke="#000000" d="M377.3447,-110.4701C377.3447,-110.4701 377.3447,-140.7831 377.3447,-140.7831"/>
<polygon fill="#000000" stroke="#000000" points="373.8448,-140.7831 377.3447,-150.7831 380.8448,-140.7831 373.8448,-140.7831"/>
</g>
<!-- RequestApprovalServices -->
<g id="node7" class="node">
<title>RequestApprovalServices</title>
<ellipse fill="#fdb462" stroke="#000000" cx="135" cy="-104" rx="111.1557" ry="18"/>
<text text-anchor="middle" x="135" y="-99.8" font-family="Times,serif" font-size="14.00" fill="#000000">RequestApprovalServices</text>
</g>
<!-- RequestApprovalServices&#45;&gt;RequestHeaderModule -->
<g id="edge6" class="edge">
<title>RequestApprovalServices&#45;&gt;RequestHeaderModule</title>
<path fill="none" stroke="#000000" d="M135,-122.1061C135,-141.3391 135,-169 135,-169 135,-169 363.0843,-169 363.0843,-169"/>
<polygon fill="#000000" stroke="#000000" points="363.0844,-172.5001 373.0843,-169 363.0843,-165.5001 363.0844,-172.5001"/>
</g>
</g>
</svg>
