<?xml version="1.0" encoding="UTF-8" standalone="no"?>
<!DOCTYPE svg PUBLIC "-//W3C//DTD SVG 1.1//EN"
 "http://www.w3.org/Graphics/SVG/1.1/DTD/svg11.dtd">
<!-- Generated by graphviz version 2.40.1 (20161225.0304)
 -->
<!-- Title: dependencies Pages: 1 -->
<svg width="504pt" height="211pt"
 viewBox="0.00 0.00 504.00 211.00" xmlns="http://www.w3.org/2000/svg" xmlns:xlink="http://www.w3.org/1999/xlink">
<g id="graph0" class="graph" transform="scale(1 1) rotate(0) translate(4 207)">
<title>dependencies</title>
<polygon fill="#ffffff" stroke="transparent" points="-4,4 -4,-207 500,-207 500,4 -4,4"/>
<text text-anchor="start" x="227.0091" y="-42.4" font-family="sans-serif" font-weight="bold" font-size="14.00" fill="#000000">Legend</text>
<polygon fill="#ffffb3" stroke="transparent" points="14,-10 14,-30 34,-30 34,-10 14,-10"/>
<text text-anchor="start" x="37.629" y="-15.4" font-family="sans-serif" font-size="14.00" fill="#000000"> &#160;Declarations</text>
<polygon fill="#8dd3c7" stroke="transparent" points="127,-10 127,-30 147,-30 147,-10 127,-10"/>
<text text-anchor="start" x="150.7251" y="-15.4" font-family="sans-serif" font-size="14.00" fill="#000000"> &#160;Module</text>
<polygon fill="#80b1d3" stroke="transparent" points="213,-10 213,-30 233,-30 233,-10 213,-10"/>
<text text-anchor="start" x="236.7812" y="-15.4" font-family="sans-serif" font-size="14.00" fill="#000000"> &#160;Bootstrap</text>
<polygon fill="#fdb462" stroke="transparent" points="310,-10 310,-30 330,-30 330,-10 310,-10"/>
<text text-anchor="start" x="333.6732" y="-15.4" font-family="sans-serif" font-size="14.00" fill="#000000"> &#160;Providers</text>
<polygon fill="#fb8072" stroke="transparent" points="406,-10 406,-30 426,-30 426,-10 406,-10"/>
<text text-anchor="start" x="429.7258" y="-15.4" font-family="sans-serif" font-size="14.00" fill="#000000"> &#160;Exports</text>
<g id="clust1" class="cluster">
<title>cluster_P401Module</title>
<polygon fill="none" stroke="#000000" stroke-dasharray="1,5" points="15.5,-70 15.5,-195 480.5,-195 480.5,-70 15.5,-70"/>
</g>
<g id="clust2" class="cluster">
<title>cluster_P401Module_declarations</title>
<polygon fill="none" stroke="#000000" points="346.5,-78 346.5,-130 472.5,-130 472.5,-78 346.5,-78"/>
</g>
<g id="clust4" class="cluster">
<title>cluster_P401Module_imports</title>
<polygon fill="none" stroke="#000000" points="23.5,-78 23.5,-130 338.5,-130 338.5,-78 23.5,-78"/>
</g>
<!-- P401Component -->
<g id="node1" class="node">
<title>P401Component</title>
<polygon fill="#ffffb3" stroke="#000000" points="464.6151,-122 354.3849,-122 354.3849,-86 464.6151,-86 464.6151,-122"/>
<text text-anchor="middle" x="409.5" y="-99.8" font-family="Times,serif" font-size="14.00" fill="#000000">P401Component</text>
</g>
<!-- P401Module -->
<g id="node2" class="node">
<title>P401Module</title>
<polygon fill="#8dd3c7" stroke="#000000" points="300.833,-187 297.833,-191 276.833,-191 273.833,-187 212.167,-187 212.167,-151 300.833,-151 300.833,-187"/>
<text text-anchor="middle" x="256.5" y="-164.8" font-family="Times,serif" font-size="14.00" fill="#000000">P401Module</text>
</g>
<!-- P401Component&#45;&gt;P401Module -->
<g id="edge1" class="edge">
<title>P401Component&#45;&gt;P401Module</title>
<path fill="none" stroke="#000000" d="M409.5,-122.1061C409.5,-141.3391 409.5,-169 409.5,-169 409.5,-169 310.7539,-169 310.7539,-169"/>
<polygon fill="#000000" stroke="#000000" points="310.754,-165.5001 300.7539,-169 310.7539,-172.5001 310.754,-165.5001"/>
</g>
<!-- AppTranslationModule -->
<g id="node3" class="node">
<title>AppTranslationModule</title>
<polygon fill="#8dd3c7" stroke="#000000" points="330.4158,-122 327.4158,-126 306.4158,-126 303.4158,-122 182.5842,-122 182.5842,-86 330.4158,-86 330.4158,-122"/>
<text text-anchor="middle" x="256.5" y="-99.8" font-family="Times,serif" font-size="14.00" fill="#000000">AppTranslationModule</text>
</g>
<!-- AppTranslationModule&#45;&gt;P401Module -->
<g id="edge2" class="edge">
<title>AppTranslationModule&#45;&gt;P401Module</title>
<path fill="none" stroke="#000000" d="M256.5,-122.1061C256.5,-122.1061 256.5,-140.991 256.5,-140.991"/>
<polygon fill="#000000" stroke="#000000" points="253.0001,-140.9909 256.5,-150.991 260.0001,-140.991 253.0001,-140.9909"/>
</g>
<!-- P401RoutingModule -->
<g id="node4" class="node">
<title>P401RoutingModule</title>
<polygon fill="#8dd3c7" stroke="#000000" points="165.451,-122 162.451,-126 141.451,-126 138.451,-122 31.549,-122 31.549,-86 165.451,-86 165.451,-122"/>
<text text-anchor="middle" x="98.5" y="-99.8" font-family="Times,serif" font-size="14.00" fill="#000000">P401RoutingModule</text>
</g>
<!-- P401RoutingModule&#45;&gt;P401Module -->
<g id="edge3" class="edge">
<title>P401RoutingModule&#45;&gt;P401Module</title>
<path fill="none" stroke="#000000" d="M98.5,-122.1061C98.5,-141.3391 98.5,-169 98.5,-169 98.5,-169 202.0677,-169 202.0677,-169"/>
<polygon fill="#000000" stroke="#000000" points="202.0678,-172.5001 212.0677,-169 202.0677,-165.5001 202.0678,-172.5001"/>
</g>
</g>
</svg>
