<?xml version="1.0" encoding="UTF-8" standalone="no"?>
<!DOCTYPE svg PUBLIC "-//W3C//DTD SVG 1.1//EN"
 "http://www.w3.org/Graphics/SVG/1.1/DTD/svg11.dtd">
<!-- Generated by graphviz version 2.40.1 (20161225.0304)
 -->
<!-- Title: dependencies Pages: 1 -->
<svg width="598pt" height="211pt"
 viewBox="0.00 0.00 598.00 211.00" xmlns="http://www.w3.org/2000/svg" xmlns:xlink="http://www.w3.org/1999/xlink">
<g id="graph0" class="graph" transform="scale(1 1) rotate(0) translate(4 207)">
<title>dependencies</title>
<polygon fill="#ffffff" stroke="transparent" points="-4,4 -4,-207 594,-207 594,4 -4,4"/>
<text text-anchor="start" x="274.0091" y="-42.4" font-family="sans-serif" font-weight="bold" font-size="14.00" fill="#000000">Legend</text>
<polygon fill="#ffffb3" stroke="transparent" points="61,-10 61,-30 81,-30 81,-10 61,-10"/>
<text text-anchor="start" x="84.629" y="-15.4" font-family="sans-serif" font-size="14.00" fill="#000000"> &#160;Declarations</text>
<polygon fill="#8dd3c7" stroke="transparent" points="174,-10 174,-30 194,-30 194,-10 174,-10"/>
<text text-anchor="start" x="197.7251" y="-15.4" font-family="sans-serif" font-size="14.00" fill="#000000"> &#160;Module</text>
<polygon fill="#80b1d3" stroke="transparent" points="260,-10 260,-30 280,-30 280,-10 260,-10"/>
<text text-anchor="start" x="283.7812" y="-15.4" font-family="sans-serif" font-size="14.00" fill="#000000"> &#160;Bootstrap</text>
<polygon fill="#fdb462" stroke="transparent" points="357,-10 357,-30 377,-30 377,-10 357,-10"/>
<text text-anchor="start" x="380.6732" y="-15.4" font-family="sans-serif" font-size="14.00" fill="#000000"> &#160;Providers</text>
<polygon fill="#fb8072" stroke="transparent" points="453,-10 453,-30 473,-30 473,-10 453,-10"/>
<text text-anchor="start" x="476.7258" y="-15.4" font-family="sans-serif" font-size="14.00" fill="#000000"> &#160;Exports</text>
<g id="clust1" class="cluster">
<title>cluster_BlankModule</title>
<polygon fill="none" stroke="#000000" stroke-dasharray="1,5" points="8,-70 8,-195 582,-195 582,-70 8,-70"/>
</g>
<g id="clust2" class="cluster">
<title>cluster_BlankModule_declarations</title>
<polygon fill="none" stroke="#000000" points="444,-78 444,-130 574,-130 574,-78 444,-78"/>
</g>
<g id="clust4" class="cluster">
<title>cluster_BlankModule_imports</title>
<polygon fill="none" stroke="#000000" points="16,-78 16,-130 436,-130 436,-78 16,-78"/>
</g>
<!-- BlankComponent -->
<g id="node1" class="node">
<title>BlankComponent</title>
<polygon fill="#ffffb3" stroke="#000000" points="566.2744,-122 451.7256,-122 451.7256,-86 566.2744,-86 566.2744,-122"/>
<text text-anchor="middle" x="509" y="-99.8" font-family="Times,serif" font-size="14.00" fill="#000000">BlankComponent</text>
</g>
<!-- BlankModule -->
<g id="node2" class="node">
<title>BlankModule</title>
<polygon fill="#8dd3c7" stroke="#000000" points="366.4916,-187 363.4916,-191 342.4916,-191 339.4916,-187 273.5084,-187 273.5084,-151 366.4916,-151 366.4916,-187"/>
<text text-anchor="middle" x="320" y="-164.8" font-family="Times,serif" font-size="14.00" fill="#000000">BlankModule</text>
</g>
<!-- BlankComponent&#45;&gt;BlankModule -->
<g id="edge1" class="edge">
<title>BlankComponent&#45;&gt;BlankModule</title>
<path fill="none" stroke="#000000" d="M509,-122.1061C509,-141.3391 509,-169 509,-169 509,-169 376.7191,-169 376.7191,-169"/>
<polygon fill="#000000" stroke="#000000" points="376.7191,-165.5001 366.7191,-169 376.7191,-172.5001 376.7191,-165.5001"/>
</g>
<!-- NgaModule -->
<g id="node3" class="node">
<title>NgaModule</title>
<polygon fill="#8dd3c7" stroke="#000000" points="428.3711,-122 425.3711,-126 404.3711,-126 401.3711,-122 345.6289,-122 345.6289,-86 428.3711,-86 428.3711,-122"/>
<text text-anchor="middle" x="387" y="-99.8" font-family="Times,serif" font-size="14.00" fill="#000000">NgaModule</text>
</g>
<!-- NgaModule&#45;&gt;BlankModule -->
<g id="edge2" class="edge">
<title>NgaModule&#45;&gt;BlankModule</title>
<path fill="none" stroke="#000000" d="M356.0302,-122.1061C356.0302,-122.1061 356.0302,-140.991 356.0302,-140.991"/>
<polygon fill="#000000" stroke="#000000" points="352.5302,-140.9909 356.0302,-150.991 359.5302,-140.991 352.5302,-140.9909"/>
</g>
<!-- AppTranslationModule -->
<g id="node4" class="node">
<title>AppTranslationModule</title>
<polygon fill="#8dd3c7" stroke="#000000" points="327.9158,-122 324.9158,-126 303.9158,-126 300.9158,-122 180.0842,-122 180.0842,-86 327.9158,-86 327.9158,-122"/>
<text text-anchor="middle" x="254" y="-99.8" font-family="Times,serif" font-size="14.00" fill="#000000">AppTranslationModule</text>
</g>
<!-- AppTranslationModule&#45;&gt;BlankModule -->
<g id="edge3" class="edge">
<title>AppTranslationModule&#45;&gt;BlankModule</title>
<path fill="none" stroke="#000000" d="M300.6059,-122.1061C300.6059,-122.1061 300.6059,-140.991 300.6059,-140.991"/>
<polygon fill="#000000" stroke="#000000" points="297.106,-140.9909 300.6059,-150.991 304.106,-140.991 297.106,-140.9909"/>
</g>
<!-- BlankRoutingModule -->
<g id="node5" class="node">
<title>BlankRoutingModule</title>
<polygon fill="#8dd3c7" stroke="#000000" points="162.1094,-122 159.1094,-126 138.1094,-126 135.1094,-122 23.8906,-122 23.8906,-86 162.1094,-86 162.1094,-122"/>
<text text-anchor="middle" x="93" y="-99.8" font-family="Times,serif" font-size="14.00" fill="#000000">BlankRoutingModule</text>
</g>
<!-- BlankRoutingModule&#45;&gt;BlankModule -->
<g id="edge4" class="edge">
<title>BlankRoutingModule&#45;&gt;BlankModule</title>
<path fill="none" stroke="#000000" d="M93,-122.1061C93,-141.3391 93,-169 93,-169 93,-169 263.2407,-169 263.2407,-169"/>
<polygon fill="#000000" stroke="#000000" points="263.2407,-172.5001 273.2407,-169 263.2407,-165.5001 263.2407,-172.5001"/>
</g>
</g>
</svg>
