<?xml version="1.0" encoding="UTF-8" standalone="no"?>
<!DOCTYPE svg PUBLIC "-//W3C//DTD SVG 1.1//EN"
 "http://www.w3.org/Graphics/SVG/1.1/DTD/svg11.dtd">
<!-- Generated by graphviz version 2.40.1 (20161225.0304)
 -->
<!-- Title: dependencies Pages: 1 -->
<svg width="699pt" height="211pt"
 viewBox="0.00 0.00 699.00 211.00" xmlns="http://www.w3.org/2000/svg" xmlns:xlink="http://www.w3.org/1999/xlink">
<g id="graph0" class="graph" transform="scale(1 1) rotate(0) translate(4 207)">
<title>dependencies</title>
<polygon fill="#ffffff" stroke="transparent" points="-4,4 -4,-207 695,-207 695,4 -4,4"/>
<text text-anchor="start" x="324.5091" y="-42.4" font-family="sans-serif" font-weight="bold" font-size="14.00" fill="#000000">Legend</text>
<polygon fill="#ffffb3" stroke="transparent" points="111.5,-10 111.5,-30 131.5,-30 131.5,-10 111.5,-10"/>
<text text-anchor="start" x="135.129" y="-15.4" font-family="sans-serif" font-size="14.00" fill="#000000"> &#160;Declarations</text>
<polygon fill="#8dd3c7" stroke="transparent" points="224.5,-10 224.5,-30 244.5,-30 244.5,-10 224.5,-10"/>
<text text-anchor="start" x="248.2251" y="-15.4" font-family="sans-serif" font-size="14.00" fill="#000000"> &#160;Module</text>
<polygon fill="#80b1d3" stroke="transparent" points="310.5,-10 310.5,-30 330.5,-30 330.5,-10 310.5,-10"/>
<text text-anchor="start" x="334.2812" y="-15.4" font-family="sans-serif" font-size="14.00" fill="#000000"> &#160;Bootstrap</text>
<polygon fill="#fdb462" stroke="transparent" points="407.5,-10 407.5,-30 427.5,-30 427.5,-10 407.5,-10"/>
<text text-anchor="start" x="431.1732" y="-15.4" font-family="sans-serif" font-size="14.00" fill="#000000"> &#160;Providers</text>
<polygon fill="#fb8072" stroke="transparent" points="503.5,-10 503.5,-30 523.5,-30 523.5,-10 503.5,-10"/>
<text text-anchor="start" x="527.2258" y="-15.4" font-family="sans-serif" font-size="14.00" fill="#000000"> &#160;Exports</text>
<g id="clust1" class="cluster">
<title>cluster_GkCln92Module</title>
<polygon fill="none" stroke="#000000" stroke-dasharray="1,5" points="8,-70 8,-195 683,-195 683,-70 8,-70"/>
</g>
<g id="clust2" class="cluster">
<title>cluster_GkCln92Module_declarations</title>
<polygon fill="none" stroke="#000000" points="527,-78 527,-130 675,-130 675,-78 527,-78"/>
</g>
<g id="clust4" class="cluster">
<title>cluster_GkCln92Module_imports</title>
<polygon fill="none" stroke="#000000" points="16,-78 16,-130 519,-130 519,-78 16,-78"/>
</g>
<!-- GkCln92Component -->
<g id="node1" class="node">
<title>GkCln92Component</title>
<polygon fill="#ffffb3" stroke="#000000" points="667.1666,-122 534.8334,-122 534.8334,-86 667.1666,-86 667.1666,-122"/>
<text text-anchor="middle" x="601" y="-99.8" font-family="Times,serif" font-size="14.00" fill="#000000">GkCln92Component</text>
</g>
<!-- GkCln92Module -->
<g id="node2" class="node">
<title>GkCln92Module</title>
<polygon fill="#8dd3c7" stroke="#000000" points="419.3837,-187 416.3837,-191 395.3837,-191 392.3837,-187 308.6163,-187 308.6163,-151 419.3837,-151 419.3837,-187"/>
<text text-anchor="middle" x="364" y="-164.8" font-family="Times,serif" font-size="14.00" fill="#000000">GkCln92Module</text>
</g>
<!-- GkCln92Component&#45;&gt;GkCln92Module -->
<g id="edge1" class="edge">
<title>GkCln92Component&#45;&gt;GkCln92Module</title>
<path fill="none" stroke="#000000" d="M601,-122.1061C601,-141.3391 601,-169 601,-169 601,-169 429.566,-169 429.566,-169"/>
<polygon fill="#000000" stroke="#000000" points="429.566,-165.5001 419.566,-169 429.5659,-172.5001 429.566,-165.5001"/>
</g>
<!-- HNavBoardModule -->
<g id="node3" class="node">
<title>HNavBoardModule</title>
<polygon fill="#8dd3c7" stroke="#000000" points="510.6895,-122 507.6895,-126 486.6895,-126 483.6895,-122 383.3105,-122 383.3105,-86 510.6895,-86 510.6895,-122"/>
<text text-anchor="middle" x="447" y="-99.8" font-family="Times,serif" font-size="14.00" fill="#000000">HNavBoardModule</text>
</g>
<!-- HNavBoardModule&#45;&gt;GkCln92Module -->
<g id="edge2" class="edge">
<title>HNavBoardModule&#45;&gt;GkCln92Module</title>
<path fill="none" stroke="#000000" d="M401.4236,-122.1061C401.4236,-122.1061 401.4236,-140.991 401.4236,-140.991"/>
<polygon fill="#000000" stroke="#000000" points="397.9236,-140.9909 401.4236,-150.991 404.9236,-140.991 397.9236,-140.9909"/>
</g>
<!-- HRequestApprovalModule -->
<g id="node4" class="node">
<title>HRequestApprovalModule</title>
<polygon fill="#8dd3c7" stroke="#000000" points="365.6302,-122 362.6302,-126 341.6302,-126 338.6302,-122 198.3698,-122 198.3698,-86 365.6302,-86 365.6302,-122"/>
<text text-anchor="middle" x="282" y="-99.8" font-family="Times,serif" font-size="14.00" fill="#000000">HRequestApprovalModule</text>
</g>
<!-- HRequestApprovalModule&#45;&gt;GkCln92Module -->
<g id="edge3" class="edge">
<title>HRequestApprovalModule&#45;&gt;GkCln92Module</title>
<path fill="none" stroke="#000000" d="M337.1866,-122.1061C337.1866,-122.1061 337.1866,-140.991 337.1866,-140.991"/>
<polygon fill="#000000" stroke="#000000" points="333.6866,-140.9909 337.1866,-150.991 340.6866,-140.991 333.6866,-140.9909"/>
</g>
<!-- GkCln92RoutingModule -->
<g id="node5" class="node">
<title>GkCln92RoutingModule</title>
<polygon fill="#8dd3c7" stroke="#000000" points="180.0014,-122 177.0014,-126 156.0014,-126 153.0014,-122 23.9986,-122 23.9986,-86 180.0014,-86 180.0014,-122"/>
<text text-anchor="middle" x="102" y="-99.8" font-family="Times,serif" font-size="14.00" fill="#000000">GkCln92RoutingModule</text>
</g>
<!-- GkCln92RoutingModule&#45;&gt;GkCln92Module -->
<g id="edge4" class="edge">
<title>GkCln92RoutingModule&#45;&gt;GkCln92Module</title>
<path fill="none" stroke="#000000" d="M102,-122.1061C102,-141.3391 102,-169 102,-169 102,-169 298.4365,-169 298.4365,-169"/>
<polygon fill="#000000" stroke="#000000" points="298.4366,-172.5001 308.4365,-169 298.4365,-165.5001 298.4366,-172.5001"/>
</g>
</g>
</svg>
