<?xml version="1.0" encoding="UTF-8" standalone="no"?>
<!DOCTYPE svg PUBLIC "-//W3C//DTD SVG 1.1//EN"
 "http://www.w3.org/Graphics/SVG/1.1/DTD/svg11.dtd">
<!-- Generated by graphviz version 2.40.1 (20161225.0304)
 -->
<!-- Title: dependencies Pages: 1 -->
<svg width="1314pt" height="211pt"
 viewBox="0.00 0.00 1314.00 211.00" xmlns="http://www.w3.org/2000/svg" xmlns:xlink="http://www.w3.org/1999/xlink">
<g id="graph0" class="graph" transform="scale(1 1) rotate(0) translate(4 207)">
<title>dependencies</title>
<polygon fill="#ffffff" stroke="transparent" points="-4,4 -4,-207 1310,-207 1310,4 -4,4"/>
<text text-anchor="start" x="632.0091" y="-42.4" font-family="sans-serif" font-weight="bold" font-size="14.00" fill="#000000">Legend</text>
<polygon fill="#ffffb3" stroke="transparent" points="419,-10 419,-30 439,-30 439,-10 419,-10"/>
<text text-anchor="start" x="442.629" y="-15.4" font-family="sans-serif" font-size="14.00" fill="#000000"> &#160;Declarations</text>
<polygon fill="#8dd3c7" stroke="transparent" points="532,-10 532,-30 552,-30 552,-10 532,-10"/>
<text text-anchor="start" x="555.7251" y="-15.4" font-family="sans-serif" font-size="14.00" fill="#000000"> &#160;Module</text>
<polygon fill="#80b1d3" stroke="transparent" points="618,-10 618,-30 638,-30 638,-10 618,-10"/>
<text text-anchor="start" x="641.7812" y="-15.4" font-family="sans-serif" font-size="14.00" fill="#000000"> &#160;Bootstrap</text>
<polygon fill="#fdb462" stroke="transparent" points="715,-10 715,-30 735,-30 735,-10 715,-10"/>
<text text-anchor="start" x="738.6732" y="-15.4" font-family="sans-serif" font-size="14.00" fill="#000000"> &#160;Providers</text>
<polygon fill="#fb8072" stroke="transparent" points="811,-10 811,-30 831,-30 831,-10 811,-10"/>
<text text-anchor="start" x="834.7258" y="-15.4" font-family="sans-serif" font-size="14.00" fill="#000000"> &#160;Exports</text>
<g id="clust1" class="cluster">
<title>cluster_GkCln53Module</title>
<polygon fill="none" stroke="#000000" stroke-dasharray="1,5" points="8,-70 8,-195 1298,-195 1298,-70 8,-70"/>
</g>
<g id="clust2" class="cluster">
<title>cluster_GkCln53Module_declarations</title>
<polygon fill="none" stroke="#000000" points="342,-78 342,-130 1290,-130 1290,-78 342,-78"/>
</g>
<g id="clust8" class="cluster">
<title>cluster_GkCln53Module_imports</title>
<polygon fill="none" stroke="#000000" points="16,-78 16,-130 334,-130 334,-78 16,-78"/>
</g>
<!-- DynamicContentComponent -->
<g id="node1" class="node">
<title>DynamicContentComponent</title>
<polygon fill="#ffffb3" stroke="#000000" points="1282.4818,-122 1105.5182,-122 1105.5182,-86 1282.4818,-86 1282.4818,-122"/>
<text text-anchor="middle" x="1194" y="-99.8" font-family="Times,serif" font-size="14.00" fill="#000000">DynamicContentComponent</text>
</g>
<!-- GkCln53Module -->
<g id="node6" class="node">
<title>GkCln53Module</title>
<polygon fill="#8dd3c7" stroke="#000000" points="649.3837,-187 646.3837,-191 625.3837,-191 622.3837,-187 538.6163,-187 538.6163,-151 649.3837,-151 649.3837,-187"/>
<text text-anchor="middle" x="594" y="-164.8" font-family="Times,serif" font-size="14.00" fill="#000000">GkCln53Module</text>
</g>
<!-- DynamicContentComponent&#45;&gt;GkCln53Module -->
<g id="edge1" class="edge">
<title>DynamicContentComponent&#45;&gt;GkCln53Module</title>
<path fill="none" stroke="#000000" d="M1194,-122.2921C1194,-144.2057 1194,-178 1194,-178 1194,-178 659.6392,-178 659.6392,-178"/>
<polygon fill="#000000" stroke="#000000" points="659.6392,-174.5001 649.6392,-178 659.6391,-181.5001 659.6392,-174.5001"/>
</g>
<!-- DynamicSample1Component -->
<g id="node2" class="node">
<title>DynamicSample1Component</title>
<polygon fill="#ffffb3" stroke="#000000" points="1087.6428,-122 906.3572,-122 906.3572,-86 1087.6428,-86 1087.6428,-122"/>
<text text-anchor="middle" x="997" y="-99.8" font-family="Times,serif" font-size="14.00" fill="#000000">DynamicSample1Component</text>
</g>
<!-- DynamicSample1Component&#45;&gt;GkCln53Module -->
<g id="edge2" class="edge">
<title>DynamicSample1Component&#45;&gt;GkCln53Module</title>
<path fill="none" stroke="#000000" d="M997,-122.1061C997,-141.3391 997,-169 997,-169 997,-169 659.6123,-169 659.6123,-169"/>
<polygon fill="#000000" stroke="#000000" points="659.6123,-165.5001 649.6123,-169 659.6123,-172.5001 659.6123,-165.5001"/>
</g>
<!-- DynamicSample2Component -->
<g id="node3" class="node">
<title>DynamicSample2Component</title>
<polygon fill="#ffffb3" stroke="#000000" points="887.6428,-122 706.3572,-122 706.3572,-86 887.6428,-86 887.6428,-122"/>
<text text-anchor="middle" x="797" y="-99.8" font-family="Times,serif" font-size="14.00" fill="#000000">DynamicSample2Component</text>
</g>
<!-- DynamicSample2Component&#45;&gt;GkCln53Module -->
<g id="edge3" class="edge">
<title>DynamicSample2Component&#45;&gt;GkCln53Module</title>
<path fill="none" stroke="#000000" d="M797,-122.027C797,-138.3976 797,-160 797,-160 797,-160 659.4706,-160 659.4706,-160"/>
<polygon fill="#000000" stroke="#000000" points="659.4707,-156.5001 649.4706,-160 659.4706,-163.5001 659.4707,-156.5001"/>
</g>
<!-- UnknownDynamicComponent -->
<g id="node4" class="node">
<title>UnknownDynamicComponent</title>
<polygon fill="#ffffb3" stroke="#000000" points="687.8627,-122 500.1373,-122 500.1373,-86 687.8627,-86 687.8627,-122"/>
<text text-anchor="middle" x="594" y="-99.8" font-family="Times,serif" font-size="14.00" fill="#000000">UnknownDynamicComponent</text>
</g>
<!-- UnknownDynamicComponent&#45;&gt;GkCln53Module -->
<g id="edge4" class="edge">
<title>UnknownDynamicComponent&#45;&gt;GkCln53Module</title>
<path fill="none" stroke="#000000" d="M594,-122.1061C594,-122.1061 594,-140.991 594,-140.991"/>
<polygon fill="#000000" stroke="#000000" points="590.5001,-140.9909 594,-150.991 597.5001,-140.991 590.5001,-140.9909"/>
</g>
<!-- GkCln53Component -->
<g id="node5" class="node">
<title>GkCln53Component</title>
<polygon fill="#ffffb3" stroke="#000000" points="482.1666,-122 349.8334,-122 349.8334,-86 482.1666,-86 482.1666,-122"/>
<text text-anchor="middle" x="416" y="-99.8" font-family="Times,serif" font-size="14.00" fill="#000000">GkCln53Component</text>
</g>
<!-- GkCln53Component&#45;&gt;GkCln53Module -->
<g id="edge5" class="edge">
<title>GkCln53Component&#45;&gt;GkCln53Module</title>
<path fill="none" stroke="#000000" d="M416,-122.027C416,-138.3976 416,-160 416,-160 416,-160 528.1681,-160 528.1681,-160"/>
<polygon fill="#000000" stroke="#000000" points="528.1681,-163.5001 538.1681,-160 528.168,-156.5001 528.1681,-163.5001"/>
</g>
<!-- HNavBoardModule -->
<g id="node7" class="node">
<title>HNavBoardModule</title>
<polygon fill="#8dd3c7" stroke="#000000" points="325.6895,-122 322.6895,-126 301.6895,-126 298.6895,-122 198.3105,-122 198.3105,-86 325.6895,-86 325.6895,-122"/>
<text text-anchor="middle" x="262" y="-99.8" font-family="Times,serif" font-size="14.00" fill="#000000">HNavBoardModule</text>
</g>
<!-- HNavBoardModule&#45;&gt;GkCln53Module -->
<g id="edge6" class="edge">
<title>HNavBoardModule&#45;&gt;GkCln53Module</title>
<path fill="none" stroke="#000000" d="M262,-122.1061C262,-141.3391 262,-169 262,-169 262,-169 528.4307,-169 528.4307,-169"/>
<polygon fill="#000000" stroke="#000000" points="528.4307,-172.5001 538.4307,-169 528.4306,-165.5001 528.4307,-172.5001"/>
</g>
<!-- GkCln53RoutingModule -->
<g id="node8" class="node">
<title>GkCln53RoutingModule</title>
<polygon fill="#8dd3c7" stroke="#000000" points="180.0014,-122 177.0014,-126 156.0014,-126 153.0014,-122 23.9986,-122 23.9986,-86 180.0014,-86 180.0014,-122"/>
<text text-anchor="middle" x="102" y="-99.8" font-family="Times,serif" font-size="14.00" fill="#000000">GkCln53RoutingModule</text>
</g>
<!-- GkCln53RoutingModule&#45;&gt;GkCln53Module -->
<g id="edge7" class="edge">
<title>GkCln53RoutingModule&#45;&gt;GkCln53Module</title>
<path fill="none" stroke="#000000" d="M102,-122.2921C102,-144.2057 102,-178 102,-178 102,-178 528.5177,-178 528.5177,-178"/>
<polygon fill="#000000" stroke="#000000" points="528.5178,-181.5001 538.5177,-178 528.5177,-174.5001 528.5178,-181.5001"/>
</g>
</g>
</svg>
