<?xml version="1.0" encoding="UTF-8" standalone="no"?>
<!DOCTYPE svg PUBLIC "-//W3C//DTD SVG 1.1//EN"
 "http://www.w3.org/Graphics/SVG/1.1/DTD/svg11.dtd">
<!-- Generated by graphviz version 2.40.1 (20161225.0304)
 -->
<!-- Title: dependencies Pages: 1 -->
<svg width="1698pt" height="211pt"
 viewBox="0.00 0.00 1698.00 211.00" xmlns="http://www.w3.org/2000/svg" xmlns:xlink="http://www.w3.org/1999/xlink">
<g id="graph0" class="graph" transform="scale(1 1) rotate(0) translate(4 207)">
<title>dependencies</title>
<polygon fill="#ffffff" stroke="transparent" points="-4,4 -4,-207 1694,-207 1694,4 -4,4"/>
<text text-anchor="start" x="824.0091" y="-42.4" font-family="sans-serif" font-weight="bold" font-size="14.00" fill="#000000">Legend</text>
<polygon fill="#ffffb3" stroke="transparent" points="611,-10 611,-30 631,-30 631,-10 611,-10"/>
<text text-anchor="start" x="634.629" y="-15.4" font-family="sans-serif" font-size="14.00" fill="#000000"> &#160;Declarations</text>
<polygon fill="#8dd3c7" stroke="transparent" points="724,-10 724,-30 744,-30 744,-10 724,-10"/>
<text text-anchor="start" x="747.7251" y="-15.4" font-family="sans-serif" font-size="14.00" fill="#000000"> &#160;Module</text>
<polygon fill="#80b1d3" stroke="transparent" points="810,-10 810,-30 830,-30 830,-10 810,-10"/>
<text text-anchor="start" x="833.7812" y="-15.4" font-family="sans-serif" font-size="14.00" fill="#000000"> &#160;Bootstrap</text>
<polygon fill="#fdb462" stroke="transparent" points="907,-10 907,-30 927,-30 927,-10 907,-10"/>
<text text-anchor="start" x="930.6732" y="-15.4" font-family="sans-serif" font-size="14.00" fill="#000000"> &#160;Providers</text>
<polygon fill="#fb8072" stroke="transparent" points="1003,-10 1003,-30 1023,-30 1023,-10 1003,-10"/>
<text text-anchor="start" x="1026.7258" y="-15.4" font-family="sans-serif" font-size="14.00" fill="#000000"> &#160;Exports</text>
<g id="clust1" class="cluster">
<title>cluster_TrayModule</title>
<polygon fill="none" stroke="#000000" stroke-dasharray="1,5" points="8,-70 8,-195 1682,-195 1682,-70 8,-70"/>
</g>
<g id="clust2" class="cluster">
<title>cluster_TrayModule_declarations</title>
<polygon fill="none" stroke="#000000" points="688,-78 688,-130 1674,-130 1674,-78 688,-78"/>
</g>
<g id="clust10" class="cluster">
<title>cluster_TrayModule_imports</title>
<polygon fill="none" stroke="#000000" points="198,-78 198,-130 680,-130 680,-78 198,-78"/>
</g>
<g id="clust13" class="cluster">
<title>cluster_TrayModule_providers</title>
<polygon fill="none" stroke="#000000" points="16,-78 16,-130 190,-130 190,-78 16,-78"/>
</g>
<!-- InboxComponent -->
<g id="node1" class="node">
<title>InboxComponent</title>
<polygon fill="#ffffb3" stroke="#000000" points="1665.993,-122 1552.007,-122 1552.007,-86 1665.993,-86 1665.993,-122"/>
<text text-anchor="middle" x="1609" y="-99.8" font-family="Times,serif" font-size="14.00" fill="#000000">InboxComponent</text>
</g>
<!-- TrayModule -->
<g id="node8" class="node">
<title>TrayModule</title>
<polygon fill="#8dd3c7" stroke="#000000" points="932.9776,-187 929.9776,-191 908.9776,-191 905.9776,-187 847.0224,-187 847.0224,-151 932.9776,-151 932.9776,-187"/>
<text text-anchor="middle" x="890" y="-164.8" font-family="Times,serif" font-size="14.00" fill="#000000">TrayModule</text>
</g>
<!-- InboxComponent&#45;&gt;TrayModule -->
<g id="edge1" class="edge">
<title>InboxComponent&#45;&gt;TrayModule</title>
<path fill="none" stroke="#000000" d="M1609,-122.0908C1609,-145.1328 1609,-182 1609,-182 1609,-182 943.0901,-182 943.0901,-182"/>
<polygon fill="#000000" stroke="#000000" points="943.0902,-178.5001 933.0901,-182 943.0901,-185.5001 943.0902,-178.5001"/>
</g>
<!-- OutboxComponent -->
<g id="node2" class="node">
<title>OutboxComponent</title>
<polygon fill="#ffffb3" stroke="#000000" points="1533.83,-122 1410.17,-122 1410.17,-86 1533.83,-86 1533.83,-122"/>
<text text-anchor="middle" x="1472" y="-99.8" font-family="Times,serif" font-size="14.00" fill="#000000">OutboxComponent</text>
</g>
<!-- OutboxComponent&#45;&gt;TrayModule -->
<g id="edge2" class="edge">
<title>OutboxComponent&#45;&gt;TrayModule</title>
<path fill="none" stroke="#000000" d="M1472,-122.2843C1472,-143.3211 1472,-175 1472,-175 1472,-175 943.2691,-175 943.2691,-175"/>
<polygon fill="#000000" stroke="#000000" points="943.2691,-171.5001 933.2691,-175 943.2691,-178.5001 943.2691,-171.5001"/>
</g>
<!-- DraftComponent -->
<g id="node3" class="node">
<title>DraftComponent</title>
<polygon fill="#ffffb3" stroke="#000000" points="1392.3655,-122 1281.6345,-122 1281.6345,-86 1392.3655,-86 1392.3655,-122"/>
<text text-anchor="middle" x="1337" y="-99.8" font-family="Times,serif" font-size="14.00" fill="#000000">DraftComponent</text>
</g>
<!-- DraftComponent&#45;&gt;TrayModule -->
<g id="edge3" class="edge">
<title>DraftComponent&#45;&gt;TrayModule</title>
<path fill="none" stroke="#000000" d="M1337,-122.1061C1337,-141.3391 1337,-169 1337,-169 1337,-169 943.2664,-169 943.2664,-169"/>
<polygon fill="#000000" stroke="#000000" points="943.2664,-165.5001 933.2664,-169 943.2664,-172.5001 943.2664,-165.5001"/>
</g>
<!-- InProgressComponent -->
<g id="node4" class="node">
<title>InProgressComponent</title>
<polygon fill="#ffffb3" stroke="#000000" points="1263.7007,-122 1122.2993,-122 1122.2993,-86 1263.7007,-86 1263.7007,-122"/>
<text text-anchor="middle" x="1193" y="-99.8" font-family="Times,serif" font-size="14.00" fill="#000000">InProgressComponent</text>
</g>
<!-- InProgressComponent&#45;&gt;TrayModule -->
<g id="edge4" class="edge">
<title>InProgressComponent&#45;&gt;TrayModule</title>
<path fill="none" stroke="#000000" d="M1193,-122.0225C1193,-139.3734 1193,-163 1193,-163 1193,-163 943.0907,-163 943.0907,-163"/>
<polygon fill="#000000" stroke="#000000" points="943.0908,-159.5001 933.0907,-163 943.0907,-166.5001 943.0908,-159.5001"/>
</g>
<!-- CompletedComponent -->
<g id="node5" class="node">
<title>CompletedComponent</title>
<polygon fill="#ffffb3" stroke="#000000" points="1104.2702,-122 961.7298,-122 961.7298,-86 1104.2702,-86 1104.2702,-122"/>
<text text-anchor="middle" x="1033" y="-99.8" font-family="Times,serif" font-size="14.00" fill="#000000">CompletedComponent</text>
</g>
<!-- CompletedComponent&#45;&gt;TrayModule -->
<g id="edge5" class="edge">
<title>CompletedComponent&#45;&gt;TrayModule</title>
<path fill="none" stroke="#000000" d="M1033,-122.2396C1033,-137.5706 1033,-157 1033,-157 1033,-157 943.2928,-157 943.2928,-157"/>
<polygon fill="#000000" stroke="#000000" points="943.2928,-153.5001 933.2928,-157 943.2927,-160.5001 943.2928,-153.5001"/>
</g>
<!-- TrayComponent -->
<g id="node6" class="node">
<title>TrayComponent</title>
<polygon fill="#ffffb3" stroke="#000000" points="943.7605,-122 836.2395,-122 836.2395,-86 943.7605,-86 943.7605,-122"/>
<text text-anchor="middle" x="890" y="-99.8" font-family="Times,serif" font-size="14.00" fill="#000000">TrayComponent</text>
</g>
<!-- TrayComponent&#45;&gt;TrayModule -->
<g id="edge6" class="edge">
<title>TrayComponent&#45;&gt;TrayModule</title>
<path fill="none" stroke="#000000" d="M890,-122.1061C890,-122.1061 890,-140.991 890,-140.991"/>
<polygon fill="#000000" stroke="#000000" points="886.5001,-140.9909 890,-150.991 893.5001,-140.991 886.5001,-140.9909"/>
</g>
<!-- Tray00Component -->
<g id="node7" class="node">
<title>Tray00Component</title>
<polygon fill="#ffffb3" stroke="#000000" points="817.7604,-122 696.2396,-122 696.2396,-86 817.7604,-86 817.7604,-122"/>
<text text-anchor="middle" x="757" y="-99.8" font-family="Times,serif" font-size="14.00" fill="#000000">Tray00Component</text>
</g>
<!-- Tray00Component&#45;&gt;TrayModule -->
<g id="edge7" class="edge">
<title>Tray00Component&#45;&gt;TrayModule</title>
<path fill="none" stroke="#000000" d="M757,-122.2396C757,-137.5706 757,-157 757,-157 757,-157 836.8187,-157 836.8187,-157"/>
<polygon fill="#000000" stroke="#000000" points="836.8187,-160.5001 846.8187,-157 836.8187,-153.5001 836.8187,-160.5001"/>
</g>
<!-- HNavBoardModule -->
<g id="node9" class="node">
<title>HNavBoardModule</title>
<polygon fill="#8dd3c7" stroke="#000000" points="671.6895,-122 668.6895,-126 647.6895,-126 644.6895,-122 544.3105,-122 544.3105,-86 671.6895,-86 671.6895,-122"/>
<text text-anchor="middle" x="608" y="-99.8" font-family="Times,serif" font-size="14.00" fill="#000000">HNavBoardModule</text>
</g>
<!-- HNavBoardModule&#45;&gt;TrayModule -->
<g id="edge8" class="edge">
<title>HNavBoardModule&#45;&gt;TrayModule</title>
<path fill="none" stroke="#000000" d="M608,-122.0225C608,-139.3734 608,-163 608,-163 608,-163 836.8633,-163 836.8633,-163"/>
<polygon fill="#000000" stroke="#000000" points="836.8633,-166.5001 846.8633,-163 836.8633,-159.5001 836.8633,-166.5001"/>
</g>
<!-- HDataTableByTrayModule -->
<g id="node10" class="node">
<title>HDataTableByTrayModule</title>
<polygon fill="#8dd3c7" stroke="#000000" points="526.2198,-122 523.2198,-126 502.2198,-126 499.2198,-122 355.7802,-122 355.7802,-86 526.2198,-86 526.2198,-122"/>
<text text-anchor="middle" x="441" y="-99.8" font-family="Times,serif" font-size="14.00" fill="#000000">HDataTableByTrayModule</text>
</g>
<!-- HDataTableByTrayModule&#45;&gt;TrayModule -->
<g id="edge9" class="edge">
<title>HDataTableByTrayModule&#45;&gt;TrayModule</title>
<path fill="none" stroke="#000000" d="M441,-122.1061C441,-141.3391 441,-169 441,-169 441,-169 836.948,-169 836.948,-169"/>
<polygon fill="#000000" stroke="#000000" points="836.948,-172.5001 846.948,-169 836.948,-165.5001 836.948,-172.5001"/>
</g>
<!-- TrayRoutingModule -->
<g id="node11" class="node">
<title>TrayRoutingModule</title>
<polygon fill="#8dd3c7" stroke="#000000" points="337.5954,-122 334.5954,-126 313.5954,-126 310.5954,-122 206.4046,-122 206.4046,-86 337.5954,-86 337.5954,-122"/>
<text text-anchor="middle" x="272" y="-99.8" font-family="Times,serif" font-size="14.00" fill="#000000">TrayRoutingModule</text>
</g>
<!-- TrayRoutingModule&#45;&gt;TrayModule -->
<g id="edge10" class="edge">
<title>TrayRoutingModule&#45;&gt;TrayModule</title>
<path fill="none" stroke="#000000" d="M272,-122.2843C272,-143.3211 272,-175 272,-175 272,-175 836.5434,-175 836.5434,-175"/>
<polygon fill="#000000" stroke="#000000" points="836.5435,-178.5001 846.5434,-175 836.5434,-171.5001 836.5435,-178.5001"/>
</g>
<!-- RequestsServices -->
<g id="node12" class="node">
<title>RequestsServices</title>
<ellipse fill="#fdb462" stroke="#000000" cx="103" cy="-104" rx="78.726" ry="18"/>
<text text-anchor="middle" x="103" y="-99.8" font-family="Times,serif" font-size="14.00" fill="#000000">RequestsServices</text>
</g>
<!-- RequestsServices&#45;&gt;TrayModule -->
<g id="edge11" class="edge">
<title>RequestsServices&#45;&gt;TrayModule</title>
<path fill="none" stroke="#000000" d="M103,-122.0908C103,-145.1328 103,-182 103,-182 103,-182 836.8479,-182 836.8479,-182"/>
<polygon fill="#000000" stroke="#000000" points="836.8479,-185.5001 846.8479,-182 836.8479,-178.5001 836.8479,-185.5001"/>
</g>
</g>
</svg>
