<?xml version="1.0" encoding="UTF-8" standalone="no"?>
<!DOCTYPE svg PUBLIC "-//W3C//DTD SVG 1.1//EN"
 "http://www.w3.org/Graphics/SVG/1.1/DTD/svg11.dtd">
<!-- Generated by graphviz version 2.40.1 (20161225.0304)
 -->
<!-- Title: dependencies Pages: 1 -->
<svg width="712pt" height="211pt"
 viewBox="0.00 0.00 712.00 211.00" xmlns="http://www.w3.org/2000/svg" xmlns:xlink="http://www.w3.org/1999/xlink">
<g id="graph0" class="graph" transform="scale(1 1) rotate(0) translate(4 207)">
<title>dependencies</title>
<polygon fill="#ffffff" stroke="transparent" points="-4,4 -4,-207 708,-207 708,4 -4,4"/>
<text text-anchor="start" x="331.0091" y="-42.4" font-family="sans-serif" font-weight="bold" font-size="14.00" fill="#000000">Legend</text>
<polygon fill="#ffffb3" stroke="transparent" points="118,-10 118,-30 138,-30 138,-10 118,-10"/>
<text text-anchor="start" x="141.629" y="-15.4" font-family="sans-serif" font-size="14.00" fill="#000000"> &#160;Declarations</text>
<polygon fill="#8dd3c7" stroke="transparent" points="231,-10 231,-30 251,-30 251,-10 231,-10"/>
<text text-anchor="start" x="254.7251" y="-15.4" font-family="sans-serif" font-size="14.00" fill="#000000"> &#160;Module</text>
<polygon fill="#80b1d3" stroke="transparent" points="317,-10 317,-30 337,-30 337,-10 317,-10"/>
<text text-anchor="start" x="340.7812" y="-15.4" font-family="sans-serif" font-size="14.00" fill="#000000"> &#160;Bootstrap</text>
<polygon fill="#fdb462" stroke="transparent" points="414,-10 414,-30 434,-30 434,-10 414,-10"/>
<text text-anchor="start" x="437.6732" y="-15.4" font-family="sans-serif" font-size="14.00" fill="#000000"> &#160;Providers</text>
<polygon fill="#fb8072" stroke="transparent" points="510,-10 510,-30 530,-30 530,-10 510,-10"/>
<text text-anchor="start" x="533.7258" y="-15.4" font-family="sans-serif" font-size="14.00" fill="#000000"> &#160;Exports</text>
<g id="clust1" class="cluster">
<title>cluster_GkCln5xModule</title>
<polygon fill="none" stroke="#000000" stroke-dasharray="1,5" points="8,-70 8,-195 696,-195 696,-70 8,-70"/>
</g>
<g id="clust2" class="cluster">
<title>cluster_GkCln5xModule_declarations</title>
<polygon fill="none" stroke="#000000" points="540,-78 540,-130 688,-130 688,-78 540,-78"/>
</g>
<g id="clust4" class="cluster">
<title>cluster_GkCln5xModule_imports</title>
<polygon fill="none" stroke="#000000" points="206,-78 206,-130 532,-130 532,-78 206,-78"/>
</g>
<g id="clust7" class="cluster">
<title>cluster_GkCln5xModule_providers</title>
<polygon fill="none" stroke="#000000" points="16,-78 16,-130 198,-130 198,-78 16,-78"/>
</g>
<!-- GkCln5xComponent -->
<g id="node1" class="node">
<title>GkCln5xComponent</title>
<polygon fill="#ffffb3" stroke="#000000" points="680.1666,-122 547.8334,-122 547.8334,-86 680.1666,-86 680.1666,-122"/>
<text text-anchor="middle" x="614" y="-99.8" font-family="Times,serif" font-size="14.00" fill="#000000">GkCln5xComponent</text>
</g>
<!-- GkCln5xModule -->
<g id="node2" class="node">
<title>GkCln5xModule</title>
<polygon fill="#8dd3c7" stroke="#000000" points="429.3837,-187 426.3837,-191 405.3837,-191 402.3837,-187 318.6163,-187 318.6163,-151 429.3837,-151 429.3837,-187"/>
<text text-anchor="middle" x="374" y="-164.8" font-family="Times,serif" font-size="14.00" fill="#000000">GkCln5xModule</text>
</g>
<!-- GkCln5xComponent&#45;&gt;GkCln5xModule -->
<g id="edge1" class="edge">
<title>GkCln5xComponent&#45;&gt;GkCln5xModule</title>
<path fill="none" stroke="#000000" d="M614,-122.1061C614,-141.3391 614,-169 614,-169 614,-169 439.6641,-169 439.6641,-169"/>
<polygon fill="#000000" stroke="#000000" points="439.6641,-165.5001 429.6641,-169 439.664,-172.5001 439.6641,-165.5001"/>
</g>
<!-- HTurboTableModule -->
<g id="node3" class="node">
<title>HTurboTableModule</title>
<polygon fill="#8dd3c7" stroke="#000000" points="523.7422,-122 520.7422,-126 499.7422,-126 496.7422,-122 388.2578,-122 388.2578,-86 523.7422,-86 523.7422,-122"/>
<text text-anchor="middle" x="456" y="-99.8" font-family="Times,serif" font-size="14.00" fill="#000000">HTurboTableModule</text>
</g>
<!-- HTurboTableModule&#45;&gt;GkCln5xModule -->
<g id="edge2" class="edge">
<title>HTurboTableModule&#45;&gt;GkCln5xModule</title>
<path fill="none" stroke="#000000" d="M408.7854,-122.1061C408.7854,-122.1061 408.7854,-140.991 408.7854,-140.991"/>
<polygon fill="#000000" stroke="#000000" points="405.2855,-140.9909 408.7854,-150.991 412.2855,-140.991 405.2855,-140.9909"/>
</g>
<!-- GkCln5xRoutingModule -->
<g id="node4" class="node">
<title>GkCln5xRoutingModule</title>
<polygon fill="#8dd3c7" stroke="#000000" points="370.0014,-122 367.0014,-126 346.0014,-126 343.0014,-122 213.9986,-122 213.9986,-86 370.0014,-86 370.0014,-122"/>
<text text-anchor="middle" x="292" y="-99.8" font-family="Times,serif" font-size="14.00" fill="#000000">GkCln5xRoutingModule</text>
</g>
<!-- GkCln5xRoutingModule&#45;&gt;GkCln5xModule -->
<g id="edge3" class="edge">
<title>GkCln5xRoutingModule&#45;&gt;GkCln5xModule</title>
<path fill="none" stroke="#000000" d="M344.2795,-122.1061C344.2795,-122.1061 344.2795,-140.991 344.2795,-140.991"/>
<polygon fill="#000000" stroke="#000000" points="340.7795,-140.9909 344.2795,-150.991 347.7795,-140.991 340.7795,-140.9909"/>
</g>
<!-- GkClientsServices -->
<g id="node5" class="node">
<title>GkClientsServices</title>
<ellipse fill="#fdb462" stroke="#000000" cx="107" cy="-104" rx="82.8187" ry="18"/>
<text text-anchor="middle" x="107" y="-99.8" font-family="Times,serif" font-size="14.00" fill="#000000">GkClientsServices</text>
</g>
<!-- GkClientsServices&#45;&gt;GkCln5xModule -->
<g id="edge4" class="edge">
<title>GkClientsServices&#45;&gt;GkCln5xModule</title>
<path fill="none" stroke="#000000" d="M107,-122.1061C107,-141.3391 107,-169 107,-169 107,-169 308.3531,-169 308.3531,-169"/>
<polygon fill="#000000" stroke="#000000" points="308.3531,-172.5001 318.3531,-169 308.353,-165.5001 308.3531,-172.5001"/>
</g>
</g>
</svg>
