<?xml version="1.0" encoding="UTF-8" standalone="no"?>
<!DOCTYPE svg PUBLIC "-//W3C//DTD SVG 1.1//EN"
 "http://www.w3.org/Graphics/SVG/1.1/DTD/svg11.dtd">
<!-- Generated by graphviz version 2.40.1 (20161225.0304)
 -->
<!-- Title: dependencies Pages: 1 -->
<svg width="528pt" height="211pt"
 viewBox="0.00 0.00 528.00 211.00" xmlns="http://www.w3.org/2000/svg" xmlns:xlink="http://www.w3.org/1999/xlink">
<g id="graph0" class="graph" transform="scale(1 1) rotate(0) translate(4 207)">
<title>dependencies</title>
<polygon fill="#ffffff" stroke="transparent" points="-4,4 -4,-207 524,-207 524,4 -4,4"/>
<text text-anchor="start" x="239.0091" y="-42.4" font-family="sans-serif" font-weight="bold" font-size="14.00" fill="#000000">Legend</text>
<polygon fill="#ffffb3" stroke="transparent" points="26,-10 26,-30 46,-30 46,-10 26,-10"/>
<text text-anchor="start" x="49.629" y="-15.4" font-family="sans-serif" font-size="14.00" fill="#000000"> &#160;Declarations</text>
<polygon fill="#8dd3c7" stroke="transparent" points="139,-10 139,-30 159,-30 159,-10 139,-10"/>
<text text-anchor="start" x="162.7251" y="-15.4" font-family="sans-serif" font-size="14.00" fill="#000000"> &#160;Module</text>
<polygon fill="#80b1d3" stroke="transparent" points="225,-10 225,-30 245,-30 245,-10 225,-10"/>
<text text-anchor="start" x="248.7812" y="-15.4" font-family="sans-serif" font-size="14.00" fill="#000000"> &#160;Bootstrap</text>
<polygon fill="#fdb462" stroke="transparent" points="322,-10 322,-30 342,-30 342,-10 322,-10"/>
<text text-anchor="start" x="345.6732" y="-15.4" font-family="sans-serif" font-size="14.00" fill="#000000"> &#160;Providers</text>
<polygon fill="#fb8072" stroke="transparent" points="418,-10 418,-30 438,-30 438,-10 418,-10"/>
<text text-anchor="start" x="441.7258" y="-15.4" font-family="sans-serif" font-size="14.00" fill="#000000"> &#160;Exports</text>
<g id="clust1" class="cluster">
<title>cluster_DownloadModule</title>
<polygon fill="none" stroke="#000000" stroke-dasharray="1,5" points="8,-70 8,-195 512,-195 512,-70 8,-70"/>
</g>
<g id="clust2" class="cluster">
<title>cluster_DownloadModule_declarations</title>
<polygon fill="none" stroke="#000000" points="348,-78 348,-130 504,-130 504,-78 348,-78"/>
</g>
<g id="clust4" class="cluster">
<title>cluster_DownloadModule_imports</title>
<polygon fill="none" stroke="#000000" points="16,-78 16,-130 340,-130 340,-78 16,-78"/>
</g>
<!-- DownloadComponent -->
<g id="node1" class="node">
<title>DownloadComponent</title>
<polygon fill="#ffffb3" stroke="#000000" points="495.6512,-122 356.3488,-122 356.3488,-86 495.6512,-86 495.6512,-122"/>
<text text-anchor="middle" x="426" y="-99.8" font-family="Times,serif" font-size="14.00" fill="#000000">DownloadComponent</text>
</g>
<!-- DownloadModule -->
<g id="node2" class="node">
<title>DownloadModule</title>
<polygon fill="#8dd3c7" stroke="#000000" points="326.8683,-187 323.8683,-191 302.8683,-191 299.8683,-187 209.1317,-187 209.1317,-151 326.8683,-151 326.8683,-187"/>
<text text-anchor="middle" x="268" y="-164.8" font-family="Times,serif" font-size="14.00" fill="#000000">DownloadModule</text>
</g>
<!-- DownloadComponent&#45;&gt;DownloadModule -->
<g id="edge1" class="edge">
<title>DownloadComponent&#45;&gt;DownloadModule</title>
<path fill="none" stroke="#000000" d="M426,-122.1061C426,-141.3391 426,-169 426,-169 426,-169 337.2829,-169 337.2829,-169"/>
<polygon fill="#000000" stroke="#000000" points="337.2829,-165.5001 327.2829,-169 337.2829,-172.5001 337.2829,-165.5001"/>
</g>
<!-- HLeadFormModule -->
<g id="node3" class="node">
<title>HLeadFormModule</title>
<polygon fill="#8dd3c7" stroke="#000000" points="331.972,-122 328.972,-126 307.972,-126 304.972,-122 204.028,-122 204.028,-86 331.972,-86 331.972,-122"/>
<text text-anchor="middle" x="268" y="-99.8" font-family="Times,serif" font-size="14.00" fill="#000000">HLeadFormModule</text>
</g>
<!-- HLeadFormModule&#45;&gt;DownloadModule -->
<g id="edge2" class="edge">
<title>HLeadFormModule&#45;&gt;DownloadModule</title>
<path fill="none" stroke="#000000" d="M268,-122.1061C268,-122.1061 268,-140.991 268,-140.991"/>
<polygon fill="#000000" stroke="#000000" points="264.5001,-140.9909 268,-150.991 271.5001,-140.991 264.5001,-140.9909"/>
</g>
<!-- DownloadRoutingModule -->
<g id="node4" class="node">
<title>DownloadRoutingModule</title>
<polygon fill="#8dd3c7" stroke="#000000" points="186.486,-122 183.486,-126 162.486,-126 159.486,-122 23.514,-122 23.514,-86 186.486,-86 186.486,-122"/>
<text text-anchor="middle" x="105" y="-99.8" font-family="Times,serif" font-size="14.00" fill="#000000">DownloadRoutingModule</text>
</g>
<!-- DownloadRoutingModule&#45;&gt;DownloadModule -->
<g id="edge3" class="edge">
<title>DownloadRoutingModule&#45;&gt;DownloadModule</title>
<path fill="none" stroke="#000000" d="M105,-122.1061C105,-141.3391 105,-169 105,-169 105,-169 198.6922,-169 198.6922,-169"/>
<polygon fill="#000000" stroke="#000000" points="198.6922,-172.5001 208.6922,-169 198.6921,-165.5001 198.6922,-172.5001"/>
</g>
</g>
</svg>
